M48
METRIC,LZ,000.000
;FILE_FORMAT=3:3
;TYPE=PLATED
;Layer: PTH_Through
;EasyEDA v6.5.22, 2022-12-05 14:56:37
;05bf86c157214e56ba330cf237c0dbe7,b19d526b7a914c21af0811b40d406c84,10
;Gerber Generator version 0.2
;Holesize 1 = 0.701 mm
T01C0.701
;Holesize 2 = 0.889 mm
T02C0.889
;Holesize 3 = 1.000 mm
T03C1.000
;Holesize 4 = 1.101 mm
T04C1.101
;Holesize 5 = 1.301 mm
T05C1.301
;Holesize 6 = 1.351 mm
T06C1.351
;Holesize 7 = 1.600 mm
T07C1.600
%
G05
G90
T01
X154684Y031113
X154684Y027049
X154684Y029081
X154684Y033145
X154684Y035177
X151093Y068959G85X150093Y068959
X151093Y077599G85X150093Y077599
X155123Y077599G85X154423Y077599
X155123Y068959G85X154423Y068959
T02
X034798Y068707
X032258Y068707
X035052Y043815
X035052Y046355
X034798Y064262
X032258Y064262
X123444Y056769
X125984Y056769
X126492Y006350
X129032Y006350
X139573Y078867
X139573Y081407
X103251Y076581
X100711Y076581
T03
X155408Y043414
X155408Y047914
X155408Y054209
X155408Y058709
T04
X034737Y059055G85X036637Y059055
X034737Y051555G85X036637Y051555
X034737Y081280G85X036637Y081280
X034737Y073780G85X036637Y073780
T05
X152908Y042164
X152908Y049164
X152908Y052959
X152908Y059959
T06
X086614Y006435
X086614Y078655
X031987Y054480G85X031987Y056130
X031987Y076705G85X031987Y078355
T07
X153414Y024509
X153414Y037717
M30
