M48
METRIC,LZ,000.000
;FILE_FORMAT=3:3
;TYPE=PLATED
;Layer: PTH_Through_Via
;EasyEDA v6.5.22, 2022-12-05 14:56:37
;05bf86c157214e56ba330cf237c0dbe7,b19d526b7a914c21af0811b40d406c84,10
;Gerber Generator version 0.2
;Holesize 1 = 0.301 mm
T01C0.301
%
G05
G90
T01
X057404Y072136
X058801Y072136
X061087Y065532
X067818Y059690
X065405Y059563
X045339Y069469
X047752Y062230
X047752Y076962
X051054Y043434
X061595Y046228
X062992Y040513
X061595Y044958
X061722Y030480
X049657Y017780
X062738Y025400
X063627Y017907
X068453Y021463
X057912Y021971
X057404Y029718
X061849Y005207
X061849Y007112
X068453Y026289
X053467Y027686
X058420Y027940
X052578Y026416
X133821Y072746
X124841Y071882
X148590Y070866
X145034Y062230
X148590Y069342
X148844Y077089
X133477Y067818
X133477Y070104
X148590Y074549
X112141Y066167
X112141Y066167
X117729Y081915
X117983Y061087
X105918Y067945
X105918Y063881
X112522Y068961
X109728Y065405
X110744Y065405
X110744Y064389
X109728Y064389
X110236Y064897
X129667Y044323
X116840Y051308
X144399Y009017
X067818Y077851
X056007Y057277
X058674Y052705
X062357Y056388
X102108Y068961
X108458Y057277
X104013Y057912
X127508Y076962
X107823Y005715
X114554Y010033
X118618Y017526
X129032Y008255
X127889Y009017
X117602Y016510
X141605Y064008
X098806Y019558
X098552Y025654
X114301Y039370
X130937Y026162
X122556Y036576
X123953Y036576
X124715Y035814
X123318Y035814
X121921Y035814
X121921Y034417
X123318Y034417
X124715Y034417
X123953Y035179
X122556Y035179
X122556Y033782
X123953Y033782
X147320Y046609
X147447Y033782
X147447Y028067
X147447Y039370
X130923Y044490
X131191Y047879
X127000Y047625
X130175Y055245
X135763Y012954
X145669Y014605
X132842Y014732
X138049Y016256
X136271Y006096
X124333Y002286
X112903Y004953
X099060Y052324
X124587Y060452
X127127Y026416
X129159Y029337
X127762Y060452
X128270Y027940
X126111Y059944
X121539Y064770
X124587Y044196
X123317Y044196
X122047Y044196
X118237Y036195
X110490Y007620
X134874Y060198
X126873Y067183
X147193Y054483
X107950Y030734
X107061Y067183
X132207Y079375
X132207Y081026
X154051Y004953
X153797Y002413
X069596Y020193
X061722Y018923
X115951Y037592
X117094Y027432
X093980Y029337
X093980Y027178
X069977Y018796
X092202Y030099
X116840Y028829
X113157Y008890
X116840Y035814
X145923Y016764
X039116Y079502
X039116Y072390
X039116Y077325
X039116Y074912
X039171Y083709
X040674Y083709
X043188Y083709
X045754Y083709
X048268Y083709
X048268Y083709
X050834Y083709
X053323Y083709
X055888Y083709
X058454Y083709
X060994Y083709
X063534Y083709
X066048Y083709
X068563Y083709
X070696Y083709
X072771Y083709
X072771Y081208
X072771Y078621
X072771Y076081
X072771Y073447
X072771Y071048
X072771Y067310
X072771Y069261
X072771Y056261
X072771Y054632
X072771Y052516
X072771Y050446
X072771Y048030
X072771Y045659
X072771Y042983
X072771Y040511
X072771Y038005
X072771Y033909
X070830Y033909
X068570Y033909
X066081Y033909
X063617Y033909
X060848Y033909
X058486Y033909
X055870Y033909
X053330Y033909
X050817Y033909
X048226Y033909
X045712Y033909
X043121Y033909
X041089Y033909
X039171Y033909
X039171Y036648
X039171Y038579
X039171Y040407
X039171Y042287
X039171Y044323
X039116Y048641
X039116Y050800
X039116Y052959
X039116Y057023
X039116Y054991
X039116Y069469
X039116Y066675
X039116Y064008
X039116Y061087
X079883Y059690
X073660Y065659
X075692Y063881
X077724Y061722
X081280Y030480
X079248Y030480
X077216Y030480
X065024Y001397
X067183Y001397
X077216Y067564
X080010Y067437
X086614Y004699
X084836Y006477
X088392Y006477
X081534Y068199
X075235Y054331
X075235Y052331
X075235Y050331
X075235Y048331
X075235Y046331
X075235Y044331
X075235Y042331
X075235Y040331
X075235Y038331
X075235Y036331
X075235Y034331
X075235Y032331
X075235Y030331
X077235Y052331
X077235Y050331
X077235Y048331
X077235Y046331
X077235Y044331
X077235Y042331
X077235Y040331
X077235Y038331
X077235Y036331
X077235Y034331
X077235Y032331
X079235Y050331
X079235Y048331
X079235Y046331
X079235Y044331
X079235Y042331
X079235Y040331
X079235Y038331
X079235Y036331
X079235Y034331
X079235Y032331
X081235Y048331
X081235Y046331
X081235Y044331
X081235Y042331
X081235Y040331
X081235Y038331
X081235Y036331
X081235Y034331
X081235Y032331
X029303Y083854
X029303Y081854
X029303Y079854
X029303Y077854
X029303Y075854
X029303Y073854
X029303Y071854
X029303Y069854
X029303Y067854
X029303Y065854
X029303Y063854
X029303Y061854
X029303Y059854
X029303Y057854
X029303Y055854
X029303Y053854
X029303Y051854
X029303Y049854
X029303Y047854
X029303Y045854
X029303Y043854
X029303Y041854
X029303Y039854
X029303Y037854
X029303Y035854
X029303Y033854
X029303Y031854
X029303Y029854
X031303Y083854
X031303Y033854
X031303Y031854
X031303Y029854
X031303Y027854
X033303Y083854
X033303Y031854
X033303Y029854
X033303Y027854
X033303Y025854
X035303Y083854
X035303Y029854
X035303Y027854
X035303Y025854
X035303Y023854
X037303Y083854
X037303Y027854
X037303Y025854
X037303Y023854
X037303Y021854
X039303Y025854
X039303Y023854
X039303Y021854
X039303Y019854
X039303Y017854
X039303Y015854
X039303Y013854
X039303Y011854
X039303Y009854
X039303Y007854
X039303Y005854
X039303Y003854
X039303Y001854
X041303Y025854
X041303Y023854
X041303Y021854
X041303Y019854
X041303Y017854
X041303Y015854
X041303Y013854
X041303Y011854
X041303Y009854
X041303Y007854
X041303Y005854
X041303Y003854
X041303Y001854
X043303Y025854
X043303Y023854
X043303Y021854
X043303Y019854
X043303Y017854
X043303Y015854
X043303Y013854
X043303Y011854
X043303Y009854
X043303Y007854
X043303Y005854
X043303Y003854
X043303Y001854
X075303Y083854
X075303Y081854
X075303Y079854
X075303Y077854
X075303Y075854
X075303Y073854
X075303Y071854
X075303Y069854
X075303Y067854
X075303Y065854
X075303Y005854
X075303Y003854
X075303Y001854
X077303Y083854
X077303Y081854
X077303Y079854
X077303Y077854
X077303Y075854
X077303Y073854
X077303Y065854
X077303Y063854
X077303Y005854
X077303Y003854
X077303Y001854
X079303Y083854
X079303Y081854
X079303Y079854
X079303Y077854
X079303Y075854
X079303Y073854
X079303Y065854
X079303Y063854
X079303Y061854
X079303Y007854
X079303Y005854
X079303Y003854
X079303Y001854
X045303Y001854
X047303Y001854
X049303Y001854
X051303Y001854
X053303Y001854
X055303Y001854
X057303Y001854
X059303Y001854
X061303Y001854
X063303Y001854
X069303Y001854
X071303Y001854
X073303Y001854
X074891Y025673
X074891Y023673
X074891Y021673
X074891Y019673
X074891Y017673
X074891Y015673
X074891Y013673
X076891Y025673
X076891Y023673
X076891Y021673
X076891Y019673
X076891Y017673
X076891Y015673
X076891Y013673
X078891Y025673
X078891Y023673
X078891Y021673
X078891Y019673
X078891Y017673
X078891Y015673
X078891Y013673
X080891Y025673
X080891Y023673
X080891Y021673
X080891Y019673
X080891Y017673
X080891Y015673
X080891Y013673
X045303Y001854
X047303Y001854
X049303Y001854
X051303Y001854
X053303Y001854
X055303Y001854
X057303Y001854
X059303Y001854
X061303Y001854
X063303Y001854
X069303Y001854
X071303Y001854
X073303Y001854
X075303Y007854
X077303Y007854
X074891Y025673
X074891Y023673
X074891Y021673
X074891Y019673
X074891Y017673
X074891Y015673
X074891Y013673
X076891Y025673
X076891Y023673
X076891Y021673
X076891Y019673
X076891Y017673
X076891Y015673
X076891Y013673
X078891Y025673
X078891Y023673
X078891Y021673
X078891Y019673
X078891Y017673
X078891Y015673
X078891Y013673
X080891Y025673
X080891Y023673
X080891Y021673
X080891Y019673
X080891Y017673
X080891Y015673
X080891Y013673
X045303Y001854
X047303Y001854
X049303Y001854
X051303Y001854
X053303Y001854
X055303Y001854
X057303Y001854
X059303Y001854
X061303Y001854
X063303Y001854
X069303Y001854
X071303Y001854
X073303Y001854
X075303Y007854
X077303Y007854
X074891Y025673
X074891Y023673
X074891Y021673
X074891Y019673
X074891Y017673
X074891Y015673
X074891Y013673
X076891Y025673
X076891Y023673
X076891Y021673
X076891Y019673
X076891Y017673
X076891Y015673
X076891Y013673
X078891Y025673
X078891Y023673
X078891Y021673
X078891Y019673
X078891Y017673
X078891Y015673
X078891Y013673
X080891Y025673
X080891Y023673
X080891Y021673
X080891Y019673
X080891Y017673
X080891Y015673
X080891Y013673
X039303Y027854
X041303Y027854
X043303Y027854
X045303Y001854
X047303Y001854
X049303Y001854
X051303Y001854
X053303Y001854
X055303Y001854
X057303Y001854
X059303Y001854
X061303Y001854
X063303Y001854
X069303Y001854
X071303Y001854
X073303Y001854
X075303Y007854
X077303Y007854
X074891Y025673
X074891Y023673
X074891Y021673
X074891Y019673
X074891Y017673
X074891Y015673
X074891Y013673
X076891Y025673
X076891Y023673
X076891Y021673
X076891Y019673
X076891Y017673
X076891Y015673
X076891Y013673
X078891Y025673
X078891Y023673
X078891Y021673
X078891Y019673
X078891Y017673
X078891Y015673
X078891Y013673
X080891Y025673
X080891Y023673
X080891Y021673
X080891Y019673
X080891Y017673
X080891Y015673
X080891Y013673
X039303Y027854
X041303Y027854
X043303Y027854
X045303Y001854
X047303Y001854
X049303Y001854
X051303Y001854
X053303Y001854
X055303Y001854
X057303Y001854
X059303Y001854
X061303Y001854
X063303Y001854
X069303Y001854
X071303Y001854
X073303Y001854
X075303Y007854
X077303Y007854
X081303Y083854
X081303Y081854
X081303Y079854
X081303Y077854
X081303Y075854
X081303Y073854
X081534Y070485
X081303Y065854
X081303Y063854
X081303Y061854
X081303Y059854
X074891Y025673
X074891Y023673
X074891Y021673
X074891Y019673
X074891Y017673
X074891Y015673
X074891Y013673
X076891Y025673
X076891Y023673
X076891Y021673
X076891Y019673
X076891Y017673
X076891Y015673
X076891Y013673
X078891Y025673
X078891Y023673
X078891Y021673
X078891Y019673
X078891Y017673
X078891Y015673
X078891Y013673
X080891Y025673
X080891Y023673
X080891Y021673
X080891Y019673
X080891Y017673
X080891Y015673
X080891Y013673
X039303Y027854
X041303Y027854
X043303Y027854
X045303Y001854
X047303Y001854
X049303Y001854
X051303Y001854
X053303Y001854
X055303Y001854
X057303Y001854
X059303Y001854
X061303Y001854
X063303Y001854
X069303Y001854
X071303Y001854
X073303Y001854
X075303Y007854
X077303Y007854
X081303Y083854
X081303Y081854
X081303Y079854
X081303Y077854
X081303Y075854
X081303Y073854
X081303Y065854
X081303Y063854
X081303Y061854
X081303Y059854
X074891Y025673
X074891Y023673
X074891Y021673
X074891Y019673
X074891Y017673
X074891Y015673
X074891Y013673
X076891Y025673
X076891Y023673
X076891Y021673
X076891Y019673
X076891Y017673
X076891Y015673
X076891Y013673
X078891Y025673
X078891Y023673
X078891Y021673
X078891Y019673
X078891Y017673
X078891Y015673
X078891Y013673
X080891Y025673
X080891Y023673
X080891Y021673
X080891Y019673
X080891Y017673
X080891Y015673
X080891Y013673
X039303Y027854
X041303Y027854
X043303Y027854
X045303Y001854
X047303Y001854
X049303Y001854
X051303Y001854
X053303Y001854
X055303Y001854
X057303Y001854
X059303Y001854
X061303Y001854
X063303Y001854
X069303Y001854
X071303Y001854
X073303Y001854
X075303Y007854
X077303Y007854
X081303Y083854
X081303Y081854
X081303Y079854
X081303Y077854
X081303Y075854
X081303Y073854
X081303Y065854
X081303Y063854
X081303Y061854
X081303Y059854
X081303Y007854
X081303Y005854
X081303Y003854
X081303Y001854
X040894Y036322
X042629Y036331
X044629Y036331
X046629Y036331
X048629Y036331
X050629Y036331
X052629Y036331
X054629Y036331
X056629Y036331
X058629Y036331
X060629Y036331
X062629Y036331
X064629Y036331
X066629Y036331
X068629Y036331
X070629Y036331
X074891Y025673
X074891Y023673
X074891Y021673
X074891Y019673
X074891Y017673
X074891Y015673
X074891Y013673
X076891Y025673
X076891Y023673
X076891Y021673
X076891Y019673
X076891Y017673
X076891Y015673
X076891Y013673
X078891Y025673
X078891Y023673
X078891Y021673
X078891Y019673
X078891Y017673
X078891Y015673
X078891Y013673
X080891Y025673
X080891Y023673
X080891Y021673
X080891Y019673
X080891Y017673
X080891Y015673
X080891Y013673
X039303Y027854
X041303Y027854
X043303Y027854
X045303Y001854
X047303Y001854
X049303Y001854
X051303Y001854
X053303Y001854
X055303Y001854
X057303Y001854
X059303Y001854
X061303Y001854
X063303Y001854
X069303Y001854
X071303Y001854
X073303Y001854
X075303Y007854
X077303Y007854
X081303Y083854
X081303Y081854
X081303Y079854
X081303Y077854
X081303Y075854
X081303Y073854
X081303Y065854
X081303Y063854
X081303Y061854
X081303Y059854
X081303Y007854
X081303Y005854
X081303Y003854
X081303Y001854
X053086Y017907
X110717Y079696
X112141Y078867
X112141Y080518
X114046Y080645
X115985Y080645
X100076Y081788
X108712Y075311
X092202Y026289
X116332Y010033
X095123Y052451
M30
