G04 Layer: TopSilkscreenLayer*
G04 EasyEDA v6.5.22, 2022-12-05 14:56:37*
G04 05bf86c157214e56ba330cf237c0dbe7,b19d526b7a914c21af0811b40d406c84,10*
G04 Gerber Generator version 0.2*
G04 Scale: 100 percent, Rotated: No, Reflected: No *
G04 Dimensions in millimeters *
G04 leading zeros omitted , absolute positions ,4 integer and 5 decimal *
%FSLAX45Y45*%
%MOMM*%

%ADD10C,0.1524*%
%ADD11C,0.2032*%
%ADD12C,0.2540*%
%ADD13C,0.1000*%
%ADD14C,0.1270*%
%ADD15C,0.1016*%
%ADD16C,0.2000*%
%ADD17C,0.1500*%
%ADD18C,0.1800*%
%ADD19C,0.1999*%
%ADD20C,0.1001*%
%ADD21C,0.3000*%
%ADD22C,0.2500*%
%ADD23C,0.0128*%

%LPD*%
D10*
X3062477Y7150534D02*
G01*
X3057143Y7160948D01*
X3046729Y7171362D01*
X3036570Y7176442D01*
X3015741Y7176442D01*
X3005327Y7171362D01*
X2994913Y7160948D01*
X2989579Y7150534D01*
X2984500Y7135040D01*
X2984500Y7108878D01*
X2989579Y7093384D01*
X2994913Y7082970D01*
X3005327Y7072556D01*
X3015741Y7067476D01*
X3036570Y7067476D01*
X3046729Y7072556D01*
X3057143Y7082970D01*
X3062477Y7093384D01*
X3062477Y7108878D01*
X3036570Y7108878D02*
G01*
X3062477Y7108878D01*
X3096768Y7176442D02*
G01*
X3096768Y7067476D01*
X3096768Y7176442D02*
G01*
X3169411Y7067476D01*
X3169411Y7176442D02*
G01*
X3169411Y7067476D01*
X3203702Y7176442D02*
G01*
X3203702Y7067476D01*
X3203702Y7176442D02*
G01*
X3240024Y7176442D01*
X3255772Y7171362D01*
X3266186Y7160948D01*
X3271265Y7150534D01*
X3276600Y7135040D01*
X3276600Y7108878D01*
X3271265Y7093384D01*
X3266186Y7082970D01*
X3255772Y7072556D01*
X3240024Y7067476D01*
X3203702Y7067476D01*
X3442715Y7176442D02*
G01*
X3442715Y7093384D01*
X3437636Y7077890D01*
X3432302Y7072556D01*
X3421888Y7067476D01*
X3411474Y7067476D01*
X3401059Y7072556D01*
X3395979Y7077890D01*
X3390900Y7093384D01*
X3390900Y7103798D01*
X3477006Y7176442D02*
G01*
X3477006Y7067476D01*
X3477006Y7176442D02*
G01*
X3518661Y7067476D01*
X3560063Y7176442D02*
G01*
X3518661Y7067476D01*
X3560063Y7176442D02*
G01*
X3560063Y7067476D01*
X3594354Y7176442D02*
G01*
X3594354Y7067476D01*
X3594354Y7176442D02*
G01*
X3641090Y7176442D01*
X3656838Y7171362D01*
X3661918Y7166028D01*
X3667252Y7155868D01*
X3667252Y7140120D01*
X3661918Y7129706D01*
X3656838Y7124626D01*
X3641090Y7119292D01*
X3594354Y7119292D01*
X3694546Y3519286D02*
G01*
X3777858Y3519286D01*
X3793352Y3513952D01*
X3798686Y3508872D01*
X3803766Y3498458D01*
X3803766Y3488044D01*
X3798686Y3477630D01*
X3793352Y3472296D01*
X3777858Y3467216D01*
X3767444Y3467216D01*
X3715374Y3553576D02*
G01*
X3710294Y3563736D01*
X3694546Y3579484D01*
X3803766Y3579484D01*
X3694546Y3645016D02*
G01*
X3699880Y3629268D01*
X3715374Y3618854D01*
X3741536Y3613774D01*
X3757030Y3613774D01*
X3782938Y3618854D01*
X3798686Y3629268D01*
X3803766Y3645016D01*
X3803766Y3655176D01*
X3798686Y3670924D01*
X3782938Y3681338D01*
X3757030Y3686418D01*
X3741536Y3686418D01*
X3715374Y3681338D01*
X3699880Y3670924D01*
X3694546Y3655176D01*
X3694546Y3645016D01*
D11*
X8396378Y4033039D02*
G01*
X8396378Y4134639D01*
X8470292Y4079267D01*
X8470292Y4106953D01*
X8479436Y4125241D01*
X8488834Y4134639D01*
X8516520Y4143783D01*
X8534808Y4143783D01*
X8562494Y4134639D01*
X8581036Y4116097D01*
X8590434Y4088411D01*
X8590434Y4060725D01*
X8581036Y4033039D01*
X8571892Y4023641D01*
X8553350Y4014497D01*
X8544206Y4213887D02*
G01*
X8553350Y4204743D01*
X8562494Y4213887D01*
X8553350Y4223285D01*
X8544206Y4213887D01*
X8396378Y4413531D02*
G01*
X8590434Y4321075D01*
X8396378Y4284245D02*
G01*
X8396378Y4413531D01*
X8396378Y4474491D02*
G01*
X8590434Y4548405D01*
X8396378Y4622319D02*
G01*
X8590434Y4548405D01*
X8747300Y3340117D02*
G01*
X8738156Y3358659D01*
X8710216Y3386345D01*
X8904272Y3386345D01*
X8710216Y3493533D02*
G01*
X8719614Y3465593D01*
X8738156Y3456449D01*
X8756444Y3456449D01*
X8774986Y3465593D01*
X8784130Y3484135D01*
X8793528Y3521219D01*
X8802672Y3548905D01*
X8821214Y3567193D01*
X8839756Y3576591D01*
X8867442Y3576591D01*
X8885730Y3567193D01*
X8895128Y3558049D01*
X8904272Y3530363D01*
X8904272Y3493533D01*
X8895128Y3465593D01*
X8885730Y3456449D01*
X8867442Y3447305D01*
X8839756Y3447305D01*
X8821214Y3456449D01*
X8802672Y3474991D01*
X8793528Y3502677D01*
X8784130Y3539507D01*
X8774986Y3558049D01*
X8756444Y3567193D01*
X8738156Y3567193D01*
X8719614Y3558049D01*
X8710216Y3530363D01*
X8710216Y3493533D01*
X8738156Y3748295D02*
G01*
X8719614Y3739151D01*
X8710216Y3711465D01*
X8710216Y3692923D01*
X8719614Y3665237D01*
X8747300Y3646695D01*
X8793528Y3637551D01*
X8839756Y3637551D01*
X8876586Y3646695D01*
X8895128Y3665237D01*
X8904272Y3692923D01*
X8904272Y3702067D01*
X8895128Y3729753D01*
X8876586Y3748295D01*
X8848900Y3757693D01*
X8839756Y3757693D01*
X8811816Y3748295D01*
X8793528Y3729753D01*
X8784130Y3702067D01*
X8784130Y3692923D01*
X8793528Y3665237D01*
X8811816Y3646695D01*
X8839756Y3637551D01*
X8710216Y3929397D02*
G01*
X8710216Y3836941D01*
X8793528Y3827797D01*
X8784130Y3836941D01*
X8774986Y3864627D01*
X8774986Y3892313D01*
X8784130Y3920253D01*
X8802672Y3938541D01*
X8830358Y3947939D01*
X8848900Y3947939D01*
X8876586Y3938541D01*
X8895128Y3920253D01*
X8904272Y3892313D01*
X8904272Y3864627D01*
X8895128Y3836941D01*
X8885730Y3827797D01*
X8867442Y3818653D01*
X8710216Y4064271D02*
G01*
X8719614Y4036585D01*
X8747300Y4018043D01*
X8793528Y4008899D01*
X8821214Y4008899D01*
X8867442Y4018043D01*
X8895128Y4036585D01*
X8904272Y4064271D01*
X8904272Y4082813D01*
X8895128Y4110499D01*
X8867442Y4128787D01*
X8821214Y4138185D01*
X8793528Y4138185D01*
X8747300Y4128787D01*
X8719614Y4110499D01*
X8710216Y4082813D01*
X8710216Y4064271D01*
X8710216Y4341385D02*
G01*
X8904272Y4341385D01*
X8904272Y4341385D02*
G01*
X8904272Y4452129D01*
X8710216Y4513089D02*
G01*
X8719614Y4522233D01*
X8710216Y4531631D01*
X8701072Y4522233D01*
X8710216Y4513089D01*
X8774986Y4522233D02*
G01*
X8904272Y4522233D01*
X8710216Y4620277D02*
G01*
X8867442Y4620277D01*
X8895128Y4629421D01*
X8904272Y4647963D01*
X8904272Y4666505D01*
X8774986Y4592591D02*
G01*
X8774986Y4657107D01*
X8710216Y4727465D02*
G01*
X8904272Y4727465D01*
X8811816Y4727465D02*
G01*
X8784130Y4755151D01*
X8774986Y4773693D01*
X8774986Y4801379D01*
X8784130Y4819667D01*
X8811816Y4829065D01*
X8904272Y4829065D01*
X8710216Y4890025D02*
G01*
X8719614Y4899169D01*
X8710216Y4908313D01*
X8701072Y4899169D01*
X8710216Y4890025D01*
X8774986Y4899169D02*
G01*
X8904272Y4899169D01*
X8774986Y4969273D02*
G01*
X8867442Y4969273D01*
X8895128Y4978671D01*
X8904272Y4997213D01*
X8904272Y5024899D01*
X8895128Y5043187D01*
X8867442Y5070873D01*
X8774986Y5070873D02*
G01*
X8904272Y5070873D01*
X8774986Y5131833D02*
G01*
X8904272Y5131833D01*
X8811816Y5131833D02*
G01*
X8784130Y5159773D01*
X8774986Y5178061D01*
X8774986Y5205747D01*
X8784130Y5224289D01*
X8811816Y5233433D01*
X8904272Y5233433D01*
X8811816Y5233433D02*
G01*
X8784130Y5261373D01*
X8774986Y5279661D01*
X8774986Y5307347D01*
X8784130Y5325889D01*
X8811816Y5335033D01*
X8904272Y5335033D01*
D10*
X3194047Y4273552D02*
G01*
X3303013Y4200908D01*
X3194047Y4200908D02*
G01*
X3194047Y4273552D01*
X3303013Y4200908D02*
G01*
X3303013Y4273552D01*
X3194047Y4387852D02*
G01*
X3303013Y4387852D01*
X3194047Y4387852D02*
G01*
X3194047Y4434588D01*
X3199127Y4450336D01*
X3204461Y4455416D01*
X3214875Y4460750D01*
X3230369Y4460750D01*
X3240783Y4455416D01*
X3245863Y4450336D01*
X3251197Y4434588D01*
X3251197Y4387852D01*
X3194047Y4626866D02*
G01*
X3277105Y4626866D01*
X3292853Y4621786D01*
X3297933Y4616452D01*
X3303013Y4606038D01*
X3303013Y4595878D01*
X3297933Y4585464D01*
X3292853Y4580130D01*
X3277105Y4575050D01*
X3266691Y4575050D01*
X3194047Y4661156D02*
G01*
X3303013Y4661156D01*
X3194047Y4661156D02*
G01*
X3303013Y4702812D01*
X3194047Y4744468D02*
G01*
X3303013Y4702812D01*
X3194047Y4744468D02*
G01*
X3303013Y4744468D01*
X3194047Y4778758D02*
G01*
X3303013Y4778758D01*
X3194047Y4778758D02*
G01*
X3194047Y4825494D01*
X3199127Y4840988D01*
X3204461Y4846068D01*
X3214875Y4851402D01*
X3230369Y4851402D01*
X3240783Y4846068D01*
X3245863Y4840988D01*
X3251197Y4825494D01*
X3251197Y4778758D01*
X3082538Y6236715D02*
G01*
X3009894Y6127750D01*
X3009894Y6236715D02*
G01*
X3082538Y6236715D01*
X3009894Y6127750D02*
G01*
X3082538Y6127750D01*
X3196838Y6236715D02*
G01*
X3196838Y6127750D01*
X3196838Y6236715D02*
G01*
X3269736Y6127750D01*
X3269736Y6236715D02*
G01*
X3269736Y6127750D01*
X3435852Y6236715D02*
G01*
X3435852Y6153657D01*
X3430772Y6137910D01*
X3425438Y6132829D01*
X3415024Y6127750D01*
X3404864Y6127750D01*
X3394450Y6132829D01*
X3389116Y6137910D01*
X3384036Y6153657D01*
X3384036Y6164071D01*
X3470142Y6236715D02*
G01*
X3470142Y6127750D01*
X3470142Y6236715D02*
G01*
X3511798Y6127750D01*
X3553454Y6236715D02*
G01*
X3511798Y6127750D01*
X3553454Y6236715D02*
G01*
X3553454Y6127750D01*
X3587744Y6236715D02*
G01*
X3587744Y6127750D01*
X3587744Y6236715D02*
G01*
X3634480Y6236715D01*
X3649974Y6231636D01*
X3655054Y6226302D01*
X3660388Y6215887D01*
X3660388Y6200394D01*
X3655054Y6189979D01*
X3649974Y6184900D01*
X3634480Y6179565D01*
X3587744Y6179565D01*
X2870200Y4954132D02*
G01*
X2870200Y4845166D01*
X2870200Y4954132D02*
G01*
X2916936Y4954132D01*
X2932429Y4949052D01*
X2937763Y4943718D01*
X2942843Y4933304D01*
X2942843Y4917810D01*
X2937763Y4907396D01*
X2932429Y4902316D01*
X2916936Y4896982D01*
X2870200Y4896982D01*
X2946400Y8317717D02*
G01*
X2946400Y8426683D01*
X2946400Y8317717D02*
G01*
X2873756Y8426683D01*
X2873756Y8317717D02*
G01*
X2873756Y8426683D01*
X10477500Y4471415D02*
G01*
X10477500Y4362450D01*
X10477500Y4471415D02*
G01*
X10519156Y4362450D01*
X10560558Y4471415D02*
G01*
X10519156Y4362450D01*
X10560558Y4471415D02*
G01*
X10560558Y4362450D01*
X10626090Y4471415D02*
G01*
X10615675Y4466336D01*
X10605261Y4455921D01*
X10600181Y4445507D01*
X10594847Y4429760D01*
X10594847Y4403852D01*
X10600181Y4388357D01*
X10605261Y4377944D01*
X10615675Y4367529D01*
X10626090Y4362450D01*
X10646918Y4362450D01*
X10657331Y4367529D01*
X10667745Y4377944D01*
X10672825Y4388357D01*
X10678159Y4403852D01*
X10678159Y4429760D01*
X10672825Y4445507D01*
X10667745Y4455921D01*
X10657331Y4466336D01*
X10646918Y4471415D01*
X10626090Y4471415D01*
X10785093Y4455921D02*
G01*
X10774679Y4466336D01*
X10759186Y4471415D01*
X10738358Y4471415D01*
X10722609Y4466336D01*
X10712450Y4455921D01*
X10712450Y4445507D01*
X10717529Y4435094D01*
X10722609Y4429760D01*
X10733024Y4424679D01*
X10764265Y4414265D01*
X10774679Y4409186D01*
X10779759Y4403852D01*
X10785093Y4393437D01*
X10785093Y4377944D01*
X10774679Y4367529D01*
X10759186Y4362450D01*
X10738358Y4362450D01*
X10722609Y4367529D01*
X10712450Y4377944D01*
X10819384Y4471415D02*
G01*
X10819384Y4362450D01*
X10477500Y4852415D02*
G01*
X10477500Y4743450D01*
X10477500Y4852415D02*
G01*
X10519156Y4743450D01*
X10560558Y4852415D02*
G01*
X10519156Y4743450D01*
X10560558Y4852415D02*
G01*
X10560558Y4743450D01*
X10594847Y4852415D02*
G01*
X10594847Y4743450D01*
X10702036Y4836921D02*
G01*
X10691622Y4847336D01*
X10675874Y4852415D01*
X10655300Y4852415D01*
X10639552Y4847336D01*
X10629138Y4836921D01*
X10629138Y4826507D01*
X10634472Y4816094D01*
X10639552Y4810760D01*
X10649965Y4805679D01*
X10681208Y4795265D01*
X10691622Y4790186D01*
X10696702Y4784852D01*
X10702036Y4774437D01*
X10702036Y4758944D01*
X10691622Y4748529D01*
X10675874Y4743450D01*
X10655300Y4743450D01*
X10639552Y4748529D01*
X10629138Y4758944D01*
X10767313Y4852415D02*
G01*
X10756900Y4847336D01*
X10746740Y4836921D01*
X10741406Y4826507D01*
X10736325Y4810760D01*
X10736325Y4784852D01*
X10741406Y4769357D01*
X10746740Y4758944D01*
X10756900Y4748529D01*
X10767313Y4743450D01*
X10788141Y4743450D01*
X10798556Y4748529D01*
X10808970Y4758944D01*
X10814050Y4769357D01*
X10819384Y4784852D01*
X10819384Y4810760D01*
X10814050Y4826507D01*
X10808970Y4836921D01*
X10798556Y4847336D01*
X10788141Y4852415D01*
X10767313Y4852415D01*
X10034777Y4445507D02*
G01*
X10029443Y4455921D01*
X10019029Y4466336D01*
X10008870Y4471415D01*
X9988041Y4471415D01*
X9977627Y4466336D01*
X9967213Y4455921D01*
X9961879Y4445507D01*
X9956800Y4429760D01*
X9956800Y4403852D01*
X9961879Y4388357D01*
X9967213Y4377944D01*
X9977627Y4367529D01*
X9988041Y4362450D01*
X10008870Y4362450D01*
X10019029Y4367529D01*
X10029443Y4377944D01*
X10034777Y4388357D01*
X10141711Y4455921D02*
G01*
X10131297Y4466336D01*
X10115804Y4471415D01*
X10094975Y4471415D01*
X10079481Y4466336D01*
X10069068Y4455921D01*
X10069068Y4445507D01*
X10074147Y4435094D01*
X10079481Y4429760D01*
X10089895Y4424679D01*
X10120884Y4414265D01*
X10131297Y4409186D01*
X10136631Y4403852D01*
X10141711Y4393437D01*
X10141711Y4377944D01*
X10131297Y4367529D01*
X10115804Y4362450D01*
X10094975Y4362450D01*
X10079481Y4367529D01*
X10069068Y4377944D01*
X9983977Y4128007D02*
G01*
X9978643Y4138421D01*
X9968229Y4148836D01*
X9958070Y4153915D01*
X9937241Y4153915D01*
X9926827Y4148836D01*
X9916413Y4138421D01*
X9911079Y4128007D01*
X9906000Y4112260D01*
X9906000Y4086352D01*
X9911079Y4070857D01*
X9916413Y4060444D01*
X9926827Y4050029D01*
X9937241Y4044950D01*
X9958070Y4044950D01*
X9968229Y4050029D01*
X9978643Y4060444D01*
X9983977Y4070857D01*
X10018268Y4153915D02*
G01*
X10018268Y4044950D01*
X10018268Y4044950D02*
G01*
X10080497Y4044950D01*
X10114788Y4153915D02*
G01*
X10114788Y4044950D01*
X10187686Y4153915D02*
G01*
X10114788Y4081271D01*
X10140950Y4107179D02*
G01*
X10187686Y4044950D01*
X12585191Y1944878D02*
G01*
X12574777Y1939544D01*
X12564363Y1929129D01*
X12559284Y1918970D01*
X12559284Y1898142D01*
X12564363Y1887728D01*
X12574777Y1877313D01*
X12585191Y1871979D01*
X12600940Y1866900D01*
X12626847Y1866900D01*
X12642341Y1871979D01*
X12652756Y1877313D01*
X12663170Y1887728D01*
X12668250Y1898142D01*
X12668250Y1918970D01*
X12663170Y1929129D01*
X12652756Y1939544D01*
X12642341Y1944878D01*
X12559284Y1979168D02*
G01*
X12668250Y1979168D01*
X12668250Y1979168D02*
G01*
X12668250Y2041397D01*
X12559284Y2075687D02*
G01*
X12668250Y2075687D01*
X12559284Y2148586D02*
G01*
X12631927Y2075687D01*
X12606020Y2101850D02*
G01*
X12668250Y2148586D01*
X12691358Y1633682D02*
G01*
X12694950Y1644817D01*
X12694950Y1659547D01*
X12691358Y1670321D01*
X12676631Y1685051D01*
X12665674Y1688820D01*
X12650947Y1688820D01*
X12639812Y1685229D01*
X12625085Y1677685D01*
X12606764Y1659366D01*
X12599403Y1644817D01*
X12595809Y1633682D01*
X12595809Y1618955D01*
X12599583Y1607997D01*
X12614310Y1593270D01*
X12625085Y1589679D01*
X12639814Y1589676D01*
X12650947Y1593270D01*
X12774338Y1565432D02*
G01*
X12774338Y1580159D01*
X12766972Y1594708D01*
X12752245Y1609435D01*
X12737696Y1616798D01*
X12722969Y1616801D01*
X12715605Y1609435D01*
X12711833Y1598477D01*
X12711836Y1590936D01*
X12715605Y1579981D01*
X12730154Y1550705D01*
X12733924Y1539750D01*
X12733926Y1532206D01*
X12730154Y1521249D01*
X12719197Y1510291D01*
X12704470Y1510291D01*
X12689923Y1517657D01*
X12675196Y1532384D01*
X12667830Y1546931D01*
X12667830Y1561660D01*
X12229084Y1816100D02*
G01*
X12338050Y1816100D01*
X12229084Y1816100D02*
G01*
X12338050Y1857755D01*
X12229084Y1899157D02*
G01*
X12338050Y1857755D01*
X12229084Y1899157D02*
G01*
X12338050Y1899157D01*
X12229084Y1933447D02*
G01*
X12338050Y1933447D01*
X12244577Y2040636D02*
G01*
X12234163Y2030221D01*
X12229084Y2014473D01*
X12229084Y1993900D01*
X12234163Y1978152D01*
X12244577Y1967737D01*
X12254991Y1967737D01*
X12265406Y1973071D01*
X12270740Y1978152D01*
X12275820Y1988565D01*
X12286234Y2019807D01*
X12291313Y2030221D01*
X12296647Y2035302D01*
X12307061Y2040636D01*
X12322556Y2040636D01*
X12332970Y2030221D01*
X12338050Y2014473D01*
X12338050Y1993900D01*
X12332970Y1978152D01*
X12322556Y1967737D01*
X12229084Y2105913D02*
G01*
X12234163Y2095500D01*
X12244577Y2085339D01*
X12254991Y2080005D01*
X12270740Y2074926D01*
X12296647Y2074926D01*
X12312141Y2080005D01*
X12322556Y2085339D01*
X12332970Y2095500D01*
X12338050Y2105913D01*
X12338050Y2126742D01*
X12332970Y2137155D01*
X12322556Y2147570D01*
X12312141Y2152650D01*
X12296647Y2157984D01*
X12270740Y2157984D01*
X12254991Y2152650D01*
X12244577Y2147570D01*
X12234163Y2137155D01*
X12229084Y2126742D01*
X12229084Y2105913D01*
X13360400Y2312415D02*
G01*
X13360400Y2203450D01*
X13360400Y2312415D02*
G01*
X13402056Y2203450D01*
X13443458Y2312415D02*
G01*
X13402056Y2203450D01*
X13443458Y2312415D02*
G01*
X13443458Y2203450D01*
X13508990Y2312415D02*
G01*
X13498575Y2307336D01*
X13488161Y2296921D01*
X13483081Y2286507D01*
X13477747Y2270760D01*
X13477747Y2244852D01*
X13483081Y2229357D01*
X13488161Y2218944D01*
X13498575Y2208529D01*
X13508990Y2203450D01*
X13529818Y2203450D01*
X13540231Y2208529D01*
X13550645Y2218944D01*
X13555725Y2229357D01*
X13561059Y2244852D01*
X13561059Y2270760D01*
X13555725Y2286507D01*
X13550645Y2296921D01*
X13540231Y2307336D01*
X13529818Y2312415D01*
X13508990Y2312415D01*
X13667993Y2296921D02*
G01*
X13657579Y2307336D01*
X13642086Y2312415D01*
X13621258Y2312415D01*
X13605509Y2307336D01*
X13595350Y2296921D01*
X13595350Y2286507D01*
X13600429Y2276094D01*
X13605509Y2270760D01*
X13615924Y2265679D01*
X13647166Y2255265D01*
X13657579Y2250186D01*
X13662659Y2244852D01*
X13667993Y2234437D01*
X13667993Y2218944D01*
X13657579Y2208529D01*
X13642086Y2203450D01*
X13621258Y2203450D01*
X13605509Y2208529D01*
X13595350Y2218944D01*
X13702284Y2312415D02*
G01*
X13702284Y2203450D01*
X12217400Y8446515D02*
G01*
X12259056Y8337550D01*
X12300458Y8446515D02*
G01*
X12259056Y8337550D01*
X12365990Y8446515D02*
G01*
X12355575Y8441436D01*
X12345161Y8431021D01*
X12340081Y8420608D01*
X12334747Y8404860D01*
X12334747Y8378952D01*
X12340081Y8363458D01*
X12345161Y8353044D01*
X12355575Y8342629D01*
X12365990Y8337550D01*
X12386818Y8337550D01*
X12397231Y8342629D01*
X12407645Y8353044D01*
X12412725Y8363458D01*
X12418059Y8378952D01*
X12418059Y8404860D01*
X12412725Y8420608D01*
X12407645Y8431021D01*
X12397231Y8441436D01*
X12386818Y8446515D01*
X12365990Y8446515D01*
X12452350Y8410194D02*
G01*
X12452350Y8358123D01*
X12457429Y8342629D01*
X12467843Y8337550D01*
X12483338Y8337550D01*
X12493752Y8342629D01*
X12509500Y8358123D01*
X12509500Y8410194D02*
G01*
X12509500Y8337550D01*
X12559284Y8446515D02*
G01*
X12559284Y8358123D01*
X12564363Y8342629D01*
X12574777Y8337550D01*
X12585191Y8337550D01*
X12543790Y8410194D02*
G01*
X12580111Y8410194D01*
X12697459Y8420608D02*
G01*
X12692379Y8431021D01*
X12681965Y8441436D01*
X12671552Y8446515D01*
X12650724Y8446515D01*
X12640309Y8441436D01*
X12629895Y8431021D01*
X12624815Y8420608D01*
X12619481Y8404860D01*
X12619481Y8378952D01*
X12624815Y8363458D01*
X12629895Y8353044D01*
X12640309Y8342629D01*
X12650724Y8337550D01*
X12671552Y8337550D01*
X12681965Y8342629D01*
X12692379Y8353044D01*
X12697459Y8363458D01*
X12731750Y8446515D02*
G01*
X12731750Y8337550D01*
X12731750Y8389365D02*
G01*
X12747243Y8404860D01*
X12757658Y8410194D01*
X12773406Y8410194D01*
X12783820Y8404860D01*
X12788900Y8389365D01*
X12788900Y8337550D01*
X12885420Y8410194D02*
G01*
X12885420Y8337550D01*
X12885420Y8394700D02*
G01*
X12875259Y8404860D01*
X12864845Y8410194D01*
X12849097Y8410194D01*
X12838684Y8404860D01*
X12828270Y8394700D01*
X12823190Y8378952D01*
X12823190Y8368537D01*
X12828270Y8353044D01*
X12838684Y8342629D01*
X12849097Y8337550D01*
X12864845Y8337550D01*
X12875259Y8342629D01*
X12885420Y8353044D01*
X12919709Y8410194D02*
G01*
X12919709Y8337550D01*
X12919709Y8378952D02*
G01*
X12925043Y8394700D01*
X12935458Y8404860D01*
X12945872Y8410194D01*
X12961365Y8410194D01*
X13058140Y8410194D02*
G01*
X13058140Y8327136D01*
X13052806Y8311387D01*
X13047725Y8306308D01*
X13037311Y8300973D01*
X13021563Y8300973D01*
X13011150Y8306308D01*
X13058140Y8394700D02*
G01*
X13047725Y8404860D01*
X13037311Y8410194D01*
X13021563Y8410194D01*
X13011150Y8404860D01*
X13000990Y8394700D01*
X12995656Y8378952D01*
X12995656Y8368537D01*
X13000990Y8353044D01*
X13011150Y8342629D01*
X13021563Y8337550D01*
X13037311Y8337550D01*
X13047725Y8342629D01*
X13058140Y8353044D01*
X13092429Y8378952D02*
G01*
X13154659Y8378952D01*
X13154659Y8389365D01*
X13149579Y8399779D01*
X13144245Y8404860D01*
X13133831Y8410194D01*
X13118338Y8410194D01*
X13107924Y8404860D01*
X13097509Y8394700D01*
X13092429Y8378952D01*
X13092429Y8368537D01*
X13097509Y8353044D01*
X13107924Y8342629D01*
X13118338Y8337550D01*
X13133831Y8337550D01*
X13144245Y8342629D01*
X13154659Y8353044D01*
X13188950Y8410194D02*
G01*
X13188950Y8337550D01*
X13188950Y8378952D02*
G01*
X13194029Y8394700D01*
X13204443Y8404860D01*
X13214858Y8410194D01*
X13230606Y8410194D01*
X15483077Y597407D02*
G01*
X15477743Y607821D01*
X15467329Y618236D01*
X15457170Y623315D01*
X15436341Y623315D01*
X15425927Y618236D01*
X15415513Y607821D01*
X15410179Y597407D01*
X15405100Y581660D01*
X15405100Y555752D01*
X15410179Y540257D01*
X15415513Y529844D01*
X15425927Y519429D01*
X15436341Y514350D01*
X15457170Y514350D01*
X15467329Y519429D01*
X15477743Y529844D01*
X15483077Y540257D01*
X15517368Y602487D02*
G01*
X15527781Y607821D01*
X15543275Y623315D01*
X15543275Y514350D01*
X15582900Y597407D02*
G01*
X15582900Y602487D01*
X15587979Y612902D01*
X15593059Y618236D01*
X15603474Y623315D01*
X15624302Y623315D01*
X15634716Y618236D01*
X15640050Y612902D01*
X15645129Y602487D01*
X15645129Y592073D01*
X15640050Y581660D01*
X15629636Y566165D01*
X15577566Y514350D01*
X15650209Y514350D01*
X12279122Y5500115D02*
G01*
X12279122Y5391150D01*
X12242800Y5500115D02*
G01*
X12315443Y5500115D01*
X12349734Y5500115D02*
G01*
X12422631Y5391150D01*
X12422631Y5500115D02*
G01*
X12349734Y5391150D01*
X12536931Y5500115D02*
G01*
X12536931Y5391150D01*
X12536931Y5500115D02*
G01*
X12583668Y5500115D01*
X12599161Y5495036D01*
X12604495Y5489702D01*
X12609575Y5479287D01*
X12609575Y5468873D01*
X12604495Y5458460D01*
X12599161Y5453379D01*
X12583668Y5448300D01*
X12536931Y5448300D01*
X12573254Y5448300D02*
G01*
X12609575Y5391150D01*
X12643865Y5500115D02*
G01*
X12716509Y5391150D01*
X12716509Y5500115D02*
G01*
X12643865Y5391150D01*
X12518643Y988821D02*
G01*
X12508229Y999236D01*
X12492736Y1004315D01*
X12471908Y1004315D01*
X12456413Y999236D01*
X12446000Y988821D01*
X12446000Y978407D01*
X12451079Y967994D01*
X12456413Y962660D01*
X12466827Y957579D01*
X12498070Y947165D01*
X12508229Y942086D01*
X12513563Y936752D01*
X12518643Y926337D01*
X12518643Y910844D01*
X12508229Y900429D01*
X12492736Y895350D01*
X12471908Y895350D01*
X12456413Y900429D01*
X12446000Y910844D01*
X12552934Y1004315D02*
G01*
X12552934Y895350D01*
X12552934Y1004315D02*
G01*
X12589509Y1004315D01*
X12605004Y999236D01*
X12615418Y988821D01*
X12620497Y978407D01*
X12625831Y962660D01*
X12625831Y936752D01*
X12620497Y921257D01*
X12615418Y910844D01*
X12605004Y900429D01*
X12589509Y895350D01*
X12552934Y895350D01*
X12701524Y1004315D02*
G01*
X12660122Y895350D01*
X12701524Y1004315D02*
G01*
X12743179Y895350D01*
X12675615Y931671D02*
G01*
X12727686Y931671D01*
X12930124Y988821D02*
G01*
X12919709Y999236D01*
X12904215Y1004315D01*
X12883388Y1004315D01*
X12867893Y999236D01*
X12857479Y988821D01*
X12857479Y978407D01*
X12862559Y967994D01*
X12867893Y962660D01*
X12878308Y957579D01*
X12909550Y947165D01*
X12919709Y942086D01*
X12925043Y936752D01*
X12930124Y926337D01*
X12930124Y910844D01*
X12919709Y900429D01*
X12904215Y895350D01*
X12883388Y895350D01*
X12867893Y900429D01*
X12857479Y910844D01*
X13042391Y978407D02*
G01*
X13037311Y988821D01*
X13026897Y999236D01*
X13016484Y1004315D01*
X12995656Y1004315D01*
X12985241Y999236D01*
X12974827Y988821D01*
X12969747Y978407D01*
X12964413Y962660D01*
X12964413Y936752D01*
X12969747Y921257D01*
X12974827Y910844D01*
X12985241Y900429D01*
X12995656Y895350D01*
X13016484Y895350D01*
X13026897Y900429D01*
X13037311Y910844D01*
X13042391Y921257D01*
X13076681Y1004315D02*
G01*
X13076681Y895350D01*
X13076681Y895350D02*
G01*
X13139166Y895350D01*
X13664184Y7681213D02*
G01*
X13664184Y7738363D01*
X13705840Y7707121D01*
X13705840Y7722870D01*
X13710920Y7733029D01*
X13716000Y7738363D01*
X13731747Y7743444D01*
X13742161Y7743444D01*
X13757656Y7738363D01*
X13768070Y7727950D01*
X13773150Y7712455D01*
X13773150Y7696708D01*
X13768070Y7681213D01*
X13762990Y7675879D01*
X13752575Y7670800D01*
X13664184Y7777734D02*
G01*
X13773150Y7819389D01*
X13664184Y7861045D02*
G01*
X13773150Y7819389D01*
X13664184Y7905750D02*
G01*
X13664184Y7962900D01*
X13705840Y7931658D01*
X13705840Y7947152D01*
X13710920Y7957565D01*
X13716000Y7962900D01*
X13731747Y7967979D01*
X13742161Y7967979D01*
X13757656Y7962900D01*
X13768070Y7952486D01*
X13773150Y7936737D01*
X13773150Y7921244D01*
X13768070Y7905750D01*
X13762990Y7900415D01*
X13752575Y7895336D01*
X13690091Y8160258D02*
G01*
X13679677Y8154923D01*
X13669263Y8144510D01*
X13664184Y8134350D01*
X13664184Y8113521D01*
X13669263Y8103108D01*
X13679677Y8092694D01*
X13690091Y8087360D01*
X13705840Y8082279D01*
X13731747Y8082279D01*
X13747241Y8087360D01*
X13757656Y8092694D01*
X13768070Y8103108D01*
X13773150Y8113521D01*
X13773150Y8134350D01*
X13768070Y8144510D01*
X13757656Y8154923D01*
X13747241Y8160258D01*
X13731747Y8160258D01*
X13731747Y8134350D02*
G01*
X13731747Y8160258D01*
X13664184Y8194547D02*
G01*
X13773150Y8194547D01*
X13664184Y8194547D02*
G01*
X13773150Y8267192D01*
X13664184Y8267192D02*
G01*
X13773150Y8267192D01*
X13664184Y8301481D02*
G01*
X13773150Y8301481D01*
X13664184Y8301481D02*
G01*
X13664184Y8337804D01*
X13669263Y8353552D01*
X13679677Y8363965D01*
X13690091Y8369045D01*
X13705840Y8374379D01*
X13731747Y8374379D01*
X13747241Y8369045D01*
X13757656Y8363965D01*
X13768070Y8353552D01*
X13773150Y8337804D01*
X13773150Y8301481D01*
X5361177Y5588507D02*
G01*
X5355843Y5598921D01*
X5345429Y5609336D01*
X5335270Y5614415D01*
X5314441Y5614415D01*
X5304027Y5609336D01*
X5293613Y5598921D01*
X5288279Y5588507D01*
X5283200Y5572760D01*
X5283200Y5546852D01*
X5288279Y5531357D01*
X5293613Y5520944D01*
X5304027Y5510529D01*
X5314441Y5505450D01*
X5335270Y5505450D01*
X5345429Y5510529D01*
X5355843Y5520944D01*
X5361177Y5531357D01*
X5405881Y5614415D02*
G01*
X5463031Y5614415D01*
X5431790Y5572760D01*
X5447284Y5572760D01*
X5457697Y5567679D01*
X5463031Y5562600D01*
X5468111Y5546852D01*
X5468111Y5536437D01*
X5463031Y5520944D01*
X5452618Y5510529D01*
X5436870Y5505450D01*
X5421375Y5505450D01*
X5405881Y5510529D01*
X5400547Y5515610D01*
X5395468Y5526023D01*
X5512815Y5614415D02*
G01*
X5569965Y5614415D01*
X5538724Y5572760D01*
X5554472Y5572760D01*
X5564886Y5567679D01*
X5569965Y5562600D01*
X5575300Y5546852D01*
X5575300Y5536437D01*
X5569965Y5520944D01*
X5559552Y5510529D01*
X5544058Y5505450D01*
X5528309Y5505450D01*
X5512815Y5510529D01*
X5507736Y5515610D01*
X5502402Y5526023D01*
X4561077Y1626107D02*
G01*
X4555743Y1636521D01*
X4545329Y1646936D01*
X4535170Y1652015D01*
X4514341Y1652015D01*
X4503927Y1646936D01*
X4493513Y1636521D01*
X4488179Y1626107D01*
X4483100Y1610360D01*
X4483100Y1584452D01*
X4488179Y1568957D01*
X4493513Y1558544D01*
X4503927Y1548129D01*
X4514341Y1543050D01*
X4535170Y1543050D01*
X4545329Y1548129D01*
X4555743Y1558544D01*
X4561077Y1568957D01*
X4600447Y1626107D02*
G01*
X4600447Y1631187D01*
X4605781Y1641602D01*
X4610861Y1646936D01*
X4621275Y1652015D01*
X4642104Y1652015D01*
X4652518Y1646936D01*
X4657597Y1641602D01*
X4662931Y1631187D01*
X4662931Y1620773D01*
X4657597Y1610360D01*
X4647184Y1594865D01*
X4595368Y1543050D01*
X4668011Y1543050D01*
X4769865Y1615694D02*
G01*
X4764786Y1600200D01*
X4754372Y1589786D01*
X4738624Y1584452D01*
X4733543Y1584452D01*
X4718050Y1589786D01*
X4707636Y1600200D01*
X4702302Y1615694D01*
X4702302Y1620773D01*
X4707636Y1636521D01*
X4718050Y1646936D01*
X4733543Y1652015D01*
X4738624Y1652015D01*
X4754372Y1646936D01*
X4764786Y1636521D01*
X4769865Y1615694D01*
X4769865Y1589786D01*
X4764786Y1563623D01*
X4754372Y1548129D01*
X4738624Y1543050D01*
X4728209Y1543050D01*
X4712715Y1548129D01*
X4707636Y1558544D01*
X4494784Y6515100D02*
G01*
X4603750Y6515100D01*
X4494784Y6515100D02*
G01*
X4494784Y6551421D01*
X4499863Y6567170D01*
X4510277Y6577329D01*
X4520691Y6582663D01*
X4536440Y6587744D01*
X4562347Y6587744D01*
X4577841Y6582663D01*
X4588256Y6577329D01*
X4598670Y6567170D01*
X4603750Y6551421D01*
X4603750Y6515100D01*
X4520691Y6627368D02*
G01*
X4515611Y6627368D01*
X4505197Y6632447D01*
X4499863Y6637781D01*
X4494784Y6648195D01*
X4494784Y6668770D01*
X4499863Y6679184D01*
X4505197Y6684518D01*
X4515611Y6689597D01*
X4526025Y6689597D01*
X4536440Y6684518D01*
X4551934Y6674104D01*
X4603750Y6622034D01*
X4603750Y6694931D01*
X4482084Y7188200D02*
G01*
X4591050Y7188200D01*
X4482084Y7188200D02*
G01*
X4482084Y7224521D01*
X4487163Y7240270D01*
X4497577Y7250429D01*
X4507991Y7255763D01*
X4523740Y7260844D01*
X4549647Y7260844D01*
X4565141Y7255763D01*
X4575556Y7250429D01*
X4585970Y7240270D01*
X4591050Y7224521D01*
X4591050Y7188200D01*
X4482084Y7357618D02*
G01*
X4482084Y7305547D01*
X4528820Y7300468D01*
X4523740Y7305547D01*
X4518406Y7321295D01*
X4518406Y7336789D01*
X4523740Y7352284D01*
X4533900Y7362697D01*
X4549647Y7368031D01*
X4560061Y7368031D01*
X4575556Y7362697D01*
X4585970Y7352284D01*
X4591050Y7336789D01*
X4591050Y7321295D01*
X4585970Y7305547D01*
X4580890Y7300468D01*
X4570475Y7295134D01*
X9701784Y3098807D02*
G01*
X9810750Y3098807D01*
X9701784Y3171451D02*
G01*
X9774427Y3098807D01*
X9748520Y3124715D02*
G01*
X9810750Y3171451D01*
X9701784Y3205741D02*
G01*
X9810750Y3205741D01*
X9701784Y3205741D02*
G01*
X9701784Y3273305D01*
X9753600Y3205741D02*
G01*
X9753600Y3247397D01*
X9810750Y3205741D02*
G01*
X9810750Y3273305D01*
X9701784Y3307595D02*
G01*
X9753600Y3349251D01*
X9810750Y3349251D01*
X9701784Y3390907D02*
G01*
X9753600Y3349251D01*
X9722611Y3425197D02*
G01*
X9717277Y3435357D01*
X9701784Y3451105D01*
X9810750Y3451105D01*
X11531607Y4700015D02*
G01*
X11531607Y4591050D01*
X11604251Y4700015D02*
G01*
X11531607Y4627371D01*
X11557515Y4653279D02*
G01*
X11604251Y4591050D01*
X11638541Y4700015D02*
G01*
X11638541Y4591050D01*
X11638541Y4700015D02*
G01*
X11706105Y4700015D01*
X11638541Y4648200D02*
G01*
X11680197Y4648200D01*
X11638541Y4591050D02*
G01*
X11706105Y4591050D01*
X11740395Y4700015D02*
G01*
X11782051Y4648200D01*
X11782051Y4591050D01*
X11823707Y4700015D02*
G01*
X11782051Y4648200D01*
X11863077Y4674107D02*
G01*
X11863077Y4679187D01*
X11868157Y4689602D01*
X11873491Y4694936D01*
X11883905Y4700015D01*
X11904733Y4700015D01*
X11915147Y4694936D01*
X11920227Y4689602D01*
X11925307Y4679187D01*
X11925307Y4668773D01*
X11920227Y4658360D01*
X11909813Y4642865D01*
X11857997Y4591050D01*
X11930641Y4591050D01*
X14572736Y5982715D02*
G01*
X14562322Y5977636D01*
X14551908Y5967221D01*
X14546574Y5956807D01*
X14541494Y5941060D01*
X14541494Y5915152D01*
X14546574Y5899657D01*
X14551908Y5889244D01*
X14562322Y5878829D01*
X14572736Y5873750D01*
X14593564Y5873750D01*
X14603724Y5878829D01*
X14614138Y5889244D01*
X14619472Y5899657D01*
X14624552Y5915152D01*
X14624552Y5941060D01*
X14619472Y5956807D01*
X14614138Y5967221D01*
X14603724Y5977636D01*
X14593564Y5982715D01*
X14572736Y5982715D01*
X14588230Y5894323D02*
G01*
X14619472Y5863336D01*
X14658842Y5961887D02*
G01*
X14669256Y5967221D01*
X14685004Y5982715D01*
X14685004Y5873750D01*
X13721836Y5728715D02*
G01*
X13711422Y5723636D01*
X13701008Y5713221D01*
X13695674Y5702807D01*
X13690594Y5687060D01*
X13690594Y5661152D01*
X13695674Y5645657D01*
X13701008Y5635244D01*
X13711422Y5624829D01*
X13721836Y5619750D01*
X13742664Y5619750D01*
X13752824Y5624829D01*
X13763238Y5635244D01*
X13768572Y5645657D01*
X13773652Y5661152D01*
X13773652Y5687060D01*
X13768572Y5702807D01*
X13763238Y5713221D01*
X13752824Y5723636D01*
X13742664Y5728715D01*
X13721836Y5728715D01*
X13737330Y5640323D02*
G01*
X13768572Y5609336D01*
X13818356Y5728715D02*
G01*
X13875506Y5728715D01*
X13844264Y5687060D01*
X13860012Y5687060D01*
X13870426Y5681979D01*
X13875506Y5676900D01*
X13880840Y5661152D01*
X13880840Y5650737D01*
X13875506Y5635244D01*
X13865092Y5624829D01*
X13849598Y5619750D01*
X13834104Y5619750D01*
X13818356Y5624829D01*
X13813276Y5629910D01*
X13807942Y5640323D01*
X12280902Y8014715D02*
G01*
X12280902Y7905750D01*
X12280902Y8014715D02*
G01*
X12327638Y8014715D01*
X12343132Y8009636D01*
X12348466Y8004302D01*
X12353546Y7993887D01*
X12353546Y7983473D01*
X12348466Y7973060D01*
X12343132Y7967979D01*
X12327638Y7962900D01*
X12280902Y7962900D01*
X12317224Y7962900D02*
G01*
X12353546Y7905750D01*
X12439906Y8014715D02*
G01*
X12387836Y7942071D01*
X12465814Y7942071D01*
X12439906Y8014715D02*
G01*
X12439906Y7905750D01*
X5015484Y2260600D02*
G01*
X5124450Y2260600D01*
X5015484Y2260600D02*
G01*
X5015484Y2307336D01*
X5020563Y2322829D01*
X5025897Y2328163D01*
X5036311Y2333244D01*
X5046725Y2333244D01*
X5057140Y2328163D01*
X5062220Y2322829D01*
X5067300Y2307336D01*
X5067300Y2260600D01*
X5067300Y2296921D02*
G01*
X5124450Y2333244D01*
X5015484Y2377947D02*
G01*
X5015484Y2435097D01*
X5057140Y2404110D01*
X5057140Y2419604D01*
X5062220Y2430018D01*
X5067300Y2435097D01*
X5083047Y2440431D01*
X5093461Y2440431D01*
X5108956Y2435097D01*
X5119370Y2424684D01*
X5124450Y2409189D01*
X5124450Y2393695D01*
X5119370Y2377947D01*
X5114290Y2372868D01*
X5103875Y2367534D01*
X5051806Y2542286D02*
G01*
X5067300Y2536952D01*
X5077713Y2526537D01*
X5083047Y2511044D01*
X5083047Y2505710D01*
X5077713Y2490215D01*
X5067300Y2479802D01*
X5051806Y2474721D01*
X5046725Y2474721D01*
X5030977Y2479802D01*
X5020563Y2490215D01*
X5015484Y2505710D01*
X5015484Y2511044D01*
X5020563Y2526537D01*
X5030977Y2536952D01*
X5051806Y2542286D01*
X5077713Y2542286D01*
X5103875Y2536952D01*
X5119370Y2526537D01*
X5124450Y2511044D01*
X5124450Y2500629D01*
X5119370Y2485136D01*
X5108956Y2479802D01*
X4748784Y2260600D02*
G01*
X4857750Y2260600D01*
X4748784Y2260600D02*
G01*
X4748784Y2307336D01*
X4753863Y2322829D01*
X4759197Y2328163D01*
X4769611Y2333244D01*
X4780025Y2333244D01*
X4790440Y2328163D01*
X4795520Y2322829D01*
X4800600Y2307336D01*
X4800600Y2260600D01*
X4800600Y2296921D02*
G01*
X4857750Y2333244D01*
X4748784Y2419604D02*
G01*
X4821427Y2367534D01*
X4821427Y2445512D01*
X4748784Y2419604D02*
G01*
X4857750Y2419604D01*
X4748784Y2511044D02*
G01*
X4753863Y2495550D01*
X4769611Y2485136D01*
X4795520Y2479802D01*
X4811013Y2479802D01*
X4837175Y2485136D01*
X4852670Y2495550D01*
X4857750Y2511044D01*
X4857750Y2521457D01*
X4852670Y2536952D01*
X4837175Y2547365D01*
X4811013Y2552700D01*
X4795520Y2552700D01*
X4769611Y2547365D01*
X4753863Y2536952D01*
X4748784Y2521457D01*
X4748784Y2511044D01*
X14502384Y2451100D02*
G01*
X14611350Y2451100D01*
X14502384Y2451100D02*
G01*
X14502384Y2497836D01*
X14507463Y2513329D01*
X14512797Y2518663D01*
X14523211Y2523744D01*
X14533625Y2523744D01*
X14544040Y2518663D01*
X14549120Y2513329D01*
X14554200Y2497836D01*
X14554200Y2451100D01*
X14554200Y2487421D02*
G01*
X14611350Y2523744D01*
X14502384Y2610104D02*
G01*
X14575027Y2558034D01*
X14575027Y2636012D01*
X14502384Y2610104D02*
G01*
X14611350Y2610104D01*
X14502384Y2743200D02*
G01*
X14611350Y2691129D01*
X14502384Y2670302D02*
G01*
X14502384Y2743200D01*
X14998700Y572515D02*
G01*
X14998700Y494537D01*
X15003779Y479044D01*
X15014193Y468629D01*
X15029941Y463550D01*
X15040356Y463550D01*
X15055850Y468629D01*
X15066263Y479044D01*
X15071343Y494537D01*
X15071343Y572515D01*
X15131795Y572515D02*
G01*
X15116047Y567436D01*
X15110968Y557021D01*
X15110968Y546607D01*
X15116047Y536194D01*
X15126461Y530860D01*
X15147290Y525779D01*
X15162784Y520700D01*
X15173197Y510286D01*
X15178531Y499871D01*
X15178531Y484123D01*
X15173197Y473710D01*
X15168118Y468629D01*
X15152370Y463550D01*
X15131795Y463550D01*
X15116047Y468629D01*
X15110968Y473710D01*
X15105634Y484123D01*
X15105634Y499871D01*
X15110968Y510286D01*
X15121381Y520700D01*
X15136875Y525779D01*
X15157704Y530860D01*
X15168118Y536194D01*
X15173197Y546607D01*
X15173197Y557021D01*
X15168118Y567436D01*
X15152370Y572515D01*
X15131795Y572515D01*
X9944092Y2261615D02*
G01*
X9944092Y2183637D01*
X9949172Y2168144D01*
X9959586Y2157729D01*
X9975334Y2152650D01*
X9985748Y2152650D01*
X10001242Y2157729D01*
X10011656Y2168144D01*
X10016736Y2183637D01*
X10016736Y2261615D01*
X10051026Y2240787D02*
G01*
X10061440Y2246121D01*
X10077188Y2261615D01*
X10077188Y2152650D01*
X10111478Y2240787D02*
G01*
X10121892Y2246121D01*
X10137386Y2261615D01*
X10137386Y2152650D01*
X15049500Y2274315D02*
G01*
X15049500Y2196337D01*
X15054579Y2180844D01*
X15064993Y2170429D01*
X15080741Y2165350D01*
X15091156Y2165350D01*
X15106650Y2170429D01*
X15117063Y2180844D01*
X15122143Y2196337D01*
X15122143Y2274315D01*
X15156434Y2253487D02*
G01*
X15166847Y2258821D01*
X15182595Y2274315D01*
X15182595Y2165350D01*
X15279116Y2258821D02*
G01*
X15274036Y2269236D01*
X15258288Y2274315D01*
X15247874Y2274315D01*
X15232379Y2269236D01*
X15221966Y2253487D01*
X15216886Y2227579D01*
X15216886Y2201671D01*
X15221966Y2180844D01*
X15232379Y2170429D01*
X15247874Y2165350D01*
X15253208Y2165350D01*
X15268702Y2170429D01*
X15279116Y2180844D01*
X15284450Y2196337D01*
X15284450Y2201671D01*
X15279116Y2217165D01*
X15268702Y2227579D01*
X15253208Y2232660D01*
X15247874Y2232660D01*
X15232379Y2227579D01*
X15221966Y2217165D01*
X15216886Y2201671D01*
X15125700Y8027415D02*
G01*
X15125700Y7949437D01*
X15130779Y7933944D01*
X15141193Y7923529D01*
X15156941Y7918450D01*
X15167356Y7918450D01*
X15182850Y7923529D01*
X15193263Y7933944D01*
X15198343Y7949437D01*
X15198343Y8027415D01*
X15305531Y8011921D02*
G01*
X15295118Y8022336D01*
X15279370Y8027415D01*
X15258795Y8027415D01*
X15243047Y8022336D01*
X15232634Y8011921D01*
X15232634Y8001508D01*
X15237968Y7991094D01*
X15243047Y7985760D01*
X15253461Y7980679D01*
X15284704Y7970265D01*
X15295118Y7965186D01*
X15300197Y7959852D01*
X15305531Y7949437D01*
X15305531Y7933944D01*
X15295118Y7923529D01*
X15279370Y7918450D01*
X15258795Y7918450D01*
X15243047Y7923529D01*
X15232634Y7933944D01*
X15339822Y8027415D02*
G01*
X15339822Y7918450D01*
X15339822Y8027415D02*
G01*
X15386558Y8027415D01*
X15402052Y8022336D01*
X15407386Y8017002D01*
X15412466Y8006587D01*
X15412466Y7996173D01*
X15407386Y7985760D01*
X15402052Y7980679D01*
X15386558Y7975600D01*
X15339822Y7975600D02*
G01*
X15386558Y7975600D01*
X15402052Y7970265D01*
X15407386Y7965186D01*
X15412466Y7954771D01*
X15412466Y7939023D01*
X15407386Y7928610D01*
X15402052Y7923529D01*
X15386558Y7918450D01*
X15339822Y7918450D01*
X15446756Y8006587D02*
G01*
X15457170Y8011921D01*
X15472663Y8027415D01*
X15472663Y7918450D01*
X10782300Y877315D02*
G01*
X10782300Y799337D01*
X10787379Y783844D01*
X10797793Y773429D01*
X10813541Y768350D01*
X10823956Y768350D01*
X10839450Y773429D01*
X10849863Y783844D01*
X10854943Y799337D01*
X10854943Y877315D01*
X10894568Y851407D02*
G01*
X10894568Y856487D01*
X10899647Y866902D01*
X10904981Y872236D01*
X10915395Y877315D01*
X10935970Y877315D01*
X10946384Y872236D01*
X10951718Y866902D01*
X10956797Y856487D01*
X10956797Y846073D01*
X10951718Y835660D01*
X10941304Y820165D01*
X10889234Y768350D01*
X10962131Y768350D01*
X14238361Y2235779D02*
G01*
X14233281Y2245939D01*
X14222867Y2256353D01*
X14212453Y2261687D01*
X14191625Y2261687D01*
X14181211Y2256353D01*
X14170797Y2245939D01*
X14165717Y2235779D01*
X14160383Y2220031D01*
X14160383Y2194123D01*
X14165717Y2178629D01*
X14170797Y2168215D01*
X14181211Y2157801D01*
X14191625Y2152467D01*
X14212453Y2152467D01*
X14222867Y2157801D01*
X14233281Y2168215D01*
X14238361Y2178629D01*
X14314307Y2261687D02*
G01*
X14272651Y2152467D01*
X14314307Y2261687D02*
G01*
X14355963Y2152467D01*
X14288399Y2188789D02*
G01*
X14340215Y2188789D01*
X14390253Y2261687D02*
G01*
X14390253Y2152467D01*
X14390253Y2261687D02*
G01*
X14436989Y2261687D01*
X14452483Y2256353D01*
X14457563Y2251273D01*
X14462897Y2240859D01*
X14462897Y2230445D01*
X14457563Y2220031D01*
X14452483Y2214951D01*
X14436989Y2209617D01*
X14390253Y2209617D01*
X14426575Y2209617D02*
G01*
X14462897Y2152467D01*
X14497187Y2261687D02*
G01*
X14497187Y2152467D01*
X14497187Y2261687D02*
G01*
X14533509Y2261687D01*
X14549003Y2256353D01*
X14559417Y2245939D01*
X14564751Y2235779D01*
X14569831Y2220031D01*
X14569831Y2194123D01*
X14564751Y2178629D01*
X14559417Y2168215D01*
X14549003Y2157801D01*
X14533509Y2152467D01*
X14497187Y2152467D01*
X14604121Y2240859D02*
G01*
X14614535Y2245939D01*
X14630283Y2261687D01*
X14630283Y2152467D01*
X14122400Y6782815D02*
G01*
X14122400Y6673850D01*
X14122400Y6782815D02*
G01*
X14158722Y6782815D01*
X14174470Y6777736D01*
X14184629Y6767321D01*
X14189963Y6756908D01*
X14195043Y6741160D01*
X14195043Y6715252D01*
X14189963Y6699758D01*
X14184629Y6689344D01*
X14174470Y6678929D01*
X14158722Y6673850D01*
X14122400Y6673850D01*
X14239747Y6782815D02*
G01*
X14296897Y6782815D01*
X14265909Y6741160D01*
X14281404Y6741160D01*
X14291818Y6736079D01*
X14296897Y6731000D01*
X14302231Y6715252D01*
X14302231Y6704837D01*
X14296897Y6689344D01*
X14286484Y6678929D01*
X14270990Y6673850D01*
X14255495Y6673850D01*
X14239747Y6678929D01*
X14234668Y6684010D01*
X14229334Y6694423D01*
X6566910Y7073900D02*
G01*
X6457944Y7073900D01*
X6566910Y7073900D02*
G01*
X6457944Y7032244D01*
X6566910Y6990842D02*
G01*
X6457944Y7032244D01*
X6566910Y6990842D02*
G01*
X6457944Y6990842D01*
X6566910Y6914895D02*
G01*
X6457944Y6956552D01*
X6566910Y6914895D02*
G01*
X6457944Y6873239D01*
X6494266Y6940804D02*
G01*
X6494266Y6888987D01*
X6566910Y6838950D02*
G01*
X6457944Y6766305D01*
X6566910Y6766305D02*
G01*
X6457944Y6838950D01*
X6546082Y6732015D02*
G01*
X6551416Y6721602D01*
X6566910Y6706108D01*
X6457944Y6706108D01*
X6546082Y6671818D02*
G01*
X6551416Y6661404D01*
X6566910Y6645910D01*
X6457944Y6645910D01*
X6541002Y6606286D02*
G01*
X6546082Y6606286D01*
X6556496Y6601205D01*
X6561830Y6595871D01*
X6566910Y6585458D01*
X6566910Y6564629D01*
X6561830Y6554470D01*
X6556496Y6549136D01*
X6546082Y6544055D01*
X6535668Y6544055D01*
X6525254Y6549136D01*
X6509760Y6559550D01*
X6457944Y6611620D01*
X6457944Y6538721D01*
X6546082Y6504431D02*
G01*
X6551416Y6494018D01*
X6566910Y6478523D01*
X6457944Y6478523D01*
X6566910Y6392163D02*
G01*
X6494266Y6444234D01*
X6494266Y6366255D01*
X6566910Y6392163D02*
G01*
X6457944Y6392163D01*
X6757415Y7073900D02*
G01*
X6679438Y7073900D01*
X6663943Y7068820D01*
X6653529Y7058405D01*
X6648450Y7042658D01*
X6648450Y7032244D01*
X6653529Y7016750D01*
X6663943Y7006336D01*
X6679438Y7001255D01*
X6757415Y7001255D01*
X6757415Y6914895D02*
G01*
X6684772Y6966965D01*
X6684772Y6888987D01*
X6757415Y6914895D02*
G01*
X6648450Y6914895D01*
X5439156Y331215D02*
G01*
X5397500Y222250D01*
X5439156Y331215D02*
G01*
X5480558Y222250D01*
X5412993Y258571D02*
G01*
X5465063Y258571D01*
X5514847Y331215D02*
G01*
X5514847Y222250D01*
X5514847Y331215D02*
G01*
X5551170Y331215D01*
X5566918Y326136D01*
X5577331Y315721D01*
X5582411Y305307D01*
X5587745Y289560D01*
X5587745Y263652D01*
X5582411Y248157D01*
X5577331Y237744D01*
X5566918Y227329D01*
X5551170Y222250D01*
X5514847Y222250D01*
X5684265Y331215D02*
G01*
X5632450Y331215D01*
X5627115Y284479D01*
X5632450Y289560D01*
X5647943Y294894D01*
X5663438Y294894D01*
X5679186Y289560D01*
X5689600Y279400D01*
X5694679Y263652D01*
X5694679Y253237D01*
X5689600Y237744D01*
X5679186Y227329D01*
X5663438Y222250D01*
X5647943Y222250D01*
X5632450Y227329D01*
X5627115Y232410D01*
X5622036Y242823D01*
X5796534Y294894D02*
G01*
X5791200Y279400D01*
X5781040Y268986D01*
X5765291Y263652D01*
X5760211Y263652D01*
X5744463Y268986D01*
X5734050Y279400D01*
X5728970Y294894D01*
X5728970Y299973D01*
X5734050Y315721D01*
X5744463Y326136D01*
X5760211Y331215D01*
X5765291Y331215D01*
X5781040Y326136D01*
X5791200Y315721D01*
X5796534Y294894D01*
X5796534Y268986D01*
X5791200Y242823D01*
X5781040Y227329D01*
X5765291Y222250D01*
X5754877Y222250D01*
X5739384Y227329D01*
X5734050Y237744D01*
X5841238Y331215D02*
G01*
X5898388Y331215D01*
X5867145Y289560D01*
X5882640Y289560D01*
X5893054Y284479D01*
X5898388Y279400D01*
X5903468Y263652D01*
X5903468Y253237D01*
X5898388Y237744D01*
X5887974Y227329D01*
X5872479Y222250D01*
X5856731Y222250D01*
X5841238Y227329D01*
X5835904Y232410D01*
X5830824Y242823D01*
X5948172Y331215D02*
G01*
X6005322Y331215D01*
X5974079Y289560D01*
X5989827Y289560D01*
X6000241Y284479D01*
X6005322Y279400D01*
X6010656Y263652D01*
X6010656Y253237D01*
X6005322Y237744D01*
X5994908Y227329D01*
X5979413Y222250D01*
X5963920Y222250D01*
X5948172Y227329D01*
X5943091Y232410D01*
X5937758Y242823D01*
X5397500Y178815D02*
G01*
X5397500Y100837D01*
X5402579Y85344D01*
X5412993Y74929D01*
X5428741Y69850D01*
X5439156Y69850D01*
X5454650Y74929D01*
X5465063Y85344D01*
X5470143Y100837D01*
X5470143Y178815D01*
X5577331Y178815D02*
G01*
X5525261Y69850D01*
X5504434Y178815D02*
G01*
X5577331Y178815D01*
X4570222Y3163315D02*
G01*
X4570222Y3054350D01*
X4533900Y3163315D02*
G01*
X4606543Y3163315D01*
X4640834Y3163315D02*
G01*
X4640834Y3054350D01*
X4640834Y3163315D02*
G01*
X4682490Y3054350D01*
X4724145Y3163315D02*
G01*
X4682490Y3054350D01*
X4724145Y3163315D02*
G01*
X4724145Y3054350D01*
X4758436Y3163315D02*
G01*
X4758436Y3085337D01*
X4763515Y3069844D01*
X4773929Y3059429D01*
X4789424Y3054350D01*
X4799838Y3054350D01*
X4815586Y3059429D01*
X4826000Y3069844D01*
X4831079Y3085337D01*
X4831079Y3163315D01*
X4865370Y3163315D02*
G01*
X4938013Y3054350D01*
X4938013Y3163315D02*
G01*
X4865370Y3054350D01*
X4972304Y3142487D02*
G01*
X4982718Y3147821D01*
X4998465Y3163315D01*
X4998465Y3054350D01*
X5032756Y3142487D02*
G01*
X5043170Y3147821D01*
X5058663Y3163315D01*
X5058663Y3054350D01*
X5098034Y3137407D02*
G01*
X5098034Y3142487D01*
X5103368Y3152902D01*
X5108447Y3158236D01*
X5118861Y3163315D01*
X5139690Y3163315D01*
X5150104Y3158236D01*
X5155184Y3152902D01*
X5160518Y3142487D01*
X5160518Y3132073D01*
X5155184Y3121660D01*
X5144770Y3106165D01*
X5092954Y3054350D01*
X5165597Y3054350D01*
X5199888Y3142487D02*
G01*
X5210302Y3147821D01*
X5226050Y3163315D01*
X5226050Y3054350D01*
X5346700Y3150615D02*
G01*
X5346700Y3072637D01*
X5351779Y3057144D01*
X5362193Y3046729D01*
X5377941Y3041650D01*
X5388356Y3041650D01*
X5403850Y3046729D01*
X5414263Y3057144D01*
X5419343Y3072637D01*
X5419343Y3150615D01*
X5453634Y3129787D02*
G01*
X5464047Y3135121D01*
X5479795Y3150615D01*
X5479795Y3041650D01*
X5545074Y3150615D02*
G01*
X5529579Y3145536D01*
X5519165Y3129787D01*
X5514086Y3103879D01*
X5514086Y3088386D01*
X5519165Y3062223D01*
X5529579Y3046729D01*
X5545074Y3041650D01*
X5555488Y3041650D01*
X5571236Y3046729D01*
X5581650Y3062223D01*
X5586729Y3088386D01*
X5586729Y3103879D01*
X5581650Y3129787D01*
X5571236Y3145536D01*
X5555488Y3150615D01*
X5545074Y3150615D01*
X7240015Y2363978D02*
G01*
X7131050Y2363978D01*
X7240015Y2400300D02*
G01*
X7240015Y2327655D01*
X7240015Y2293365D02*
G01*
X7131050Y2293365D01*
X7240015Y2293365D02*
G01*
X7131050Y2251710D01*
X7240015Y2210054D02*
G01*
X7131050Y2251710D01*
X7240015Y2210054D02*
G01*
X7131050Y2210054D01*
X7240015Y2175763D02*
G01*
X7162038Y2175763D01*
X7146543Y2170684D01*
X7136129Y2160270D01*
X7131050Y2144776D01*
X7131050Y2134362D01*
X7136129Y2118613D01*
X7146543Y2108200D01*
X7162038Y2103120D01*
X7240015Y2103120D01*
X7240015Y2068829D02*
G01*
X7131050Y1996186D01*
X7240015Y1996186D02*
G01*
X7131050Y2068829D01*
X7219188Y1961895D02*
G01*
X7224522Y1951481D01*
X7240015Y1935734D01*
X7131050Y1935734D01*
X7219188Y1901444D02*
G01*
X7224522Y1891029D01*
X7240015Y1875536D01*
X7131050Y1875536D01*
X7214108Y1836165D02*
G01*
X7219188Y1836165D01*
X7229602Y1830831D01*
X7234936Y1825752D01*
X7240015Y1815337D01*
X7240015Y1794510D01*
X7234936Y1784095D01*
X7229602Y1779015D01*
X7219188Y1773681D01*
X7208774Y1773681D01*
X7198359Y1779015D01*
X7182865Y1789429D01*
X7131050Y1841245D01*
X7131050Y1768602D01*
X7240015Y1723897D02*
G01*
X7240015Y1666747D01*
X7198359Y1697989D01*
X7198359Y1682242D01*
X7193279Y1671828D01*
X7188200Y1666747D01*
X7172452Y1661413D01*
X7162038Y1661413D01*
X7146543Y1666747D01*
X7136129Y1677162D01*
X7131050Y1692655D01*
X7131050Y1708150D01*
X7136129Y1723897D01*
X7141209Y1728978D01*
X7151624Y1734312D01*
X6464300Y2299715D02*
G01*
X6464300Y2221737D01*
X6469379Y2206244D01*
X6479793Y2195829D01*
X6495541Y2190750D01*
X6505956Y2190750D01*
X6521450Y2195829D01*
X6531863Y2206244D01*
X6536943Y2221737D01*
X6536943Y2299715D01*
X6571234Y2278887D02*
G01*
X6581647Y2284221D01*
X6597395Y2299715D01*
X6597395Y2190750D01*
X6642100Y2299715D02*
G01*
X6699250Y2299715D01*
X6668008Y2258060D01*
X6683502Y2258060D01*
X6693915Y2252979D01*
X6699250Y2247900D01*
X6704329Y2232152D01*
X6704329Y2221737D01*
X6699250Y2206244D01*
X6688836Y2195829D01*
X6673088Y2190750D01*
X6657593Y2190750D01*
X6642100Y2195829D01*
X6636765Y2200910D01*
X6631686Y2211323D01*
X11112436Y6262179D02*
G01*
X11112436Y6184201D01*
X11117770Y6168707D01*
X11128184Y6158293D01*
X11143678Y6152959D01*
X11154092Y6152959D01*
X11169586Y6158293D01*
X11180000Y6168707D01*
X11185334Y6184201D01*
X11185334Y6262179D01*
X11219624Y6241351D02*
G01*
X11230038Y6246431D01*
X11245532Y6262179D01*
X11245532Y6152959D01*
X12587477Y6579108D02*
G01*
X12582143Y6589521D01*
X12571729Y6599936D01*
X12561570Y6605015D01*
X12540741Y6605015D01*
X12530327Y6599936D01*
X12519913Y6589521D01*
X12514579Y6579108D01*
X12509500Y6563360D01*
X12509500Y6537452D01*
X12514579Y6521957D01*
X12519913Y6511544D01*
X12530327Y6501129D01*
X12540741Y6496050D01*
X12561570Y6496050D01*
X12571729Y6501129D01*
X12582143Y6511544D01*
X12587477Y6521957D01*
X12621768Y6605015D02*
G01*
X12621768Y6496050D01*
X12621768Y6605015D02*
G01*
X12668504Y6605015D01*
X12683997Y6599936D01*
X12689331Y6594602D01*
X12694411Y6584187D01*
X12694411Y6568694D01*
X12689331Y6558279D01*
X12683997Y6553200D01*
X12668504Y6547865D01*
X12621768Y6547865D01*
X12734036Y6579108D02*
G01*
X12734036Y6584187D01*
X12739115Y6594602D01*
X12744450Y6599936D01*
X12754609Y6605015D01*
X12775438Y6605015D01*
X12785852Y6599936D01*
X12791186Y6594602D01*
X12796265Y6584187D01*
X12796265Y6573773D01*
X12791186Y6563360D01*
X12780772Y6547865D01*
X12728702Y6496050D01*
X12801600Y6496050D01*
X12835890Y6584187D02*
G01*
X12846050Y6589521D01*
X12861797Y6605015D01*
X12861797Y6496050D01*
X12927329Y6605015D02*
G01*
X12911581Y6599936D01*
X12901168Y6584187D01*
X12896088Y6558279D01*
X12896088Y6542786D01*
X12901168Y6516623D01*
X12911581Y6501129D01*
X12927329Y6496050D01*
X12937490Y6496050D01*
X12953238Y6501129D01*
X12963652Y6516623D01*
X12968731Y6542786D01*
X12968731Y6558279D01*
X12963652Y6584187D01*
X12953238Y6599936D01*
X12937490Y6605015D01*
X12927329Y6605015D01*
X13008356Y6579108D02*
G01*
X13008356Y6584187D01*
X13013436Y6594602D01*
X13018770Y6599936D01*
X13028929Y6605015D01*
X13049758Y6605015D01*
X13060172Y6599936D01*
X13065506Y6594602D01*
X13070586Y6584187D01*
X13070586Y6573773D01*
X13065506Y6563360D01*
X13055091Y6547865D01*
X13003022Y6496050D01*
X13075920Y6496050D01*
X13110209Y6605015D02*
G01*
X13110209Y6496050D01*
X13110209Y6605015D02*
G01*
X13182854Y6496050D01*
X13182854Y6605015D02*
G01*
X13182854Y6496050D01*
X12509474Y6770039D02*
G01*
X12509474Y6692315D01*
X12514808Y6676567D01*
X12524968Y6666153D01*
X12540716Y6661073D01*
X12551130Y6661073D01*
X12566624Y6666153D01*
X12577038Y6676567D01*
X12582118Y6692315D01*
X12582118Y6770039D01*
X12626822Y6770039D02*
G01*
X12683972Y6770039D01*
X12652984Y6728637D01*
X12668478Y6728637D01*
X12678892Y6723303D01*
X12683972Y6718223D01*
X12689306Y6702475D01*
X12689306Y6692315D01*
X12683972Y6676567D01*
X12673558Y6666153D01*
X12658064Y6661073D01*
X12642570Y6661073D01*
X12626822Y6666153D01*
X12621742Y6671487D01*
X12616408Y6681901D01*
X5575300Y4242815D02*
G01*
X5575300Y4164837D01*
X5580379Y4149344D01*
X5590793Y4138929D01*
X5606541Y4133850D01*
X5616956Y4133850D01*
X5632450Y4138929D01*
X5642863Y4149344D01*
X5647943Y4164837D01*
X5647943Y4242815D01*
X5744718Y4227321D02*
G01*
X5739384Y4237736D01*
X5723890Y4242815D01*
X5713475Y4242815D01*
X5697981Y4237736D01*
X5687568Y4221987D01*
X5682234Y4196079D01*
X5682234Y4170171D01*
X5687568Y4149344D01*
X5697981Y4138929D01*
X5713475Y4133850D01*
X5718809Y4133850D01*
X5734304Y4138929D01*
X5744718Y4149344D01*
X5749797Y4164837D01*
X5749797Y4170171D01*
X5744718Y4185665D01*
X5734304Y4196079D01*
X5718809Y4201160D01*
X5713475Y4201160D01*
X5697981Y4196079D01*
X5687568Y4185665D01*
X5682234Y4170171D01*
X6235700Y2693415D02*
G01*
X6235700Y2584450D01*
X6235700Y2693415D02*
G01*
X6282436Y2693415D01*
X6297929Y2688336D01*
X6303263Y2683002D01*
X6308343Y2672587D01*
X6308343Y2662173D01*
X6303263Y2651760D01*
X6297929Y2646679D01*
X6282436Y2641600D01*
X6235700Y2641600D01*
X6272022Y2641600D02*
G01*
X6308343Y2584450D01*
X6353047Y2693415D02*
G01*
X6410197Y2693415D01*
X6379209Y2651760D01*
X6394704Y2651760D01*
X6405118Y2646679D01*
X6410197Y2641600D01*
X6415531Y2625852D01*
X6415531Y2615437D01*
X6410197Y2599944D01*
X6399784Y2589529D01*
X6384290Y2584450D01*
X6368795Y2584450D01*
X6353047Y2589529D01*
X6347968Y2594610D01*
X6342634Y2605023D01*
X6512052Y2677921D02*
G01*
X6506972Y2688336D01*
X6491224Y2693415D01*
X6480809Y2693415D01*
X6465315Y2688336D01*
X6454902Y2672587D01*
X6449822Y2646679D01*
X6449822Y2620771D01*
X6454902Y2599944D01*
X6465315Y2589529D01*
X6480809Y2584450D01*
X6486143Y2584450D01*
X6501638Y2589529D01*
X6512052Y2599944D01*
X6517386Y2615437D01*
X6517386Y2620771D01*
X6512052Y2636265D01*
X6501638Y2646679D01*
X6486143Y2651760D01*
X6480809Y2651760D01*
X6465315Y2646679D01*
X6454902Y2636265D01*
X6449822Y2620771D01*
X5829300Y2680715D02*
G01*
X5829300Y2571750D01*
X5829300Y2680715D02*
G01*
X5876036Y2680715D01*
X5891529Y2675636D01*
X5896863Y2670302D01*
X5901943Y2659887D01*
X5901943Y2649473D01*
X5896863Y2639060D01*
X5891529Y2633979D01*
X5876036Y2628900D01*
X5829300Y2628900D01*
X5865622Y2628900D02*
G01*
X5901943Y2571750D01*
X5946647Y2680715D02*
G01*
X6003797Y2680715D01*
X5972809Y2639060D01*
X5988304Y2639060D01*
X5998718Y2633979D01*
X6003797Y2628900D01*
X6009131Y2613152D01*
X6009131Y2602737D01*
X6003797Y2587244D01*
X5993384Y2576829D01*
X5977890Y2571750D01*
X5962395Y2571750D01*
X5946647Y2576829D01*
X5941568Y2581910D01*
X5936234Y2592323D01*
X6116065Y2680715D02*
G01*
X6064250Y2571750D01*
X6043422Y2680715D02*
G01*
X6116065Y2680715D01*
X11518900Y7519415D02*
G01*
X11518900Y7441437D01*
X11523979Y7425944D01*
X11534393Y7415529D01*
X11550141Y7410450D01*
X11560556Y7410450D01*
X11576050Y7415529D01*
X11586463Y7425944D01*
X11591543Y7441437D01*
X11591543Y7519415D01*
X11625834Y7498587D02*
G01*
X11636247Y7503921D01*
X11651995Y7519415D01*
X11651995Y7410450D01*
X11738102Y7519415D02*
G01*
X11686286Y7446771D01*
X11764009Y7446771D01*
X11738102Y7519415D02*
G01*
X11738102Y7410450D01*
X13679677Y953007D02*
G01*
X13674343Y963421D01*
X13663929Y973836D01*
X13653770Y978915D01*
X13632941Y978915D01*
X13622527Y973836D01*
X13612113Y963421D01*
X13606779Y953007D01*
X13601700Y937260D01*
X13601700Y911352D01*
X13606779Y895857D01*
X13612113Y885444D01*
X13622527Y875029D01*
X13632941Y869950D01*
X13653770Y869950D01*
X13663929Y875029D01*
X13674343Y885444D01*
X13679677Y895857D01*
X13724381Y978915D02*
G01*
X13781531Y978915D01*
X13750290Y937260D01*
X13765784Y937260D01*
X13776197Y932179D01*
X13781531Y927100D01*
X13786611Y911352D01*
X13786611Y900937D01*
X13781531Y885444D01*
X13771118Y875029D01*
X13755370Y869950D01*
X13739875Y869950D01*
X13724381Y875029D01*
X13719047Y880110D01*
X13713968Y890523D01*
X13846809Y978915D02*
G01*
X13831316Y973836D01*
X13826236Y963421D01*
X13826236Y953007D01*
X13831316Y942594D01*
X13841729Y937260D01*
X13862558Y932179D01*
X13878052Y927100D01*
X13888466Y916686D01*
X13893800Y906271D01*
X13893800Y890523D01*
X13888466Y880110D01*
X13883386Y875029D01*
X13867638Y869950D01*
X13846809Y869950D01*
X13831316Y875029D01*
X13826236Y880110D01*
X13820902Y890523D01*
X13820902Y906271D01*
X13826236Y916686D01*
X13836650Y927100D01*
X13852143Y932179D01*
X13872972Y937260D01*
X13883386Y942594D01*
X13888466Y953007D01*
X13888466Y963421D01*
X13883386Y973836D01*
X13867638Y978915D01*
X13846809Y978915D01*
X13285977Y4991607D02*
G01*
X13280643Y5002021D01*
X13270229Y5012436D01*
X13260070Y5017515D01*
X13239241Y5017515D01*
X13228827Y5012436D01*
X13218413Y5002021D01*
X13213079Y4991607D01*
X13208000Y4975860D01*
X13208000Y4949952D01*
X13213079Y4934457D01*
X13218413Y4924044D01*
X13228827Y4913629D01*
X13239241Y4908550D01*
X13260070Y4908550D01*
X13270229Y4913629D01*
X13280643Y4924044D01*
X13285977Y4934457D01*
X13320268Y4996687D02*
G01*
X13330681Y5002021D01*
X13346175Y5017515D01*
X13346175Y4908550D01*
X13285977Y4661407D02*
G01*
X13280643Y4671821D01*
X13270229Y4682236D01*
X13260070Y4687315D01*
X13239241Y4687315D01*
X13228827Y4682236D01*
X13218413Y4671821D01*
X13213079Y4661407D01*
X13208000Y4645660D01*
X13208000Y4619752D01*
X13213079Y4604257D01*
X13218413Y4593844D01*
X13228827Y4583429D01*
X13239241Y4578350D01*
X13260070Y4578350D01*
X13270229Y4583429D01*
X13280643Y4593844D01*
X13285977Y4604257D01*
X13325347Y4661407D02*
G01*
X13325347Y4666487D01*
X13330681Y4676902D01*
X13335761Y4682236D01*
X13346175Y4687315D01*
X13367004Y4687315D01*
X13377418Y4682236D01*
X13382497Y4676902D01*
X13387831Y4666487D01*
X13387831Y4656073D01*
X13382497Y4645660D01*
X13372084Y4630165D01*
X13320268Y4578350D01*
X13392911Y4578350D01*
X13108177Y5880607D02*
G01*
X13102843Y5891021D01*
X13092429Y5901436D01*
X13082270Y5906515D01*
X13061441Y5906515D01*
X13051027Y5901436D01*
X13040613Y5891021D01*
X13035279Y5880607D01*
X13030200Y5864860D01*
X13030200Y5838952D01*
X13035279Y5823457D01*
X13040613Y5813044D01*
X13051027Y5802629D01*
X13061441Y5797550D01*
X13082270Y5797550D01*
X13092429Y5802629D01*
X13102843Y5813044D01*
X13108177Y5823457D01*
X13152881Y5906515D02*
G01*
X13210031Y5906515D01*
X13178790Y5864860D01*
X13194284Y5864860D01*
X13204697Y5859779D01*
X13210031Y5854700D01*
X13215111Y5838952D01*
X13215111Y5828537D01*
X13210031Y5813044D01*
X13199618Y5802629D01*
X13183870Y5797550D01*
X13168375Y5797550D01*
X13152881Y5802629D01*
X13147547Y5807710D01*
X13142468Y5818123D01*
X13324077Y7874508D02*
G01*
X13318743Y7884921D01*
X13308329Y7895336D01*
X13298170Y7900415D01*
X13277341Y7900415D01*
X13266927Y7895336D01*
X13256513Y7884921D01*
X13251179Y7874508D01*
X13246100Y7858760D01*
X13246100Y7832852D01*
X13251179Y7817358D01*
X13256513Y7806944D01*
X13266927Y7796529D01*
X13277341Y7791450D01*
X13298170Y7791450D01*
X13308329Y7796529D01*
X13318743Y7806944D01*
X13324077Y7817358D01*
X13410184Y7900415D02*
G01*
X13358368Y7827771D01*
X13436345Y7827771D01*
X13410184Y7900415D02*
G01*
X13410184Y7791450D01*
X13501877Y7430008D02*
G01*
X13496543Y7440421D01*
X13486129Y7450836D01*
X13475970Y7455915D01*
X13455141Y7455915D01*
X13444727Y7450836D01*
X13434313Y7440421D01*
X13428979Y7430008D01*
X13423900Y7414260D01*
X13423900Y7388352D01*
X13428979Y7372858D01*
X13434313Y7362444D01*
X13444727Y7352029D01*
X13455141Y7346950D01*
X13475970Y7346950D01*
X13486129Y7352029D01*
X13496543Y7362444D01*
X13501877Y7372858D01*
X13598397Y7455915D02*
G01*
X13546581Y7455915D01*
X13541247Y7409179D01*
X13546581Y7414260D01*
X13562075Y7419594D01*
X13577570Y7419594D01*
X13593318Y7414260D01*
X13603731Y7404100D01*
X13608811Y7388352D01*
X13608811Y7377937D01*
X13603731Y7362444D01*
X13593318Y7352029D01*
X13577570Y7346950D01*
X13562075Y7346950D01*
X13546581Y7352029D01*
X13541247Y7357110D01*
X13536168Y7367523D01*
X13705077Y6845808D02*
G01*
X13699743Y6856221D01*
X13689329Y6866636D01*
X13679170Y6871715D01*
X13658341Y6871715D01*
X13647927Y6866636D01*
X13637513Y6856221D01*
X13632179Y6845808D01*
X13627100Y6830060D01*
X13627100Y6804152D01*
X13632179Y6788658D01*
X13637513Y6778244D01*
X13647927Y6767829D01*
X13658341Y6762750D01*
X13679170Y6762750D01*
X13689329Y6767829D01*
X13699743Y6778244D01*
X13705077Y6788658D01*
X13801597Y6856221D02*
G01*
X13796518Y6866636D01*
X13780770Y6871715D01*
X13770609Y6871715D01*
X13754861Y6866636D01*
X13744447Y6850887D01*
X13739368Y6824979D01*
X13739368Y6799071D01*
X13744447Y6778244D01*
X13754861Y6767829D01*
X13770609Y6762750D01*
X13775690Y6762750D01*
X13791184Y6767829D01*
X13801597Y6778244D01*
X13806931Y6793737D01*
X13806931Y6799071D01*
X13801597Y6814565D01*
X13791184Y6824979D01*
X13775690Y6830060D01*
X13770609Y6830060D01*
X13754861Y6824979D01*
X13744447Y6814565D01*
X13739368Y6799071D01*
X14187677Y7214108D02*
G01*
X14182343Y7224521D01*
X14171929Y7234936D01*
X14161770Y7240015D01*
X14140941Y7240015D01*
X14130527Y7234936D01*
X14120113Y7224521D01*
X14114779Y7214108D01*
X14109700Y7198360D01*
X14109700Y7172452D01*
X14114779Y7156958D01*
X14120113Y7146544D01*
X14130527Y7136129D01*
X14140941Y7131050D01*
X14161770Y7131050D01*
X14171929Y7136129D01*
X14182343Y7146544D01*
X14187677Y7156958D01*
X14294611Y7240015D02*
G01*
X14242795Y7131050D01*
X14221968Y7240015D02*
G01*
X14294611Y7240015D01*
X9971277Y2794507D02*
G01*
X9965943Y2804921D01*
X9955529Y2815336D01*
X9945370Y2820415D01*
X9924541Y2820415D01*
X9914127Y2815336D01*
X9903713Y2804921D01*
X9898379Y2794507D01*
X9893300Y2778760D01*
X9893300Y2752852D01*
X9898379Y2737357D01*
X9903713Y2726944D01*
X9914127Y2716529D01*
X9924541Y2711450D01*
X9945370Y2711450D01*
X9955529Y2716529D01*
X9965943Y2726944D01*
X9971277Y2737357D01*
X10031475Y2820415D02*
G01*
X10015981Y2815336D01*
X10010647Y2804921D01*
X10010647Y2794507D01*
X10015981Y2784094D01*
X10026395Y2778760D01*
X10046970Y2773679D01*
X10062718Y2768600D01*
X10073131Y2758186D01*
X10078211Y2747771D01*
X10078211Y2732023D01*
X10073131Y2721610D01*
X10067797Y2716529D01*
X10052304Y2711450D01*
X10031475Y2711450D01*
X10015981Y2716529D01*
X10010647Y2721610D01*
X10005568Y2732023D01*
X10005568Y2747771D01*
X10010647Y2758186D01*
X10021061Y2768600D01*
X10036809Y2773679D01*
X10057384Y2778760D01*
X10067797Y2784094D01*
X10073131Y2794507D01*
X10073131Y2804921D01*
X10067797Y2815336D01*
X10052304Y2820415D01*
X10031475Y2820415D01*
X11241277Y5347207D02*
G01*
X11235943Y5357621D01*
X11225529Y5368036D01*
X11215370Y5373115D01*
X11194541Y5373115D01*
X11184127Y5368036D01*
X11173713Y5357621D01*
X11168379Y5347207D01*
X11163300Y5331460D01*
X11163300Y5305552D01*
X11168379Y5290057D01*
X11173713Y5279644D01*
X11184127Y5269229D01*
X11194541Y5264150D01*
X11215370Y5264150D01*
X11225529Y5269229D01*
X11235943Y5279644D01*
X11241277Y5290057D01*
X11343131Y5336794D02*
G01*
X11337797Y5321300D01*
X11327384Y5310886D01*
X11311890Y5305552D01*
X11306809Y5305552D01*
X11291061Y5310886D01*
X11280647Y5321300D01*
X11275568Y5336794D01*
X11275568Y5341873D01*
X11280647Y5357621D01*
X11291061Y5368036D01*
X11306809Y5373115D01*
X11311890Y5373115D01*
X11327384Y5368036D01*
X11337797Y5357621D01*
X11343131Y5336794D01*
X11343131Y5310886D01*
X11337797Y5284723D01*
X11327384Y5269229D01*
X11311890Y5264150D01*
X11301475Y5264150D01*
X11285981Y5269229D01*
X11280647Y5279644D01*
X11914377Y8420608D02*
G01*
X11909043Y8431021D01*
X11898629Y8441436D01*
X11888470Y8446515D01*
X11867641Y8446515D01*
X11857227Y8441436D01*
X11846813Y8431021D01*
X11841479Y8420608D01*
X11836400Y8404860D01*
X11836400Y8378952D01*
X11841479Y8363458D01*
X11846813Y8353044D01*
X11857227Y8342629D01*
X11867641Y8337550D01*
X11888470Y8337550D01*
X11898629Y8342629D01*
X11909043Y8353044D01*
X11914377Y8363458D01*
X11948668Y8425687D02*
G01*
X11959081Y8431021D01*
X11974575Y8446515D01*
X11974575Y8337550D01*
X12040108Y8446515D02*
G01*
X12024359Y8441436D01*
X12014200Y8425687D01*
X12008865Y8399779D01*
X12008865Y8384286D01*
X12014200Y8358123D01*
X12024359Y8342629D01*
X12040108Y8337550D01*
X12050522Y8337550D01*
X12066015Y8342629D01*
X12076429Y8358123D01*
X12081509Y8384286D01*
X12081509Y8399779D01*
X12076429Y8425687D01*
X12066015Y8441436D01*
X12050522Y8446515D01*
X12040108Y8446515D01*
X10400791Y6554978D02*
G01*
X10390377Y6549644D01*
X10379963Y6539229D01*
X10374884Y6529070D01*
X10374884Y6508242D01*
X10379963Y6497828D01*
X10390377Y6487413D01*
X10400791Y6482079D01*
X10416540Y6477000D01*
X10442447Y6477000D01*
X10457941Y6482079D01*
X10468356Y6487413D01*
X10478770Y6497828D01*
X10483850Y6508242D01*
X10483850Y6529070D01*
X10478770Y6539229D01*
X10468356Y6549644D01*
X10457941Y6554978D01*
X10395711Y6589268D02*
G01*
X10390377Y6599681D01*
X10374884Y6615176D01*
X10483850Y6615176D01*
X10395711Y6649465D02*
G01*
X10390377Y6659879D01*
X10374884Y6675373D01*
X10483850Y6675373D01*
X10936477Y5575807D02*
G01*
X10931143Y5586221D01*
X10920729Y5596636D01*
X10910570Y5601715D01*
X10889741Y5601715D01*
X10879327Y5596636D01*
X10868913Y5586221D01*
X10863579Y5575807D01*
X10858500Y5560060D01*
X10858500Y5534152D01*
X10863579Y5518657D01*
X10868913Y5508244D01*
X10879327Y5497829D01*
X10889741Y5492750D01*
X10910570Y5492750D01*
X10920729Y5497829D01*
X10931143Y5508244D01*
X10936477Y5518657D01*
X10970768Y5580887D02*
G01*
X10981181Y5586221D01*
X10996675Y5601715D01*
X10996675Y5492750D01*
X11041379Y5601715D02*
G01*
X11098529Y5601715D01*
X11067288Y5560060D01*
X11083036Y5560060D01*
X11093450Y5554979D01*
X11098529Y5549900D01*
X11103609Y5534152D01*
X11103609Y5523737D01*
X11098529Y5508244D01*
X11088115Y5497829D01*
X11072622Y5492750D01*
X11056874Y5492750D01*
X11041379Y5497829D01*
X11036300Y5502910D01*
X11030965Y5513323D01*
X10806277Y8217408D02*
G01*
X10800943Y8227821D01*
X10790529Y8238236D01*
X10780369Y8243315D01*
X10759541Y8243315D01*
X10749127Y8238236D01*
X10738713Y8227821D01*
X10733379Y8217408D01*
X10728299Y8201660D01*
X10728299Y8175752D01*
X10733379Y8160258D01*
X10738713Y8149844D01*
X10749127Y8139429D01*
X10759541Y8134350D01*
X10780369Y8134350D01*
X10790529Y8139429D01*
X10800943Y8149844D01*
X10806277Y8160258D01*
X10840567Y8222487D02*
G01*
X10850981Y8227821D01*
X10866475Y8243315D01*
X10866475Y8134350D01*
X10952835Y8243315D02*
G01*
X10900765Y8170671D01*
X10978743Y8170671D01*
X10952835Y8243315D02*
G01*
X10952835Y8134350D01*
X6262877Y4877307D02*
G01*
X6257543Y4887721D01*
X6247129Y4898136D01*
X6236970Y4903215D01*
X6216141Y4903215D01*
X6205727Y4898136D01*
X6195313Y4887721D01*
X6189979Y4877307D01*
X6184900Y4861560D01*
X6184900Y4835652D01*
X6189979Y4820157D01*
X6195313Y4809744D01*
X6205727Y4799329D01*
X6216141Y4794250D01*
X6236970Y4794250D01*
X6247129Y4799329D01*
X6257543Y4809744D01*
X6262877Y4820157D01*
X6297168Y4882387D02*
G01*
X6307581Y4887721D01*
X6323075Y4903215D01*
X6323075Y4794250D01*
X6419850Y4903215D02*
G01*
X6367779Y4903215D01*
X6362700Y4856479D01*
X6367779Y4861560D01*
X6383274Y4866894D01*
X6399022Y4866894D01*
X6414515Y4861560D01*
X6424929Y4851400D01*
X6430009Y4835652D01*
X6430009Y4825237D01*
X6424929Y4809744D01*
X6414515Y4799329D01*
X6399022Y4794250D01*
X6383274Y4794250D01*
X6367779Y4799329D01*
X6362700Y4804410D01*
X6357365Y4814823D01*
X6059677Y3899407D02*
G01*
X6054343Y3909821D01*
X6043929Y3920236D01*
X6033770Y3925315D01*
X6012941Y3925315D01*
X6002527Y3920236D01*
X5992113Y3909821D01*
X5986779Y3899407D01*
X5981700Y3883660D01*
X5981700Y3857752D01*
X5986779Y3842257D01*
X5992113Y3831844D01*
X6002527Y3821429D01*
X6012941Y3816350D01*
X6033770Y3816350D01*
X6043929Y3821429D01*
X6054343Y3831844D01*
X6059677Y3842257D01*
X6093968Y3904487D02*
G01*
X6104381Y3909821D01*
X6119875Y3925315D01*
X6119875Y3816350D01*
X6216650Y3909821D02*
G01*
X6211315Y3920236D01*
X6195822Y3925315D01*
X6185408Y3925315D01*
X6169659Y3920236D01*
X6159500Y3904487D01*
X6154165Y3878579D01*
X6154165Y3852671D01*
X6159500Y3831844D01*
X6169659Y3821429D01*
X6185408Y3816350D01*
X6190488Y3816350D01*
X6206236Y3821429D01*
X6216650Y3831844D01*
X6221729Y3847337D01*
X6221729Y3852671D01*
X6216650Y3868165D01*
X6206236Y3878579D01*
X6190488Y3883660D01*
X6185408Y3883660D01*
X6169659Y3878579D01*
X6159500Y3868165D01*
X6154165Y3852671D01*
X6618477Y4928107D02*
G01*
X6613143Y4938521D01*
X6602729Y4948936D01*
X6592570Y4954015D01*
X6571741Y4954015D01*
X6561327Y4948936D01*
X6550913Y4938521D01*
X6545579Y4928107D01*
X6540500Y4912360D01*
X6540500Y4886452D01*
X6545579Y4870957D01*
X6550913Y4860544D01*
X6561327Y4850129D01*
X6571741Y4845050D01*
X6592570Y4845050D01*
X6602729Y4850129D01*
X6613143Y4860544D01*
X6618477Y4870957D01*
X6652768Y4933187D02*
G01*
X6663181Y4938521D01*
X6678675Y4954015D01*
X6678675Y4845050D01*
X6785609Y4954015D02*
G01*
X6733793Y4845050D01*
X6712965Y4954015D02*
G01*
X6785609Y4954015D01*
X5157977Y4153407D02*
G01*
X5152643Y4163821D01*
X5142229Y4174236D01*
X5132070Y4179315D01*
X5111241Y4179315D01*
X5100827Y4174236D01*
X5090413Y4163821D01*
X5085079Y4153407D01*
X5080000Y4137660D01*
X5080000Y4111752D01*
X5085079Y4096257D01*
X5090413Y4085844D01*
X5100827Y4075429D01*
X5111241Y4070350D01*
X5132070Y4070350D01*
X5142229Y4075429D01*
X5152643Y4085844D01*
X5157977Y4096257D01*
X5192268Y4158487D02*
G01*
X5202681Y4163821D01*
X5218175Y4179315D01*
X5218175Y4070350D01*
X5278374Y4179315D02*
G01*
X5262879Y4174236D01*
X5257800Y4163821D01*
X5257800Y4153407D01*
X5262879Y4142994D01*
X5273293Y4137660D01*
X5294122Y4132579D01*
X5309615Y4127500D01*
X5320029Y4117086D01*
X5325109Y4106671D01*
X5325109Y4090923D01*
X5320029Y4080510D01*
X5314950Y4075429D01*
X5299202Y4070350D01*
X5278374Y4070350D01*
X5262879Y4075429D01*
X5257800Y4080510D01*
X5252465Y4090923D01*
X5252465Y4106671D01*
X5257800Y4117086D01*
X5267959Y4127500D01*
X5283708Y4132579D01*
X5304536Y4137660D01*
X5314950Y4142994D01*
X5320029Y4153407D01*
X5320029Y4163821D01*
X5314950Y4174236D01*
X5299202Y4179315D01*
X5278374Y4179315D01*
X4827777Y4801107D02*
G01*
X4822443Y4811521D01*
X4812029Y4821936D01*
X4801870Y4827015D01*
X4781041Y4827015D01*
X4770627Y4821936D01*
X4760213Y4811521D01*
X4754879Y4801107D01*
X4749800Y4785360D01*
X4749800Y4759452D01*
X4754879Y4743957D01*
X4760213Y4733544D01*
X4770627Y4723129D01*
X4781041Y4718050D01*
X4801870Y4718050D01*
X4812029Y4723129D01*
X4822443Y4733544D01*
X4827777Y4743957D01*
X4862068Y4806187D02*
G01*
X4872481Y4811521D01*
X4887975Y4827015D01*
X4887975Y4718050D01*
X4989829Y4790694D02*
G01*
X4984750Y4775200D01*
X4974336Y4764786D01*
X4958588Y4759452D01*
X4953508Y4759452D01*
X4937759Y4764786D01*
X4927600Y4775200D01*
X4922265Y4790694D01*
X4922265Y4795773D01*
X4927600Y4811521D01*
X4937759Y4821936D01*
X4953508Y4827015D01*
X4958588Y4827015D01*
X4974336Y4821936D01*
X4984750Y4811521D01*
X4989829Y4790694D01*
X4989829Y4764786D01*
X4984750Y4738623D01*
X4974336Y4723129D01*
X4958588Y4718050D01*
X4948174Y4718050D01*
X4932679Y4723129D01*
X4927600Y4733544D01*
X5310377Y7785608D02*
G01*
X5305043Y7796021D01*
X5294629Y7806436D01*
X5284470Y7811515D01*
X5263641Y7811515D01*
X5253227Y7806436D01*
X5242813Y7796021D01*
X5237479Y7785608D01*
X5232400Y7769860D01*
X5232400Y7743952D01*
X5237479Y7728458D01*
X5242813Y7718044D01*
X5253227Y7707629D01*
X5263641Y7702550D01*
X5284470Y7702550D01*
X5294629Y7707629D01*
X5305043Y7718044D01*
X5310377Y7728458D01*
X5349747Y7785608D02*
G01*
X5349747Y7790687D01*
X5355081Y7801102D01*
X5360161Y7806436D01*
X5370575Y7811515D01*
X5391404Y7811515D01*
X5401818Y7806436D01*
X5406897Y7801102D01*
X5412231Y7790687D01*
X5412231Y7780273D01*
X5406897Y7769860D01*
X5396484Y7754365D01*
X5344668Y7702550D01*
X5417311Y7702550D01*
X5482843Y7811515D02*
G01*
X5467350Y7806436D01*
X5456936Y7790687D01*
X5451602Y7764779D01*
X5451602Y7749286D01*
X5456936Y7723123D01*
X5467350Y7707629D01*
X5482843Y7702550D01*
X5493258Y7702550D01*
X5508752Y7707629D01*
X5519165Y7723123D01*
X5524500Y7749286D01*
X5524500Y7764779D01*
X5519165Y7790687D01*
X5508752Y7806436D01*
X5493258Y7811515D01*
X5482843Y7811515D01*
X6224777Y5575807D02*
G01*
X6219443Y5586221D01*
X6209029Y5596636D01*
X6198870Y5601715D01*
X6178041Y5601715D01*
X6167627Y5596636D01*
X6157213Y5586221D01*
X6151879Y5575807D01*
X6146800Y5560060D01*
X6146800Y5534152D01*
X6151879Y5518657D01*
X6157213Y5508244D01*
X6167627Y5497829D01*
X6178041Y5492750D01*
X6198870Y5492750D01*
X6209029Y5497829D01*
X6219443Y5508244D01*
X6224777Y5518657D01*
X6264147Y5575807D02*
G01*
X6264147Y5580887D01*
X6269481Y5591302D01*
X6274561Y5596636D01*
X6284975Y5601715D01*
X6305804Y5601715D01*
X6316218Y5596636D01*
X6321297Y5591302D01*
X6326631Y5580887D01*
X6326631Y5570473D01*
X6321297Y5560060D01*
X6310884Y5544565D01*
X6259068Y5492750D01*
X6331711Y5492750D01*
X6366002Y5580887D02*
G01*
X6376415Y5586221D01*
X6391909Y5601715D01*
X6391909Y5492750D01*
X5348477Y6121907D02*
G01*
X5343143Y6132321D01*
X5332729Y6142736D01*
X5322570Y6147815D01*
X5301741Y6147815D01*
X5291327Y6142736D01*
X5280913Y6132321D01*
X5275579Y6121907D01*
X5270500Y6106160D01*
X5270500Y6080252D01*
X5275579Y6064757D01*
X5280913Y6054344D01*
X5291327Y6043929D01*
X5301741Y6038850D01*
X5322570Y6038850D01*
X5332729Y6043929D01*
X5343143Y6054344D01*
X5348477Y6064757D01*
X5387847Y6121907D02*
G01*
X5387847Y6126987D01*
X5393181Y6137402D01*
X5398261Y6142736D01*
X5408675Y6147815D01*
X5429504Y6147815D01*
X5439918Y6142736D01*
X5444997Y6137402D01*
X5450331Y6126987D01*
X5450331Y6116573D01*
X5444997Y6106160D01*
X5434584Y6090665D01*
X5382768Y6038850D01*
X5455411Y6038850D01*
X5495036Y6121907D02*
G01*
X5495036Y6126987D01*
X5500115Y6137402D01*
X5505450Y6142736D01*
X5515609Y6147815D01*
X5536438Y6147815D01*
X5546852Y6142736D01*
X5552186Y6137402D01*
X5557265Y6126987D01*
X5557265Y6116573D01*
X5552186Y6106160D01*
X5541772Y6090665D01*
X5489702Y6038850D01*
X5562600Y6038850D01*
X10565891Y293878D02*
G01*
X10555477Y288544D01*
X10545063Y278129D01*
X10539984Y267970D01*
X10539984Y247142D01*
X10545063Y236728D01*
X10555477Y226313D01*
X10565891Y220979D01*
X10581640Y215900D01*
X10607547Y215900D01*
X10623041Y220979D01*
X10633456Y226313D01*
X10643870Y236728D01*
X10648950Y247142D01*
X10648950Y267970D01*
X10643870Y278129D01*
X10633456Y288544D01*
X10623041Y293878D01*
X10565891Y333247D02*
G01*
X10560811Y333247D01*
X10550397Y338581D01*
X10545063Y343662D01*
X10539984Y354076D01*
X10539984Y374904D01*
X10545063Y385318D01*
X10550397Y390397D01*
X10560811Y395731D01*
X10571225Y395731D01*
X10581640Y390397D01*
X10597134Y379984D01*
X10648950Y328168D01*
X10648950Y400812D01*
X10555477Y497586D02*
G01*
X10545063Y492252D01*
X10539984Y476757D01*
X10539984Y466344D01*
X10545063Y450850D01*
X10560811Y440436D01*
X10586720Y435102D01*
X10612627Y435102D01*
X10633456Y440436D01*
X10643870Y450850D01*
X10648950Y466344D01*
X10648950Y471423D01*
X10643870Y487171D01*
X10633456Y497586D01*
X10617961Y502665D01*
X10612627Y502665D01*
X10597134Y497586D01*
X10586720Y487171D01*
X10581640Y471423D01*
X10581640Y466344D01*
X10586720Y450850D01*
X10597134Y440436D01*
X10612627Y435102D01*
X6300977Y940307D02*
G01*
X6295643Y950721D01*
X6285229Y961136D01*
X6275070Y966215D01*
X6254241Y966215D01*
X6243827Y961136D01*
X6233413Y950721D01*
X6228079Y940307D01*
X6223000Y924560D01*
X6223000Y898652D01*
X6228079Y883157D01*
X6233413Y872744D01*
X6243827Y862329D01*
X6254241Y857250D01*
X6275070Y857250D01*
X6285229Y862329D01*
X6295643Y872744D01*
X6300977Y883157D01*
X6340347Y940307D02*
G01*
X6340347Y945387D01*
X6345681Y955802D01*
X6350761Y961136D01*
X6361175Y966215D01*
X6382004Y966215D01*
X6392418Y961136D01*
X6397497Y955802D01*
X6402831Y945387D01*
X6402831Y934973D01*
X6397497Y924560D01*
X6387084Y909065D01*
X6335268Y857250D01*
X6407911Y857250D01*
X6515100Y966215D02*
G01*
X6463029Y857250D01*
X6442202Y966215D02*
G01*
X6515100Y966215D01*
X6694677Y914907D02*
G01*
X6689343Y925321D01*
X6678929Y935736D01*
X6668770Y940815D01*
X6647941Y940815D01*
X6637527Y935736D01*
X6627113Y925321D01*
X6621779Y914907D01*
X6616700Y899160D01*
X6616700Y873252D01*
X6621779Y857757D01*
X6627113Y847344D01*
X6637527Y836929D01*
X6647941Y831850D01*
X6668770Y831850D01*
X6678929Y836929D01*
X6689343Y847344D01*
X6694677Y857757D01*
X6734047Y914907D02*
G01*
X6734047Y919987D01*
X6739381Y930402D01*
X6744461Y935736D01*
X6754875Y940815D01*
X6775704Y940815D01*
X6786118Y935736D01*
X6791197Y930402D01*
X6796531Y919987D01*
X6796531Y909573D01*
X6791197Y899160D01*
X6780784Y883665D01*
X6728968Y831850D01*
X6801611Y831850D01*
X6861809Y940815D02*
G01*
X6846315Y935736D01*
X6841236Y925321D01*
X6841236Y914907D01*
X6846315Y904494D01*
X6856729Y899160D01*
X6877558Y894079D01*
X6893052Y889000D01*
X6903465Y878586D01*
X6908800Y868171D01*
X6908800Y852423D01*
X6903465Y842010D01*
X6898386Y836929D01*
X6882638Y831850D01*
X6861809Y831850D01*
X6846315Y836929D01*
X6841236Y842010D01*
X6835902Y852423D01*
X6835902Y868171D01*
X6841236Y878586D01*
X6851650Y889000D01*
X6867143Y894079D01*
X6887972Y899160D01*
X6898386Y904494D01*
X6903465Y914907D01*
X6903465Y925321D01*
X6898386Y935736D01*
X6882638Y940815D01*
X6861809Y940815D01*
X6300977Y3086607D02*
G01*
X6295643Y3097021D01*
X6285229Y3107436D01*
X6275070Y3112515D01*
X6254241Y3112515D01*
X6243827Y3107436D01*
X6233413Y3097021D01*
X6228079Y3086607D01*
X6223000Y3070860D01*
X6223000Y3044952D01*
X6228079Y3029457D01*
X6233413Y3019044D01*
X6243827Y3008629D01*
X6254241Y3003550D01*
X6275070Y3003550D01*
X6285229Y3008629D01*
X6295643Y3019044D01*
X6300977Y3029457D01*
X6345681Y3112515D02*
G01*
X6402831Y3112515D01*
X6371590Y3070860D01*
X6387084Y3070860D01*
X6397497Y3065779D01*
X6402831Y3060700D01*
X6407911Y3044952D01*
X6407911Y3034537D01*
X6402831Y3019044D01*
X6392418Y3008629D01*
X6376670Y3003550D01*
X6361175Y3003550D01*
X6345681Y3008629D01*
X6340347Y3013710D01*
X6335268Y3024123D01*
X6473443Y3112515D02*
G01*
X6457950Y3107436D01*
X6447536Y3091687D01*
X6442202Y3065779D01*
X6442202Y3050286D01*
X6447536Y3024123D01*
X6457950Y3008629D01*
X6473443Y3003550D01*
X6483858Y3003550D01*
X6499352Y3008629D01*
X6509765Y3024123D01*
X6515100Y3050286D01*
X6515100Y3065779D01*
X6509765Y3091687D01*
X6499352Y3107436D01*
X6483858Y3112515D01*
X6473443Y3112515D01*
X6808977Y2819907D02*
G01*
X6803643Y2830321D01*
X6793229Y2840736D01*
X6783070Y2845815D01*
X6762241Y2845815D01*
X6751827Y2840736D01*
X6741413Y2830321D01*
X6736079Y2819907D01*
X6731000Y2804160D01*
X6731000Y2778252D01*
X6736079Y2762757D01*
X6741413Y2752344D01*
X6751827Y2741929D01*
X6762241Y2736850D01*
X6783070Y2736850D01*
X6793229Y2741929D01*
X6803643Y2752344D01*
X6808977Y2762757D01*
X6853681Y2845815D02*
G01*
X6910831Y2845815D01*
X6879590Y2804160D01*
X6895084Y2804160D01*
X6905497Y2799079D01*
X6910831Y2794000D01*
X6915911Y2778252D01*
X6915911Y2767837D01*
X6910831Y2752344D01*
X6900418Y2741929D01*
X6884670Y2736850D01*
X6869175Y2736850D01*
X6853681Y2741929D01*
X6848347Y2747010D01*
X6843268Y2757423D01*
X6950202Y2824987D02*
G01*
X6960615Y2830321D01*
X6976109Y2845815D01*
X6976109Y2736850D01*
X11038077Y7150608D02*
G01*
X11032743Y7161021D01*
X11022329Y7171436D01*
X11012170Y7176515D01*
X10991341Y7176515D01*
X10980927Y7171436D01*
X10970513Y7161021D01*
X10965179Y7150608D01*
X10960100Y7134860D01*
X10960100Y7108952D01*
X10965179Y7093458D01*
X10970513Y7083044D01*
X10980927Y7072629D01*
X10991341Y7067550D01*
X11012170Y7067550D01*
X11022329Y7072629D01*
X11032743Y7083044D01*
X11038077Y7093458D01*
X11082781Y7176515D02*
G01*
X11139931Y7176515D01*
X11108690Y7134860D01*
X11124184Y7134860D01*
X11134597Y7129779D01*
X11139931Y7124700D01*
X11145011Y7108952D01*
X11145011Y7098537D01*
X11139931Y7083044D01*
X11129518Y7072629D01*
X11113770Y7067550D01*
X11098275Y7067550D01*
X11082781Y7072629D01*
X11077447Y7077710D01*
X11072368Y7088123D01*
X11184636Y7150608D02*
G01*
X11184636Y7155687D01*
X11189715Y7166102D01*
X11195050Y7171436D01*
X11205209Y7176515D01*
X11226038Y7176515D01*
X11236452Y7171436D01*
X11241786Y7166102D01*
X11246865Y7155687D01*
X11246865Y7145273D01*
X11241786Y7134860D01*
X11231372Y7119365D01*
X11179302Y7067550D01*
X11252200Y7067550D01*
X5361177Y7455408D02*
G01*
X5355843Y7465821D01*
X5345429Y7476236D01*
X5335270Y7481315D01*
X5314441Y7481315D01*
X5304027Y7476236D01*
X5293613Y7465821D01*
X5288279Y7455408D01*
X5283200Y7439660D01*
X5283200Y7413752D01*
X5288279Y7398258D01*
X5293613Y7387844D01*
X5304027Y7377429D01*
X5314441Y7372350D01*
X5335270Y7372350D01*
X5345429Y7377429D01*
X5355843Y7387844D01*
X5361177Y7398258D01*
X5405881Y7481315D02*
G01*
X5463031Y7481315D01*
X5431790Y7439660D01*
X5447284Y7439660D01*
X5457697Y7434579D01*
X5463031Y7429500D01*
X5468111Y7413752D01*
X5468111Y7403337D01*
X5463031Y7387844D01*
X5452618Y7377429D01*
X5436870Y7372350D01*
X5421375Y7372350D01*
X5405881Y7377429D01*
X5400547Y7382510D01*
X5395468Y7392923D01*
X5554472Y7481315D02*
G01*
X5502402Y7408671D01*
X5580379Y7408671D01*
X5554472Y7481315D02*
G01*
X5554472Y7372350D01*
X7075677Y5791707D02*
G01*
X7070343Y5802121D01*
X7059929Y5812536D01*
X7049770Y5817615D01*
X7028941Y5817615D01*
X7018527Y5812536D01*
X7008113Y5802121D01*
X7002779Y5791707D01*
X6997700Y5775960D01*
X6997700Y5750052D01*
X7002779Y5734557D01*
X7008113Y5724144D01*
X7018527Y5713729D01*
X7028941Y5708650D01*
X7049770Y5708650D01*
X7059929Y5713729D01*
X7070343Y5724144D01*
X7075677Y5734557D01*
X7120381Y5817615D02*
G01*
X7177531Y5817615D01*
X7146290Y5775960D01*
X7161784Y5775960D01*
X7172197Y5770879D01*
X7177531Y5765800D01*
X7182611Y5750052D01*
X7182611Y5739637D01*
X7177531Y5724144D01*
X7167118Y5713729D01*
X7151370Y5708650D01*
X7135875Y5708650D01*
X7120381Y5713729D01*
X7115047Y5718810D01*
X7109968Y5729223D01*
X7279386Y5817615D02*
G01*
X7227315Y5817615D01*
X7222236Y5770879D01*
X7227315Y5775960D01*
X7242809Y5781294D01*
X7258558Y5781294D01*
X7274052Y5775960D01*
X7284465Y5765800D01*
X7289800Y5750052D01*
X7289800Y5739637D01*
X7284465Y5724144D01*
X7274052Y5713729D01*
X7258558Y5708650D01*
X7242809Y5708650D01*
X7227315Y5713729D01*
X7222236Y5718810D01*
X7216902Y5729223D01*
X6948677Y6121907D02*
G01*
X6943343Y6132321D01*
X6932929Y6142736D01*
X6922770Y6147815D01*
X6901941Y6147815D01*
X6891527Y6142736D01*
X6881113Y6132321D01*
X6875779Y6121907D01*
X6870700Y6106160D01*
X6870700Y6080252D01*
X6875779Y6064757D01*
X6881113Y6054344D01*
X6891527Y6043929D01*
X6901941Y6038850D01*
X6922770Y6038850D01*
X6932929Y6043929D01*
X6943343Y6054344D01*
X6948677Y6064757D01*
X6993381Y6147815D02*
G01*
X7050531Y6147815D01*
X7019290Y6106160D01*
X7034784Y6106160D01*
X7045197Y6101079D01*
X7050531Y6096000D01*
X7055611Y6080252D01*
X7055611Y6069837D01*
X7050531Y6054344D01*
X7040118Y6043929D01*
X7024370Y6038850D01*
X7008875Y6038850D01*
X6993381Y6043929D01*
X6988047Y6049010D01*
X6982968Y6059423D01*
X7152386Y6132321D02*
G01*
X7147052Y6142736D01*
X7131558Y6147815D01*
X7121143Y6147815D01*
X7105650Y6142736D01*
X7095236Y6126987D01*
X7089902Y6101079D01*
X7089902Y6075171D01*
X7095236Y6054344D01*
X7105650Y6043929D01*
X7121143Y6038850D01*
X7126224Y6038850D01*
X7141972Y6043929D01*
X7152386Y6054344D01*
X7157465Y6069837D01*
X7157465Y6075171D01*
X7152386Y6090665D01*
X7141972Y6101079D01*
X7126224Y6106160D01*
X7121143Y6106160D01*
X7105650Y6101079D01*
X7095236Y6090665D01*
X7089902Y6075171D01*
X5005577Y1461007D02*
G01*
X5000243Y1471421D01*
X4989829Y1481836D01*
X4979670Y1486915D01*
X4958841Y1486915D01*
X4948427Y1481836D01*
X4938013Y1471421D01*
X4932679Y1461007D01*
X4927600Y1445260D01*
X4927600Y1419352D01*
X4932679Y1403857D01*
X4938013Y1393444D01*
X4948427Y1383029D01*
X4958841Y1377950D01*
X4979670Y1377950D01*
X4989829Y1383029D01*
X5000243Y1393444D01*
X5005577Y1403857D01*
X5050281Y1486915D02*
G01*
X5107431Y1486915D01*
X5076190Y1445260D01*
X5091684Y1445260D01*
X5102097Y1440179D01*
X5107431Y1435100D01*
X5112511Y1419352D01*
X5112511Y1408937D01*
X5107431Y1393444D01*
X5097018Y1383029D01*
X5081270Y1377950D01*
X5065775Y1377950D01*
X5050281Y1383029D01*
X5044947Y1388110D01*
X5039868Y1398523D01*
X5219700Y1486915D02*
G01*
X5167629Y1377950D01*
X5146802Y1486915D02*
G01*
X5219700Y1486915D01*
X13601700Y5373115D02*
G01*
X13601700Y5264150D01*
X13601700Y5373115D02*
G01*
X13648436Y5373115D01*
X13663929Y5368036D01*
X13669263Y5362702D01*
X13674343Y5352287D01*
X13674343Y5341873D01*
X13669263Y5331460D01*
X13663929Y5326379D01*
X13648436Y5321300D01*
X13601700Y5321300D01*
X13638022Y5321300D02*
G01*
X13674343Y5264150D01*
X13708634Y5352287D02*
G01*
X13719047Y5357621D01*
X13734795Y5373115D01*
X13734795Y5264150D01*
X12521184Y7442200D02*
G01*
X12630150Y7442200D01*
X12521184Y7442200D02*
G01*
X12521184Y7488936D01*
X12526263Y7504429D01*
X12531597Y7509763D01*
X12542011Y7514844D01*
X12552425Y7514844D01*
X12562840Y7509763D01*
X12567920Y7504429D01*
X12573000Y7488936D01*
X12573000Y7442200D01*
X12573000Y7478521D02*
G01*
X12630150Y7514844D01*
X12547091Y7554468D02*
G01*
X12542011Y7554468D01*
X12531597Y7559547D01*
X12526263Y7564881D01*
X12521184Y7575295D01*
X12521184Y7595870D01*
X12526263Y7606284D01*
X12531597Y7611618D01*
X12542011Y7616697D01*
X12552425Y7616697D01*
X12562840Y7611618D01*
X12578334Y7601204D01*
X12630150Y7549134D01*
X12630150Y7622031D01*
X12725400Y8268715D02*
G01*
X12725400Y8159750D01*
X12725400Y8268715D02*
G01*
X12772136Y8268715D01*
X12787629Y8263636D01*
X12792963Y8258302D01*
X12798043Y8247887D01*
X12798043Y8237473D01*
X12792963Y8227060D01*
X12787629Y8221979D01*
X12772136Y8216900D01*
X12725400Y8216900D01*
X12761722Y8216900D02*
G01*
X12798043Y8159750D01*
X12842747Y8268715D02*
G01*
X12899897Y8268715D01*
X12868909Y8227060D01*
X12884404Y8227060D01*
X12894818Y8221979D01*
X12899897Y8216900D01*
X12905231Y8201152D01*
X12905231Y8190737D01*
X12899897Y8175244D01*
X12889484Y8164829D01*
X12873990Y8159750D01*
X12858495Y8159750D01*
X12842747Y8164829D01*
X12837668Y8169910D01*
X12832334Y8180323D01*
X12965684Y6172200D02*
G01*
X13074650Y6172200D01*
X12965684Y6172200D02*
G01*
X12965684Y6218936D01*
X12970763Y6234429D01*
X12976097Y6239763D01*
X12986511Y6244844D01*
X12996925Y6244844D01*
X13007340Y6239763D01*
X13012420Y6234429D01*
X13017500Y6218936D01*
X13017500Y6172200D01*
X13017500Y6208521D02*
G01*
X13074650Y6244844D01*
X12965684Y6341618D02*
G01*
X12965684Y6289547D01*
X13012420Y6284468D01*
X13007340Y6289547D01*
X13002006Y6305295D01*
X13002006Y6320789D01*
X13007340Y6336284D01*
X13017500Y6346697D01*
X13033247Y6352031D01*
X13043661Y6352031D01*
X13059156Y6346697D01*
X13069570Y6336284D01*
X13074650Y6320789D01*
X13074650Y6305295D01*
X13069570Y6289547D01*
X13064490Y6284468D01*
X13054075Y6279134D01*
X14084300Y5881115D02*
G01*
X14084300Y5772150D01*
X14084300Y5881115D02*
G01*
X14131036Y5881115D01*
X14146529Y5876036D01*
X14151863Y5870702D01*
X14156943Y5860287D01*
X14156943Y5849873D01*
X14151863Y5839460D01*
X14146529Y5834379D01*
X14131036Y5829300D01*
X14084300Y5829300D01*
X14120622Y5829300D02*
G01*
X14156943Y5772150D01*
X14253718Y5865621D02*
G01*
X14248384Y5876036D01*
X14232890Y5881115D01*
X14222475Y5881115D01*
X14206981Y5876036D01*
X14196568Y5860287D01*
X14191234Y5834379D01*
X14191234Y5808471D01*
X14196568Y5787644D01*
X14206981Y5777229D01*
X14222475Y5772150D01*
X14227809Y5772150D01*
X14243304Y5777229D01*
X14253718Y5787644D01*
X14258797Y5803137D01*
X14258797Y5808471D01*
X14253718Y5823965D01*
X14243304Y5834379D01*
X14227809Y5839460D01*
X14222475Y5839460D01*
X14206981Y5834379D01*
X14196568Y5823965D01*
X14191234Y5808471D01*
X12700000Y5982715D02*
G01*
X12700000Y5873750D01*
X12700000Y5982715D02*
G01*
X12746736Y5982715D01*
X12762229Y5977636D01*
X12767563Y5972302D01*
X12772643Y5961887D01*
X12772643Y5951473D01*
X12767563Y5941060D01*
X12762229Y5935979D01*
X12746736Y5930900D01*
X12700000Y5930900D01*
X12736322Y5930900D02*
G01*
X12772643Y5873750D01*
X12879831Y5982715D02*
G01*
X12827761Y5873750D01*
X12806934Y5982715D02*
G01*
X12879831Y5982715D01*
X12369800Y5982715D02*
G01*
X12369800Y5873750D01*
X12369800Y5982715D02*
G01*
X12416536Y5982715D01*
X12432029Y5977636D01*
X12437363Y5972302D01*
X12442443Y5961887D01*
X12442443Y5951473D01*
X12437363Y5941060D01*
X12432029Y5935979D01*
X12416536Y5930900D01*
X12369800Y5930900D01*
X12406122Y5930900D02*
G01*
X12442443Y5873750D01*
X12502895Y5982715D02*
G01*
X12487147Y5977636D01*
X12482068Y5967221D01*
X12482068Y5956807D01*
X12487147Y5946394D01*
X12497561Y5941060D01*
X12518390Y5935979D01*
X12533884Y5930900D01*
X12544297Y5920486D01*
X12549631Y5910071D01*
X12549631Y5894323D01*
X12544297Y5883910D01*
X12539218Y5878829D01*
X12523470Y5873750D01*
X12502895Y5873750D01*
X12487147Y5878829D01*
X12482068Y5883910D01*
X12476734Y5894323D01*
X12476734Y5910071D01*
X12482068Y5920486D01*
X12492481Y5930900D01*
X12507975Y5935979D01*
X12528804Y5941060D01*
X12539218Y5946394D01*
X12544297Y5956807D01*
X12544297Y5967221D01*
X12539218Y5977636D01*
X12523470Y5982715D01*
X12502895Y5982715D01*
X12407900Y7354315D02*
G01*
X12407900Y7245350D01*
X12407900Y7354315D02*
G01*
X12454636Y7354315D01*
X12470129Y7349236D01*
X12475463Y7343902D01*
X12480543Y7333487D01*
X12480543Y7323073D01*
X12475463Y7312660D01*
X12470129Y7307579D01*
X12454636Y7302500D01*
X12407900Y7302500D01*
X12444222Y7302500D02*
G01*
X12480543Y7245350D01*
X12582397Y7317994D02*
G01*
X12577318Y7302500D01*
X12566904Y7292086D01*
X12551409Y7286752D01*
X12546075Y7286752D01*
X12530581Y7292086D01*
X12520168Y7302500D01*
X12514834Y7317994D01*
X12514834Y7323073D01*
X12520168Y7338821D01*
X12530581Y7349236D01*
X12546075Y7354315D01*
X12551409Y7354315D01*
X12566904Y7349236D01*
X12577318Y7338821D01*
X12582397Y7317994D01*
X12582397Y7292086D01*
X12577318Y7265923D01*
X12566904Y7250429D01*
X12551409Y7245350D01*
X12540995Y7245350D01*
X12525247Y7250429D01*
X12520168Y7260844D01*
X14630400Y8332215D02*
G01*
X14630400Y8223250D01*
X14630400Y8332215D02*
G01*
X14677136Y8332215D01*
X14692629Y8327136D01*
X14697963Y8321802D01*
X14703043Y8311387D01*
X14703043Y8300973D01*
X14697963Y8290560D01*
X14692629Y8285479D01*
X14677136Y8280400D01*
X14630400Y8280400D01*
X14666722Y8280400D02*
G01*
X14703043Y8223250D01*
X14737334Y8311387D02*
G01*
X14747747Y8316721D01*
X14763495Y8332215D01*
X14763495Y8223250D01*
X14828774Y8332215D02*
G01*
X14813279Y8327136D01*
X14802866Y8311387D01*
X14797786Y8285479D01*
X14797786Y8269986D01*
X14802866Y8243823D01*
X14813279Y8228329D01*
X14828774Y8223250D01*
X14839188Y8223250D01*
X14854936Y8228329D01*
X14865350Y8243823D01*
X14870429Y8269986D01*
X14870429Y8285479D01*
X14865350Y8311387D01*
X14854936Y8327136D01*
X14839188Y8332215D01*
X14828774Y8332215D01*
X14376400Y8002015D02*
G01*
X14376400Y7893050D01*
X14376400Y8002015D02*
G01*
X14423136Y8002015D01*
X14438629Y7996936D01*
X14443963Y7991602D01*
X14449043Y7981187D01*
X14449043Y7970773D01*
X14443963Y7960360D01*
X14438629Y7955279D01*
X14423136Y7950200D01*
X14376400Y7950200D01*
X14412722Y7950200D02*
G01*
X14449043Y7893050D01*
X14483334Y7981187D02*
G01*
X14493747Y7986521D01*
X14509495Y8002015D01*
X14509495Y7893050D01*
X14543786Y7981187D02*
G01*
X14554200Y7986521D01*
X14569693Y8002015D01*
X14569693Y7893050D01*
X10198100Y7290815D02*
G01*
X10198100Y7181850D01*
X10198100Y7290815D02*
G01*
X10244836Y7290815D01*
X10260329Y7285736D01*
X10265663Y7280402D01*
X10270743Y7269987D01*
X10270743Y7259573D01*
X10265663Y7249160D01*
X10260329Y7244079D01*
X10244836Y7239000D01*
X10198100Y7239000D01*
X10234422Y7239000D02*
G01*
X10270743Y7181850D01*
X10305034Y7269987D02*
G01*
X10315447Y7275321D01*
X10331195Y7290815D01*
X10331195Y7181850D01*
X10370565Y7264908D02*
G01*
X10370565Y7269987D01*
X10375900Y7280402D01*
X10380979Y7285736D01*
X10391393Y7290815D01*
X10412222Y7290815D01*
X10422636Y7285736D01*
X10427715Y7280402D01*
X10433050Y7269987D01*
X10433050Y7259573D01*
X10427715Y7249160D01*
X10417302Y7233665D01*
X10365486Y7181850D01*
X10438129Y7181850D01*
X9981184Y6489700D02*
G01*
X10090150Y6489700D01*
X9981184Y6489700D02*
G01*
X9981184Y6536436D01*
X9986263Y6551929D01*
X9991597Y6557263D01*
X10002011Y6562344D01*
X10012425Y6562344D01*
X10022840Y6557263D01*
X10027920Y6551929D01*
X10033000Y6536436D01*
X10033000Y6489700D01*
X10033000Y6526021D02*
G01*
X10090150Y6562344D01*
X10002011Y6596634D02*
G01*
X9996677Y6607047D01*
X9981184Y6622795D01*
X10090150Y6622795D01*
X9981184Y6667500D02*
G01*
X9981184Y6724650D01*
X10022840Y6693408D01*
X10022840Y6708902D01*
X10027920Y6719315D01*
X10033000Y6724650D01*
X10048747Y6729729D01*
X10059161Y6729729D01*
X10074656Y6724650D01*
X10085070Y6714236D01*
X10090150Y6698487D01*
X10090150Y6682994D01*
X10085070Y6667500D01*
X10079990Y6662165D01*
X10069575Y6657086D01*
X9968484Y5816600D02*
G01*
X10077450Y5816600D01*
X9968484Y5816600D02*
G01*
X9968484Y5863336D01*
X9973563Y5878829D01*
X9978897Y5884163D01*
X9989311Y5889244D01*
X9999725Y5889244D01*
X10010140Y5884163D01*
X10015220Y5878829D01*
X10020300Y5863336D01*
X10020300Y5816600D01*
X10020300Y5852921D02*
G01*
X10077450Y5889244D01*
X9989311Y5923534D02*
G01*
X9983977Y5933947D01*
X9968484Y5949695D01*
X10077450Y5949695D01*
X9968484Y6035802D02*
G01*
X10041127Y5983986D01*
X10041127Y6061710D01*
X9968484Y6035802D02*
G01*
X10077450Y6035802D01*
X12026900Y5995415D02*
G01*
X12026900Y5886450D01*
X12026900Y5995415D02*
G01*
X12073636Y5995415D01*
X12089129Y5990336D01*
X12094463Y5985002D01*
X12099543Y5974587D01*
X12099543Y5964173D01*
X12094463Y5953760D01*
X12089129Y5948679D01*
X12073636Y5943600D01*
X12026900Y5943600D01*
X12063222Y5943600D02*
G01*
X12099543Y5886450D01*
X12133834Y5974587D02*
G01*
X12144247Y5979921D01*
X12159995Y5995415D01*
X12159995Y5886450D01*
X12256515Y5995415D02*
G01*
X12204700Y5995415D01*
X12199365Y5948679D01*
X12204700Y5953760D01*
X12220193Y5959094D01*
X12235688Y5959094D01*
X12251436Y5953760D01*
X12261850Y5943600D01*
X12266929Y5927852D01*
X12266929Y5917437D01*
X12261850Y5901944D01*
X12251436Y5891529D01*
X12235688Y5886450D01*
X12220193Y5886450D01*
X12204700Y5891529D01*
X12199365Y5896610D01*
X12194286Y5907023D01*
X11430000Y5639815D02*
G01*
X11430000Y5530850D01*
X11430000Y5639815D02*
G01*
X11476736Y5639815D01*
X11492229Y5634736D01*
X11497563Y5629402D01*
X11502643Y5618987D01*
X11502643Y5608573D01*
X11497563Y5598160D01*
X11492229Y5593079D01*
X11476736Y5588000D01*
X11430000Y5588000D01*
X11466322Y5588000D02*
G01*
X11502643Y5530850D01*
X11536934Y5618987D02*
G01*
X11547347Y5624321D01*
X11563095Y5639815D01*
X11563095Y5530850D01*
X11659615Y5624321D02*
G01*
X11654536Y5634736D01*
X11638788Y5639815D01*
X11628374Y5639815D01*
X11612879Y5634736D01*
X11602465Y5618987D01*
X11597386Y5593079D01*
X11597386Y5567171D01*
X11602465Y5546344D01*
X11612879Y5535929D01*
X11628374Y5530850D01*
X11633708Y5530850D01*
X11649202Y5535929D01*
X11659615Y5546344D01*
X11664950Y5561837D01*
X11664950Y5567171D01*
X11659615Y5582665D01*
X11649202Y5593079D01*
X11633708Y5598160D01*
X11628374Y5598160D01*
X11612879Y5593079D01*
X11602465Y5582665D01*
X11597386Y5567171D01*
X11823700Y6160515D02*
G01*
X11823700Y6051550D01*
X11823700Y6160515D02*
G01*
X11870436Y6160515D01*
X11885929Y6155436D01*
X11891263Y6150102D01*
X11896343Y6139687D01*
X11896343Y6129273D01*
X11891263Y6118860D01*
X11885929Y6113779D01*
X11870436Y6108700D01*
X11823700Y6108700D01*
X11860022Y6108700D02*
G01*
X11896343Y6051550D01*
X11930634Y6139687D02*
G01*
X11941047Y6145021D01*
X11956795Y6160515D01*
X11956795Y6051550D01*
X12063729Y6160515D02*
G01*
X12011659Y6051550D01*
X11991086Y6160515D02*
G01*
X12063729Y6160515D01*
X11785600Y6465315D02*
G01*
X11785600Y6356350D01*
X11785600Y6465315D02*
G01*
X11832336Y6465315D01*
X11847829Y6460236D01*
X11853163Y6454902D01*
X11858243Y6444487D01*
X11858243Y6434073D01*
X11853163Y6423660D01*
X11847829Y6418579D01*
X11832336Y6413500D01*
X11785600Y6413500D01*
X11821922Y6413500D02*
G01*
X11858243Y6356350D01*
X11892534Y6444487D02*
G01*
X11902947Y6449821D01*
X11918695Y6465315D01*
X11918695Y6356350D01*
X11978893Y6465315D02*
G01*
X11963400Y6460236D01*
X11958065Y6449821D01*
X11958065Y6439407D01*
X11963400Y6428994D01*
X11973559Y6423660D01*
X11994388Y6418579D01*
X12010136Y6413500D01*
X12020550Y6403086D01*
X12025629Y6392671D01*
X12025629Y6376923D01*
X12020550Y6366510D01*
X12015215Y6361429D01*
X11999722Y6356350D01*
X11978893Y6356350D01*
X11963400Y6361429D01*
X11958065Y6366510D01*
X11952986Y6376923D01*
X11952986Y6392671D01*
X11958065Y6403086D01*
X11968479Y6413500D01*
X11983974Y6418579D01*
X12004802Y6423660D01*
X12015215Y6428994D01*
X12020550Y6439407D01*
X12020550Y6449821D01*
X12015215Y6460236D01*
X11999722Y6465315D01*
X11978893Y6465315D01*
X11798300Y6782815D02*
G01*
X11798300Y6673850D01*
X11798300Y6782815D02*
G01*
X11845036Y6782815D01*
X11860529Y6777736D01*
X11865863Y6772402D01*
X11870943Y6761987D01*
X11870943Y6751573D01*
X11865863Y6741160D01*
X11860529Y6736079D01*
X11845036Y6731000D01*
X11798300Y6731000D01*
X11834622Y6731000D02*
G01*
X11870943Y6673850D01*
X11905234Y6761987D02*
G01*
X11915647Y6767321D01*
X11931395Y6782815D01*
X11931395Y6673850D01*
X12033250Y6746494D02*
G01*
X12027915Y6731000D01*
X12017502Y6720586D01*
X12002008Y6715252D01*
X11996674Y6715252D01*
X11981179Y6720586D01*
X11970765Y6731000D01*
X11965686Y6746494D01*
X11965686Y6751573D01*
X11970765Y6767321D01*
X11981179Y6777736D01*
X11996674Y6782815D01*
X12002008Y6782815D01*
X12017502Y6777736D01*
X12027915Y6767321D01*
X12033250Y6746494D01*
X12033250Y6720586D01*
X12027915Y6694423D01*
X12017502Y6678929D01*
X12002008Y6673850D01*
X11991593Y6673850D01*
X11976100Y6678929D01*
X11970765Y6689344D01*
X10426700Y5690615D02*
G01*
X10426700Y5581650D01*
X10426700Y5690615D02*
G01*
X10473436Y5690615D01*
X10488929Y5685536D01*
X10494263Y5680202D01*
X10499343Y5669787D01*
X10499343Y5659373D01*
X10494263Y5648960D01*
X10488929Y5643879D01*
X10473436Y5638800D01*
X10426700Y5638800D01*
X10463022Y5638800D02*
G01*
X10499343Y5581650D01*
X10538968Y5664707D02*
G01*
X10538968Y5669787D01*
X10544047Y5680202D01*
X10549381Y5685536D01*
X10559795Y5690615D01*
X10580370Y5690615D01*
X10590784Y5685536D01*
X10596118Y5680202D01*
X10601197Y5669787D01*
X10601197Y5659373D01*
X10596118Y5648960D01*
X10585704Y5633465D01*
X10533634Y5581650D01*
X10606531Y5581650D01*
X10671809Y5690615D02*
G01*
X10656315Y5685536D01*
X10645902Y5669787D01*
X10640822Y5643879D01*
X10640822Y5628386D01*
X10645902Y5602223D01*
X10656315Y5586729D01*
X10671809Y5581650D01*
X10682224Y5581650D01*
X10697972Y5586729D01*
X10708386Y5602223D01*
X10713465Y5628386D01*
X10713465Y5643879D01*
X10708386Y5669787D01*
X10697972Y5685536D01*
X10682224Y5690615D01*
X10671809Y5690615D01*
X10629900Y5398515D02*
G01*
X10629900Y5289550D01*
X10629900Y5398515D02*
G01*
X10676636Y5398515D01*
X10692129Y5393436D01*
X10697463Y5388102D01*
X10702543Y5377687D01*
X10702543Y5367273D01*
X10697463Y5356860D01*
X10692129Y5351779D01*
X10676636Y5346700D01*
X10629900Y5346700D01*
X10666222Y5346700D02*
G01*
X10702543Y5289550D01*
X10742168Y5372607D02*
G01*
X10742168Y5377687D01*
X10747247Y5388102D01*
X10752581Y5393436D01*
X10762995Y5398515D01*
X10783570Y5398515D01*
X10793984Y5393436D01*
X10799318Y5388102D01*
X10804397Y5377687D01*
X10804397Y5367273D01*
X10799318Y5356860D01*
X10788904Y5341365D01*
X10736834Y5289550D01*
X10809731Y5289550D01*
X10844022Y5377687D02*
G01*
X10854436Y5383021D01*
X10869929Y5398515D01*
X10869929Y5289550D01*
X9956876Y5436615D02*
G01*
X9956876Y5327650D01*
X9956876Y5436615D02*
G01*
X10003612Y5436615D01*
X10019106Y5431536D01*
X10024440Y5426202D01*
X10029520Y5415787D01*
X10029520Y5405373D01*
X10024440Y5394960D01*
X10019106Y5389879D01*
X10003612Y5384800D01*
X9956876Y5384800D01*
X9993198Y5384800D02*
G01*
X10029520Y5327650D01*
X10069144Y5410707D02*
G01*
X10069144Y5415787D01*
X10074224Y5426202D01*
X10079304Y5431536D01*
X10089718Y5436615D01*
X10110546Y5436615D01*
X10120960Y5431536D01*
X10126294Y5426202D01*
X10131374Y5415787D01*
X10131374Y5405373D01*
X10126294Y5394960D01*
X10115880Y5379465D01*
X10063810Y5327650D01*
X10136454Y5327650D01*
X10176078Y5410707D02*
G01*
X10176078Y5415787D01*
X10181158Y5426202D01*
X10186492Y5431536D01*
X10196906Y5436615D01*
X10217734Y5436615D01*
X10227894Y5431536D01*
X10233228Y5426202D01*
X10238308Y5415787D01*
X10238308Y5405373D01*
X10233228Y5394960D01*
X10222814Y5379465D01*
X10170744Y5327650D01*
X10243642Y5327650D01*
X13004723Y1702815D02*
G01*
X13004723Y1593850D01*
X13004723Y1702815D02*
G01*
X13051459Y1702815D01*
X13067207Y1697736D01*
X13072287Y1692402D01*
X13077621Y1681987D01*
X13077621Y1671573D01*
X13072287Y1661160D01*
X13067207Y1656079D01*
X13051459Y1651000D01*
X13004723Y1651000D01*
X13041045Y1651000D02*
G01*
X13077621Y1593850D01*
X13116991Y1676907D02*
G01*
X13116991Y1681987D01*
X13122325Y1692402D01*
X13127405Y1697736D01*
X13137819Y1702815D01*
X13158647Y1702815D01*
X13169061Y1697736D01*
X13174141Y1692402D01*
X13179475Y1681987D01*
X13179475Y1671573D01*
X13174141Y1661160D01*
X13163727Y1645665D01*
X13111911Y1593850D01*
X13184555Y1593850D01*
X13229259Y1702815D02*
G01*
X13286409Y1702815D01*
X13255167Y1661160D01*
X13270915Y1661160D01*
X13281075Y1656079D01*
X13286409Y1651000D01*
X13291489Y1635252D01*
X13291489Y1624837D01*
X13286409Y1609344D01*
X13275995Y1598929D01*
X13260501Y1593850D01*
X13244753Y1593850D01*
X13229259Y1598929D01*
X13223925Y1604010D01*
X13218845Y1614423D01*
X13792123Y509015D02*
G01*
X13792123Y400050D01*
X13792123Y509015D02*
G01*
X13838859Y509015D01*
X13854607Y503936D01*
X13859687Y498602D01*
X13865021Y488187D01*
X13865021Y477773D01*
X13859687Y467360D01*
X13854607Y462279D01*
X13838859Y457200D01*
X13792123Y457200D01*
X13828445Y457200D02*
G01*
X13865021Y400050D01*
X13904391Y483107D02*
G01*
X13904391Y488187D01*
X13909725Y498602D01*
X13914805Y503936D01*
X13925219Y509015D01*
X13946047Y509015D01*
X13956461Y503936D01*
X13961541Y498602D01*
X13966875Y488187D01*
X13966875Y477773D01*
X13961541Y467360D01*
X13951127Y451865D01*
X13899311Y400050D01*
X13971955Y400050D01*
X14058315Y509015D02*
G01*
X14006245Y436371D01*
X14084223Y436371D01*
X14058315Y509015D02*
G01*
X14058315Y400050D01*
X6641084Y7886700D02*
G01*
X6750050Y7886700D01*
X6641084Y7886700D02*
G01*
X6641084Y7933436D01*
X6646163Y7948929D01*
X6651497Y7954263D01*
X6661911Y7959344D01*
X6672325Y7959344D01*
X6682740Y7954263D01*
X6687820Y7948929D01*
X6692900Y7933436D01*
X6692900Y7886700D01*
X6692900Y7923021D02*
G01*
X6750050Y7959344D01*
X6666991Y7998968D02*
G01*
X6661911Y7998968D01*
X6651497Y8004047D01*
X6646163Y8009381D01*
X6641084Y8019795D01*
X6641084Y8040370D01*
X6646163Y8050784D01*
X6651497Y8056118D01*
X6661911Y8061197D01*
X6672325Y8061197D01*
X6682740Y8056118D01*
X6698234Y8045704D01*
X6750050Y7993634D01*
X6750050Y8066531D01*
X6641084Y8163052D02*
G01*
X6641084Y8111236D01*
X6687820Y8105902D01*
X6682740Y8111236D01*
X6677406Y8126729D01*
X6677406Y8142223D01*
X6682740Y8157971D01*
X6692900Y8168386D01*
X6708647Y8173465D01*
X6719061Y8173465D01*
X6734556Y8168386D01*
X6744970Y8157971D01*
X6750050Y8142223D01*
X6750050Y8126729D01*
X6744970Y8111236D01*
X6739890Y8105902D01*
X6729475Y8100821D01*
X6298184Y7886700D02*
G01*
X6407150Y7886700D01*
X6298184Y7886700D02*
G01*
X6298184Y7933436D01*
X6303263Y7948929D01*
X6308597Y7954263D01*
X6319011Y7959344D01*
X6329425Y7959344D01*
X6339840Y7954263D01*
X6344920Y7948929D01*
X6350000Y7933436D01*
X6350000Y7886700D01*
X6350000Y7923021D02*
G01*
X6407150Y7959344D01*
X6324091Y7998968D02*
G01*
X6319011Y7998968D01*
X6308597Y8004047D01*
X6303263Y8009381D01*
X6298184Y8019795D01*
X6298184Y8040370D01*
X6303263Y8050784D01*
X6308597Y8056118D01*
X6319011Y8061197D01*
X6329425Y8061197D01*
X6339840Y8056118D01*
X6355334Y8045704D01*
X6407150Y7993634D01*
X6407150Y8066531D01*
X6313677Y8163052D02*
G01*
X6303263Y8157971D01*
X6298184Y8142223D01*
X6298184Y8131810D01*
X6303263Y8116315D01*
X6319011Y8105902D01*
X6344920Y8100821D01*
X6370827Y8100821D01*
X6391656Y8105902D01*
X6402070Y8116315D01*
X6407150Y8131810D01*
X6407150Y8137144D01*
X6402070Y8152637D01*
X6391656Y8163052D01*
X6376161Y8168386D01*
X6370827Y8168386D01*
X6355334Y8163052D01*
X6344920Y8152637D01*
X6339840Y8137144D01*
X6339840Y8131810D01*
X6344920Y8116315D01*
X6355334Y8105902D01*
X6370827Y8100821D01*
X5753100Y5817615D02*
G01*
X5753100Y5708650D01*
X5753100Y5817615D02*
G01*
X5799836Y5817615D01*
X5815329Y5812536D01*
X5820663Y5807202D01*
X5825743Y5796787D01*
X5825743Y5786373D01*
X5820663Y5775960D01*
X5815329Y5770879D01*
X5799836Y5765800D01*
X5753100Y5765800D01*
X5789422Y5765800D02*
G01*
X5825743Y5708650D01*
X5865368Y5791707D02*
G01*
X5865368Y5796787D01*
X5870447Y5807202D01*
X5875781Y5812536D01*
X5886195Y5817615D01*
X5906770Y5817615D01*
X5917184Y5812536D01*
X5922518Y5807202D01*
X5927597Y5796787D01*
X5927597Y5786373D01*
X5922518Y5775960D01*
X5912104Y5760465D01*
X5860034Y5708650D01*
X5932931Y5708650D01*
X6039865Y5817615D02*
G01*
X5988050Y5708650D01*
X5967222Y5817615D02*
G01*
X6039865Y5817615D01*
X4051300Y6630415D02*
G01*
X4051300Y6521450D01*
X4051300Y6630415D02*
G01*
X4098036Y6630415D01*
X4113529Y6625336D01*
X4118863Y6620002D01*
X4123943Y6609587D01*
X4123943Y6599173D01*
X4118863Y6588760D01*
X4113529Y6583679D01*
X4098036Y6578600D01*
X4051300Y6578600D01*
X4087622Y6578600D02*
G01*
X4123943Y6521450D01*
X4163568Y6604508D02*
G01*
X4163568Y6609587D01*
X4168647Y6620002D01*
X4173981Y6625336D01*
X4184395Y6630415D01*
X4204970Y6630415D01*
X4215384Y6625336D01*
X4220718Y6620002D01*
X4225797Y6609587D01*
X4225797Y6599173D01*
X4220718Y6588760D01*
X4210304Y6573265D01*
X4158234Y6521450D01*
X4231131Y6521450D01*
X4291329Y6630415D02*
G01*
X4275836Y6625336D01*
X4270502Y6614921D01*
X4270502Y6604508D01*
X4275836Y6594094D01*
X4286250Y6588760D01*
X4306824Y6583679D01*
X4322572Y6578600D01*
X4332986Y6568186D01*
X4338065Y6557771D01*
X4338065Y6542023D01*
X4332986Y6531610D01*
X4327652Y6526529D01*
X4312158Y6521450D01*
X4291329Y6521450D01*
X4275836Y6526529D01*
X4270502Y6531610D01*
X4265422Y6542023D01*
X4265422Y6557771D01*
X4270502Y6568186D01*
X4280915Y6578600D01*
X4296409Y6583679D01*
X4317238Y6588760D01*
X4327652Y6594094D01*
X4332986Y6604508D01*
X4332986Y6614921D01*
X4327652Y6625336D01*
X4312158Y6630415D01*
X4291329Y6630415D01*
X4051300Y7354315D02*
G01*
X4051300Y7245350D01*
X4051300Y7354315D02*
G01*
X4098036Y7354315D01*
X4113529Y7349236D01*
X4118863Y7343902D01*
X4123943Y7333487D01*
X4123943Y7323073D01*
X4118863Y7312660D01*
X4113529Y7307579D01*
X4098036Y7302500D01*
X4051300Y7302500D01*
X4087622Y7302500D02*
G01*
X4123943Y7245350D01*
X4163568Y7328408D02*
G01*
X4163568Y7333487D01*
X4168647Y7343902D01*
X4173981Y7349236D01*
X4184395Y7354315D01*
X4204970Y7354315D01*
X4215384Y7349236D01*
X4220718Y7343902D01*
X4225797Y7333487D01*
X4225797Y7323073D01*
X4220718Y7312660D01*
X4210304Y7297165D01*
X4158234Y7245350D01*
X4231131Y7245350D01*
X4332986Y7317994D02*
G01*
X4327652Y7302500D01*
X4317238Y7292086D01*
X4301743Y7286752D01*
X4296409Y7286752D01*
X4280915Y7292086D01*
X4270502Y7302500D01*
X4265422Y7317994D01*
X4265422Y7323073D01*
X4270502Y7338821D01*
X4280915Y7349236D01*
X4296409Y7354315D01*
X4301743Y7354315D01*
X4317238Y7349236D01*
X4327652Y7338821D01*
X4332986Y7317994D01*
X4332986Y7292086D01*
X4327652Y7265923D01*
X4317238Y7250429D01*
X4301743Y7245350D01*
X4291329Y7245350D01*
X4275836Y7250429D01*
X4270502Y7260844D01*
X5080000Y6668515D02*
G01*
X5080000Y6559550D01*
X5080000Y6668515D02*
G01*
X5126736Y6668515D01*
X5142229Y6663436D01*
X5147563Y6658102D01*
X5152643Y6647687D01*
X5152643Y6637273D01*
X5147563Y6626860D01*
X5142229Y6621779D01*
X5126736Y6616700D01*
X5080000Y6616700D01*
X5116322Y6616700D02*
G01*
X5152643Y6559550D01*
X5197347Y6668515D02*
G01*
X5254497Y6668515D01*
X5223509Y6626860D01*
X5239004Y6626860D01*
X5249418Y6621779D01*
X5254497Y6616700D01*
X5259831Y6600952D01*
X5259831Y6590537D01*
X5254497Y6575044D01*
X5244084Y6564629D01*
X5228590Y6559550D01*
X5213095Y6559550D01*
X5197347Y6564629D01*
X5192268Y6569710D01*
X5186934Y6580123D01*
X5325109Y6668515D02*
G01*
X5309615Y6663436D01*
X5299202Y6647687D01*
X5294122Y6621779D01*
X5294122Y6606286D01*
X5299202Y6580123D01*
X5309615Y6564629D01*
X5325109Y6559550D01*
X5335524Y6559550D01*
X5351272Y6564629D01*
X5361686Y6580123D01*
X5366765Y6606286D01*
X5366765Y6621779D01*
X5361686Y6647687D01*
X5351272Y6663436D01*
X5335524Y6668515D01*
X5325109Y6668515D01*
X5092700Y7316215D02*
G01*
X5092700Y7207250D01*
X5092700Y7316215D02*
G01*
X5139436Y7316215D01*
X5154929Y7311136D01*
X5160263Y7305802D01*
X5165343Y7295387D01*
X5165343Y7284973D01*
X5160263Y7274560D01*
X5154929Y7269479D01*
X5139436Y7264400D01*
X5092700Y7264400D01*
X5129022Y7264400D02*
G01*
X5165343Y7207250D01*
X5210047Y7316215D02*
G01*
X5267197Y7316215D01*
X5236209Y7274560D01*
X5251704Y7274560D01*
X5262118Y7269479D01*
X5267197Y7264400D01*
X5272531Y7248652D01*
X5272531Y7238237D01*
X5267197Y7222744D01*
X5256784Y7212329D01*
X5241290Y7207250D01*
X5225795Y7207250D01*
X5210047Y7212329D01*
X5204968Y7217410D01*
X5199634Y7227823D01*
X5306822Y7295387D02*
G01*
X5317236Y7300721D01*
X5332729Y7316215D01*
X5332729Y7207250D01*
X12890500Y280415D02*
G01*
X12890500Y171450D01*
X12890500Y280415D02*
G01*
X12937236Y280415D01*
X12952729Y275336D01*
X12958063Y270002D01*
X12963143Y259587D01*
X12963143Y249173D01*
X12958063Y238760D01*
X12952729Y233679D01*
X12937236Y228600D01*
X12890500Y228600D01*
X12926822Y228600D02*
G01*
X12963143Y171450D01*
X13007847Y280415D02*
G01*
X13064997Y280415D01*
X13034009Y238760D01*
X13049504Y238760D01*
X13059918Y233679D01*
X13064997Y228600D01*
X13070331Y212852D01*
X13070331Y202437D01*
X13064997Y186944D01*
X13054584Y176529D01*
X13039090Y171450D01*
X13023595Y171450D01*
X13007847Y176529D01*
X13002768Y181610D01*
X12997434Y192023D01*
X13109702Y254507D02*
G01*
X13109702Y259587D01*
X13115036Y270002D01*
X13120116Y275336D01*
X13130529Y280415D01*
X13151358Y280415D01*
X13161772Y275336D01*
X13166852Y270002D01*
X13172186Y259587D01*
X13172186Y249173D01*
X13166852Y238760D01*
X13156438Y223265D01*
X13104622Y171450D01*
X13177266Y171450D01*
X13258800Y839215D02*
G01*
X13258800Y730250D01*
X13258800Y839215D02*
G01*
X13305536Y839215D01*
X13321029Y834136D01*
X13326363Y828802D01*
X13331443Y818387D01*
X13331443Y807973D01*
X13326363Y797560D01*
X13321029Y792479D01*
X13305536Y787400D01*
X13258800Y787400D01*
X13295122Y787400D02*
G01*
X13331443Y730250D01*
X13376147Y839215D02*
G01*
X13433297Y839215D01*
X13402309Y797560D01*
X13417804Y797560D01*
X13428218Y792479D01*
X13433297Y787400D01*
X13438631Y771652D01*
X13438631Y761237D01*
X13433297Y745744D01*
X13422884Y735329D01*
X13407390Y730250D01*
X13391895Y730250D01*
X13376147Y735329D01*
X13371068Y740410D01*
X13365734Y750823D01*
X13483336Y839215D02*
G01*
X13540486Y839215D01*
X13509243Y797560D01*
X13524738Y797560D01*
X13535152Y792479D01*
X13540486Y787400D01*
X13545566Y771652D01*
X13545566Y761237D01*
X13540486Y745744D01*
X13530072Y735329D01*
X13514324Y730250D01*
X13498829Y730250D01*
X13483336Y735329D01*
X13478002Y740410D01*
X13472922Y750823D01*
X10146284Y228600D02*
G01*
X10255250Y228600D01*
X10146284Y228600D02*
G01*
X10146284Y275336D01*
X10151363Y290829D01*
X10156697Y296163D01*
X10167111Y301244D01*
X10177525Y301244D01*
X10187940Y296163D01*
X10193020Y290829D01*
X10198100Y275336D01*
X10198100Y228600D01*
X10198100Y264921D02*
G01*
X10255250Y301244D01*
X10146284Y345947D02*
G01*
X10146284Y403097D01*
X10187940Y372110D01*
X10187940Y387604D01*
X10193020Y398018D01*
X10198100Y403097D01*
X10213847Y408431D01*
X10224261Y408431D01*
X10239756Y403097D01*
X10250170Y392684D01*
X10255250Y377189D01*
X10255250Y361695D01*
X10250170Y345947D01*
X10245090Y340868D01*
X10234675Y335534D01*
X10146284Y494537D02*
G01*
X10218927Y442721D01*
X10218927Y520700D01*
X10146284Y494537D02*
G01*
X10255250Y494537D01*
X4838700Y585215D02*
G01*
X4838700Y476250D01*
X4838700Y585215D02*
G01*
X4885436Y585215D01*
X4900929Y580136D01*
X4906263Y574802D01*
X4911343Y564387D01*
X4911343Y553973D01*
X4906263Y543560D01*
X4900929Y538479D01*
X4885436Y533400D01*
X4838700Y533400D01*
X4875022Y533400D02*
G01*
X4911343Y476250D01*
X4956047Y585215D02*
G01*
X5013197Y585215D01*
X4982209Y543560D01*
X4997704Y543560D01*
X5008118Y538479D01*
X5013197Y533400D01*
X5018531Y517652D01*
X5018531Y507237D01*
X5013197Y491744D01*
X5002784Y481329D01*
X4987290Y476250D01*
X4971795Y476250D01*
X4956047Y481329D01*
X4950968Y486410D01*
X4945634Y496823D01*
X5115052Y585215D02*
G01*
X5063236Y585215D01*
X5057902Y538479D01*
X5063236Y543560D01*
X5078729Y548894D01*
X5094224Y548894D01*
X5109972Y543560D01*
X5120386Y533400D01*
X5125465Y517652D01*
X5125465Y507237D01*
X5120386Y491744D01*
X5109972Y481329D01*
X5094224Y476250D01*
X5078729Y476250D01*
X5063236Y481329D01*
X5057902Y486410D01*
X5052822Y496823D01*
X5676900Y1613915D02*
G01*
X5676900Y1504950D01*
X5676900Y1613915D02*
G01*
X5723636Y1613915D01*
X5739129Y1608836D01*
X5744463Y1603502D01*
X5749543Y1593087D01*
X5749543Y1582673D01*
X5744463Y1572260D01*
X5739129Y1567179D01*
X5723636Y1562100D01*
X5676900Y1562100D01*
X5713222Y1562100D02*
G01*
X5749543Y1504950D01*
X5794247Y1613915D02*
G01*
X5851397Y1613915D01*
X5820409Y1572260D01*
X5835904Y1572260D01*
X5846318Y1567179D01*
X5851397Y1562100D01*
X5856731Y1546352D01*
X5856731Y1535937D01*
X5851397Y1520444D01*
X5840984Y1510029D01*
X5825490Y1504950D01*
X5809995Y1504950D01*
X5794247Y1510029D01*
X5789168Y1515110D01*
X5783834Y1525523D01*
X5916929Y1613915D02*
G01*
X5901436Y1608836D01*
X5896102Y1598421D01*
X5896102Y1588007D01*
X5901436Y1577594D01*
X5911850Y1572260D01*
X5932424Y1567179D01*
X5948172Y1562100D01*
X5958586Y1551686D01*
X5963665Y1541271D01*
X5963665Y1525523D01*
X5958586Y1515110D01*
X5953252Y1510029D01*
X5937758Y1504950D01*
X5916929Y1504950D01*
X5901436Y1510029D01*
X5896102Y1515110D01*
X5891022Y1525523D01*
X5891022Y1541271D01*
X5896102Y1551686D01*
X5906515Y1562100D01*
X5922009Y1567179D01*
X5942838Y1572260D01*
X5953252Y1577594D01*
X5958586Y1588007D01*
X5958586Y1598421D01*
X5953252Y1608836D01*
X5937758Y1613915D01*
X5916929Y1613915D01*
X6858000Y1245615D02*
G01*
X6858000Y1136650D01*
X6858000Y1245615D02*
G01*
X6904736Y1245615D01*
X6920229Y1240536D01*
X6925563Y1235202D01*
X6930643Y1224787D01*
X6930643Y1214373D01*
X6925563Y1203960D01*
X6920229Y1198879D01*
X6904736Y1193800D01*
X6858000Y1193800D01*
X6894322Y1193800D02*
G01*
X6930643Y1136650D01*
X7017004Y1245615D02*
G01*
X6964934Y1172971D01*
X7042911Y1172971D01*
X7017004Y1245615D02*
G01*
X7017004Y1136650D01*
X7077202Y1224787D02*
G01*
X7087615Y1230121D01*
X7103109Y1245615D01*
X7103109Y1136650D01*
X6769100Y1613915D02*
G01*
X6769100Y1504950D01*
X6769100Y1613915D02*
G01*
X6815836Y1613915D01*
X6831329Y1608836D01*
X6836663Y1603502D01*
X6841743Y1593087D01*
X6841743Y1582673D01*
X6836663Y1572260D01*
X6831329Y1567179D01*
X6815836Y1562100D01*
X6769100Y1562100D01*
X6805422Y1562100D02*
G01*
X6841743Y1504950D01*
X6928104Y1613915D02*
G01*
X6876034Y1541271D01*
X6954011Y1541271D01*
X6928104Y1613915D02*
G01*
X6928104Y1504950D01*
X6993636Y1588007D02*
G01*
X6993636Y1593087D01*
X6998715Y1603502D01*
X7004050Y1608836D01*
X7014209Y1613915D01*
X7035038Y1613915D01*
X7045452Y1608836D01*
X7050786Y1603502D01*
X7055865Y1593087D01*
X7055865Y1582673D01*
X7050786Y1572260D01*
X7040372Y1556765D01*
X6988302Y1504950D01*
X7061200Y1504950D01*
X10999215Y1689100D02*
G01*
X10890250Y1689100D01*
X10999215Y1689100D02*
G01*
X10999215Y1642363D01*
X10994136Y1626870D01*
X10988802Y1621536D01*
X10978388Y1616455D01*
X10967974Y1616455D01*
X10957559Y1621536D01*
X10952479Y1626870D01*
X10947400Y1642363D01*
X10947400Y1689100D01*
X10947400Y1652778D02*
G01*
X10890250Y1616455D01*
X10999215Y1530095D02*
G01*
X10926572Y1582165D01*
X10926572Y1504187D01*
X10999215Y1530095D02*
G01*
X10890250Y1530095D01*
X10999215Y1459484D02*
G01*
X10999215Y1402334D01*
X10957559Y1433576D01*
X10957559Y1417828D01*
X10952479Y1407413D01*
X10947400Y1402334D01*
X10931652Y1397000D01*
X10921238Y1397000D01*
X10905743Y1402334D01*
X10895329Y1412747D01*
X10890250Y1428242D01*
X10890250Y1443989D01*
X10895329Y1459484D01*
X10900409Y1464563D01*
X10910824Y1469897D01*
X10986515Y2057400D02*
G01*
X10877550Y2057400D01*
X10986515Y2057400D02*
G01*
X10986515Y2010663D01*
X10981436Y1995170D01*
X10976102Y1989836D01*
X10965688Y1984755D01*
X10955274Y1984755D01*
X10944859Y1989836D01*
X10939779Y1995170D01*
X10934700Y2010663D01*
X10934700Y2057400D01*
X10934700Y2021078D02*
G01*
X10877550Y1984755D01*
X10986515Y1898395D02*
G01*
X10913872Y1950465D01*
X10913872Y1872487D01*
X10986515Y1898395D02*
G01*
X10877550Y1898395D01*
X10986515Y1786128D02*
G01*
X10913872Y1838197D01*
X10913872Y1760220D01*
X10986515Y1786128D02*
G01*
X10877550Y1786128D01*
X10986515Y2438400D02*
G01*
X10877550Y2438400D01*
X10986515Y2438400D02*
G01*
X10986515Y2391663D01*
X10981436Y2376170D01*
X10976102Y2370836D01*
X10965688Y2365755D01*
X10955274Y2365755D01*
X10944859Y2370836D01*
X10939779Y2376170D01*
X10934700Y2391663D01*
X10934700Y2438400D01*
X10934700Y2402078D02*
G01*
X10877550Y2365755D01*
X10986515Y2279395D02*
G01*
X10913872Y2331465D01*
X10913872Y2253487D01*
X10986515Y2279395D02*
G01*
X10877550Y2279395D01*
X10986515Y2156713D02*
G01*
X10986515Y2208784D01*
X10939779Y2213863D01*
X10944859Y2208784D01*
X10950193Y2193289D01*
X10950193Y2177542D01*
X10944859Y2162047D01*
X10934700Y2151634D01*
X10918952Y2146300D01*
X10908538Y2146300D01*
X10893043Y2151634D01*
X10882629Y2162047D01*
X10877550Y2177542D01*
X10877550Y2193289D01*
X10882629Y2208784D01*
X10887709Y2213863D01*
X10898124Y2219197D01*
X14502384Y4292600D02*
G01*
X14611350Y4292600D01*
X14502384Y4292600D02*
G01*
X14502384Y4339336D01*
X14507463Y4354829D01*
X14512797Y4360163D01*
X14523211Y4365244D01*
X14533625Y4365244D01*
X14544040Y4360163D01*
X14549120Y4354829D01*
X14554200Y4339336D01*
X14554200Y4292600D01*
X14554200Y4328921D02*
G01*
X14611350Y4365244D01*
X14502384Y4451604D02*
G01*
X14575027Y4399534D01*
X14575027Y4477512D01*
X14502384Y4451604D02*
G01*
X14611350Y4451604D01*
X14517877Y4574286D02*
G01*
X14507463Y4568952D01*
X14502384Y4553457D01*
X14502384Y4543044D01*
X14507463Y4527550D01*
X14523211Y4517136D01*
X14549120Y4511802D01*
X14575027Y4511802D01*
X14595856Y4517136D01*
X14606270Y4527550D01*
X14611350Y4543044D01*
X14611350Y4548123D01*
X14606270Y4563871D01*
X14595856Y4574286D01*
X14580361Y4579365D01*
X14575027Y4579365D01*
X14559534Y4574286D01*
X14549120Y4563871D01*
X14544040Y4548123D01*
X14544040Y4543044D01*
X14549120Y4527550D01*
X14559534Y4517136D01*
X14575027Y4511802D01*
X14489684Y3009900D02*
G01*
X14598650Y3009900D01*
X14489684Y3009900D02*
G01*
X14489684Y3056636D01*
X14494763Y3072129D01*
X14500097Y3077463D01*
X14510511Y3082544D01*
X14520925Y3082544D01*
X14531340Y3077463D01*
X14536420Y3072129D01*
X14541500Y3056636D01*
X14541500Y3009900D01*
X14541500Y3046221D02*
G01*
X14598650Y3082544D01*
X14489684Y3168904D02*
G01*
X14562327Y3116834D01*
X14562327Y3194812D01*
X14489684Y3168904D02*
G01*
X14598650Y3168904D01*
X14489684Y3255010D02*
G01*
X14494763Y3239515D01*
X14505177Y3234436D01*
X14515591Y3234436D01*
X14526006Y3239515D01*
X14531340Y3249929D01*
X14536420Y3270757D01*
X14541500Y3286252D01*
X14551913Y3296665D01*
X14562327Y3302000D01*
X14578075Y3302000D01*
X14588490Y3296665D01*
X14593570Y3291586D01*
X14598650Y3275837D01*
X14598650Y3255010D01*
X14593570Y3239515D01*
X14588490Y3234436D01*
X14578075Y3229102D01*
X14562327Y3229102D01*
X14551913Y3234436D01*
X14541500Y3244850D01*
X14536420Y3260344D01*
X14531340Y3281171D01*
X14526006Y3291586D01*
X14515591Y3296665D01*
X14505177Y3296665D01*
X14494763Y3291586D01*
X14489684Y3275837D01*
X14489684Y3255010D01*
X14489684Y3543300D02*
G01*
X14598650Y3543300D01*
X14489684Y3543300D02*
G01*
X14489684Y3590036D01*
X14494763Y3605529D01*
X14500097Y3610863D01*
X14510511Y3615944D01*
X14520925Y3615944D01*
X14531340Y3610863D01*
X14536420Y3605529D01*
X14541500Y3590036D01*
X14541500Y3543300D01*
X14541500Y3579621D02*
G01*
X14598650Y3615944D01*
X14489684Y3702304D02*
G01*
X14562327Y3650234D01*
X14562327Y3728212D01*
X14489684Y3702304D02*
G01*
X14598650Y3702304D01*
X14526006Y3830065D02*
G01*
X14541500Y3824986D01*
X14551913Y3814571D01*
X14557247Y3798823D01*
X14557247Y3793744D01*
X14551913Y3778250D01*
X14541500Y3767836D01*
X14526006Y3762502D01*
X14520925Y3762502D01*
X14505177Y3767836D01*
X14494763Y3778250D01*
X14489684Y3793744D01*
X14489684Y3798823D01*
X14494763Y3814571D01*
X14505177Y3824986D01*
X14526006Y3830065D01*
X14551913Y3830065D01*
X14578075Y3824986D01*
X14593570Y3814571D01*
X14598650Y3798823D01*
X14598650Y3788410D01*
X14593570Y3772915D01*
X14583156Y3767836D01*
X10129799Y8433815D02*
G01*
X10129799Y8324850D01*
X10129799Y8433815D02*
G01*
X10176535Y8433815D01*
X10192029Y8428736D01*
X10197363Y8423402D01*
X10202443Y8412987D01*
X10202443Y8402574D01*
X10197363Y8392160D01*
X10192029Y8387079D01*
X10176535Y8382000D01*
X10129799Y8382000D01*
X10166121Y8382000D02*
G01*
X10202443Y8324850D01*
X10299217Y8433815D02*
G01*
X10247147Y8433815D01*
X10242067Y8387079D01*
X10247147Y8392160D01*
X10262895Y8397494D01*
X10278389Y8397494D01*
X10293883Y8392160D01*
X10304297Y8382000D01*
X10309631Y8366252D01*
X10309631Y8355837D01*
X10304297Y8340344D01*
X10293883Y8329929D01*
X10278389Y8324850D01*
X10262895Y8324850D01*
X10247147Y8329929D01*
X10242067Y8335010D01*
X10236733Y8345423D01*
X10343921Y8412987D02*
G01*
X10354335Y8418321D01*
X10369829Y8433815D01*
X10369829Y8324850D01*
X9988044Y7951215D02*
G01*
X9977630Y7946136D01*
X9967216Y7935721D01*
X9961882Y7925308D01*
X9956802Y7909560D01*
X9956802Y7883652D01*
X9961882Y7868158D01*
X9967216Y7857744D01*
X9977630Y7847329D01*
X9988044Y7842250D01*
X10008872Y7842250D01*
X10019032Y7847329D01*
X10029446Y7857744D01*
X10034780Y7868158D01*
X10039860Y7883652D01*
X10039860Y7909560D01*
X10034780Y7925308D01*
X10029446Y7935721D01*
X10019032Y7946136D01*
X10008872Y7951215D01*
X9988044Y7951215D01*
X10074150Y7951215D02*
G01*
X10074150Y7842250D01*
X10074150Y7951215D02*
G01*
X10147048Y7842250D01*
X10147048Y7951215D02*
G01*
X10147048Y7842250D01*
X10212326Y7951215D02*
G01*
X10201912Y7946136D01*
X10191752Y7935721D01*
X10186418Y7925308D01*
X10181338Y7909560D01*
X10181338Y7883652D01*
X10186418Y7868158D01*
X10191752Y7857744D01*
X10201912Y7847329D01*
X10212326Y7842250D01*
X10233154Y7842250D01*
X10243568Y7847329D01*
X10253982Y7857744D01*
X10259062Y7868158D01*
X10264396Y7883652D01*
X10264396Y7909560D01*
X10259062Y7925308D01*
X10253982Y7935721D01*
X10243568Y7946136D01*
X10233154Y7951215D01*
X10212326Y7951215D01*
X10298686Y7951215D02*
G01*
X10298686Y7842250D01*
X10298686Y7951215D02*
G01*
X10366250Y7951215D01*
X10298686Y7899400D02*
G01*
X10340342Y7899400D01*
X10400540Y7951215D02*
G01*
X10400540Y7842250D01*
X10400540Y7951215D02*
G01*
X10468104Y7951215D01*
X10400540Y7899400D02*
G01*
X10441942Y7899400D01*
X11950700Y7557515D02*
G01*
X11950700Y7448550D01*
X11950700Y7557515D02*
G01*
X11987022Y7557515D01*
X12002770Y7552436D01*
X12012929Y7542021D01*
X12018263Y7531608D01*
X12023343Y7515860D01*
X12023343Y7489952D01*
X12018263Y7474458D01*
X12012929Y7464044D01*
X12002770Y7453629D01*
X11987022Y7448550D01*
X11950700Y7448550D01*
X12109704Y7557515D02*
G01*
X12057634Y7484871D01*
X12135611Y7484871D01*
X12109704Y7557515D02*
G01*
X12109704Y7448550D01*
X13881100Y1461515D02*
G01*
X13881100Y1352550D01*
X13881100Y1461515D02*
G01*
X13927836Y1461515D01*
X13943329Y1456436D01*
X13948663Y1451102D01*
X13953743Y1440687D01*
X13953743Y1430273D01*
X13948663Y1419860D01*
X13943329Y1414779D01*
X13927836Y1409700D01*
X13881100Y1409700D01*
X13917422Y1409700D02*
G01*
X13953743Y1352550D01*
X14050518Y1461515D02*
G01*
X13998447Y1461515D01*
X13993368Y1414779D01*
X13998447Y1419860D01*
X14014195Y1425194D01*
X14029690Y1425194D01*
X14045184Y1419860D01*
X14055597Y1409700D01*
X14060931Y1393952D01*
X14060931Y1383537D01*
X14055597Y1368044D01*
X14045184Y1357629D01*
X14029690Y1352550D01*
X14014195Y1352550D01*
X13998447Y1357629D01*
X13993368Y1362710D01*
X13988034Y1373123D01*
X14126209Y1461515D02*
G01*
X14110716Y1456436D01*
X14100302Y1440687D01*
X14095222Y1414779D01*
X14095222Y1399286D01*
X14100302Y1373123D01*
X14110716Y1357629D01*
X14126209Y1352550D01*
X14136624Y1352550D01*
X14152372Y1357629D01*
X14162786Y1373123D01*
X14167866Y1399286D01*
X14167866Y1414779D01*
X14162786Y1440687D01*
X14152372Y1456436D01*
X14136624Y1461515D01*
X14126209Y1461515D01*
X13449300Y1906015D02*
G01*
X13449300Y1797050D01*
X13449300Y1906015D02*
G01*
X13496036Y1906015D01*
X13511529Y1900936D01*
X13516863Y1895602D01*
X13521943Y1885187D01*
X13521943Y1874773D01*
X13516863Y1864360D01*
X13511529Y1859279D01*
X13496036Y1854200D01*
X13449300Y1854200D01*
X13485622Y1854200D02*
G01*
X13521943Y1797050D01*
X13618718Y1906015D02*
G01*
X13566647Y1906015D01*
X13561568Y1859279D01*
X13566647Y1864360D01*
X13582395Y1869694D01*
X13597890Y1869694D01*
X13613384Y1864360D01*
X13623797Y1854200D01*
X13629131Y1838452D01*
X13629131Y1828037D01*
X13623797Y1812544D01*
X13613384Y1802129D01*
X13597890Y1797050D01*
X13582395Y1797050D01*
X13566647Y1802129D01*
X13561568Y1807210D01*
X13556234Y1817623D01*
X13668502Y1880107D02*
G01*
X13668502Y1885187D01*
X13673836Y1895602D01*
X13678916Y1900936D01*
X13689329Y1906015D01*
X13710158Y1906015D01*
X13720572Y1900936D01*
X13725652Y1895602D01*
X13730986Y1885187D01*
X13730986Y1874773D01*
X13725652Y1864360D01*
X13715238Y1848865D01*
X13663422Y1797050D01*
X13736066Y1797050D01*
X14959584Y4381500D02*
G01*
X15068550Y4381500D01*
X14959584Y4454144D02*
G01*
X15032227Y4381500D01*
X15006320Y4407407D02*
G01*
X15068550Y4454144D01*
X14959584Y4488434D02*
G01*
X15068550Y4488434D01*
X14959584Y4488434D02*
G01*
X14959584Y4555997D01*
X15011400Y4488434D02*
G01*
X15011400Y4530089D01*
X15068550Y4488434D02*
G01*
X15068550Y4555997D01*
X14959584Y4590287D02*
G01*
X15011400Y4631944D01*
X15068550Y4631944D01*
X14959584Y4673600D02*
G01*
X15011400Y4631944D01*
X14959584Y4718050D02*
G01*
X14959584Y4775200D01*
X15001240Y4744212D01*
X15001240Y4759705D01*
X15006320Y4770120D01*
X15011400Y4775200D01*
X15027147Y4780534D01*
X15037561Y4780534D01*
X15053056Y4775200D01*
X15063470Y4765039D01*
X15068550Y4749292D01*
X15068550Y4733797D01*
X15063470Y4718050D01*
X15058390Y4712970D01*
X15047975Y4707889D01*
X14959584Y5461000D02*
G01*
X15068550Y5461000D01*
X14959584Y5533644D02*
G01*
X15032227Y5461000D01*
X15006320Y5486907D02*
G01*
X15068550Y5533644D01*
X14959584Y5567934D02*
G01*
X15068550Y5567934D01*
X14959584Y5567934D02*
G01*
X14959584Y5635497D01*
X15011400Y5567934D02*
G01*
X15011400Y5609589D01*
X15068550Y5567934D02*
G01*
X15068550Y5635497D01*
X14959584Y5669787D02*
G01*
X15011400Y5711444D01*
X15068550Y5711444D01*
X14959584Y5753100D02*
G01*
X15011400Y5711444D01*
X14959584Y5839205D02*
G01*
X15032227Y5787389D01*
X15032227Y5865113D01*
X14959584Y5839205D02*
G01*
X15068550Y5839205D01*
X13614501Y4433328D02*
G01*
X13614501Y4355350D01*
X13619581Y4339856D01*
X13629995Y4329442D01*
X13645743Y4324362D01*
X13656157Y4324362D01*
X13671651Y4329442D01*
X13682065Y4339856D01*
X13687145Y4355350D01*
X13687145Y4433328D01*
X13788999Y4397006D02*
G01*
X13783919Y4381512D01*
X13773505Y4371098D01*
X13758011Y4365764D01*
X13752677Y4365764D01*
X13737183Y4371098D01*
X13726769Y4381512D01*
X13721435Y4397006D01*
X13721435Y4402086D01*
X13726769Y4417834D01*
X13737183Y4428248D01*
X13752677Y4433328D01*
X13758011Y4433328D01*
X13773505Y4428248D01*
X13783919Y4417834D01*
X13788999Y4397006D01*
X13788999Y4371098D01*
X13783919Y4344936D01*
X13773505Y4329442D01*
X13758011Y4324362D01*
X13747597Y4324362D01*
X13731849Y4329442D01*
X13726769Y4339856D01*
X5422900Y2363215D02*
G01*
X5422900Y2285237D01*
X5427979Y2269744D01*
X5438393Y2259329D01*
X5454141Y2254250D01*
X5464556Y2254250D01*
X5480050Y2259329D01*
X5490463Y2269744D01*
X5495543Y2285237D01*
X5495543Y2363215D01*
X5529834Y2342387D02*
G01*
X5540247Y2347721D01*
X5555995Y2363215D01*
X5555995Y2254250D01*
X5616193Y2363215D02*
G01*
X5600700Y2358136D01*
X5595365Y2347721D01*
X5595365Y2337307D01*
X5600700Y2326894D01*
X5610859Y2321560D01*
X5631688Y2316479D01*
X5647436Y2311400D01*
X5657850Y2300986D01*
X5662929Y2290571D01*
X5662929Y2274823D01*
X5657850Y2264410D01*
X5652515Y2259329D01*
X5637022Y2254250D01*
X5616193Y2254250D01*
X5600700Y2259329D01*
X5595365Y2264410D01*
X5590286Y2274823D01*
X5590286Y2290571D01*
X5595365Y2300986D01*
X5605779Y2311400D01*
X5621274Y2316479D01*
X5642102Y2321560D01*
X5652515Y2326894D01*
X5657850Y2337307D01*
X5657850Y2347721D01*
X5652515Y2358136D01*
X5637022Y2363215D01*
X5616193Y2363215D01*
X11283467Y8391182D02*
G01*
X11283467Y8313204D01*
X11288547Y8297710D01*
X11298961Y8287296D01*
X11314709Y8282216D01*
X11325123Y8282216D01*
X11340617Y8287296D01*
X11351031Y8297710D01*
X11356111Y8313204D01*
X11356111Y8391182D01*
X11452885Y8391182D02*
G01*
X11400815Y8391182D01*
X11395735Y8344446D01*
X11400815Y8349526D01*
X11416563Y8354860D01*
X11432057Y8354860D01*
X11447551Y8349526D01*
X11457965Y8339366D01*
X11463299Y8323618D01*
X11463299Y8313204D01*
X11457965Y8297710D01*
X11447551Y8287296D01*
X11432057Y8282216D01*
X11416563Y8282216D01*
X11400815Y8287296D01*
X11395735Y8292376D01*
X11390401Y8302790D01*
G36*
X8611412Y7184491D02*
G01*
X8611412Y7084517D01*
X8511387Y7084517D01*
X8511387Y6984492D01*
X8611412Y6984492D01*
X8611412Y6884517D01*
X8711387Y6884517D01*
X8711387Y6984492D01*
X8811412Y6984492D01*
X8811412Y7084517D01*
X8711387Y7084517D01*
X8711387Y7184491D01*
G37*
G36*
X8621420Y1644497D02*
G01*
X8621420Y1344472D01*
X8721394Y1344472D01*
X8721394Y1644497D01*
G37*
G36*
X13258800Y6781800D02*
G01*
X13254278Y6781342D01*
X13249910Y6780123D01*
X13245846Y6778142D01*
X13242137Y6775450D01*
X13239038Y6772148D01*
X13236549Y6768338D01*
X13235533Y6766306D01*
X13234162Y6761988D01*
X13233552Y6757466D01*
X13233755Y6752945D01*
X13234822Y6748475D01*
X13235584Y6746341D01*
X13237768Y6742379D01*
X13239089Y6740499D01*
X13242239Y6737248D01*
X13245947Y6734556D01*
X13250011Y6732625D01*
X13254431Y6731406D01*
X13258952Y6731000D01*
X13263473Y6731406D01*
X13267842Y6732625D01*
X13271957Y6734556D01*
X13275614Y6737248D01*
X13278764Y6740499D01*
X13281304Y6744309D01*
X13283082Y6748475D01*
X13284098Y6752945D01*
X13284301Y6757466D01*
X13283742Y6761988D01*
X13282320Y6766306D01*
X13280186Y6770319D01*
X13277342Y6773875D01*
X13273938Y6776872D01*
X13270077Y6779209D01*
X13265810Y6780834D01*
X13261340Y6781698D01*
G37*
D11*
X3098800Y6743700D02*
G01*
X3098800Y6995160D01*
X3606800Y6995160D01*
X3606800Y6743700D01*
X3098800Y6743700D01*
D12*
X7629397Y401497D02*
G01*
X7629397Y8108492D01*
X9694392Y8108492D01*
X9694392Y401497D01*
X7629397Y401497D01*
X8271408Y555497D02*
G01*
X8271408Y7954492D01*
X9061399Y7954492D01*
X9061399Y555497D01*
X8271408Y555497D01*
D11*
X3378200Y4762500D02*
G01*
X3629659Y4762500D01*
X3629659Y4254500D01*
X3378200Y4254500D01*
X3378200Y4762500D01*
X3098800Y6299200D02*
G01*
X3098800Y6550660D01*
X3606800Y6550660D01*
X3606800Y6299200D01*
X3098800Y6299200D01*
D12*
X3791000Y6032500D02*
G01*
X3791000Y5032502D01*
X2791002Y5032502D01*
X2791002Y6032500D01*
X3791000Y6032500D01*
X3791000Y8255000D02*
G01*
X3791000Y7255002D01*
X2791002Y7255002D01*
X2791002Y8255000D01*
X3791000Y8255000D01*
D10*
X15441739Y460519D02*
G01*
X15441739Y319519D01*
X15622460Y319519D02*
G01*
X15622460Y460519D01*
X15607220Y475759D02*
G01*
X15456979Y475759D01*
X15441739Y98280D02*
G01*
X15441739Y239280D01*
X15622460Y239280D02*
G01*
X15622460Y98280D01*
X15607220Y83040D02*
G01*
X15456979Y83040D01*
D11*
X12725400Y5803900D02*
G01*
X12725400Y5552439D01*
X12217400Y5552439D01*
X12217400Y5803900D01*
X12725400Y5803900D01*
X13030200Y762000D02*
G01*
X13030200Y510539D01*
X12522200Y510539D01*
X12522200Y762000D01*
X13030200Y762000D01*
X13830300Y8267700D02*
G01*
X14081759Y8267700D01*
X14081759Y7759700D01*
X13830300Y7759700D01*
X13830300Y8267700D01*
D12*
X5309298Y5687722D02*
G01*
X5309298Y5767725D01*
X5420273Y5656737D02*
G01*
X5340276Y5656737D01*
X5420273Y5798703D02*
G01*
X5340276Y5798703D01*
X5477863Y5656155D02*
G01*
X5557862Y5656155D01*
X5588845Y5687138D02*
G01*
X5588845Y5767136D01*
X5477863Y5798116D02*
G01*
X5557862Y5798116D01*
X4688177Y1194498D02*
G01*
X4608174Y1194498D01*
X4719162Y1305473D02*
G01*
X4719162Y1225476D01*
X4577196Y1305473D02*
G01*
X4577196Y1225476D01*
X4719744Y1363063D02*
G01*
X4719744Y1443062D01*
X4688761Y1474045D02*
G01*
X4608763Y1474045D01*
X4577783Y1363063D02*
G01*
X4577783Y1443062D01*
D13*
X4517471Y6779905D02*
G01*
X4503900Y6779905D01*
X4503900Y6859904D01*
X4517471Y6859904D01*
X4550328Y6859904D02*
G01*
X4558898Y6859904D01*
X4563899Y6859904D01*
X4563899Y6859904D02*
G01*
X4563899Y6779905D01*
X4550328Y6779905D01*
X4517471Y7021205D02*
G01*
X4503900Y7021205D01*
X4503900Y7101204D01*
X4517471Y7101204D01*
X4550328Y7101204D02*
G01*
X4558898Y7101204D01*
X4563899Y7101204D01*
X4563899Y7101204D02*
G01*
X4563899Y7021205D01*
X4550328Y7021205D01*
D14*
X14465706Y5653887D02*
G01*
X14465706Y5746902D01*
X14545691Y5746902D01*
X14640712Y5606897D02*
G01*
X14594687Y5606897D01*
X14769693Y5653887D02*
G01*
X14769693Y5746902D01*
X14689709Y5746902D01*
X13855293Y5953912D02*
G01*
X13855293Y5860897D01*
X13775309Y5860897D01*
X13680287Y6000902D02*
G01*
X13726312Y6000902D01*
X13551306Y5953912D02*
G01*
X13551306Y5860897D01*
X13631291Y5860897D01*
D10*
X12435860Y7776921D02*
G01*
X12435860Y7872808D01*
X12303739Y7872808D01*
X12303739Y7776921D01*
X12435860Y7691678D02*
G01*
X12435860Y7595791D01*
X12303739Y7595791D01*
X12303739Y7691678D01*
X5120660Y2125421D02*
G01*
X5120660Y2221308D01*
X4988539Y2221308D01*
X4988539Y2125421D01*
X5120660Y2040178D02*
G01*
X5120660Y1944291D01*
X4988539Y1944291D01*
X4988539Y2040178D01*
X4866660Y2125421D02*
G01*
X4866660Y2221308D01*
X4734539Y2221308D01*
X4734539Y2125421D01*
X4866660Y2040178D02*
G01*
X4866660Y1944291D01*
X4734539Y1944291D01*
X4734539Y2040178D01*
X14678639Y2573578D02*
G01*
X14678639Y2477691D01*
X14810760Y2477691D01*
X14810760Y2573578D01*
X14678639Y2658821D02*
G01*
X14678639Y2754708D01*
X14810760Y2754708D01*
X14810760Y2658821D01*
X14954978Y424721D02*
G01*
X15220221Y424721D01*
X14954978Y159478D02*
G01*
X15220221Y159478D01*
D12*
X15646400Y3898900D02*
G01*
X15697200Y3898900D01*
X15697200Y2324100D01*
X14986000Y2324100D01*
X14986000Y3898900D01*
X15646400Y3898900D01*
X15365656Y7774899D02*
G01*
X15185961Y7774899D01*
X15588970Y6880900D02*
G01*
X15739244Y6880900D01*
X15739244Y7774899D01*
X15588970Y7774899D01*
X15185961Y6880900D02*
G01*
X15365656Y6880900D01*
D10*
X11123279Y404459D02*
G01*
X11123279Y1068740D01*
X12168520Y1068740D01*
X12168520Y404459D01*
X11123279Y404459D01*
D12*
X14296969Y716724D02*
G01*
X14296969Y986723D01*
X14524969Y1041725D01*
X14524969Y1092260D01*
X14524969Y1175181D02*
G01*
X14524969Y1202260D01*
X14524969Y1285181D02*
G01*
X14524969Y1312260D01*
X14524969Y1395181D02*
G01*
X14524969Y1422260D01*
X14524969Y1505181D02*
G01*
X14524969Y1532260D01*
X14524969Y1615180D02*
G01*
X14524969Y1642259D01*
X14524969Y1725180D02*
G01*
X14524969Y1752259D01*
X14524969Y1835180D02*
G01*
X14524969Y1862259D01*
X14524969Y1945180D02*
G01*
X14524969Y1945612D01*
X14296966Y2026721D02*
G01*
X14296966Y1976724D01*
X14334853Y1976724D01*
X14296969Y716724D02*
G01*
X14334855Y716724D01*
X14564085Y716724D02*
G01*
X15384856Y716724D01*
X14296966Y2026721D02*
G01*
X14334853Y2026721D01*
X14661080Y2026721D02*
G01*
X15384858Y2026721D01*
X15701967Y1465262D02*
G01*
X15701967Y1961608D01*
X15701967Y1465262D02*
G01*
X15701967Y1456834D01*
X15701967Y1305608D02*
G01*
X15701967Y1261724D01*
X15701967Y1022840D01*
X15701967Y886609D02*
G01*
X15701967Y781839D01*
X6395720Y6682739D02*
G01*
X6395720Y6555739D01*
X6395720Y6906260D02*
G01*
X6395720Y6779260D01*
X5613400Y6530253D02*
G01*
X5613400Y6931746D01*
X5967310Y375790D02*
G01*
X5437309Y375790D01*
X5967310Y995789D02*
G01*
X5787311Y995789D01*
X5437309Y995789D02*
G01*
X5617309Y995789D01*
X5967310Y995789D02*
G01*
X5967310Y956421D01*
X5967310Y415178D02*
G01*
X5967310Y375790D01*
X5437309Y995789D02*
G01*
X5437309Y956421D01*
X5437309Y415178D02*
G01*
X5437309Y375790D01*
D10*
X5353860Y2964319D02*
G01*
X5568139Y2964319D01*
X5568139Y2649080D01*
X5353860Y2649080D01*
X5353860Y2964319D01*
X6471460Y2138819D02*
G01*
X6685739Y2138819D01*
X6685739Y1823580D01*
X6471460Y1823580D01*
X6471460Y2138819D01*
D15*
X10873595Y6639709D02*
G01*
X10919170Y6639709D01*
X11128019Y6639709D02*
G01*
X11173594Y6639709D01*
X10873595Y6339710D02*
G01*
X10919170Y6339710D01*
X11128019Y6339710D02*
G01*
X11173594Y6339710D01*
X10873595Y6639709D02*
G01*
X10873595Y6594134D01*
X10873595Y6385285D02*
G01*
X10873595Y6339710D01*
X11173594Y6339710D02*
G01*
X11173594Y6385285D01*
X11173594Y6594134D02*
G01*
X11173594Y6639709D01*
D16*
X13179821Y7125068D02*
G01*
X13219826Y7125068D01*
X13219826Y7085063D01*
X13219826Y6735051D02*
G01*
X13219826Y6695048D01*
X13179821Y6695048D01*
X12829809Y6695048D02*
G01*
X12789799Y6695048D01*
X12789799Y6735051D01*
X12829809Y7125068D02*
G01*
X12789799Y7125068D01*
X12789799Y7085063D01*
D12*
X5890399Y4309300D02*
G01*
X5813056Y4309300D01*
X5590400Y4309300D02*
G01*
X5667771Y4309300D01*
X5590400Y4309300D02*
G01*
X5549900Y4309300D01*
X5549900Y4318441D01*
X5890399Y4809299D02*
G01*
X5930900Y4809299D01*
X5930900Y4800158D01*
X5890399Y4309300D02*
G01*
X5930900Y4309300D01*
X5930900Y4318441D01*
X5590400Y4809299D02*
G01*
X5549900Y4809299D01*
X5549900Y4800158D01*
X5590400Y4809299D02*
G01*
X5890399Y4809299D01*
D10*
X6339860Y2430221D02*
G01*
X6339860Y2526108D01*
X6207739Y2526108D01*
X6207739Y2430221D01*
X6339860Y2344978D02*
G01*
X6339860Y2249091D01*
X6207739Y2249091D01*
X6207739Y2344978D01*
X5953739Y2344978D02*
G01*
X5953739Y2249091D01*
X6085860Y2249091D01*
X6085860Y2344978D01*
X5953739Y2430221D02*
G01*
X5953739Y2526108D01*
X6085860Y2526108D01*
X6085860Y2430221D01*
D17*
X11391645Y7175500D02*
G01*
X11391645Y7340600D01*
X11391645Y7188200D01*
X11277091Y7302754D01*
X11505691Y7302754D01*
X11391391Y7188454D01*
X11391391Y7086854D01*
X11277345Y7162800D02*
G01*
X11505945Y7162800D01*
X11391900Y7150100D02*
G01*
X11391900Y7200643D01*
X11391645Y7200900D01*
D18*
X11569700Y7175500D02*
G01*
X11569700Y7073900D01*
X11696700Y7073900D01*
X11696700Y7175500D01*
X11569700Y7251700D02*
G01*
X11569700Y7366000D01*
X11696700Y7366000D01*
X11696700Y7251700D01*
D10*
X13995219Y1239560D02*
G01*
X13846721Y1239560D01*
X13846721Y1021039D02*
G01*
X13995219Y1021039D01*
X14010459Y1036279D02*
G01*
X14010459Y1224320D01*
X13512980Y1239560D02*
G01*
X13661478Y1239560D01*
X13661478Y1021039D02*
G01*
X13512980Y1021039D01*
X13497740Y1036279D02*
G01*
X13497740Y1224320D01*
X12674780Y4843739D02*
G01*
X12823278Y4843739D01*
X12823278Y5062260D02*
G01*
X12674780Y5062260D01*
X12659540Y5047020D02*
G01*
X12659540Y4858979D01*
X13157019Y4843739D02*
G01*
X13008521Y4843739D01*
X13008521Y5062260D02*
G01*
X13157019Y5062260D01*
X13172259Y5047020D02*
G01*
X13172259Y4858979D01*
X12785580Y4545139D02*
G01*
X12926580Y4545139D01*
X12926580Y4725860D02*
G01*
X12785580Y4725860D01*
X12770340Y4710620D02*
G01*
X12770340Y4560379D01*
X13147819Y4545139D02*
G01*
X13006819Y4545139D01*
X13006819Y4725860D02*
G01*
X13147819Y4725860D01*
X13163059Y4710620D02*
G01*
X13163059Y4560379D01*
X13312919Y5754560D02*
G01*
X13171919Y5754560D01*
X13171919Y5573839D02*
G01*
X13312919Y5573839D01*
X13328159Y5589079D02*
G01*
X13328159Y5739320D01*
X12950680Y5754560D02*
G01*
X13091680Y5754560D01*
X13091680Y5573839D02*
G01*
X12950680Y5573839D01*
X12935440Y5589079D02*
G01*
X12935440Y5739320D01*
X13039580Y7580439D02*
G01*
X13180580Y7580439D01*
X13180580Y7761160D02*
G01*
X13039580Y7761160D01*
X13024340Y7745920D02*
G01*
X13024340Y7595679D01*
X13401819Y7580439D02*
G01*
X13260819Y7580439D01*
X13260819Y7761160D02*
G01*
X13401819Y7761160D01*
X13417059Y7745920D02*
G01*
X13417059Y7595679D01*
X13039580Y7301039D02*
G01*
X13180580Y7301039D01*
X13180580Y7481760D02*
G01*
X13039580Y7481760D01*
X13024340Y7466520D02*
G01*
X13024340Y7316279D01*
X13401819Y7301039D02*
G01*
X13260819Y7301039D01*
X13260819Y7481760D02*
G01*
X13401819Y7481760D01*
X13417059Y7466520D02*
G01*
X13417059Y7316279D01*
X13625639Y7293119D02*
G01*
X13625639Y7152119D01*
X13806360Y7152119D02*
G01*
X13806360Y7293119D01*
X13791120Y7308359D02*
G01*
X13640879Y7308359D01*
X13625639Y6930880D02*
G01*
X13625639Y7071880D01*
X13806360Y7071880D02*
G01*
X13806360Y6930880D01*
X13791120Y6915640D02*
G01*
X13640879Y6915640D01*
X13905039Y7293119D02*
G01*
X13905039Y7152119D01*
X14085760Y7152119D02*
G01*
X14085760Y7293119D01*
X14070520Y7308359D02*
G01*
X13920279Y7308359D01*
X13905039Y6930880D02*
G01*
X13905039Y7071880D01*
X14085760Y7071880D02*
G01*
X14085760Y6930880D01*
X14070520Y6915640D02*
G01*
X13920279Y6915640D01*
X10252219Y2655760D02*
G01*
X10111219Y2655760D01*
X10111219Y2475039D02*
G01*
X10252219Y2475039D01*
X10267459Y2490279D02*
G01*
X10267459Y2640520D01*
X9889980Y2655760D02*
G01*
X10030980Y2655760D01*
X10030980Y2475039D02*
G01*
X9889980Y2475039D01*
X9874740Y2490279D02*
G01*
X9874740Y2640520D01*
X11355260Y4822680D02*
G01*
X11355260Y4963680D01*
X11174539Y4963680D02*
G01*
X11174539Y4822680D01*
X11189779Y4807440D02*
G01*
X11340020Y4807440D01*
X11355260Y5184919D02*
G01*
X11355260Y5043919D01*
X11174539Y5043919D02*
G01*
X11174539Y5184919D01*
X11189779Y5200159D02*
G01*
X11340020Y5200159D01*
X11816039Y8267519D02*
G01*
X11816039Y8119021D01*
X12034560Y8119021D02*
G01*
X12034560Y8267519D01*
X12019320Y8282759D02*
G01*
X11831279Y8282759D01*
X11816039Y7785280D02*
G01*
X11816039Y7933778D01*
X12034560Y7933778D02*
G01*
X12034560Y7785280D01*
X12019320Y7770040D02*
G01*
X11831279Y7770040D01*
X10682160Y6410180D02*
G01*
X10682160Y6551180D01*
X10501439Y6551180D02*
G01*
X10501439Y6410180D01*
X10516679Y6394940D02*
G01*
X10666920Y6394940D01*
X10682160Y6772419D02*
G01*
X10682160Y6631419D01*
X10501439Y6631419D02*
G01*
X10501439Y6772419D01*
X10516679Y6787659D02*
G01*
X10666920Y6787659D01*
X11069360Y5651680D02*
G01*
X11069360Y5800178D01*
X10850839Y5800178D02*
G01*
X10850839Y5651680D01*
X10866079Y5636440D02*
G01*
X11054120Y5636440D01*
X11069360Y6133919D02*
G01*
X11069360Y5985421D01*
X10850839Y5985421D02*
G01*
X10850839Y6133919D01*
X10866079Y6149159D02*
G01*
X11054120Y6149159D01*
X10761939Y8051619D02*
G01*
X10761939Y7903121D01*
X10980460Y7903121D02*
G01*
X10980460Y8051619D01*
X10965220Y8066859D02*
G01*
X10777179Y8066859D01*
X10761939Y7569380D02*
G01*
X10761939Y7717878D01*
X10980460Y7717878D02*
G01*
X10980460Y7569380D01*
X10965220Y7554140D02*
G01*
X10777179Y7554140D01*
X6221539Y4740419D02*
G01*
X6221539Y4599419D01*
X6402260Y4599419D02*
G01*
X6402260Y4740419D01*
X6387020Y4755659D02*
G01*
X6236779Y4755659D01*
X6221539Y4378180D02*
G01*
X6221539Y4519180D01*
X6402260Y4519180D02*
G01*
X6402260Y4378180D01*
X6387020Y4362940D02*
G01*
X6236779Y4362940D01*
X6277119Y4141660D02*
G01*
X6136119Y4141660D01*
X6136119Y3960939D02*
G01*
X6277119Y3960939D01*
X6292359Y3976179D02*
G01*
X6292359Y4126420D01*
X5914880Y4141660D02*
G01*
X6055880Y4141660D01*
X6055880Y3960939D02*
G01*
X5914880Y3960939D01*
X5899640Y3976179D02*
G01*
X5899640Y4126420D01*
X6520139Y4800419D02*
G01*
X6520139Y4651921D01*
X6738660Y4651921D02*
G01*
X6738660Y4800419D01*
X6723420Y4815659D02*
G01*
X6535379Y4815659D01*
X6520139Y4318180D02*
G01*
X6520139Y4466678D01*
X6738660Y4466678D02*
G01*
X6738660Y4318180D01*
X6723420Y4302940D02*
G01*
X6535379Y4302940D01*
X5284660Y4238480D02*
G01*
X5284660Y4379480D01*
X5103939Y4379480D02*
G01*
X5103939Y4238480D01*
X5119179Y4223240D02*
G01*
X5269420Y4223240D01*
X5284660Y4600719D02*
G01*
X5284660Y4459719D01*
X5103939Y4459719D02*
G01*
X5103939Y4600719D01*
X5119179Y4615959D02*
G01*
X5269420Y4615959D01*
X4973360Y4178480D02*
G01*
X4973360Y4326978D01*
X4754839Y4326978D02*
G01*
X4754839Y4178480D01*
X4770079Y4163240D02*
G01*
X4958120Y4163240D01*
X4973360Y4660719D02*
G01*
X4973360Y4512221D01*
X4754839Y4512221D02*
G01*
X4754839Y4660719D01*
X4770079Y4675959D02*
G01*
X4958120Y4675959D01*
X6045019Y7856260D02*
G01*
X5896521Y7856260D01*
X5896521Y7637739D02*
G01*
X6045019Y7637739D01*
X6060259Y7652979D02*
G01*
X6060259Y7841020D01*
X5562780Y7856260D02*
G01*
X5711278Y7856260D01*
X5711278Y7637739D02*
G01*
X5562780Y7637739D01*
X5547540Y7652979D02*
G01*
X5547540Y7841020D01*
X6332260Y5664380D02*
G01*
X6332260Y5812878D01*
X6113739Y5812878D02*
G01*
X6113739Y5664380D01*
X6128979Y5649140D02*
G01*
X6317020Y5649140D01*
X6332260Y6146619D02*
G01*
X6332260Y5998121D01*
X6113739Y5998121D02*
G01*
X6113739Y6146619D01*
X6128979Y6161859D02*
G01*
X6317020Y6161859D01*
X5972319Y6173660D02*
G01*
X5831319Y6173660D01*
X5831319Y5992939D02*
G01*
X5972319Y5992939D01*
X5987559Y6008179D02*
G01*
X5987559Y6158420D01*
X5610080Y6173660D02*
G01*
X5751080Y6173660D01*
X5751080Y5992939D02*
G01*
X5610080Y5992939D01*
X5594840Y6008179D02*
G01*
X5594840Y6158420D01*
X4684839Y6620019D02*
G01*
X4684839Y6479019D01*
X4865560Y6479019D02*
G01*
X4865560Y6620019D01*
X4850320Y6635259D02*
G01*
X4700079Y6635259D01*
X4684839Y6257780D02*
G01*
X4684839Y6398780D01*
X4865560Y6398780D02*
G01*
X4865560Y6257780D01*
X4850320Y6242540D02*
G01*
X4700079Y6242540D01*
X4684839Y7128019D02*
G01*
X4684839Y6987019D01*
X4865560Y6987019D02*
G01*
X4865560Y7128019D01*
X4850320Y7143259D02*
G01*
X4700079Y7143259D01*
X4684839Y6765780D02*
G01*
X4684839Y6906780D01*
X4865560Y6906780D02*
G01*
X4865560Y6765780D01*
X4850320Y6750540D02*
G01*
X4700079Y6750540D01*
X4684839Y7648719D02*
G01*
X4684839Y7507719D01*
X4865560Y7507719D02*
G01*
X4865560Y7648719D01*
X4850320Y7663959D02*
G01*
X4700079Y7663959D01*
X4684839Y7286480D02*
G01*
X4684839Y7427480D01*
X4865560Y7427480D02*
G01*
X4865560Y7286480D01*
X4850320Y7271240D02*
G01*
X4700079Y7271240D01*
X10872660Y187180D02*
G01*
X10872660Y328180D01*
X10691939Y328180D02*
G01*
X10691939Y187180D01*
X10707179Y171940D02*
G01*
X10857420Y171940D01*
X10872660Y549419D02*
G01*
X10872660Y408419D01*
X10691939Y408419D02*
G01*
X10691939Y549419D01*
X10707179Y564659D02*
G01*
X10857420Y564659D01*
X6414960Y415780D02*
G01*
X6414960Y556780D01*
X6234239Y556780D02*
G01*
X6234239Y415780D01*
X6249479Y400540D02*
G01*
X6399720Y400540D01*
X6414960Y778019D02*
G01*
X6414960Y637019D01*
X6234239Y637019D02*
G01*
X6234239Y778019D01*
X6249479Y793259D02*
G01*
X6399720Y793259D01*
X6738660Y292280D02*
G01*
X6738660Y440778D01*
X6520139Y440778D02*
G01*
X6520139Y292280D01*
X6535379Y277040D02*
G01*
X6723420Y277040D01*
X6738660Y774519D02*
G01*
X6738660Y626021D01*
X6520139Y626021D02*
G01*
X6520139Y774519D01*
X6535379Y789759D02*
G01*
X6723420Y789759D01*
X6137419Y3138360D02*
G01*
X5996419Y3138360D01*
X5996419Y2957639D02*
G01*
X6137419Y2957639D01*
X6152659Y2972879D02*
G01*
X6152659Y3123120D01*
X5775180Y3138360D02*
G01*
X5916180Y3138360D01*
X5916180Y2957639D02*
G01*
X5775180Y2957639D01*
X5759940Y2972879D02*
G01*
X5759940Y3123120D01*
X6754939Y2606819D02*
G01*
X6754939Y2465819D01*
X6935660Y2465819D02*
G01*
X6935660Y2606819D01*
X6920420Y2622059D02*
G01*
X6770179Y2622059D01*
X6754939Y2244580D02*
G01*
X6754939Y2385580D01*
X6935660Y2385580D02*
G01*
X6935660Y2244580D01*
X6920420Y2229340D02*
G01*
X6770179Y2229340D01*
X11280919Y7049960D02*
G01*
X11139919Y7049960D01*
X11139919Y6869239D02*
G01*
X11280919Y6869239D01*
X11296159Y6884479D02*
G01*
X11296159Y7034720D01*
X10918680Y7049960D02*
G01*
X11059680Y7049960D01*
X11059680Y6869239D02*
G01*
X10918680Y6869239D01*
X10903440Y6884479D02*
G01*
X10903440Y7034720D01*
X5985019Y7519860D02*
G01*
X5844019Y7519860D01*
X5844019Y7339139D02*
G01*
X5985019Y7339139D01*
X6000259Y7354379D02*
G01*
X6000259Y7504620D01*
X5622780Y7519860D02*
G01*
X5763780Y7519860D01*
X5763780Y7339139D02*
G01*
X5622780Y7339139D01*
X5607540Y7354379D02*
G01*
X5607540Y7504620D01*
X6946719Y5875060D02*
G01*
X6798221Y5875060D01*
X6798221Y5656539D02*
G01*
X6946719Y5656539D01*
X6961959Y5671779D02*
G01*
X6961959Y5859820D01*
X6464480Y5875060D02*
G01*
X6612978Y5875060D01*
X6612978Y5656539D02*
G01*
X6464480Y5656539D01*
X6449240Y5671779D02*
G01*
X6449240Y5859820D01*
X6823219Y6186360D02*
G01*
X6682219Y6186360D01*
X6682219Y6005639D02*
G01*
X6823219Y6005639D01*
X6838459Y6020879D02*
G01*
X6838459Y6171120D01*
X6460980Y6186360D02*
G01*
X6601980Y6186360D01*
X6601980Y6005639D02*
G01*
X6460980Y6005639D01*
X6445740Y6020879D02*
G01*
X6445740Y6171120D01*
X4886180Y1547939D02*
G01*
X5027180Y1547939D01*
X5027180Y1728660D02*
G01*
X4886180Y1728660D01*
X4870940Y1713420D02*
G01*
X4870940Y1563179D01*
X5248419Y1547939D02*
G01*
X5107419Y1547939D01*
X5107419Y1728660D02*
G01*
X5248419Y1728660D01*
X5263659Y1713420D02*
G01*
X5263659Y1563179D01*
X13420719Y5229590D02*
G01*
X13549213Y5229590D01*
X13549213Y5413009D01*
X13420719Y5413009D01*
X13325480Y5229590D02*
G01*
X13196986Y5229590D01*
X13196986Y5413009D01*
X13325480Y5413009D01*
X12659090Y7458080D02*
G01*
X12659090Y7329586D01*
X12842509Y7329586D01*
X12842509Y7458080D01*
X12659090Y7553319D02*
G01*
X12659090Y7681813D01*
X12842509Y7681813D01*
X12842509Y7553319D01*
X13036420Y7905790D02*
G01*
X13172412Y7905790D01*
X13172412Y8121609D01*
X13036420Y8121609D01*
X12846179Y7905790D02*
G01*
X12710187Y7905790D01*
X12710187Y8121609D01*
X12846179Y8121609D01*
X13116290Y6213480D02*
G01*
X13116290Y6084986D01*
X13299709Y6084986D01*
X13299709Y6213480D01*
X13116290Y6308719D02*
G01*
X13116290Y6437213D01*
X13299709Y6437213D01*
X13299709Y6308719D01*
X14081490Y5502280D02*
G01*
X14081490Y5373786D01*
X14264909Y5373786D01*
X14264909Y5502280D01*
X14081490Y5597519D02*
G01*
X14081490Y5726013D01*
X14264909Y5726013D01*
X14264909Y5597519D01*
X12684490Y6213480D02*
G01*
X12684490Y6084986D01*
X12867909Y6084986D01*
X12867909Y6213480D01*
X12684490Y6308719D02*
G01*
X12684490Y6437213D01*
X12867909Y6437213D01*
X12867909Y6308719D01*
X12366990Y6213480D02*
G01*
X12366990Y6084986D01*
X12550409Y6084986D01*
X12550409Y6213480D01*
X12366990Y6308719D02*
G01*
X12366990Y6437213D01*
X12550409Y6437213D01*
X12550409Y6308719D01*
X12575809Y7070719D02*
G01*
X12575809Y7199213D01*
X12392390Y7199213D01*
X12392390Y7070719D01*
X12575809Y6975480D02*
G01*
X12575809Y6846986D01*
X12392390Y6846986D01*
X12392390Y6975480D01*
X14766919Y8023590D02*
G01*
X14895413Y8023590D01*
X14895413Y8207009D01*
X14766919Y8207009D01*
X14671680Y8023590D02*
G01*
X14543186Y8023590D01*
X14543186Y8207009D01*
X14671680Y8207009D01*
X14525619Y7667990D02*
G01*
X14654113Y7667990D01*
X14654113Y7851409D01*
X14525619Y7851409D01*
X14430380Y7667990D02*
G01*
X14301886Y7667990D01*
X14301886Y7851409D01*
X14430380Y7851409D01*
X10264780Y7178309D02*
G01*
X10136286Y7178309D01*
X10136286Y6994890D01*
X10264780Y6994890D01*
X10360019Y7178309D02*
G01*
X10488513Y7178309D01*
X10488513Y6994890D01*
X10360019Y6994890D01*
X10315209Y6638919D02*
G01*
X10315209Y6767413D01*
X10131790Y6767413D01*
X10131790Y6638919D01*
X10315209Y6543680D02*
G01*
X10315209Y6415186D01*
X10131790Y6415186D01*
X10131790Y6543680D01*
X10131790Y5883280D02*
G01*
X10131790Y5754786D01*
X10315209Y5754786D01*
X10315209Y5883280D01*
X10131790Y5978519D02*
G01*
X10131790Y6107013D01*
X10315209Y6107013D01*
X10315209Y5978519D01*
X12049490Y6213480D02*
G01*
X12049490Y6084986D01*
X12232909Y6084986D01*
X12232909Y6213480D01*
X12049490Y6308719D02*
G01*
X12049490Y6437213D01*
X12232909Y6437213D01*
X12232909Y6308719D01*
X11547480Y5882909D02*
G01*
X11418986Y5882909D01*
X11418986Y5699490D01*
X11547480Y5699490D01*
X11642719Y5882909D02*
G01*
X11771213Y5882909D01*
X11771213Y5699490D01*
X11642719Y5699490D01*
X11547480Y6200409D02*
G01*
X11418986Y6200409D01*
X11418986Y6016990D01*
X11547480Y6016990D01*
X11642719Y6200409D02*
G01*
X11771213Y6200409D01*
X11771213Y6016990D01*
X11642719Y6016990D01*
X11547480Y6517909D02*
G01*
X11418986Y6517909D01*
X11418986Y6334490D01*
X11547480Y6334490D01*
X11642719Y6517909D02*
G01*
X11771213Y6517909D01*
X11771213Y6334490D01*
X11642719Y6334490D01*
X11642719Y6639290D02*
G01*
X11771213Y6639290D01*
X11771213Y6822709D01*
X11642719Y6822709D01*
X11547480Y6639290D02*
G01*
X11418986Y6639290D01*
X11418986Y6822709D01*
X11547480Y6822709D01*
X10658109Y5978519D02*
G01*
X10658109Y6107013D01*
X10474690Y6107013D01*
X10474690Y5978519D01*
X10658109Y5883280D02*
G01*
X10658109Y5754786D01*
X10474690Y5754786D01*
X10474690Y5883280D01*
X10817219Y5051790D02*
G01*
X10945713Y5051790D01*
X10945713Y5235209D01*
X10817219Y5235209D01*
X10721980Y5051790D02*
G01*
X10593486Y5051790D01*
X10593486Y5235209D01*
X10721980Y5235209D01*
X10280520Y5060990D02*
G01*
X10416512Y5060990D01*
X10416512Y5276809D01*
X10280520Y5276809D01*
X10090279Y5060990D02*
G01*
X9954287Y5060990D01*
X9954287Y5276809D01*
X10090279Y5276809D01*
X13236209Y1419219D02*
G01*
X13236209Y1547713D01*
X13052790Y1547713D01*
X13052790Y1419219D01*
X13236209Y1323980D02*
G01*
X13236209Y1195486D01*
X13052790Y1195486D01*
X13052790Y1323980D01*
X13884280Y714009D02*
G01*
X13755786Y714009D01*
X13755786Y530590D01*
X13884280Y530590D01*
X13979519Y714009D02*
G01*
X14108013Y714009D01*
X14108013Y530590D01*
X13979519Y530590D01*
X6588490Y7635880D02*
G01*
X6588490Y7507386D01*
X6771909Y7507386D01*
X6771909Y7635880D01*
X6588490Y7731119D02*
G01*
X6588490Y7859613D01*
X6771909Y7859613D01*
X6771909Y7731119D01*
X6258290Y7635880D02*
G01*
X6258290Y7507386D01*
X6441709Y7507386D01*
X6441709Y7635880D01*
X6258290Y7731119D02*
G01*
X6258290Y7859613D01*
X6441709Y7859613D01*
X6441709Y7731119D01*
X5775690Y5451480D02*
G01*
X5775690Y5322986D01*
X5959109Y5322986D01*
X5959109Y5451480D01*
X5775690Y5546719D02*
G01*
X5775690Y5675213D01*
X5959109Y5675213D01*
X5959109Y5546719D01*
X4238619Y6702790D02*
G01*
X4367113Y6702790D01*
X4367113Y6886209D01*
X4238619Y6886209D01*
X4143380Y6702790D02*
G01*
X4014886Y6702790D01*
X4014886Y6886209D01*
X4143380Y6886209D01*
X4238619Y6994890D02*
G01*
X4367113Y6994890D01*
X4367113Y7178309D01*
X4238619Y7178309D01*
X4143380Y6994890D02*
G01*
X4014886Y6994890D01*
X4014886Y7178309D01*
X4143380Y7178309D01*
X5267319Y6702790D02*
G01*
X5395813Y6702790D01*
X5395813Y6886209D01*
X5267319Y6886209D01*
X5172080Y6702790D02*
G01*
X5043586Y6702790D01*
X5043586Y6886209D01*
X5172080Y6886209D01*
X5267319Y6994890D02*
G01*
X5395813Y6994890D01*
X5395813Y7178309D01*
X5267319Y7178309D01*
X5172080Y6994890D02*
G01*
X5043586Y6994890D01*
X5043586Y7178309D01*
X5172080Y7178309D01*
X12709519Y136890D02*
G01*
X12838013Y136890D01*
X12838013Y320309D01*
X12709519Y320309D01*
X12614280Y136890D02*
G01*
X12485786Y136890D01*
X12485786Y320309D01*
X12614280Y320309D01*
X13306790Y473080D02*
G01*
X13306790Y344586D01*
X13490209Y344586D01*
X13490209Y473080D01*
X13306790Y568319D02*
G01*
X13306790Y696813D01*
X13490209Y696813D01*
X13490209Y568319D01*
X10296890Y320680D02*
G01*
X10296890Y192186D01*
X10480309Y192186D01*
X10480309Y320680D01*
X10296890Y415919D02*
G01*
X10296890Y544413D01*
X10480309Y544413D01*
X10480309Y415919D01*
X5099009Y984120D02*
G01*
X5099009Y1120112D01*
X4883190Y1120112D01*
X4883190Y984120D01*
X5099009Y793879D02*
G01*
X5099009Y657887D01*
X4883190Y657887D01*
X4883190Y793879D01*
X5721479Y1454109D02*
G01*
X5585487Y1454109D01*
X5585487Y1238290D01*
X5721479Y1238290D01*
X5911720Y1454109D02*
G01*
X6047712Y1454109D01*
X6047712Y1238290D01*
X5911720Y1238290D01*
X6661020Y1085890D02*
G01*
X6797012Y1085890D01*
X6797012Y1301709D01*
X6661020Y1301709D01*
X6470779Y1085890D02*
G01*
X6334787Y1085890D01*
X6334787Y1301709D01*
X6470779Y1301709D01*
X6505580Y1641109D02*
G01*
X6377086Y1641109D01*
X6377086Y1457690D01*
X6505580Y1457690D01*
X6600819Y1641109D02*
G01*
X6729313Y1641109D01*
X6729313Y1457690D01*
X6600819Y1457690D01*
X10509379Y1682709D02*
G01*
X10373387Y1682709D01*
X10373387Y1466890D01*
X10509379Y1466890D01*
X10699620Y1682709D02*
G01*
X10835612Y1682709D01*
X10835612Y1466890D01*
X10699620Y1466890D01*
X10509379Y2038309D02*
G01*
X10373387Y2038309D01*
X10373387Y1822490D01*
X10509379Y1822490D01*
X10699620Y2038309D02*
G01*
X10835612Y2038309D01*
X10835612Y1822490D01*
X10699620Y1822490D01*
X10594980Y2390409D02*
G01*
X10466486Y2390409D01*
X10466486Y2206990D01*
X10594980Y2206990D01*
X10690219Y2390409D02*
G01*
X10818713Y2390409D01*
X10818713Y2206990D01*
X10690219Y2206990D01*
X14640290Y4397380D02*
G01*
X14640290Y4268886D01*
X14823709Y4268886D01*
X14823709Y4397380D01*
X14640290Y4492619D02*
G01*
X14640290Y4621113D01*
X14823709Y4621113D01*
X14823709Y4492619D01*
X14652990Y3101980D02*
G01*
X14652990Y2973486D01*
X14836409Y2973486D01*
X14836409Y3101980D01*
X14652990Y3197219D02*
G01*
X14652990Y3325713D01*
X14836409Y3325713D01*
X14836409Y3197219D01*
X14652990Y3660780D02*
G01*
X14652990Y3532286D01*
X14836409Y3532286D01*
X14836409Y3660780D01*
X14652990Y3756019D02*
G01*
X14652990Y3884513D01*
X14836409Y3884513D01*
X14836409Y3756019D01*
X10296519Y8087090D02*
G01*
X10425013Y8087090D01*
X10425013Y8270509D01*
X10296519Y8270509D01*
X10201280Y8087090D02*
G01*
X10072786Y8087090D01*
X10072786Y8270509D01*
X10201280Y8270509D01*
D11*
X9944100Y7531100D02*
G01*
X9944100Y7782560D01*
X10452100Y7782560D01*
X10452100Y7531100D01*
X9944100Y7531100D01*
D19*
X12130404Y7269098D02*
G01*
X12130404Y7401102D01*
X11923395Y7401102D01*
X11923395Y7269098D01*
X12130404Y7155891D02*
G01*
X12130404Y7023887D01*
X11923395Y7023887D01*
X11923395Y7155891D01*
D10*
X14125209Y1724019D02*
G01*
X14125209Y1852513D01*
X13941790Y1852513D01*
X13941790Y1724019D01*
X14125209Y1628780D02*
G01*
X14125209Y1500286D01*
X13941790Y1500286D01*
X13941790Y1628780D01*
X13497290Y1527180D02*
G01*
X13497290Y1398686D01*
X13680709Y1398686D01*
X13680709Y1527180D01*
X13497290Y1622419D02*
G01*
X13497290Y1750913D01*
X13680709Y1750913D01*
X13680709Y1622419D01*
D12*
X15113000Y4064000D02*
G01*
X15113000Y5063997D01*
X15712998Y5063997D01*
X15712998Y4064000D01*
X15113000Y4064000D01*
X15709900Y4445000D02*
G01*
X15709900Y4699000D01*
X15773400Y4699000D01*
X15773400Y4445000D01*
X15709900Y4445000D01*
X15113000Y5143500D02*
G01*
X15113000Y6143497D01*
X15712998Y6143497D01*
X15712998Y5143500D01*
X15113000Y5143500D01*
X15709900Y5524500D02*
G01*
X15709900Y5778500D01*
X15773400Y5778500D01*
X15773400Y5524500D01*
X15709900Y5524500D01*
X13839652Y2465491D02*
G01*
X13193062Y2465491D01*
X13839652Y4265493D02*
G01*
X13194654Y4265493D01*
X13839652Y2465491D02*
G01*
X13839652Y4265493D01*
X13211256Y2465491D02*
G01*
X13211256Y4265493D01*
X13160369Y2463792D02*
G01*
X13211256Y2463792D01*
X11289654Y2725877D02*
G01*
X11289654Y2463792D01*
X11373134Y2463792D01*
X11373134Y4265493D02*
G01*
X11289654Y4265493D01*
X11289654Y4005105D01*
X13211256Y4265493D02*
G01*
X13160369Y4265493D01*
X5351457Y1880476D02*
G01*
X5351457Y1849638D01*
X5353461Y1847634D01*
X5352125Y1846298D02*
G01*
X5689678Y1846298D01*
X5690346Y1846966D01*
X5690346Y1880476D01*
X5690346Y2158123D02*
G01*
X5690346Y2185187D01*
X5351457Y2185187D01*
X5351457Y2158126D01*
X11273802Y7919499D02*
G01*
X11433799Y7919499D01*
X11273802Y8209503D02*
G01*
X11433799Y8209503D01*
X11273802Y8020306D02*
G01*
X11273802Y8108690D01*
D10*
G75*
G01*
X15622460Y460520D02*
G03*
X15607221Y475760I-15240J0D01*
G75*
G01*
X15456979Y475760D02*
G03*
X15441740Y460520I1J-15240D01*
G75*
G01*
X15622460Y98280D02*
G02*
X15607221Y83040I-15240J0D01*
G75*
G01*
X15456979Y83040D02*
G02*
X15441740Y98280I1J15240D01*
D12*
G75*
G01*
X5588851Y5687139D02*
G02*
X5557868Y5656156I-30983J0D01*
G75*
G01*
X5557868Y5798122D02*
G02*
X5588851Y5767136I0J-30983D01*
G75*
G01*
X5340281Y5656737D02*
G02*
X5309299Y5687723I0J30983D01*
G75*
G01*
X5309299Y5767720D02*
G02*
X5340281Y5798703I30982J0D01*
G75*
G01*
X4688761Y1474051D02*
G02*
X4719744Y1443068I0J-30983D01*
G75*
G01*
X4577778Y1443068D02*
G02*
X4608764Y1474051I30983J0D01*
G75*
G01*
X4719163Y1225481D02*
G02*
X4688177Y1194499I-30983J0D01*
G75*
G01*
X4608180Y1194499D02*
G02*
X4577197Y1225481I0J30982D01*
D19*
G75*
G01*
X14517700Y5486908D02*
G03*
X14518132Y5486883I-371J-10001D01*
G75*
G01*
X13803300Y6120892D02*
G03*
X13802868Y6120917I371J10001D01*
D20*
G75*
G01*
X14394790Y6300800D02*
G03*
X14384807Y6300800I-4991J-356D01*
G75*
G01*
X14384807Y6300800D02*
G03*
X14394790Y6300800I4992J356D01*
D12*
G75*
G01*
X6395720Y6685280D02*
G02*
X6395720Y6779260I0J46990D01*
D21*
G75*
G01*
X5345694Y990590D02*
G03*
X5345694Y990336I-15001J-127D01*
D12*
G75*
G01*
X5787311Y995789D02*
G02*
X5617210Y995680I-85051J407D01*
D22*
G75*
G01*
X10898469Y6315705D02*
G03*
X10898723Y6315705I127J-993D01*
D12*
G75*
G01*
X5813057Y4309300D02*
G03*
X5667771Y4309791I-72657J-3980D01*
D10*
G75*
G01*
X13995220Y1021039D02*
G03*
X14010460Y1036279I0J15240D01*
G75*
G01*
X14010460Y1224321D02*
G03*
X13995220Y1239561I-15240J0D01*
G75*
G01*
X13512980Y1021039D02*
G02*
X13497740Y1036279I0J15240D01*
G75*
G01*
X13497740Y1224321D02*
G02*
X13512980Y1239561I15240J0D01*
G75*
G01*
X12674780Y5062261D02*
G03*
X12659540Y5047021I0J-15240D01*
G75*
G01*
X12659540Y4858979D02*
G03*
X12674780Y4843739I15240J0D01*
G75*
G01*
X13157020Y5062261D02*
G02*
X13172260Y5047021I0J-15240D01*
G75*
G01*
X13172260Y4858979D02*
G02*
X13157020Y4843739I-15240J0D01*
G75*
G01*
X12785580Y4725860D02*
G03*
X12770340Y4710620I0J-15240D01*
G75*
G01*
X12770340Y4560380D02*
G03*
X12785580Y4545140I15240J0D01*
G75*
G01*
X13147820Y4725860D02*
G02*
X13163060Y4710620I0J-15240D01*
G75*
G01*
X13163060Y4560380D02*
G02*
X13147820Y4545140I-15240J0D01*
G75*
G01*
X13312920Y5573840D02*
G03*
X13328160Y5589080I0J15240D01*
G75*
G01*
X13328160Y5739320D02*
G03*
X13312920Y5754560I-15240J0D01*
G75*
G01*
X12950680Y5573840D02*
G02*
X12935440Y5589080I0J15240D01*
G75*
G01*
X12935440Y5739320D02*
G02*
X12950680Y5754560I15240J0D01*
G75*
G01*
X13039580Y7761160D02*
G03*
X13024340Y7745921I0J-15240D01*
G75*
G01*
X13024340Y7595680D02*
G03*
X13039580Y7580440I15240J0D01*
G75*
G01*
X13401820Y7761160D02*
G02*
X13417060Y7745921I0J-15240D01*
G75*
G01*
X13417060Y7595680D02*
G02*
X13401820Y7580440I-15240J0D01*
G75*
G01*
X13039580Y7481760D02*
G03*
X13024340Y7466521I0J-15240D01*
G75*
G01*
X13024340Y7316280D02*
G03*
X13039580Y7301040I15240J0D01*
G75*
G01*
X13401820Y7481760D02*
G02*
X13417060Y7466521I0J-15240D01*
G75*
G01*
X13417060Y7316280D02*
G02*
X13401820Y7301040I-15240J0D01*
G75*
G01*
X13806360Y7293120D02*
G03*
X13791121Y7308360I-15240J0D01*
G75*
G01*
X13640879Y7308360D02*
G03*
X13625640Y7293120I1J-15240D01*
G75*
G01*
X13806360Y6930880D02*
G02*
X13791121Y6915640I-15240J0D01*
G75*
G01*
X13640879Y6915640D02*
G02*
X13625640Y6930880I1J15240D01*
G75*
G01*
X14085760Y7293120D02*
G03*
X14070521Y7308360I-15240J0D01*
G75*
G01*
X13920279Y7308360D02*
G03*
X13905040Y7293120I1J-15240D01*
G75*
G01*
X14085760Y6930880D02*
G02*
X14070521Y6915640I-15240J0D01*
G75*
G01*
X13920279Y6915640D02*
G02*
X13905040Y6930880I1J15240D01*
G75*
G01*
X10252220Y2475040D02*
G03*
X10267460Y2490280I0J15240D01*
G75*
G01*
X10267460Y2640520D02*
G03*
X10252220Y2655760I-15240J0D01*
G75*
G01*
X9889980Y2475040D02*
G02*
X9874740Y2490280I0J15240D01*
G75*
G01*
X9874740Y2640520D02*
G02*
X9889980Y2655760I15240J0D01*
G75*
G01*
X11174540Y4822680D02*
G03*
X11189779Y4807440I15240J0D01*
G75*
G01*
X11340021Y4807440D02*
G03*
X11355260Y4822680I-1J15240D01*
G75*
G01*
X11174540Y5184920D02*
G02*
X11189779Y5200160I15240J0D01*
G75*
G01*
X11340021Y5200160D02*
G02*
X11355260Y5184920I-1J-15240D01*
G75*
G01*
X12034561Y8267520D02*
G03*
X12019321Y8282760I-15240J0D01*
G75*
G01*
X11831279Y8282760D02*
G03*
X11816039Y8267520I0J-15240D01*
G75*
G01*
X12034561Y7785280D02*
G02*
X12019321Y7770040I-15240J0D01*
G75*
G01*
X11831279Y7770040D02*
G02*
X11816039Y7785280I0J15240D01*
G75*
G01*
X10501440Y6410180D02*
G03*
X10516679Y6394940I15240J0D01*
G75*
G01*
X10666921Y6394940D02*
G03*
X10682160Y6410180I-1J15240D01*
G75*
G01*
X10501440Y6772420D02*
G02*
X10516679Y6787660I15240J0D01*
G75*
G01*
X10666921Y6787660D02*
G02*
X10682160Y6772420I-1J-15240D01*
G75*
G01*
X10850839Y5651680D02*
G03*
X10866079Y5636440I15240J0D01*
G75*
G01*
X11054121Y5636440D02*
G03*
X11069361Y5651680I0J15240D01*
G75*
G01*
X10850839Y6133920D02*
G02*
X10866079Y6149160I15240J0D01*
G75*
G01*
X11054121Y6149160D02*
G02*
X11069361Y6133920I0J-15240D01*
G75*
G01*
X10980461Y8051620D02*
G03*
X10965221Y8066860I-15240J0D01*
G75*
G01*
X10777179Y8066860D02*
G03*
X10761939Y8051620I0J-15240D01*
G75*
G01*
X10980461Y7569380D02*
G02*
X10965221Y7554140I-15240J0D01*
G75*
G01*
X10777179Y7554140D02*
G02*
X10761939Y7569380I0J15240D01*
G75*
G01*
X6402260Y4740420D02*
G03*
X6387021Y4755660I-15240J0D01*
G75*
G01*
X6236779Y4755660D02*
G03*
X6221540Y4740420I1J-15240D01*
G75*
G01*
X6402260Y4378180D02*
G02*
X6387021Y4362940I-15240J0D01*
G75*
G01*
X6236779Y4362940D02*
G02*
X6221540Y4378180I1J15240D01*
G75*
G01*
X6277120Y3960940D02*
G03*
X6292360Y3976180I0J15240D01*
G75*
G01*
X6292360Y4126420D02*
G03*
X6277120Y4141660I-15240J0D01*
G75*
G01*
X5914880Y3960940D02*
G02*
X5899640Y3976180I0J15240D01*
G75*
G01*
X5899640Y4126420D02*
G02*
X5914880Y4141660I15240J0D01*
G75*
G01*
X6738661Y4800420D02*
G03*
X6723421Y4815660I-15240J0D01*
G75*
G01*
X6535379Y4815660D02*
G03*
X6520139Y4800420I0J-15240D01*
G75*
G01*
X6738661Y4318180D02*
G02*
X6723421Y4302940I-15240J0D01*
G75*
G01*
X6535379Y4302940D02*
G02*
X6520139Y4318180I0J15240D01*
G75*
G01*
X5103940Y4238480D02*
G03*
X5119179Y4223240I15240J0D01*
G75*
G01*
X5269421Y4223240D02*
G03*
X5284660Y4238480I-1J15240D01*
G75*
G01*
X5103940Y4600720D02*
G02*
X5119179Y4615960I15240J0D01*
G75*
G01*
X5269421Y4615960D02*
G02*
X5284660Y4600720I-1J-15240D01*
G75*
G01*
X4754839Y4178480D02*
G03*
X4770079Y4163240I15240J0D01*
G75*
G01*
X4958121Y4163240D02*
G03*
X4973361Y4178480I0J15240D01*
G75*
G01*
X4754839Y4660720D02*
G02*
X4770079Y4675960I15240J0D01*
G75*
G01*
X4958121Y4675960D02*
G02*
X4973361Y4660720I0J-15240D01*
G75*
G01*
X6045020Y7637739D02*
G03*
X6060260Y7652979I0J15240D01*
G75*
G01*
X6060260Y7841021D02*
G03*
X6045020Y7856261I-15240J0D01*
G75*
G01*
X5562780Y7637739D02*
G02*
X5547540Y7652979I0J15240D01*
G75*
G01*
X5547540Y7841021D02*
G02*
X5562780Y7856261I15240J0D01*
G75*
G01*
X6113739Y5664380D02*
G03*
X6128979Y5649140I15240J0D01*
G75*
G01*
X6317021Y5649140D02*
G03*
X6332261Y5664380I0J15240D01*
G75*
G01*
X6113739Y6146620D02*
G02*
X6128979Y6161860I15240J0D01*
G75*
G01*
X6317021Y6161860D02*
G02*
X6332261Y6146620I0J-15240D01*
G75*
G01*
X5972320Y5992940D02*
G03*
X5987560Y6008180I0J15240D01*
G75*
G01*
X5987560Y6158420D02*
G03*
X5972320Y6173660I-15240J0D01*
G75*
G01*
X5610080Y5992940D02*
G02*
X5594840Y6008180I0J15240D01*
G75*
G01*
X5594840Y6158420D02*
G02*
X5610080Y6173660I15240J0D01*
G75*
G01*
X4865560Y6620020D02*
G03*
X4850321Y6635260I-15240J0D01*
G75*
G01*
X4700079Y6635260D02*
G03*
X4684840Y6620020I1J-15240D01*
G75*
G01*
X4865560Y6257780D02*
G02*
X4850321Y6242540I-15240J0D01*
G75*
G01*
X4700079Y6242540D02*
G02*
X4684840Y6257780I1J15240D01*
G75*
G01*
X4865560Y7128020D02*
G03*
X4850321Y7143260I-15240J0D01*
G75*
G01*
X4700079Y7143260D02*
G03*
X4684840Y7128020I1J-15240D01*
G75*
G01*
X4865560Y6765780D02*
G02*
X4850321Y6750540I-15240J0D01*
G75*
G01*
X4700079Y6750540D02*
G02*
X4684840Y6765780I1J15240D01*
G75*
G01*
X4865560Y7648720D02*
G03*
X4850321Y7663960I-15240J0D01*
G75*
G01*
X4700079Y7663960D02*
G03*
X4684840Y7648720I1J-15240D01*
G75*
G01*
X4865560Y7286480D02*
G02*
X4850321Y7271240I-15240J0D01*
G75*
G01*
X4700079Y7271240D02*
G02*
X4684840Y7286480I1J15240D01*
G75*
G01*
X10691940Y187180D02*
G03*
X10707179Y171940I15240J0D01*
G75*
G01*
X10857421Y171940D02*
G03*
X10872660Y187180I-1J15240D01*
G75*
G01*
X10691940Y549420D02*
G02*
X10707179Y564660I15240J0D01*
G75*
G01*
X10857421Y564660D02*
G02*
X10872660Y549420I-1J-15240D01*
G75*
G01*
X6234240Y415780D02*
G03*
X6249479Y400540I15240J0D01*
G75*
G01*
X6399721Y400540D02*
G03*
X6414960Y415780I-1J15240D01*
G75*
G01*
X6234240Y778020D02*
G02*
X6249479Y793260I15240J0D01*
G75*
G01*
X6399721Y793260D02*
G02*
X6414960Y778020I-1J-15240D01*
G75*
G01*
X6520139Y292280D02*
G03*
X6535379Y277040I15240J0D01*
G75*
G01*
X6723421Y277040D02*
G03*
X6738661Y292280I0J15240D01*
G75*
G01*
X6520139Y774520D02*
G02*
X6535379Y789760I15240J0D01*
G75*
G01*
X6723421Y789760D02*
G02*
X6738661Y774520I0J-15240D01*
G75*
G01*
X6137420Y2957640D02*
G03*
X6152660Y2972880I0J15240D01*
G75*
G01*
X6152660Y3123120D02*
G03*
X6137420Y3138360I-15240J0D01*
G75*
G01*
X5775180Y2957640D02*
G02*
X5759940Y2972880I0J15240D01*
G75*
G01*
X5759940Y3123120D02*
G02*
X5775180Y3138360I15240J0D01*
G75*
G01*
X6935660Y2606820D02*
G03*
X6920421Y2622060I-15240J0D01*
G75*
G01*
X6770179Y2622060D02*
G03*
X6754940Y2606820I1J-15240D01*
G75*
G01*
X6935660Y2244580D02*
G02*
X6920421Y2229340I-15240J0D01*
G75*
G01*
X6770179Y2229340D02*
G02*
X6754940Y2244580I1J15240D01*
G75*
G01*
X11280920Y6869240D02*
G03*
X11296160Y6884480I0J15240D01*
G75*
G01*
X11296160Y7034721D02*
G03*
X11280920Y7049960I-15240J-1D01*
G75*
G01*
X10918680Y6869240D02*
G02*
X10903440Y6884480I0J15240D01*
G75*
G01*
X10903440Y7034721D02*
G02*
X10918680Y7049960I15240J-1D01*
G75*
G01*
X5985020Y7339140D02*
G03*
X6000260Y7354380I0J15240D01*
G75*
G01*
X6000260Y7504621D02*
G03*
X5985020Y7519860I-15240J-1D01*
G75*
G01*
X5622780Y7339140D02*
G02*
X5607540Y7354380I0J15240D01*
G75*
G01*
X5607540Y7504621D02*
G02*
X5622780Y7519860I15240J-1D01*
G75*
G01*
X6946720Y5656539D02*
G03*
X6961960Y5671779I0J15240D01*
G75*
G01*
X6961960Y5859821D02*
G03*
X6946720Y5875061I-15240J0D01*
G75*
G01*
X6464480Y5656539D02*
G02*
X6449240Y5671779I0J15240D01*
G75*
G01*
X6449240Y5859821D02*
G02*
X6464480Y5875061I15240J0D01*
G75*
G01*
X6823220Y6005640D02*
G03*
X6838460Y6020880I0J15240D01*
G75*
G01*
X6838460Y6171120D02*
G03*
X6823220Y6186360I-15240J0D01*
G75*
G01*
X6460980Y6005640D02*
G02*
X6445740Y6020880I0J15240D01*
G75*
G01*
X6445740Y6171120D02*
G02*
X6460980Y6186360I15240J0D01*
G75*
G01*
X4886180Y1728660D02*
G03*
X4870940Y1713420I0J-15240D01*
G75*
G01*
X4870940Y1563180D02*
G03*
X4886180Y1547940I15240J0D01*
G75*
G01*
X5248420Y1728660D02*
G02*
X5263660Y1713420I0J-15240D01*
G75*
G01*
X5263660Y1563180D02*
G02*
X5248420Y1547940I-15240J0D01*
D21*
G75*
G01
X11216411Y479704D02*
G03X11216411Y479704I-15011J0D01*
G75*
G01
X11142472Y261569D02*
G03X11142472Y261569I-15011J0D01*
D16*
G75*
G01
X6431128Y7035800D02*
G03X6431128Y7035800I-10008J0D01*
D21*
G75*
G01
X5444109Y2904211D02*
G03X5444109Y2904211I-15011J0D01*
G75*
G01
X5262905Y2967634D02*
G03X5262905Y2967634I-15011J0D01*
G75*
G01
X6561709Y2078711D02*
G03X6561709Y2078711I-15011J0D01*
G75*
G01
X6380505Y2142134D02*
G03X6380505Y2142134I-15011J0D01*
G75*
G01
X6022111Y4305300D02*
G03X6022111Y4305300I-15011J0D01*
G75*
G01
X5628411Y1905000D02*
G03X5628411Y1905000I-15011J0D01*
G75*
G01
X5754116Y1858366D02*
G03X5754116Y1858366I-15011J0D01*
D16*
G75*
G01
X11483797Y7904480D02*
G03X11483797Y7904480I-10008J0D01*
M02*
