G04 Layer: InnerLayer1*
G04 EasyEDA v6.5.22, 2022-12-05 14:56:37*
G04 05bf86c157214e56ba330cf237c0dbe7,b19d526b7a914c21af0811b40d406c84,10*
G04 Gerber Generator version 0.2*
G04 Scale: 100 percent, Rotated: No, Reflected: No *
G04 Dimensions in millimeters *
G04 leading zeros omitted , absolute positions ,4 integer and 5 decimal *
%FSLAX45Y45*%
%MOMM*%

%ADD10R,1.5748X1.5748*%
%ADD11C,1.5748*%
%ADD12C,2.0000*%
%ADD13O,3.3999932X1.499997*%
%ADD14O,1.7500092X3.3999932*%
%ADD15C,2.5000*%
%ADD16C,1.6000*%
%ADD17O,2.0999958X1.0999978000000001*%
%ADD18O,1.7999964X1.0999978000000001*%
%ADD19C,1.5240*%
%ADD20C,1.7000*%
%ADD21C,0.7000*%
%ADD22C,0.0119*%

%LPD*%
G36*
X2830068Y25908D02*
G01*
X2826156Y26670D01*
X2822905Y28905D01*
X2820670Y32156D01*
X2819908Y36068D01*
X2819908Y8485632D01*
X2820670Y8489492D01*
X2822905Y8492794D01*
X2826156Y8495030D01*
X2830068Y8495792D01*
X15700756Y8492998D01*
X15704667Y8492236D01*
X15707918Y8490051D01*
X15710154Y8486749D01*
X15710916Y8482838D01*
X15710916Y36068D01*
X15710154Y32156D01*
X15707918Y28905D01*
X15704667Y26670D01*
X15700756Y25908D01*
G37*

%LPC*%
G36*
X9122765Y8128355D02*
G01*
X9139478Y8129778D01*
X9155938Y8132978D01*
X9171940Y8137956D01*
X9187281Y8144713D01*
X9201759Y8153095D01*
X9215272Y8163001D01*
X9227616Y8174380D01*
X9238589Y8186978D01*
X9248140Y8200745D01*
X9256115Y8215477D01*
X9262414Y8231022D01*
X9266986Y8247125D01*
X9269780Y8263686D01*
X9270695Y8280400D01*
X9269780Y8297113D01*
X9266986Y8313674D01*
X9262414Y8329777D01*
X9256115Y8345322D01*
X9248140Y8360054D01*
X9238589Y8373821D01*
X9227616Y8386419D01*
X9215272Y8397798D01*
X9201759Y8407704D01*
X9187281Y8416086D01*
X9171940Y8422843D01*
X9155938Y8427821D01*
X9139478Y8431022D01*
X9122765Y8432444D01*
X9106052Y8431936D01*
X9089440Y8429650D01*
X9073184Y8425535D01*
X9057487Y8419693D01*
X9042552Y8412124D01*
X9028531Y8402929D01*
X9015577Y8392312D01*
X9003893Y8380272D01*
X8993632Y8367064D01*
X8984843Y8352790D01*
X8977680Y8337651D01*
X8972245Y8321802D01*
X8968587Y8305444D01*
X8966758Y8288781D01*
X8966758Y8272018D01*
X8968587Y8255355D01*
X8972245Y8238998D01*
X8977680Y8223148D01*
X8984843Y8208009D01*
X8993632Y8193735D01*
X9003893Y8180527D01*
X9015577Y8168487D01*
X9028531Y8157870D01*
X9042552Y8148675D01*
X9057487Y8141106D01*
X9073184Y8135264D01*
X9089440Y8131149D01*
X9106052Y8128863D01*
G37*
G36*
X15379700Y155854D02*
G01*
X15391841Y156718D01*
X15403779Y159308D01*
X15415209Y163576D01*
X15425928Y169418D01*
X15435681Y176682D01*
X15444317Y185318D01*
X15451582Y195072D01*
X15457424Y205790D01*
X15461691Y217220D01*
X15464282Y229158D01*
X15465145Y241300D01*
X15464282Y253441D01*
X15461691Y265379D01*
X15457424Y276809D01*
X15451582Y287528D01*
X15444317Y297281D01*
X15435681Y305917D01*
X15425928Y313182D01*
X15415209Y319024D01*
X15403779Y323291D01*
X15391841Y325882D01*
X15379700Y326745D01*
X15367558Y325882D01*
X15355620Y323291D01*
X15344190Y319024D01*
X15333472Y313182D01*
X15323718Y305917D01*
X15315082Y297281D01*
X15307818Y287528D01*
X15301976Y276809D01*
X15297708Y265379D01*
X15295118Y253441D01*
X15294254Y241300D01*
X15295118Y229158D01*
X15297708Y217220D01*
X15301976Y205790D01*
X15307818Y195072D01*
X15315082Y185318D01*
X15323718Y176682D01*
X15333472Y169418D01*
X15344190Y163576D01*
X15355620Y159308D01*
X15367558Y156718D01*
G37*
G36*
X3255365Y254355D02*
G01*
X3272078Y255778D01*
X3288537Y258978D01*
X3304540Y263956D01*
X3319881Y270713D01*
X3334359Y279095D01*
X3347872Y289001D01*
X3360216Y300380D01*
X3371189Y312978D01*
X3380740Y326745D01*
X3388715Y341477D01*
X3395014Y357022D01*
X3399586Y373126D01*
X3402380Y389686D01*
X3403295Y406400D01*
X3402380Y423113D01*
X3399586Y439674D01*
X3395014Y455777D01*
X3388715Y471322D01*
X3380740Y486054D01*
X3371189Y499821D01*
X3360216Y512419D01*
X3347872Y523798D01*
X3334359Y533704D01*
X3319881Y542086D01*
X3304540Y548843D01*
X3288537Y553821D01*
X3272078Y557022D01*
X3255365Y558444D01*
X3238652Y557936D01*
X3222040Y555650D01*
X3205784Y551535D01*
X3190087Y545693D01*
X3175152Y538124D01*
X3161131Y528929D01*
X3148177Y518312D01*
X3136493Y506272D01*
X3126232Y493064D01*
X3117443Y478790D01*
X3110280Y463651D01*
X3104845Y447801D01*
X3101187Y431444D01*
X3099358Y414782D01*
X3099358Y398018D01*
X3101187Y381355D01*
X3104845Y364998D01*
X3110280Y349148D01*
X3117443Y334010D01*
X3126232Y319735D01*
X3136493Y306527D01*
X3148177Y294487D01*
X3161131Y283870D01*
X3175152Y274675D01*
X3190087Y267106D01*
X3205784Y261264D01*
X3222040Y257149D01*
X3238652Y254863D01*
G37*
G36*
X11290300Y409854D02*
G01*
X11302441Y410718D01*
X11314379Y413308D01*
X11325809Y417576D01*
X11336528Y423418D01*
X11346281Y430682D01*
X11354917Y439318D01*
X11362182Y449072D01*
X11368024Y459790D01*
X11372291Y471220D01*
X11374882Y483158D01*
X11375745Y495300D01*
X11374882Y507441D01*
X11372291Y519379D01*
X11368024Y530809D01*
X11362182Y541528D01*
X11354917Y551281D01*
X11346281Y559917D01*
X11336528Y567182D01*
X11325809Y573024D01*
X11314379Y577291D01*
X11302441Y579882D01*
X11290300Y580745D01*
X11278158Y579882D01*
X11266220Y577291D01*
X11254790Y573024D01*
X11244072Y567182D01*
X11234318Y559917D01*
X11225682Y551281D01*
X11218418Y541528D01*
X11212576Y530809D01*
X11208308Y519379D01*
X11205718Y507441D01*
X11204854Y495300D01*
X11205718Y483158D01*
X11208308Y471220D01*
X11212576Y459790D01*
X11218418Y449072D01*
X11225682Y439318D01*
X11234318Y430682D01*
X11244072Y423418D01*
X11254790Y417576D01*
X11266220Y413308D01*
X11278158Y410718D01*
G37*
G36*
X6184900Y435254D02*
G01*
X6197041Y436118D01*
X6208979Y438708D01*
X6220409Y442976D01*
X6231128Y448818D01*
X6240881Y456082D01*
X6249517Y464718D01*
X6256782Y474472D01*
X6262624Y485190D01*
X6266891Y496620D01*
X6269482Y508558D01*
X6270345Y520700D01*
X6269482Y532841D01*
X6266891Y544779D01*
X6262624Y556209D01*
X6256782Y566928D01*
X6249517Y576681D01*
X6240881Y585317D01*
X6231128Y592582D01*
X6220409Y598424D01*
X6208979Y602691D01*
X6197041Y605282D01*
X6184900Y606145D01*
X6172758Y605282D01*
X6160820Y602691D01*
X6149390Y598424D01*
X6138672Y592582D01*
X6128918Y585317D01*
X6120282Y576681D01*
X6113018Y566928D01*
X6107176Y556209D01*
X6102908Y544779D01*
X6100318Y532841D01*
X6099454Y520700D01*
X6100318Y508558D01*
X6102908Y496620D01*
X6107176Y485190D01*
X6113018Y474472D01*
X6120282Y464718D01*
X6128918Y456082D01*
X6138672Y448818D01*
X6149390Y442976D01*
X6160820Y438708D01*
X6172758Y436118D01*
G37*
G36*
X12570917Y505764D02*
G01*
X12727482Y505764D01*
X12736677Y506577D01*
X12745212Y508863D01*
X12753187Y512572D01*
X12760350Y517601D01*
X12766598Y523849D01*
X12771628Y531012D01*
X12775336Y538988D01*
X12777622Y547522D01*
X12778435Y556818D01*
X12779654Y560832D01*
X12782397Y563981D01*
X12786156Y565810D01*
X12790373Y565912D01*
X12794234Y564337D01*
X12797180Y561340D01*
X12798196Y559663D01*
X12807848Y547776D01*
X12818821Y537108D01*
X12831013Y527812D01*
X12844170Y520039D01*
X12858191Y513892D01*
X12872872Y509422D01*
X12887909Y506679D01*
X12903200Y505764D01*
X12918490Y506679D01*
X12933527Y509422D01*
X12948208Y513892D01*
X12962229Y520039D01*
X12975386Y527812D01*
X12987578Y537108D01*
X12998551Y547776D01*
X13008203Y559663D01*
X13016382Y572617D01*
X13022935Y586435D01*
X13027863Y600964D01*
X13031012Y615899D01*
X13032384Y631190D01*
X13031927Y646480D01*
X13029641Y661619D01*
X13025628Y676402D01*
X13019836Y690575D01*
X13012470Y703986D01*
X13003530Y716432D01*
X12993217Y727710D01*
X12981584Y737717D01*
X12968935Y746252D01*
X12965176Y748182D01*
X12962178Y750519D01*
X12960299Y753770D01*
X12959689Y757529D01*
X12960502Y761238D01*
X12962636Y764387D01*
X12967817Y769518D01*
X12975082Y779272D01*
X12980924Y789990D01*
X12985191Y801420D01*
X12987782Y813358D01*
X12988645Y825500D01*
X12987782Y837641D01*
X12985191Y849579D01*
X12980924Y861009D01*
X12975082Y871728D01*
X12967817Y881481D01*
X12959181Y890117D01*
X12949428Y897382D01*
X12938709Y903224D01*
X12927279Y907491D01*
X12915341Y910082D01*
X12903200Y910945D01*
X12891058Y910082D01*
X12879120Y907491D01*
X12867690Y903224D01*
X12856972Y897382D01*
X12847218Y890117D01*
X12838582Y881481D01*
X12831318Y871728D01*
X12825476Y861009D01*
X12821208Y849579D01*
X12818618Y837641D01*
X12817754Y825500D01*
X12818618Y813358D01*
X12821208Y801420D01*
X12825476Y789990D01*
X12831318Y779272D01*
X12838582Y769518D01*
X12843764Y764387D01*
X12845897Y761238D01*
X12846710Y757529D01*
X12846151Y753770D01*
X12844221Y750519D01*
X12841224Y748182D01*
X12837464Y746252D01*
X12824815Y737717D01*
X12813182Y727710D01*
X12802870Y716432D01*
X12796824Y707999D01*
X12793827Y705256D01*
X12789966Y703884D01*
X12785902Y704138D01*
X12782245Y706018D01*
X12779603Y709117D01*
X12778435Y713079D01*
X12777622Y722477D01*
X12775336Y731012D01*
X12771628Y738987D01*
X12766598Y746150D01*
X12760350Y752398D01*
X12753187Y757428D01*
X12745212Y761136D01*
X12736677Y763422D01*
X12727482Y764235D01*
X12570917Y764235D01*
X12561722Y763422D01*
X12553188Y761136D01*
X12545212Y757428D01*
X12538049Y752398D01*
X12531801Y746150D01*
X12526772Y738987D01*
X12523063Y731012D01*
X12520777Y722477D01*
X12519964Y713282D01*
X12519964Y556717D01*
X12520777Y547522D01*
X12523063Y538988D01*
X12526772Y531012D01*
X12531801Y523849D01*
X12538049Y517601D01*
X12545212Y512572D01*
X12553188Y508863D01*
X12561722Y506577D01*
G37*
G36*
X3474008Y8002524D02*
G01*
X3663391Y8002524D01*
X3678834Y8003438D01*
X3693718Y8006181D01*
X3708196Y8010652D01*
X3722014Y8016900D01*
X3734968Y8024723D01*
X3746906Y8034070D01*
X3757625Y8044789D01*
X3766972Y8056727D01*
X3774795Y8069681D01*
X3781044Y8083499D01*
X3785514Y8097977D01*
X3788257Y8112861D01*
X3789172Y8128000D01*
X3788257Y8143138D01*
X3785514Y8158022D01*
X3781044Y8172500D01*
X3774795Y8186318D01*
X3766972Y8199272D01*
X3757625Y8211210D01*
X3746906Y8221929D01*
X3734968Y8231276D01*
X3722014Y8239099D01*
X3708196Y8245297D01*
X3693718Y8249818D01*
X3678834Y8252561D01*
X3663391Y8253475D01*
X3474008Y8253475D01*
X3458565Y8252561D01*
X3443681Y8249818D01*
X3429203Y8245297D01*
X3415385Y8239099D01*
X3402431Y8231276D01*
X3390493Y8221929D01*
X3379774Y8211210D01*
X3370427Y8199272D01*
X3362604Y8186318D01*
X3356356Y8172500D01*
X3351885Y8158022D01*
X3349142Y8143138D01*
X3348228Y8128000D01*
X3349142Y8112861D01*
X3351885Y8097977D01*
X3356356Y8083499D01*
X3362604Y8069681D01*
X3370427Y8056727D01*
X3379774Y8044789D01*
X3390493Y8034070D01*
X3402431Y8024723D01*
X3415385Y8016900D01*
X3429203Y8010652D01*
X3443681Y8006181D01*
X3458565Y8003438D01*
G37*
G36*
X13627100Y524154D02*
G01*
X13639241Y525018D01*
X13651179Y527608D01*
X13662609Y531876D01*
X13673328Y537718D01*
X13683081Y544982D01*
X13691717Y553618D01*
X13698982Y563372D01*
X13704824Y574090D01*
X13709091Y585520D01*
X13711682Y597458D01*
X13712545Y609600D01*
X13711682Y621741D01*
X13709091Y633679D01*
X13704824Y645109D01*
X13698982Y655828D01*
X13691717Y665581D01*
X13683081Y674217D01*
X13673328Y681482D01*
X13662609Y687324D01*
X13651179Y691591D01*
X13639241Y694182D01*
X13627100Y695045D01*
X13614958Y694182D01*
X13603020Y691591D01*
X13591590Y687324D01*
X13580872Y681482D01*
X13571118Y674217D01*
X13562482Y665581D01*
X13555218Y655828D01*
X13549376Y645109D01*
X13545108Y633679D01*
X13542518Y621741D01*
X13541654Y609600D01*
X13542518Y597458D01*
X13545108Y585520D01*
X13549376Y574090D01*
X13555218Y563372D01*
X13562482Y553618D01*
X13571118Y544982D01*
X13580872Y537718D01*
X13591590Y531876D01*
X13603020Y527608D01*
X13614958Y525018D01*
G37*
G36*
X11049000Y676554D02*
G01*
X11061141Y677418D01*
X11073079Y680008D01*
X11084509Y684276D01*
X11095228Y690118D01*
X11104981Y697382D01*
X11113617Y706018D01*
X11120882Y715772D01*
X11126724Y726490D01*
X11130991Y737920D01*
X11133582Y749858D01*
X11134445Y762000D01*
X11133582Y774141D01*
X11130991Y786079D01*
X11126724Y797509D01*
X11120882Y808228D01*
X11113617Y817981D01*
X11104981Y826617D01*
X11095228Y833882D01*
X11084509Y839724D01*
X11073079Y843991D01*
X11061141Y846582D01*
X11049000Y847445D01*
X11036858Y846582D01*
X11024920Y843991D01*
X11013490Y839724D01*
X11002772Y833882D01*
X10993018Y826617D01*
X10984382Y817981D01*
X10977118Y808228D01*
X10971276Y797509D01*
X10967008Y786079D01*
X10964418Y774141D01*
X10963554Y762000D01*
X10964418Y749858D01*
X10967008Y737920D01*
X10971276Y726490D01*
X10977118Y715772D01*
X10984382Y706018D01*
X10993018Y697382D01*
X11002772Y690118D01*
X11013490Y684276D01*
X11024920Y680008D01*
X11036858Y677418D01*
G37*
G36*
X13220700Y7852054D02*
G01*
X13232841Y7852918D01*
X13244779Y7855508D01*
X13256209Y7859775D01*
X13266928Y7865618D01*
X13276681Y7872882D01*
X13285317Y7881518D01*
X13292582Y7891272D01*
X13298424Y7901990D01*
X13302691Y7913420D01*
X13305282Y7925358D01*
X13306145Y7937500D01*
X13305282Y7949641D01*
X13302691Y7961579D01*
X13298424Y7973009D01*
X13292582Y7983728D01*
X13285317Y7993481D01*
X13276681Y8002117D01*
X13266928Y8009381D01*
X13263727Y8011109D01*
X13260476Y8013953D01*
X13258698Y8017865D01*
X13258698Y8022234D01*
X13260476Y8026146D01*
X13263727Y8028990D01*
X13266928Y8030718D01*
X13276681Y8037982D01*
X13285317Y8046618D01*
X13292582Y8056372D01*
X13298424Y8067090D01*
X13302691Y8078520D01*
X13305282Y8090458D01*
X13306145Y8102600D01*
X13305282Y8114741D01*
X13302691Y8126679D01*
X13298424Y8138109D01*
X13292582Y8148828D01*
X13285317Y8158581D01*
X13276681Y8167217D01*
X13266928Y8174481D01*
X13256209Y8180324D01*
X13244779Y8184591D01*
X13232841Y8187181D01*
X13220700Y8188045D01*
X13208558Y8187181D01*
X13196620Y8184591D01*
X13185190Y8180324D01*
X13174472Y8174481D01*
X13164718Y8167217D01*
X13156082Y8158581D01*
X13148818Y8148828D01*
X13142976Y8138109D01*
X13138708Y8126679D01*
X13136118Y8114741D01*
X13135254Y8102600D01*
X13136118Y8090458D01*
X13138708Y8078520D01*
X13142976Y8067090D01*
X13148818Y8056372D01*
X13156082Y8046618D01*
X13164718Y8037982D01*
X13174472Y8030718D01*
X13177672Y8028990D01*
X13180923Y8026146D01*
X13182701Y8022234D01*
X13182701Y8017865D01*
X13180923Y8013953D01*
X13177672Y8011109D01*
X13174472Y8009381D01*
X13164718Y8002117D01*
X13156082Y7993481D01*
X13148818Y7983728D01*
X13142976Y7973009D01*
X13138708Y7961579D01*
X13136118Y7949641D01*
X13135254Y7937500D01*
X13136118Y7925358D01*
X13138708Y7913420D01*
X13142976Y7901990D01*
X13148818Y7891272D01*
X13156082Y7881518D01*
X13164718Y7872882D01*
X13174472Y7865618D01*
X13185190Y7859775D01*
X13196620Y7855508D01*
X13208558Y7852918D01*
G37*
G36*
X11455400Y917854D02*
G01*
X11467541Y918718D01*
X11479479Y921308D01*
X11490909Y925576D01*
X11501628Y931418D01*
X11511381Y938682D01*
X11520017Y947318D01*
X11527282Y957071D01*
X11533124Y967790D01*
X11537391Y979220D01*
X11539982Y991158D01*
X11540845Y1003300D01*
X11539982Y1015441D01*
X11537391Y1027379D01*
X11533124Y1038809D01*
X11527282Y1049528D01*
X11520017Y1059281D01*
X11511381Y1067917D01*
X11501628Y1075182D01*
X11490909Y1081024D01*
X11479479Y1085291D01*
X11467541Y1087882D01*
X11455400Y1088745D01*
X11443258Y1087882D01*
X11431320Y1085291D01*
X11419890Y1081024D01*
X11409172Y1075182D01*
X11399418Y1067917D01*
X11390782Y1059281D01*
X11383518Y1049528D01*
X11377676Y1038809D01*
X11373408Y1027379D01*
X11370818Y1015441D01*
X11369954Y1003300D01*
X11370818Y991158D01*
X11373408Y979220D01*
X11377676Y967790D01*
X11383518Y957071D01*
X11390782Y947318D01*
X11399418Y938682D01*
X11409172Y931418D01*
X11419890Y925576D01*
X11431320Y921308D01*
X11443258Y918718D01*
G37*
G36*
X9453575Y1266596D02*
G01*
X9474301Y1268018D01*
X9494774Y1271270D01*
X9514890Y1276451D01*
X9534448Y1283411D01*
X9553295Y1292098D01*
X9571278Y1302461D01*
X9588195Y1314450D01*
X9603994Y1327912D01*
X9618522Y1342745D01*
X9631629Y1358849D01*
X9643211Y1376070D01*
X9653168Y1394256D01*
X9661398Y1413306D01*
X9667900Y1433017D01*
X9672624Y1453235D01*
X9675418Y1473758D01*
X9676384Y1494485D01*
X9675418Y1515262D01*
X9672624Y1535785D01*
X9667900Y1556004D01*
X9661398Y1575714D01*
X9653168Y1594764D01*
X9643211Y1612950D01*
X9631629Y1630172D01*
X9618522Y1646275D01*
X9603994Y1661109D01*
X9588195Y1674571D01*
X9571278Y1686560D01*
X9553295Y1696923D01*
X9534448Y1705610D01*
X9514890Y1712569D01*
X9494774Y1717751D01*
X9474301Y1721002D01*
X9453575Y1722424D01*
X9432848Y1721967D01*
X9412224Y1719630D01*
X9391904Y1715363D01*
X9372041Y1709318D01*
X9352838Y1701495D01*
X9334398Y1691944D01*
X9316923Y1680768D01*
X9300514Y1668018D01*
X9285376Y1653895D01*
X9271558Y1638401D01*
X9259214Y1621688D01*
X9248394Y1603959D01*
X9239300Y1585315D01*
X9231884Y1565960D01*
X9226296Y1545945D01*
X9222536Y1525574D01*
X9220657Y1504899D01*
X9220657Y1484122D01*
X9222536Y1463446D01*
X9226296Y1443075D01*
X9231884Y1423060D01*
X9239300Y1403705D01*
X9248394Y1385062D01*
X9259214Y1367332D01*
X9271558Y1350619D01*
X9285376Y1335125D01*
X9300514Y1321003D01*
X9316923Y1308252D01*
X9334398Y1297076D01*
X9352838Y1287526D01*
X9372041Y1279702D01*
X9391904Y1273657D01*
X9412224Y1269390D01*
X9432848Y1267053D01*
G37*
G36*
X14566900Y1375054D02*
G01*
X14579041Y1375918D01*
X14590979Y1378508D01*
X14602409Y1382776D01*
X14613128Y1388618D01*
X14622881Y1395882D01*
X14631517Y1404518D01*
X14638782Y1414272D01*
X14644624Y1424990D01*
X14648891Y1436420D01*
X14651482Y1448358D01*
X14652345Y1460500D01*
X14651482Y1472641D01*
X14648891Y1484579D01*
X14644624Y1496009D01*
X14638782Y1506728D01*
X14631517Y1516481D01*
X14622881Y1525117D01*
X14613128Y1532382D01*
X14602409Y1538224D01*
X14590979Y1542491D01*
X14579041Y1545082D01*
X14566900Y1545945D01*
X14554758Y1545082D01*
X14542820Y1542491D01*
X14531390Y1538224D01*
X14520672Y1532382D01*
X14510918Y1525117D01*
X14502282Y1516481D01*
X14495018Y1506728D01*
X14489176Y1496009D01*
X14484908Y1484579D01*
X14482318Y1472641D01*
X14481454Y1460500D01*
X14482318Y1448358D01*
X14484908Y1436420D01*
X14489176Y1424990D01*
X14495018Y1414272D01*
X14502282Y1404518D01*
X14510918Y1395882D01*
X14520672Y1388618D01*
X14531390Y1382776D01*
X14542820Y1378508D01*
X14554758Y1375918D01*
G37*
G36*
X13284200Y1387754D02*
G01*
X13296341Y1388618D01*
X13308279Y1391208D01*
X13319709Y1395476D01*
X13330428Y1401318D01*
X13340181Y1408582D01*
X13348817Y1417218D01*
X13356082Y1426972D01*
X13361924Y1437690D01*
X13366191Y1449120D01*
X13368782Y1461058D01*
X13369645Y1473200D01*
X13368782Y1485341D01*
X13366191Y1497279D01*
X13361924Y1508709D01*
X13356082Y1519428D01*
X13348817Y1529181D01*
X13340181Y1537817D01*
X13330428Y1545082D01*
X13319709Y1550924D01*
X13308279Y1555191D01*
X13296341Y1557782D01*
X13284200Y1558645D01*
X13272058Y1557782D01*
X13260120Y1555191D01*
X13248690Y1550924D01*
X13237972Y1545082D01*
X13228218Y1537817D01*
X13219582Y1529181D01*
X13212318Y1519428D01*
X13206476Y1508709D01*
X13202208Y1497279D01*
X13199618Y1485341D01*
X13198754Y1473200D01*
X13199618Y1461058D01*
X13202208Y1449120D01*
X13206476Y1437690D01*
X13212318Y1426972D01*
X13219582Y1417218D01*
X13228218Y1408582D01*
X13237972Y1401318D01*
X13248690Y1395476D01*
X13260120Y1391208D01*
X13272058Y1388618D01*
G37*
G36*
X13804900Y1540154D02*
G01*
X13817041Y1541018D01*
X13828979Y1543608D01*
X13840409Y1547876D01*
X13851128Y1553718D01*
X13860881Y1560982D01*
X13869517Y1569618D01*
X13876782Y1579372D01*
X13882624Y1590090D01*
X13886891Y1601520D01*
X13889482Y1613458D01*
X13890345Y1625600D01*
X13889482Y1637741D01*
X13886891Y1649679D01*
X13882624Y1661109D01*
X13876782Y1671828D01*
X13869517Y1681581D01*
X13860881Y1690217D01*
X13851128Y1697482D01*
X13840409Y1703324D01*
X13828979Y1707591D01*
X13817041Y1710182D01*
X13804900Y1711045D01*
X13792758Y1710182D01*
X13780820Y1707591D01*
X13769390Y1703324D01*
X13758672Y1697482D01*
X13748918Y1690217D01*
X13740282Y1681581D01*
X13733018Y1671828D01*
X13727176Y1661109D01*
X13722908Y1649679D01*
X13720318Y1637741D01*
X13719454Y1625600D01*
X13720318Y1613458D01*
X13722908Y1601520D01*
X13727176Y1590090D01*
X13733018Y1579372D01*
X13740282Y1569618D01*
X13748918Y1560982D01*
X13758672Y1553718D01*
X13769390Y1547876D01*
X13780820Y1543608D01*
X13792758Y1541018D01*
G37*
G36*
X11861800Y1667154D02*
G01*
X11873941Y1668018D01*
X11885879Y1670608D01*
X11897309Y1674875D01*
X11908028Y1680718D01*
X11917781Y1687982D01*
X11926417Y1696618D01*
X11933682Y1706372D01*
X11939524Y1717090D01*
X11943791Y1728520D01*
X11946382Y1740458D01*
X11947245Y1752600D01*
X11946382Y1764741D01*
X11943791Y1776679D01*
X11939524Y1788109D01*
X11933682Y1798828D01*
X11926417Y1808581D01*
X11917781Y1817217D01*
X11908028Y1824482D01*
X11897309Y1830324D01*
X11885879Y1834591D01*
X11873941Y1837182D01*
X11861800Y1838045D01*
X11849658Y1837182D01*
X11837720Y1834591D01*
X11826290Y1830324D01*
X11815572Y1824482D01*
X11805818Y1817217D01*
X11797182Y1808581D01*
X11789918Y1798828D01*
X11784076Y1788109D01*
X11779808Y1776679D01*
X11777218Y1764741D01*
X11776354Y1752600D01*
X11777218Y1740458D01*
X11779808Y1728520D01*
X11784076Y1717090D01*
X11789918Y1706372D01*
X11797182Y1696618D01*
X11805818Y1687982D01*
X11815572Y1680718D01*
X11826290Y1674875D01*
X11837720Y1670608D01*
X11849658Y1668018D01*
G37*
G36*
X5308600Y1705254D02*
G01*
X5320741Y1706118D01*
X5332679Y1708708D01*
X5344109Y1712975D01*
X5354828Y1718818D01*
X5364581Y1726082D01*
X5373217Y1734718D01*
X5380482Y1744472D01*
X5386324Y1755190D01*
X5390591Y1766620D01*
X5393182Y1778558D01*
X5394045Y1790700D01*
X5393182Y1802841D01*
X5390591Y1814779D01*
X5386324Y1826209D01*
X5380482Y1836928D01*
X5373217Y1846681D01*
X5364581Y1855317D01*
X5354828Y1862582D01*
X5344109Y1868424D01*
X5332679Y1872691D01*
X5320741Y1875282D01*
X5308600Y1876145D01*
X5296458Y1875282D01*
X5284520Y1872691D01*
X5273090Y1868424D01*
X5262372Y1862582D01*
X5252618Y1855317D01*
X5243982Y1846681D01*
X5236718Y1836928D01*
X5230876Y1826209D01*
X5226608Y1814779D01*
X5224018Y1802841D01*
X5223154Y1790700D01*
X5224018Y1778558D01*
X5226608Y1766620D01*
X5230876Y1755190D01*
X5236718Y1744472D01*
X5243982Y1734718D01*
X5252618Y1726082D01*
X5262372Y1718818D01*
X5273090Y1712975D01*
X5284520Y1708708D01*
X5296458Y1706118D01*
G37*
G36*
X6172200Y1806854D02*
G01*
X6184341Y1807718D01*
X6196279Y1810308D01*
X6207709Y1814575D01*
X6218428Y1820418D01*
X6228181Y1827682D01*
X6236817Y1836318D01*
X6244082Y1846072D01*
X6249924Y1856790D01*
X6254191Y1868220D01*
X6256782Y1880158D01*
X6257645Y1892300D01*
X6256782Y1904441D01*
X6254191Y1916379D01*
X6249924Y1927809D01*
X6244082Y1938528D01*
X6236817Y1948281D01*
X6228181Y1956917D01*
X6218428Y1964182D01*
X6207709Y1970024D01*
X6196279Y1974291D01*
X6184341Y1976882D01*
X6172200Y1977745D01*
X6160058Y1976882D01*
X6148120Y1974291D01*
X6136690Y1970024D01*
X6125972Y1964182D01*
X6116218Y1956917D01*
X6107582Y1948281D01*
X6100318Y1938528D01*
X6094476Y1927809D01*
X6090208Y1916379D01*
X6087618Y1904441D01*
X6086754Y1892300D01*
X6087618Y1880158D01*
X6090208Y1868220D01*
X6094476Y1856790D01*
X6100318Y1846072D01*
X6107582Y1836318D01*
X6116218Y1827682D01*
X6125972Y1820418D01*
X6136690Y1814575D01*
X6148120Y1810308D01*
X6160058Y1807718D01*
G37*
G36*
X6959600Y1933854D02*
G01*
X6971741Y1934718D01*
X6983679Y1937308D01*
X6995109Y1941575D01*
X7005828Y1947418D01*
X7015581Y1954682D01*
X7024217Y1963318D01*
X7031481Y1973072D01*
X7037324Y1983790D01*
X7041591Y1995220D01*
X7044181Y2007158D01*
X7045045Y2019300D01*
X7044181Y2031441D01*
X7041591Y2043379D01*
X7037324Y2054809D01*
X7031481Y2065528D01*
X7024217Y2075281D01*
X7015581Y2083917D01*
X7005828Y2091182D01*
X6995109Y2097024D01*
X6983679Y2101291D01*
X6971741Y2103882D01*
X6959600Y2104745D01*
X6947458Y2103882D01*
X6936282Y2101494D01*
X6931964Y2101494D01*
X6928053Y2103272D01*
X6925208Y2106523D01*
X6923989Y2110689D01*
X6924598Y2114956D01*
X6927291Y2122220D01*
X6929881Y2134158D01*
X6930745Y2146300D01*
X6929881Y2158441D01*
X6927291Y2170379D01*
X6923024Y2181809D01*
X6917181Y2192528D01*
X6909917Y2202281D01*
X6901281Y2210917D01*
X6891528Y2218182D01*
X6880809Y2224024D01*
X6869379Y2228291D01*
X6857441Y2230882D01*
X6845300Y2231745D01*
X6833158Y2230882D01*
X6821220Y2228291D01*
X6809790Y2224024D01*
X6799072Y2218182D01*
X6789318Y2210917D01*
X6780682Y2202281D01*
X6773418Y2192528D01*
X6767575Y2181809D01*
X6763308Y2170379D01*
X6760718Y2158441D01*
X6759854Y2146300D01*
X6760718Y2134158D01*
X6763308Y2122220D01*
X6767575Y2110790D01*
X6773418Y2100072D01*
X6780682Y2090318D01*
X6789318Y2081682D01*
X6799072Y2074418D01*
X6809790Y2068575D01*
X6821220Y2064308D01*
X6833158Y2061718D01*
X6845300Y2060854D01*
X6857441Y2061718D01*
X6868617Y2064105D01*
X6872935Y2064105D01*
X6876897Y2062327D01*
X6879691Y2059076D01*
X6880910Y2054910D01*
X6880301Y2050643D01*
X6877608Y2043379D01*
X6875018Y2031441D01*
X6874154Y2019300D01*
X6875018Y2007158D01*
X6877608Y1995220D01*
X6881875Y1983790D01*
X6887718Y1973072D01*
X6894982Y1963318D01*
X6903618Y1954682D01*
X6913372Y1947418D01*
X6924090Y1941575D01*
X6935520Y1937308D01*
X6947458Y1934718D01*
G37*
G36*
X11214100Y7801254D02*
G01*
X11226241Y7802118D01*
X11238179Y7804708D01*
X11249609Y7808975D01*
X11260328Y7814818D01*
X11270081Y7822082D01*
X11278717Y7830718D01*
X11285982Y7840472D01*
X11291824Y7851190D01*
X11296091Y7862620D01*
X11298682Y7874558D01*
X11299545Y7886700D01*
X11298682Y7898841D01*
X11296091Y7910779D01*
X11291824Y7922209D01*
X11285982Y7932928D01*
X11278717Y7942681D01*
X11270081Y7951317D01*
X11260328Y7958581D01*
X11257127Y7960309D01*
X11253876Y7963153D01*
X11252098Y7967065D01*
X11252098Y7971434D01*
X11253876Y7975346D01*
X11257127Y7978190D01*
X11260328Y7979918D01*
X11270081Y7987182D01*
X11278717Y7995818D01*
X11285982Y8005572D01*
X11291824Y8016290D01*
X11296091Y8027720D01*
X11298682Y8039658D01*
X11299545Y8051800D01*
X11298682Y8063941D01*
X11296091Y8075879D01*
X11291824Y8087309D01*
X11285982Y8098028D01*
X11278717Y8107781D01*
X11270081Y8116417D01*
X11260328Y8123681D01*
X11249609Y8129524D01*
X11238179Y8133791D01*
X11226241Y8136381D01*
X11214100Y8137245D01*
X11201958Y8136381D01*
X11190020Y8133791D01*
X11178590Y8129524D01*
X11167872Y8123681D01*
X11158118Y8116417D01*
X11149482Y8107781D01*
X11142218Y8098028D01*
X11136376Y8087309D01*
X11132108Y8075879D01*
X11129518Y8063941D01*
X11128654Y8052003D01*
X11127587Y8048142D01*
X11125047Y8044942D01*
X11121491Y8043011D01*
X11117478Y8042605D01*
X11113617Y8043824D01*
X11107166Y8047329D01*
X11095736Y8051596D01*
X11083798Y8054187D01*
X11071656Y8055051D01*
X11059515Y8054187D01*
X11047577Y8051596D01*
X11036147Y8047329D01*
X11025428Y8041487D01*
X11015675Y8034223D01*
X11007039Y8025587D01*
X10999774Y8015833D01*
X10993932Y8005114D01*
X10989665Y7993684D01*
X10987074Y7981746D01*
X10986211Y7969605D01*
X10987074Y7957464D01*
X10989665Y7945526D01*
X10993932Y7934096D01*
X10999774Y7923377D01*
X11007039Y7913624D01*
X11015675Y7904988D01*
X11025428Y7897723D01*
X11036147Y7891881D01*
X11047577Y7887614D01*
X11059515Y7885023D01*
X11071656Y7884159D01*
X11083798Y7885023D01*
X11095736Y7887614D01*
X11107166Y7891881D01*
X11113617Y7895386D01*
X11117427Y7896555D01*
X11121440Y7896148D01*
X11124996Y7894218D01*
X11127536Y7891068D01*
X11128603Y7887157D01*
X11129518Y7874558D01*
X11132108Y7862620D01*
X11136376Y7851190D01*
X11142218Y7840472D01*
X11149482Y7830718D01*
X11158118Y7822082D01*
X11167872Y7814818D01*
X11178590Y7808975D01*
X11190020Y7804708D01*
X11201958Y7802118D01*
G37*
G36*
X13879017Y7757464D02*
G01*
X14035582Y7757464D01*
X14044777Y7758277D01*
X14053312Y7760563D01*
X14061287Y7764272D01*
X14068450Y7769301D01*
X14074698Y7775549D01*
X14079728Y7782712D01*
X14083436Y7790688D01*
X14085722Y7799222D01*
X14086535Y7808417D01*
X14086535Y7964982D01*
X14085722Y7974177D01*
X14083436Y7982712D01*
X14079728Y7990687D01*
X14074698Y7997850D01*
X14068450Y8004098D01*
X14061287Y8009128D01*
X14053312Y8012836D01*
X14044777Y8015122D01*
X14035582Y8015935D01*
X13879017Y8015935D01*
X13869822Y8015122D01*
X13861288Y8012836D01*
X13853312Y8009128D01*
X13846149Y8004098D01*
X13839901Y7997850D01*
X13834872Y7990687D01*
X13831163Y7982712D01*
X13828877Y7974177D01*
X13828064Y7964982D01*
X13828064Y7808417D01*
X13828877Y7799222D01*
X13831163Y7790688D01*
X13834872Y7782712D01*
X13839901Y7775549D01*
X13846149Y7769301D01*
X13853312Y7764272D01*
X13861288Y7760563D01*
X13869822Y7758277D01*
G37*
G36*
X15341447Y2275433D02*
G01*
X15359481Y2276348D01*
X15377363Y2279142D01*
X15394838Y2283714D01*
X15411704Y2290114D01*
X15427858Y2298192D01*
X15443149Y2307894D01*
X15457271Y2319070D01*
X15470225Y2331720D01*
X15481807Y2345588D01*
X15491866Y2360574D01*
X15500400Y2376525D01*
X15507207Y2393238D01*
X15512237Y2410612D01*
X15515488Y2428341D01*
X15516860Y2446375D01*
X15516402Y2464460D01*
X15514066Y2482342D01*
X15509951Y2499918D01*
X15504007Y2516987D01*
X15496336Y2533345D01*
X15487040Y2548839D01*
X15476219Y2563317D01*
X15463926Y2576576D01*
X15450362Y2588514D01*
X15435630Y2598978D01*
X15419882Y2607868D01*
X15403372Y2615082D01*
X15386151Y2620568D01*
X15368473Y2624277D01*
X15350490Y2626156D01*
X15332405Y2626156D01*
X15314422Y2624277D01*
X15296743Y2620568D01*
X15279522Y2615082D01*
X15263012Y2607868D01*
X15247264Y2598978D01*
X15232532Y2588514D01*
X15218968Y2576576D01*
X15206675Y2563317D01*
X15195854Y2548839D01*
X15186558Y2533345D01*
X15178887Y2516987D01*
X15172944Y2499918D01*
X15168829Y2482342D01*
X15166492Y2464460D01*
X15166035Y2446375D01*
X15167406Y2428341D01*
X15170657Y2410612D01*
X15175687Y2393238D01*
X15182494Y2376525D01*
X15191028Y2360574D01*
X15201087Y2345588D01*
X15212669Y2331720D01*
X15225623Y2319070D01*
X15239746Y2307894D01*
X15255036Y2298192D01*
X15271191Y2290114D01*
X15288056Y2283714D01*
X15305532Y2279142D01*
X15323413Y2276348D01*
G37*
G36*
X6273800Y2454554D02*
G01*
X6285941Y2455418D01*
X6297879Y2458008D01*
X6309309Y2462276D01*
X6320028Y2468118D01*
X6329781Y2475382D01*
X6338417Y2484018D01*
X6345682Y2493772D01*
X6351524Y2504490D01*
X6355791Y2515920D01*
X6358382Y2527858D01*
X6359245Y2540000D01*
X6358382Y2552141D01*
X6355791Y2564079D01*
X6351524Y2575509D01*
X6345682Y2586228D01*
X6338417Y2595981D01*
X6329781Y2604617D01*
X6320028Y2611882D01*
X6309309Y2617724D01*
X6297879Y2621991D01*
X6285941Y2624582D01*
X6273800Y2625445D01*
X6261658Y2624582D01*
X6249720Y2621991D01*
X6238290Y2617724D01*
X6227572Y2611882D01*
X6217818Y2604617D01*
X6209182Y2595981D01*
X6201918Y2586228D01*
X6196076Y2575509D01*
X6191808Y2564079D01*
X6189218Y2552141D01*
X6188354Y2540000D01*
X6189218Y2527858D01*
X6191808Y2515920D01*
X6196076Y2504490D01*
X6201918Y2493772D01*
X6209182Y2484018D01*
X6217818Y2475382D01*
X6227572Y2468118D01*
X6238290Y2462276D01*
X6249720Y2458008D01*
X6261658Y2455418D01*
G37*
G36*
X13209016Y2463800D02*
G01*
X14629384Y2463800D01*
X14630400Y2464816D01*
X14630400Y4633010D01*
X14631212Y4636973D01*
X14633448Y4640275D01*
X14636800Y4642459D01*
X14640763Y4643170D01*
X14644674Y4642307D01*
X14647976Y4639970D01*
X14650059Y4636566D01*
X14654276Y4625390D01*
X14660118Y4614672D01*
X14667382Y4604918D01*
X14676018Y4596282D01*
X14685772Y4589018D01*
X14696490Y4583176D01*
X14707920Y4578908D01*
X14719858Y4576318D01*
X14732000Y4575454D01*
X14744141Y4576318D01*
X14756079Y4578908D01*
X14767509Y4583176D01*
X14778228Y4589018D01*
X14787981Y4596282D01*
X14796617Y4604918D01*
X14803882Y4614672D01*
X14809724Y4625390D01*
X14813991Y4636820D01*
X14816582Y4648758D01*
X14817445Y4660900D01*
X14816582Y4673041D01*
X14813991Y4684979D01*
X14809724Y4696409D01*
X14803882Y4707128D01*
X14796617Y4716881D01*
X14787981Y4725517D01*
X14778228Y4732782D01*
X14767509Y4738624D01*
X14756079Y4742891D01*
X14744141Y4745482D01*
X14732000Y4746345D01*
X14719858Y4745482D01*
X14707920Y4742891D01*
X14696490Y4738624D01*
X14685772Y4732782D01*
X14676018Y4725517D01*
X14667382Y4716881D01*
X14660118Y4707128D01*
X14654276Y4696409D01*
X14650059Y4685233D01*
X14647976Y4681829D01*
X14644674Y4679492D01*
X14640763Y4678629D01*
X14636800Y4679340D01*
X14633448Y4681524D01*
X14631212Y4684826D01*
X14630400Y4688789D01*
X14630400Y5053584D01*
X14629384Y5054600D01*
X13209016Y5054600D01*
X13208000Y5053584D01*
X13208000Y2464816D01*
X13208152Y2463952D01*
G37*
G36*
X12712700Y2556154D02*
G01*
X12724841Y2557018D01*
X12736779Y2559608D01*
X12748209Y2563876D01*
X12758928Y2569718D01*
X12768681Y2576982D01*
X12777317Y2585618D01*
X12784582Y2595372D01*
X12790424Y2606090D01*
X12794691Y2617520D01*
X12797282Y2629458D01*
X12798145Y2641600D01*
X12797282Y2653741D01*
X12794691Y2665679D01*
X12790424Y2677109D01*
X12784582Y2687828D01*
X12777317Y2697581D01*
X12768681Y2706217D01*
X12758928Y2713482D01*
X12748209Y2719324D01*
X12736779Y2723591D01*
X12724841Y2726182D01*
X12712700Y2727045D01*
X12700558Y2726182D01*
X12688620Y2723591D01*
X12677190Y2719324D01*
X12666472Y2713482D01*
X12656718Y2706217D01*
X12648082Y2697581D01*
X12640818Y2687828D01*
X12634976Y2677109D01*
X12630708Y2665679D01*
X12628118Y2653741D01*
X12627254Y2641600D01*
X12628118Y2629458D01*
X12630708Y2617520D01*
X12634976Y2606090D01*
X12640818Y2595372D01*
X12648082Y2585618D01*
X12656718Y2576982D01*
X12666472Y2569718D01*
X12677190Y2563876D01*
X12688620Y2559608D01*
X12700558Y2557018D01*
G37*
G36*
X9398000Y2632354D02*
G01*
X9410141Y2633218D01*
X9422079Y2635808D01*
X9433509Y2640076D01*
X9444228Y2645918D01*
X9453981Y2653182D01*
X9462617Y2661818D01*
X9469882Y2671572D01*
X9475724Y2682290D01*
X9479991Y2693720D01*
X9482582Y2705658D01*
X9483445Y2717800D01*
X9482582Y2729941D01*
X9479991Y2741879D01*
X9475724Y2753309D01*
X9469882Y2764028D01*
X9462617Y2773781D01*
X9453981Y2782417D01*
X9444228Y2789682D01*
X9433509Y2795524D01*
X9422079Y2799791D01*
X9410141Y2802382D01*
X9398000Y2803245D01*
X9385858Y2802382D01*
X9373920Y2799791D01*
X9362490Y2795524D01*
X9351772Y2789682D01*
X9342018Y2782417D01*
X9333382Y2773781D01*
X9326118Y2764028D01*
X9320276Y2753309D01*
X9316008Y2741879D01*
X9313418Y2729941D01*
X9312554Y2717800D01*
X9313418Y2705658D01*
X9316008Y2693720D01*
X9320276Y2682290D01*
X9326118Y2671572D01*
X9333382Y2661818D01*
X9342018Y2653182D01*
X9351772Y2645918D01*
X9362490Y2640076D01*
X9373920Y2635808D01*
X9385858Y2633218D01*
G37*
G36*
X11709400Y2657754D02*
G01*
X11721541Y2658618D01*
X11733479Y2661208D01*
X11744909Y2665476D01*
X11755628Y2671318D01*
X11765381Y2678582D01*
X11774017Y2687218D01*
X11781282Y2696972D01*
X11787124Y2707690D01*
X11791391Y2719120D01*
X11793982Y2731058D01*
X11794845Y2743200D01*
X11793982Y2755341D01*
X11791391Y2767279D01*
X11787124Y2778709D01*
X11781282Y2789428D01*
X11774017Y2799181D01*
X11765381Y2807817D01*
X11755628Y2815082D01*
X11744909Y2820924D01*
X11733479Y2825191D01*
X11721541Y2827782D01*
X11709400Y2828645D01*
X11697258Y2827782D01*
X11685320Y2825191D01*
X11673890Y2820924D01*
X11663172Y2815082D01*
X11653418Y2807817D01*
X11644782Y2799181D01*
X11637518Y2789428D01*
X11631676Y2778709D01*
X11627408Y2767279D01*
X11624818Y2755341D01*
X11623954Y2743200D01*
X11624818Y2731058D01*
X11627408Y2719120D01*
X11631676Y2707690D01*
X11637518Y2696972D01*
X11644782Y2687218D01*
X11653418Y2678582D01*
X11663172Y2671318D01*
X11673890Y2665476D01*
X11685320Y2661208D01*
X11697258Y2658618D01*
G37*
G36*
X5346700Y2683154D02*
G01*
X5358841Y2684018D01*
X5370779Y2686608D01*
X5382209Y2690876D01*
X5392928Y2696718D01*
X5402681Y2703982D01*
X5411317Y2712618D01*
X5418582Y2722372D01*
X5424424Y2733090D01*
X5428691Y2744520D01*
X5431282Y2756458D01*
X5432145Y2768600D01*
X5431282Y2780741D01*
X5428691Y2792679D01*
X5424424Y2804109D01*
X5418582Y2814828D01*
X5411317Y2824581D01*
X5402681Y2833217D01*
X5392928Y2840482D01*
X5382209Y2846324D01*
X5370779Y2850591D01*
X5358841Y2853182D01*
X5346700Y2854045D01*
X5334558Y2853182D01*
X5322620Y2850591D01*
X5311190Y2846324D01*
X5300472Y2840482D01*
X5290718Y2833217D01*
X5282082Y2824581D01*
X5274818Y2814828D01*
X5268976Y2804109D01*
X5264708Y2792679D01*
X5262118Y2780741D01*
X5261254Y2768600D01*
X5262118Y2756458D01*
X5264708Y2744520D01*
X5268976Y2733090D01*
X5274818Y2722372D01*
X5282082Y2712618D01*
X5290718Y2703982D01*
X5300472Y2696718D01*
X5311190Y2690876D01*
X5322620Y2686608D01*
X5334558Y2684018D01*
G37*
G36*
X5842000Y2708554D02*
G01*
X5854141Y2709418D01*
X5866079Y2712008D01*
X5877509Y2716276D01*
X5888228Y2722118D01*
X5897981Y2729382D01*
X5906617Y2738018D01*
X5913882Y2747772D01*
X5919724Y2758490D01*
X5923991Y2769920D01*
X5926582Y2781858D01*
X5927445Y2794000D01*
X5926582Y2806141D01*
X5923991Y2818079D01*
X5919724Y2829509D01*
X5913882Y2840228D01*
X5906617Y2849981D01*
X5897981Y2858617D01*
X5888228Y2865882D01*
X5877509Y2871724D01*
X5866079Y2875991D01*
X5854141Y2878582D01*
X5842000Y2879445D01*
X5829858Y2878582D01*
X5817920Y2875991D01*
X5806490Y2871724D01*
X5795772Y2865882D01*
X5786018Y2858617D01*
X5777382Y2849981D01*
X5770118Y2840228D01*
X5764276Y2829509D01*
X5760008Y2818079D01*
X5757418Y2806141D01*
X5756554Y2794000D01*
X5757418Y2781858D01*
X5760008Y2769920D01*
X5764276Y2758490D01*
X5770118Y2747772D01*
X5777382Y2738018D01*
X5786018Y2729382D01*
X5795772Y2722118D01*
X5806490Y2716276D01*
X5817920Y2712008D01*
X5829858Y2709418D01*
G37*
G36*
X14744700Y2721254D02*
G01*
X14756841Y2722118D01*
X14768779Y2724708D01*
X14780209Y2728976D01*
X14790928Y2734818D01*
X14800681Y2742082D01*
X14809317Y2750718D01*
X14816582Y2760472D01*
X14822424Y2771190D01*
X14826691Y2782620D01*
X14829282Y2794558D01*
X14830145Y2806700D01*
X14829282Y2818841D01*
X14826691Y2830779D01*
X14822424Y2842209D01*
X14816582Y2852928D01*
X14809317Y2862681D01*
X14800681Y2871317D01*
X14790928Y2878582D01*
X14780209Y2884424D01*
X14768779Y2888691D01*
X14756841Y2891282D01*
X14744700Y2892145D01*
X14732558Y2891282D01*
X14720620Y2888691D01*
X14709190Y2884424D01*
X14698472Y2878582D01*
X14688718Y2871317D01*
X14680082Y2862681D01*
X14672818Y2852928D01*
X14666976Y2842209D01*
X14662708Y2830779D01*
X14660118Y2818841D01*
X14659254Y2806700D01*
X14660118Y2794558D01*
X14662708Y2782620D01*
X14666976Y2771190D01*
X14672818Y2760472D01*
X14680082Y2750718D01*
X14688718Y2742082D01*
X14698472Y2734818D01*
X14709190Y2728976D01*
X14720620Y2724708D01*
X14732558Y2722118D01*
G37*
G36*
X15468447Y2777642D02*
G01*
X15483890Y2778556D01*
X15499080Y2781249D01*
X15513862Y2785770D01*
X15528036Y2792018D01*
X15541345Y2799892D01*
X15553639Y2809240D01*
X15564713Y2820009D01*
X15574467Y2832049D01*
X15582696Y2845104D01*
X15589351Y2859074D01*
X15594330Y2873705D01*
X15597479Y2888843D01*
X15598851Y2904236D01*
X15598394Y2919679D01*
X15596107Y2934970D01*
X15592044Y2949905D01*
X15586252Y2964230D01*
X15578785Y2977743D01*
X15569742Y2990291D01*
X15558871Y3002127D01*
X15556331Y3005429D01*
X15555315Y3009493D01*
X15556077Y3013659D01*
X15558414Y3017113D01*
X15564713Y3023209D01*
X15574467Y3035249D01*
X15582696Y3048304D01*
X15589351Y3062274D01*
X15594330Y3076905D01*
X15597479Y3092043D01*
X15598851Y3107436D01*
X15598394Y3122879D01*
X15596107Y3138170D01*
X15592044Y3153105D01*
X15586252Y3167430D01*
X15578785Y3180943D01*
X15569742Y3193491D01*
X15558871Y3205327D01*
X15556331Y3208629D01*
X15555315Y3212693D01*
X15556077Y3216859D01*
X15558414Y3220313D01*
X15564713Y3226409D01*
X15574467Y3238449D01*
X15582696Y3251504D01*
X15589351Y3265474D01*
X15594330Y3280105D01*
X15597479Y3295243D01*
X15598851Y3310636D01*
X15598394Y3326079D01*
X15596107Y3341370D01*
X15592044Y3356305D01*
X15586252Y3370630D01*
X15578785Y3384143D01*
X15569742Y3396691D01*
X15559328Y3408121D01*
X15547644Y3418230D01*
X15534792Y3426866D01*
X15521025Y3433927D01*
X15506547Y3439261D01*
X15491510Y3442919D01*
X15476169Y3444748D01*
X15460726Y3444748D01*
X15445384Y3442919D01*
X15430347Y3439261D01*
X15415869Y3433927D01*
X15402102Y3426866D01*
X15389250Y3418230D01*
X15377566Y3408121D01*
X15367152Y3396691D01*
X15358110Y3384143D01*
X15350642Y3370630D01*
X15344851Y3356305D01*
X15340787Y3341370D01*
X15338501Y3326079D01*
X15338044Y3310636D01*
X15339415Y3295243D01*
X15342565Y3280105D01*
X15347543Y3265474D01*
X15354198Y3251504D01*
X15362428Y3238449D01*
X15372181Y3226409D01*
X15378480Y3220313D01*
X15380817Y3216859D01*
X15381579Y3212693D01*
X15380563Y3208629D01*
X15377566Y3204921D01*
X15367152Y3193491D01*
X15358110Y3180943D01*
X15350642Y3167430D01*
X15344851Y3153105D01*
X15340787Y3138170D01*
X15338501Y3122879D01*
X15338044Y3107436D01*
X15339415Y3092043D01*
X15342565Y3076905D01*
X15347543Y3062274D01*
X15354198Y3048304D01*
X15362428Y3035249D01*
X15372181Y3023209D01*
X15378480Y3017113D01*
X15380817Y3013659D01*
X15381579Y3009493D01*
X15380563Y3005429D01*
X15377566Y3001721D01*
X15367152Y2990291D01*
X15358110Y2977743D01*
X15350642Y2964230D01*
X15344851Y2949905D01*
X15340787Y2934970D01*
X15338501Y2919679D01*
X15338044Y2904236D01*
X15339415Y2888843D01*
X15342565Y2873705D01*
X15347543Y2859074D01*
X15354198Y2845104D01*
X15362428Y2832049D01*
X15372181Y2820009D01*
X15383256Y2809240D01*
X15395549Y2799892D01*
X15408859Y2792018D01*
X15423032Y2785770D01*
X15437815Y2781249D01*
X15453004Y2778556D01*
G37*
G36*
X12915900Y2848254D02*
G01*
X12928041Y2849118D01*
X12939979Y2851708D01*
X12951409Y2855976D01*
X12962128Y2861818D01*
X12971881Y2869082D01*
X12980517Y2877718D01*
X12987782Y2887472D01*
X12993624Y2898190D01*
X12997891Y2909620D01*
X13000482Y2921558D01*
X13001345Y2933700D01*
X13000482Y2945841D01*
X12997891Y2957779D01*
X12993624Y2969209D01*
X12987782Y2979928D01*
X12980517Y2989681D01*
X12971881Y2998317D01*
X12962128Y3005582D01*
X12951409Y3011424D01*
X12939979Y3015691D01*
X12928041Y3018282D01*
X12915900Y3019145D01*
X12903758Y3018282D01*
X12891820Y3015691D01*
X12880390Y3011424D01*
X12869672Y3005582D01*
X12859918Y2998317D01*
X12851282Y2989681D01*
X12844018Y2979928D01*
X12838176Y2969209D01*
X12833908Y2957779D01*
X12831318Y2945841D01*
X12830454Y2933700D01*
X12831318Y2921558D01*
X12833908Y2909620D01*
X12838176Y2898190D01*
X12844018Y2887472D01*
X12851282Y2877718D01*
X12859918Y2869082D01*
X12869672Y2861818D01*
X12880390Y2855976D01*
X12891820Y2851708D01*
X12903758Y2849118D01*
G37*
G36*
X9398000Y2848254D02*
G01*
X9410141Y2849118D01*
X9422079Y2851708D01*
X9433509Y2855976D01*
X9444228Y2861818D01*
X9453981Y2869082D01*
X9462617Y2877718D01*
X9469882Y2887472D01*
X9475724Y2898190D01*
X9479991Y2909620D01*
X9482582Y2921558D01*
X9483445Y2933700D01*
X9482582Y2945841D01*
X9479991Y2957779D01*
X9475724Y2969209D01*
X9469882Y2979928D01*
X9462617Y2989681D01*
X9453981Y2998317D01*
X9444228Y3005582D01*
X9433509Y3011424D01*
X9422079Y3015691D01*
X9410141Y3018282D01*
X9398000Y3019145D01*
X9385858Y3018282D01*
X9373920Y3015691D01*
X9362490Y3011424D01*
X9351772Y3005582D01*
X9342018Y2998317D01*
X9333382Y2989681D01*
X9326118Y2979928D01*
X9320276Y2969209D01*
X9316008Y2957779D01*
X9313418Y2945841D01*
X9312554Y2933700D01*
X9313418Y2921558D01*
X9316008Y2909620D01*
X9320276Y2898190D01*
X9326118Y2887472D01*
X9333382Y2877718D01*
X9342018Y2869082D01*
X9351772Y2861818D01*
X9362490Y2855976D01*
X9373920Y2851708D01*
X9385858Y2849118D01*
G37*
G36*
X5740400Y2886354D02*
G01*
X5752541Y2887218D01*
X5764479Y2889808D01*
X5775909Y2894076D01*
X5786628Y2899918D01*
X5796381Y2907182D01*
X5805017Y2915818D01*
X5812282Y2925572D01*
X5818124Y2936290D01*
X5822391Y2947720D01*
X5824982Y2959658D01*
X5825845Y2971800D01*
X5824982Y2983941D01*
X5822391Y2995879D01*
X5818124Y3007309D01*
X5812282Y3018028D01*
X5805017Y3027781D01*
X5796381Y3036417D01*
X5786628Y3043682D01*
X5775909Y3049524D01*
X5764479Y3053791D01*
X5752541Y3056382D01*
X5740400Y3057245D01*
X5728258Y3056382D01*
X5716320Y3053791D01*
X5704890Y3049524D01*
X5694172Y3043682D01*
X5684418Y3036417D01*
X5675782Y3027781D01*
X5668518Y3018028D01*
X5662676Y3007309D01*
X5658408Y2995879D01*
X5655818Y2983941D01*
X5654954Y2971800D01*
X5655818Y2959658D01*
X5658408Y2947720D01*
X5662676Y2936290D01*
X5668518Y2925572D01*
X5675782Y2915818D01*
X5684418Y2907182D01*
X5694172Y2899918D01*
X5704890Y2894076D01*
X5716320Y2889808D01*
X5728258Y2887218D01*
G37*
G36*
X10795000Y2987954D02*
G01*
X10807141Y2988818D01*
X10819079Y2991408D01*
X10830509Y2995676D01*
X10841228Y3001518D01*
X10850981Y3008782D01*
X10859617Y3017418D01*
X10866882Y3027172D01*
X10872724Y3037890D01*
X10876991Y3049320D01*
X10879582Y3061258D01*
X10880445Y3073400D01*
X10879582Y3085541D01*
X10876991Y3097479D01*
X10872724Y3108909D01*
X10866882Y3119628D01*
X10859617Y3129381D01*
X10850981Y3138017D01*
X10841228Y3145282D01*
X10830509Y3151124D01*
X10819079Y3155391D01*
X10807141Y3157982D01*
X10795000Y3158845D01*
X10782858Y3157982D01*
X10770920Y3155391D01*
X10759490Y3151124D01*
X10748772Y3145282D01*
X10739018Y3138017D01*
X10730382Y3129381D01*
X10723118Y3119628D01*
X10717276Y3108909D01*
X10713008Y3097479D01*
X10710418Y3085541D01*
X10709554Y3073400D01*
X10710418Y3061258D01*
X10713008Y3049320D01*
X10717276Y3037890D01*
X10723118Y3027172D01*
X10730382Y3017418D01*
X10739018Y3008782D01*
X10748772Y3001518D01*
X10759490Y2995676D01*
X10770920Y2991408D01*
X10782858Y2988818D01*
G37*
G36*
X14744700Y3292754D02*
G01*
X14756841Y3293618D01*
X14768779Y3296208D01*
X14780209Y3300476D01*
X14790928Y3306318D01*
X14800681Y3313582D01*
X14809317Y3322218D01*
X14816582Y3331972D01*
X14822424Y3342690D01*
X14826691Y3354120D01*
X14829282Y3366058D01*
X14830145Y3378200D01*
X14829282Y3390341D01*
X14826691Y3402279D01*
X14822424Y3413709D01*
X14816582Y3424428D01*
X14809317Y3434181D01*
X14800681Y3442817D01*
X14790928Y3450082D01*
X14780209Y3455924D01*
X14768779Y3460191D01*
X14756841Y3462782D01*
X14744700Y3463645D01*
X14732558Y3462782D01*
X14720620Y3460191D01*
X14709190Y3455924D01*
X14698472Y3450082D01*
X14688718Y3442817D01*
X14680082Y3434181D01*
X14672818Y3424428D01*
X14666976Y3413709D01*
X14662708Y3402279D01*
X14660118Y3390341D01*
X14659254Y3378200D01*
X14660118Y3366058D01*
X14662708Y3354120D01*
X14666976Y3342690D01*
X14672818Y3331972D01*
X14680082Y3322218D01*
X14688718Y3313582D01*
X14698472Y3306318D01*
X14709190Y3300476D01*
X14720620Y3296208D01*
X14732558Y3293618D01*
G37*
G36*
X11823700Y3534054D02*
G01*
X11835841Y3534918D01*
X11847779Y3537508D01*
X11859209Y3541776D01*
X11869928Y3547618D01*
X11879681Y3554882D01*
X11888317Y3563518D01*
X11895582Y3573272D01*
X11901424Y3583990D01*
X11905691Y3595420D01*
X11908282Y3607358D01*
X11909145Y3619500D01*
X11908282Y3631641D01*
X11905691Y3643579D01*
X11901424Y3655009D01*
X11895582Y3665728D01*
X11888317Y3675481D01*
X11879681Y3684117D01*
X11869928Y3691382D01*
X11859209Y3697224D01*
X11847779Y3701491D01*
X11835841Y3704082D01*
X11823700Y3704945D01*
X11811558Y3704082D01*
X11799620Y3701491D01*
X11788190Y3697224D01*
X11777472Y3691382D01*
X11767718Y3684117D01*
X11759082Y3675481D01*
X11751818Y3665728D01*
X11745976Y3655009D01*
X11741708Y3643579D01*
X11739118Y3631641D01*
X11738254Y3619500D01*
X11739118Y3607358D01*
X11741708Y3595420D01*
X11745976Y3583990D01*
X11751818Y3573272D01*
X11759082Y3563518D01*
X11767718Y3554882D01*
X11777472Y3547618D01*
X11788190Y3541776D01*
X11799620Y3537508D01*
X11811558Y3534918D01*
G37*
G36*
X15341447Y3596233D02*
G01*
X15359481Y3597148D01*
X15377363Y3599942D01*
X15394838Y3604514D01*
X15411704Y3610914D01*
X15427858Y3618992D01*
X15443149Y3628694D01*
X15457271Y3639870D01*
X15470225Y3652520D01*
X15481807Y3666388D01*
X15491866Y3681374D01*
X15500400Y3697325D01*
X15507207Y3714038D01*
X15512237Y3731412D01*
X15515488Y3749141D01*
X15516860Y3767175D01*
X15516402Y3785260D01*
X15514066Y3803142D01*
X15509951Y3820718D01*
X15504007Y3837787D01*
X15496336Y3854145D01*
X15487040Y3869639D01*
X15476219Y3884117D01*
X15463926Y3897376D01*
X15450362Y3909314D01*
X15435630Y3919778D01*
X15419882Y3928668D01*
X15403372Y3935882D01*
X15386151Y3941368D01*
X15368473Y3945077D01*
X15350490Y3946956D01*
X15332405Y3946956D01*
X15314422Y3945077D01*
X15296743Y3941368D01*
X15279522Y3935882D01*
X15263012Y3928668D01*
X15247264Y3919778D01*
X15232532Y3909314D01*
X15218968Y3897376D01*
X15206675Y3884117D01*
X15195854Y3869639D01*
X15186558Y3854145D01*
X15178887Y3837787D01*
X15172944Y3820718D01*
X15168829Y3803142D01*
X15166492Y3785260D01*
X15166035Y3767175D01*
X15167406Y3749141D01*
X15170657Y3731412D01*
X15175687Y3714038D01*
X15182494Y3697325D01*
X15191028Y3681374D01*
X15201087Y3666388D01*
X15212669Y3652520D01*
X15225623Y3639870D01*
X15239746Y3628694D01*
X15255036Y3618992D01*
X15271191Y3610914D01*
X15288056Y3604514D01*
X15305532Y3599942D01*
X15323413Y3597148D01*
G37*
G36*
X11595100Y3673754D02*
G01*
X11607241Y3674618D01*
X11619179Y3677208D01*
X11630609Y3681476D01*
X11641328Y3687318D01*
X11651081Y3694582D01*
X11659717Y3703218D01*
X11666982Y3712972D01*
X11672824Y3723690D01*
X11677091Y3735120D01*
X11679682Y3747058D01*
X11680545Y3759200D01*
X11679682Y3771341D01*
X11677091Y3783279D01*
X11672824Y3794709D01*
X11666982Y3805428D01*
X11659717Y3815181D01*
X11651081Y3823817D01*
X11641328Y3831082D01*
X11630609Y3836924D01*
X11619179Y3841191D01*
X11607241Y3843782D01*
X11595100Y3844645D01*
X11582958Y3843782D01*
X11571020Y3841191D01*
X11559590Y3836924D01*
X11548872Y3831082D01*
X11539118Y3823817D01*
X11530482Y3815181D01*
X11523218Y3805428D01*
X11517376Y3794709D01*
X11513108Y3783279D01*
X11510518Y3771341D01*
X11509654Y3759200D01*
X11510518Y3747058D01*
X11513108Y3735120D01*
X11517376Y3723690D01*
X11523218Y3712972D01*
X11530482Y3703218D01*
X11539118Y3694582D01*
X11548872Y3687318D01*
X11559590Y3681476D01*
X11571020Y3677208D01*
X11582958Y3674618D01*
G37*
G36*
X14744700Y3851554D02*
G01*
X14756841Y3852418D01*
X14768779Y3855008D01*
X14780209Y3859276D01*
X14790928Y3865118D01*
X14800681Y3872382D01*
X14809317Y3881018D01*
X14816582Y3890772D01*
X14822424Y3901490D01*
X14826691Y3912920D01*
X14829282Y3924858D01*
X14830145Y3937000D01*
X14829282Y3949141D01*
X14826691Y3961079D01*
X14822424Y3972509D01*
X14816582Y3983228D01*
X14809317Y3992981D01*
X14800681Y4001617D01*
X14790928Y4008882D01*
X14780209Y4014724D01*
X14768779Y4018991D01*
X14756841Y4021582D01*
X14744700Y4022445D01*
X14732558Y4021582D01*
X14720620Y4018991D01*
X14709190Y4014724D01*
X14698472Y4008882D01*
X14688718Y4001617D01*
X14680082Y3992981D01*
X14672818Y3983228D01*
X14666976Y3972509D01*
X14662708Y3961079D01*
X14660118Y3949141D01*
X14659254Y3937000D01*
X14660118Y3924858D01*
X14662708Y3912920D01*
X14666976Y3901490D01*
X14672818Y3890772D01*
X14680082Y3881018D01*
X14688718Y3872382D01*
X14698472Y3865118D01*
X14709190Y3859276D01*
X14720620Y3855008D01*
X14732558Y3852418D01*
G37*
G36*
X3426917Y4252264D02*
G01*
X3583482Y4252264D01*
X3592677Y4253077D01*
X3601212Y4255363D01*
X3609187Y4259072D01*
X3616350Y4264101D01*
X3622598Y4270349D01*
X3627628Y4277512D01*
X3631336Y4285488D01*
X3633622Y4294022D01*
X3634435Y4303217D01*
X3634435Y4459782D01*
X3633622Y4468977D01*
X3631336Y4477512D01*
X3627628Y4485487D01*
X3622598Y4492650D01*
X3616350Y4498898D01*
X3609187Y4503928D01*
X3601212Y4507636D01*
X3592677Y4509922D01*
X3583381Y4510735D01*
X3579368Y4511954D01*
X3576218Y4514697D01*
X3574389Y4518456D01*
X3574287Y4522673D01*
X3575862Y4526534D01*
X3578860Y4529480D01*
X3580536Y4530496D01*
X3592423Y4540148D01*
X3603091Y4551121D01*
X3612387Y4563313D01*
X3620160Y4576470D01*
X3626307Y4590491D01*
X3630777Y4605172D01*
X3633520Y4620209D01*
X3634435Y4635500D01*
X3633520Y4650790D01*
X3630777Y4665827D01*
X3626307Y4680508D01*
X3620160Y4694529D01*
X3612387Y4707686D01*
X3603091Y4719878D01*
X3592423Y4730851D01*
X3580536Y4740503D01*
X3567582Y4748682D01*
X3553764Y4755235D01*
X3539236Y4760163D01*
X3524300Y4763312D01*
X3509010Y4764684D01*
X3493719Y4764227D01*
X3478580Y4761941D01*
X3463798Y4757928D01*
X3449624Y4752136D01*
X3436213Y4744770D01*
X3423767Y4735830D01*
X3412490Y4725517D01*
X3402482Y4713884D01*
X3393948Y4701235D01*
X3386937Y4687570D01*
X3381603Y4673244D01*
X3377996Y4658360D01*
X3376218Y4643170D01*
X3376218Y4627829D01*
X3377996Y4612640D01*
X3381603Y4597755D01*
X3386937Y4583430D01*
X3393948Y4569764D01*
X3402482Y4557115D01*
X3412490Y4545482D01*
X3423767Y4535170D01*
X3432200Y4529124D01*
X3434943Y4526127D01*
X3436315Y4522266D01*
X3436061Y4518202D01*
X3434181Y4514545D01*
X3431082Y4511903D01*
X3427120Y4510735D01*
X3417722Y4509922D01*
X3409187Y4507636D01*
X3401212Y4503928D01*
X3394049Y4498898D01*
X3387801Y4492650D01*
X3382772Y4485487D01*
X3379063Y4477512D01*
X3376777Y4468977D01*
X3375964Y4459782D01*
X3375964Y4303217D01*
X3376777Y4294022D01*
X3379063Y4285488D01*
X3382772Y4277512D01*
X3387801Y4270349D01*
X3394049Y4264101D01*
X3401212Y4259072D01*
X3409187Y4255363D01*
X3417722Y4253077D01*
G37*
G36*
X12204700Y4334154D02*
G01*
X12216841Y4335018D01*
X12228779Y4337608D01*
X12240209Y4341876D01*
X12250928Y4347718D01*
X12261037Y4355338D01*
X12264288Y4357573D01*
X12268200Y4358335D01*
X12272111Y4357573D01*
X12285472Y4347718D01*
X12296190Y4341876D01*
X12307620Y4337608D01*
X12319558Y4335018D01*
X12331700Y4334154D01*
X12343841Y4335018D01*
X12355779Y4337608D01*
X12367209Y4341876D01*
X12377928Y4347718D01*
X12388037Y4355338D01*
X12391288Y4357573D01*
X12395200Y4358335D01*
X12399111Y4357573D01*
X12412472Y4347718D01*
X12423190Y4341876D01*
X12434620Y4337608D01*
X12446558Y4335018D01*
X12458700Y4334154D01*
X12470841Y4335018D01*
X12482779Y4337608D01*
X12494209Y4341876D01*
X12504928Y4347718D01*
X12514681Y4354982D01*
X12523317Y4363618D01*
X12530582Y4373372D01*
X12536424Y4384090D01*
X12540691Y4395520D01*
X12543282Y4407458D01*
X12544145Y4419600D01*
X12543282Y4431741D01*
X12540691Y4443679D01*
X12536424Y4455109D01*
X12530582Y4465828D01*
X12523317Y4475581D01*
X12514681Y4484217D01*
X12504928Y4491482D01*
X12494209Y4497324D01*
X12482779Y4501591D01*
X12470841Y4504182D01*
X12458700Y4505045D01*
X12446558Y4504182D01*
X12434620Y4501591D01*
X12423190Y4497324D01*
X12412472Y4491482D01*
X12402362Y4483862D01*
X12399111Y4481626D01*
X12395200Y4480864D01*
X12391288Y4481626D01*
X12377928Y4491482D01*
X12367209Y4497324D01*
X12355779Y4501591D01*
X12343841Y4504182D01*
X12331700Y4505045D01*
X12319558Y4504182D01*
X12307620Y4501591D01*
X12296190Y4497324D01*
X12285472Y4491482D01*
X12275362Y4483862D01*
X12272111Y4481626D01*
X12268200Y4480864D01*
X12264288Y4481626D01*
X12250928Y4491482D01*
X12240209Y4497324D01*
X12228779Y4501591D01*
X12216841Y4504182D01*
X12204700Y4505045D01*
X12192558Y4504182D01*
X12180620Y4501591D01*
X12169190Y4497324D01*
X12158472Y4491482D01*
X12148718Y4484217D01*
X12140082Y4475581D01*
X12132818Y4465828D01*
X12126976Y4455109D01*
X12122708Y4443679D01*
X12120118Y4431741D01*
X12119254Y4419600D01*
X12120118Y4407458D01*
X12122708Y4395520D01*
X12126976Y4384090D01*
X12132818Y4373372D01*
X12140082Y4363618D01*
X12148718Y4354982D01*
X12158472Y4347718D01*
X12169190Y4341876D01*
X12180620Y4337608D01*
X12192558Y4335018D01*
G37*
G36*
X8661400Y7714996D02*
G01*
X8678265Y7715961D01*
X8694877Y7718806D01*
X8711082Y7723479D01*
X8726678Y7729931D01*
X8741460Y7738059D01*
X8755227Y7747863D01*
X8767826Y7759090D01*
X8779052Y7771688D01*
X8788806Y7785455D01*
X8796985Y7800187D01*
X8803436Y7815783D01*
X8808110Y7831988D01*
X8810955Y7848650D01*
X8811869Y7865516D01*
X8810955Y7882331D01*
X8808110Y7898993D01*
X8803436Y7915198D01*
X8796985Y7930794D01*
X8788806Y7945577D01*
X8779052Y7959293D01*
X8767826Y7971891D01*
X8755227Y7983118D01*
X8741460Y7992922D01*
X8726678Y8001050D01*
X8711082Y8007553D01*
X8694877Y8012175D01*
X8678265Y8015020D01*
X8661400Y8015986D01*
X8644534Y8015020D01*
X8627922Y8012175D01*
X8611717Y8007553D01*
X8596122Y8001050D01*
X8581339Y7992922D01*
X8567572Y7983118D01*
X8554974Y7971891D01*
X8543747Y7959293D01*
X8533993Y7945577D01*
X8525814Y7930794D01*
X8519363Y7915198D01*
X8514689Y7898993D01*
X8511844Y7882331D01*
X8510930Y7865516D01*
X8511844Y7848650D01*
X8514689Y7831988D01*
X8519363Y7815783D01*
X8525814Y7800187D01*
X8533993Y7785455D01*
X8543747Y7771688D01*
X8554974Y7759090D01*
X8567572Y7747863D01*
X8581339Y7738059D01*
X8596122Y7729931D01*
X8611717Y7723479D01*
X8627922Y7718806D01*
X8644534Y7715961D01*
G37*
G36*
X9448393Y7694015D02*
G01*
X9466224Y7694930D01*
X9483852Y7697724D01*
X9501073Y7702346D01*
X9517735Y7708747D01*
X9533636Y7716875D01*
X9548622Y7726578D01*
X9562490Y7737805D01*
X9575088Y7750403D01*
X9586315Y7764272D01*
X9596018Y7779258D01*
X9604146Y7795158D01*
X9610547Y7811820D01*
X9615170Y7829042D01*
X9617964Y7846669D01*
X9618878Y7864500D01*
X9617964Y7882331D01*
X9615170Y7899958D01*
X9610547Y7917180D01*
X9604146Y7933842D01*
X9596018Y7949742D01*
X9586315Y7964728D01*
X9575088Y7978597D01*
X9562490Y7991195D01*
X9548622Y8002422D01*
X9533636Y8012125D01*
X9517735Y8020253D01*
X9501073Y8026653D01*
X9483852Y8031276D01*
X9466224Y8034070D01*
X9448393Y8034985D01*
X9430562Y8034070D01*
X9412935Y8031276D01*
X9395714Y8026653D01*
X9379051Y8020253D01*
X9363151Y8012125D01*
X9348165Y8002422D01*
X9334296Y7991195D01*
X9321698Y7978597D01*
X9310471Y7964728D01*
X9300768Y7949742D01*
X9292640Y7933842D01*
X9286240Y7917180D01*
X9281617Y7899958D01*
X9278823Y7882331D01*
X9277908Y7864500D01*
X9278823Y7846669D01*
X9281617Y7829042D01*
X9286240Y7811820D01*
X9292640Y7795158D01*
X9300768Y7779258D01*
X9310471Y7764272D01*
X9321698Y7750403D01*
X9334296Y7737805D01*
X9348165Y7726578D01*
X9363151Y7716875D01*
X9379051Y7708747D01*
X9395714Y7702346D01*
X9412935Y7697724D01*
X9430562Y7694930D01*
G37*
G36*
X12966700Y4346854D02*
G01*
X12978841Y4347718D01*
X12990779Y4350308D01*
X13002209Y4354576D01*
X13012928Y4360418D01*
X13022681Y4367682D01*
X13031317Y4376318D01*
X13038582Y4386072D01*
X13044424Y4396790D01*
X13048691Y4408220D01*
X13051282Y4420158D01*
X13052145Y4432300D01*
X13051282Y4444441D01*
X13048691Y4456379D01*
X13044424Y4467809D01*
X13038582Y4478528D01*
X13031317Y4488281D01*
X13022681Y4496917D01*
X13012928Y4504182D01*
X13002209Y4510024D01*
X12990779Y4514291D01*
X12978841Y4516882D01*
X12966700Y4517745D01*
X12954558Y4516882D01*
X12942620Y4514291D01*
X12931190Y4510024D01*
X12920472Y4504182D01*
X12910718Y4496917D01*
X12902082Y4488281D01*
X12894818Y4478528D01*
X12888976Y4467809D01*
X12884708Y4456379D01*
X12882118Y4444441D01*
X12881254Y4432300D01*
X12882118Y4420158D01*
X12884708Y4408220D01*
X12888976Y4396790D01*
X12894818Y4386072D01*
X12902082Y4376318D01*
X12910718Y4367682D01*
X12920472Y4360418D01*
X12931190Y4354576D01*
X12942620Y4350308D01*
X12954558Y4347718D01*
G37*
G36*
X12433300Y143154D02*
G01*
X12445441Y144018D01*
X12457379Y146608D01*
X12468809Y150876D01*
X12479528Y156718D01*
X12489281Y163982D01*
X12497917Y172618D01*
X12505182Y182372D01*
X12511024Y193090D01*
X12515291Y204520D01*
X12517882Y216458D01*
X12518745Y228600D01*
X12517882Y240741D01*
X12515291Y252679D01*
X12511024Y264109D01*
X12505182Y274828D01*
X12497917Y284581D01*
X12489281Y293217D01*
X12479528Y300482D01*
X12468809Y306324D01*
X12457379Y310591D01*
X12445441Y313182D01*
X12433300Y314045D01*
X12421158Y313182D01*
X12409220Y310591D01*
X12397790Y306324D01*
X12387072Y300482D01*
X12377318Y293217D01*
X12368682Y284581D01*
X12361418Y274828D01*
X12355576Y264109D01*
X12351308Y252679D01*
X12348718Y240741D01*
X12347854Y228600D01*
X12348718Y216458D01*
X12351308Y204520D01*
X12355576Y193090D01*
X12361418Y182372D01*
X12368682Y172618D01*
X12377318Y163982D01*
X12387072Y156718D01*
X12397790Y150876D01*
X12409220Y146608D01*
X12421158Y144018D01*
G37*
G36*
X12750800Y7610754D02*
G01*
X12762941Y7611618D01*
X12774879Y7614208D01*
X12786309Y7618475D01*
X12797028Y7624318D01*
X12806781Y7631582D01*
X12815417Y7640218D01*
X12822682Y7649972D01*
X12828524Y7660690D01*
X12832791Y7672120D01*
X12835382Y7684058D01*
X12836245Y7696200D01*
X12835382Y7708341D01*
X12832791Y7720279D01*
X12828524Y7731709D01*
X12822682Y7742428D01*
X12815417Y7752181D01*
X12806781Y7760817D01*
X12797028Y7768081D01*
X12786309Y7773924D01*
X12774879Y7778191D01*
X12762941Y7780781D01*
X12750800Y7781645D01*
X12738658Y7780781D01*
X12726720Y7778191D01*
X12715290Y7773924D01*
X12704572Y7768081D01*
X12694818Y7760817D01*
X12686182Y7752181D01*
X12678918Y7742428D01*
X12673076Y7731709D01*
X12668808Y7720279D01*
X12666218Y7708341D01*
X12665354Y7696200D01*
X12666218Y7684058D01*
X12668808Y7672120D01*
X12673076Y7660690D01*
X12678918Y7649972D01*
X12686182Y7640218D01*
X12694818Y7631582D01*
X12704572Y7624318D01*
X12715290Y7618475D01*
X12726720Y7614208D01*
X12738658Y7611618D01*
G37*
G36*
X15104262Y7533995D02*
G01*
X15116352Y7534452D01*
X15128290Y7536637D01*
X15139720Y7540548D01*
X15150490Y7546086D01*
X15160345Y7553147D01*
X15169083Y7561529D01*
X15176500Y7571130D01*
X15182392Y7581696D01*
X15186710Y7592974D01*
X15189352Y7604810D01*
X15190266Y7616901D01*
X15189352Y7628991D01*
X15186710Y7640828D01*
X15182392Y7652105D01*
X15176500Y7662672D01*
X15169083Y7672273D01*
X15160345Y7680655D01*
X15150490Y7687716D01*
X15139720Y7693253D01*
X15128290Y7697165D01*
X15116352Y7699349D01*
X15104262Y7699806D01*
X15092222Y7698486D01*
X15080488Y7695438D01*
X15069362Y7690662D01*
X15058999Y7684363D01*
X15049703Y7676642D01*
X15041626Y7667599D01*
X15034920Y7657490D01*
X15029789Y7646517D01*
X15026284Y7634935D01*
X15024557Y7622946D01*
X15024557Y7610856D01*
X15026284Y7598867D01*
X15029789Y7587284D01*
X15034920Y7576312D01*
X15041626Y7566202D01*
X15049703Y7557160D01*
X15058999Y7549438D01*
X15069362Y7543139D01*
X15080488Y7538364D01*
X15092222Y7535316D01*
G37*
G36*
X10246817Y7528864D02*
G01*
X10403382Y7528864D01*
X10412577Y7529677D01*
X10421112Y7531963D01*
X10429087Y7535672D01*
X10436250Y7540701D01*
X10442498Y7546949D01*
X10447528Y7554112D01*
X10451236Y7562088D01*
X10453522Y7570622D01*
X10454335Y7579817D01*
X10454335Y7736382D01*
X10453522Y7745577D01*
X10451236Y7754112D01*
X10447528Y7762087D01*
X10442498Y7769250D01*
X10436250Y7775498D01*
X10429087Y7780528D01*
X10421112Y7784236D01*
X10412577Y7786522D01*
X10403382Y7787335D01*
X10246817Y7787335D01*
X10237622Y7786522D01*
X10229088Y7784236D01*
X10221112Y7780528D01*
X10213949Y7775498D01*
X10207701Y7769250D01*
X10202672Y7762087D01*
X10198963Y7754112D01*
X10196677Y7745577D01*
X10195864Y7736281D01*
X10194645Y7732268D01*
X10191902Y7729118D01*
X10188143Y7727289D01*
X10183926Y7727188D01*
X10180066Y7728762D01*
X10177119Y7731759D01*
X10176103Y7733436D01*
X10166451Y7745323D01*
X10155478Y7755991D01*
X10143286Y7765288D01*
X10130129Y7773060D01*
X10116108Y7779207D01*
X10101427Y7783677D01*
X10086390Y7786420D01*
X10071100Y7787335D01*
X10055809Y7786420D01*
X10040772Y7783677D01*
X10026091Y7779207D01*
X10012070Y7773060D01*
X9998913Y7765288D01*
X9986721Y7755991D01*
X9975748Y7745323D01*
X9966096Y7733436D01*
X9957917Y7720482D01*
X9951364Y7706664D01*
X9946436Y7692136D01*
X9943287Y7677200D01*
X9941915Y7661909D01*
X9942372Y7646619D01*
X9944658Y7631480D01*
X9948672Y7616698D01*
X9954463Y7602524D01*
X9961829Y7589113D01*
X9970770Y7576667D01*
X9981082Y7565390D01*
X9992715Y7555382D01*
X10005364Y7546848D01*
X10019030Y7539837D01*
X10033355Y7534503D01*
X10048240Y7530896D01*
X10063429Y7529118D01*
X10078770Y7529118D01*
X10093960Y7530896D01*
X10108844Y7534503D01*
X10123170Y7539837D01*
X10136835Y7546848D01*
X10149484Y7555382D01*
X10161117Y7565390D01*
X10171430Y7576667D01*
X10177475Y7585100D01*
X10180472Y7587843D01*
X10184333Y7589215D01*
X10188397Y7588961D01*
X10192054Y7587081D01*
X10194696Y7583982D01*
X10195864Y7580020D01*
X10196677Y7570622D01*
X10198963Y7562088D01*
X10202672Y7554112D01*
X10207701Y7546949D01*
X10213949Y7540701D01*
X10221112Y7535672D01*
X10229088Y7531963D01*
X10237622Y7529677D01*
G37*
G36*
X15540786Y4664710D02*
G01*
X15556077Y4665624D01*
X15571114Y4668418D01*
X15585744Y4672939D01*
X15599663Y4679238D01*
X15612770Y4687163D01*
X15624810Y4696561D01*
X15635630Y4707382D01*
X15645028Y4719421D01*
X15652953Y4732528D01*
X15659252Y4746498D01*
X15663773Y4761077D01*
X15666567Y4776114D01*
X15667482Y4791405D01*
X15666567Y4806645D01*
X15663773Y4821732D01*
X15659252Y4836312D01*
X15652953Y4850282D01*
X15645028Y4863338D01*
X15635630Y4875377D01*
X15624810Y4886198D01*
X15612770Y4895646D01*
X15599663Y4903571D01*
X15585744Y4909820D01*
X15571114Y4914392D01*
X15556077Y4917135D01*
X15540786Y4918100D01*
X15525546Y4917135D01*
X15510459Y4914392D01*
X15495879Y4909820D01*
X15481909Y4903571D01*
X15468854Y4895646D01*
X15456814Y4886198D01*
X15445994Y4875377D01*
X15436545Y4863338D01*
X15428620Y4850282D01*
X15422372Y4836312D01*
X15417800Y4821732D01*
X15415056Y4806645D01*
X15414142Y4791405D01*
X15415056Y4776114D01*
X15417800Y4761077D01*
X15422372Y4746498D01*
X15428620Y4732528D01*
X15436545Y4719421D01*
X15445994Y4707382D01*
X15456814Y4696561D01*
X15468854Y4687163D01*
X15481909Y4679238D01*
X15495879Y4672939D01*
X15510459Y4668418D01*
X15525546Y4665624D01*
G37*
G36*
X12700000Y4677054D02*
G01*
X12712141Y4677918D01*
X12724079Y4680508D01*
X12735509Y4684776D01*
X12746228Y4690618D01*
X12755981Y4697882D01*
X12764617Y4706518D01*
X12771882Y4716272D01*
X12777724Y4726990D01*
X12781991Y4738420D01*
X12784582Y4750358D01*
X12785445Y4762500D01*
X12784582Y4774641D01*
X12781991Y4786579D01*
X12777724Y4798009D01*
X12771882Y4808728D01*
X12764617Y4818481D01*
X12755981Y4827117D01*
X12746228Y4834382D01*
X12735509Y4840224D01*
X12724079Y4844491D01*
X12712141Y4847082D01*
X12700000Y4847945D01*
X12687858Y4847082D01*
X12675920Y4844491D01*
X12664490Y4840224D01*
X12653772Y4834382D01*
X12644018Y4827117D01*
X12635382Y4818481D01*
X12628118Y4808728D01*
X12622276Y4798009D01*
X12618008Y4786579D01*
X12615418Y4774641D01*
X12614554Y4762500D01*
X12615418Y4750358D01*
X12618008Y4738420D01*
X12622276Y4726990D01*
X12628118Y4716272D01*
X12635382Y4706518D01*
X12644018Y4697882D01*
X12653772Y4690618D01*
X12664490Y4684776D01*
X12675920Y4680508D01*
X12687858Y4677918D01*
G37*
G36*
X14859000Y7369454D02*
G01*
X14871141Y7370318D01*
X14883079Y7372908D01*
X14894509Y7377175D01*
X14905228Y7383018D01*
X14914981Y7390282D01*
X14923617Y7398918D01*
X14930882Y7408672D01*
X14936724Y7419390D01*
X14940991Y7430820D01*
X14943582Y7442758D01*
X14944445Y7454900D01*
X14943582Y7467041D01*
X14940991Y7478979D01*
X14936724Y7490409D01*
X14930882Y7501128D01*
X14923617Y7510881D01*
X14914981Y7519517D01*
X14905228Y7526781D01*
X14894509Y7532624D01*
X14883079Y7536891D01*
X14871141Y7539481D01*
X14859000Y7540345D01*
X14846858Y7539481D01*
X14834920Y7536891D01*
X14823490Y7532624D01*
X14812772Y7526781D01*
X14803018Y7519517D01*
X14794382Y7510881D01*
X14787118Y7501128D01*
X14781276Y7490409D01*
X14777008Y7478979D01*
X14774418Y7467041D01*
X14773554Y7454900D01*
X14774418Y7442758D01*
X14777008Y7430820D01*
X14781276Y7419390D01*
X14787118Y7408672D01*
X14794382Y7398918D01*
X14803018Y7390282D01*
X14812772Y7383018D01*
X14823490Y7377175D01*
X14834920Y7372908D01*
X14846858Y7370318D01*
G37*
G36*
X9512300Y5159654D02*
G01*
X9524441Y5160518D01*
X9536379Y5163108D01*
X9547809Y5167376D01*
X9558528Y5173218D01*
X9568281Y5180482D01*
X9576917Y5189118D01*
X9584182Y5198872D01*
X9590024Y5209590D01*
X9594291Y5221020D01*
X9596882Y5232958D01*
X9597745Y5245100D01*
X9596882Y5257241D01*
X9594291Y5269179D01*
X9590024Y5280609D01*
X9584182Y5291328D01*
X9576917Y5301081D01*
X9568281Y5309717D01*
X9558528Y5316982D01*
X9547809Y5322824D01*
X9536379Y5327091D01*
X9524441Y5329682D01*
X9512300Y5330545D01*
X9500158Y5329682D01*
X9488220Y5327091D01*
X9476790Y5322824D01*
X9466072Y5316982D01*
X9456318Y5309717D01*
X9447682Y5301081D01*
X9440418Y5291328D01*
X9434576Y5280609D01*
X9430308Y5269179D01*
X9427718Y5257241D01*
X9426854Y5245100D01*
X9427718Y5232958D01*
X9430308Y5221020D01*
X9434576Y5209590D01*
X9440418Y5198872D01*
X9447682Y5189118D01*
X9456318Y5180482D01*
X9466072Y5173218D01*
X9476790Y5167376D01*
X9488220Y5163108D01*
X9500158Y5160518D01*
G37*
G36*
X14719300Y5362854D02*
G01*
X14731441Y5363718D01*
X14743379Y5366308D01*
X14754809Y5370576D01*
X14765528Y5376418D01*
X14775281Y5383682D01*
X14783917Y5392318D01*
X14791182Y5402072D01*
X14797024Y5412790D01*
X14801291Y5424220D01*
X14803882Y5436158D01*
X14804745Y5448300D01*
X14803882Y5460441D01*
X14801291Y5472379D01*
X14797024Y5483809D01*
X14791182Y5494528D01*
X14783917Y5504281D01*
X14775281Y5512917D01*
X14765528Y5520182D01*
X14754809Y5526024D01*
X14743379Y5530291D01*
X14731441Y5532882D01*
X14719300Y5533745D01*
X14707158Y5532882D01*
X14695220Y5530291D01*
X14683790Y5526024D01*
X14673072Y5520182D01*
X14663318Y5512917D01*
X14654682Y5504281D01*
X14647418Y5494528D01*
X14641576Y5483809D01*
X14637308Y5472379D01*
X14634718Y5460441D01*
X14633854Y5448300D01*
X14634718Y5436158D01*
X14637308Y5424220D01*
X14641576Y5412790D01*
X14647418Y5402072D01*
X14654682Y5392318D01*
X14663318Y5383682D01*
X14673072Y5376418D01*
X14683790Y5370576D01*
X14695220Y5366308D01*
X14707158Y5363718D01*
G37*
G36*
X12266117Y5547664D02*
G01*
X12422682Y5547664D01*
X12431877Y5548477D01*
X12440412Y5550763D01*
X12448387Y5554472D01*
X12455550Y5559501D01*
X12461798Y5565749D01*
X12466828Y5572912D01*
X12470536Y5580888D01*
X12472822Y5589422D01*
X12473635Y5598718D01*
X12474854Y5602732D01*
X12477597Y5605881D01*
X12481356Y5607710D01*
X12485573Y5607812D01*
X12489434Y5606237D01*
X12492380Y5603240D01*
X12493396Y5601563D01*
X12503048Y5589676D01*
X12514021Y5579008D01*
X12526213Y5569712D01*
X12539370Y5561939D01*
X12553391Y5555792D01*
X12568072Y5551322D01*
X12583109Y5548579D01*
X12598400Y5547664D01*
X12613690Y5548579D01*
X12628727Y5551322D01*
X12643408Y5555792D01*
X12657429Y5561939D01*
X12670586Y5569712D01*
X12682778Y5579008D01*
X12693751Y5589676D01*
X12703403Y5601563D01*
X12711582Y5614517D01*
X12718135Y5628335D01*
X12723063Y5642864D01*
X12726212Y5657799D01*
X12727584Y5673090D01*
X12727127Y5688380D01*
X12724841Y5703519D01*
X12720828Y5718302D01*
X12715036Y5732475D01*
X12707670Y5745886D01*
X12698730Y5758332D01*
X12688417Y5769610D01*
X12676784Y5779617D01*
X12664135Y5788152D01*
X12650470Y5795162D01*
X12636144Y5800496D01*
X12621260Y5804103D01*
X12606070Y5805881D01*
X12590729Y5805881D01*
X12575540Y5804103D01*
X12560655Y5800496D01*
X12546330Y5795162D01*
X12532664Y5788152D01*
X12520015Y5779617D01*
X12508382Y5769610D01*
X12498070Y5758332D01*
X12492024Y5749899D01*
X12489027Y5747156D01*
X12485166Y5745784D01*
X12481102Y5746038D01*
X12477445Y5747918D01*
X12474803Y5751017D01*
X12473635Y5754979D01*
X12472822Y5764377D01*
X12470536Y5772912D01*
X12466828Y5780887D01*
X12461798Y5788050D01*
X12455550Y5794298D01*
X12448387Y5799328D01*
X12440412Y5803036D01*
X12431877Y5805322D01*
X12422682Y5806135D01*
X12266117Y5806135D01*
X12256922Y5805322D01*
X12248388Y5803036D01*
X12240412Y5799328D01*
X12233249Y5794298D01*
X12227001Y5788050D01*
X12221972Y5780887D01*
X12218263Y5772912D01*
X12215977Y5764377D01*
X12215164Y5755182D01*
X12215164Y5598617D01*
X12215977Y5589422D01*
X12218263Y5580888D01*
X12221972Y5572912D01*
X12227001Y5565749D01*
X12233249Y5559501D01*
X12240412Y5554472D01*
X12248388Y5550763D01*
X12256922Y5548477D01*
G37*
G36*
X5880100Y7128154D02*
G01*
X5892241Y7129018D01*
X5904179Y7131608D01*
X5915609Y7135875D01*
X5926328Y7141718D01*
X5936081Y7148982D01*
X5944717Y7157618D01*
X5951982Y7167372D01*
X5957824Y7178090D01*
X5962091Y7189520D01*
X5964682Y7201458D01*
X5965545Y7213600D01*
X5964682Y7225741D01*
X5962091Y7237679D01*
X5957824Y7249109D01*
X5951982Y7259828D01*
X5944717Y7269581D01*
X5936081Y7278217D01*
X5926328Y7285481D01*
X5915609Y7291324D01*
X5904179Y7295591D01*
X5892241Y7298181D01*
X5880100Y7299045D01*
X5867958Y7298181D01*
X5856020Y7295591D01*
X5844590Y7291324D01*
X5833872Y7285481D01*
X5824118Y7278217D01*
X5815482Y7269581D01*
X5808218Y7259828D01*
X5802376Y7249109D01*
X5798108Y7237679D01*
X5795518Y7225741D01*
X5794654Y7213600D01*
X5795518Y7201458D01*
X5798108Y7189520D01*
X5802376Y7178090D01*
X5808218Y7167372D01*
X5815482Y7157618D01*
X5824118Y7148982D01*
X5833872Y7141718D01*
X5844590Y7135875D01*
X5856020Y7131608D01*
X5867958Y7129018D01*
G37*
G36*
X15540786Y5744210D02*
G01*
X15556077Y5745124D01*
X15571114Y5747918D01*
X15585744Y5752439D01*
X15599663Y5758738D01*
X15612770Y5766663D01*
X15624810Y5776061D01*
X15635630Y5786882D01*
X15645028Y5798921D01*
X15652953Y5812028D01*
X15659252Y5825998D01*
X15663773Y5840577D01*
X15666567Y5855614D01*
X15667482Y5870905D01*
X15666567Y5886145D01*
X15663773Y5901232D01*
X15659252Y5915812D01*
X15652953Y5929782D01*
X15645028Y5942838D01*
X15635630Y5954877D01*
X15624810Y5965698D01*
X15612770Y5975146D01*
X15599663Y5983071D01*
X15585744Y5989320D01*
X15571114Y5993892D01*
X15556077Y5996635D01*
X15540786Y5997600D01*
X15525546Y5996635D01*
X15510459Y5993892D01*
X15495879Y5989320D01*
X15481909Y5983071D01*
X15468854Y5975146D01*
X15456814Y5965698D01*
X15445994Y5954877D01*
X15436545Y5942838D01*
X15428620Y5929782D01*
X15422372Y5915812D01*
X15417800Y5901232D01*
X15415056Y5886145D01*
X15414142Y5870905D01*
X15415056Y5855614D01*
X15417800Y5840577D01*
X15422372Y5825998D01*
X15428620Y5812028D01*
X15436545Y5798921D01*
X15445994Y5786882D01*
X15456814Y5776061D01*
X15468854Y5766663D01*
X15481909Y5758738D01*
X15495879Y5752439D01*
X15510459Y5747918D01*
X15525546Y5745124D01*
G37*
G36*
X14859000Y7001154D02*
G01*
X14871141Y7002018D01*
X14883079Y7004608D01*
X14894509Y7008875D01*
X14905228Y7014718D01*
X14914981Y7021982D01*
X14923617Y7030618D01*
X14930882Y7040372D01*
X14936724Y7051090D01*
X14940991Y7062520D01*
X14943582Y7074458D01*
X14944445Y7086600D01*
X14943582Y7098741D01*
X14940991Y7110679D01*
X14936724Y7122109D01*
X14930882Y7132828D01*
X14923617Y7142581D01*
X14914981Y7151217D01*
X14905228Y7158481D01*
X14894509Y7164324D01*
X14883079Y7168591D01*
X14871141Y7171181D01*
X14859000Y7172045D01*
X14846858Y7171181D01*
X14834920Y7168591D01*
X14823490Y7164324D01*
X14812772Y7158481D01*
X14803018Y7151217D01*
X14794382Y7142581D01*
X14787118Y7132828D01*
X14781276Y7122109D01*
X14777008Y7110679D01*
X14774418Y7098741D01*
X14773554Y7086600D01*
X14774418Y7074458D01*
X14777008Y7062520D01*
X14781276Y7051090D01*
X14787118Y7040372D01*
X14794382Y7030618D01*
X14803018Y7021982D01*
X14812772Y7014718D01*
X14823490Y7008875D01*
X14834920Y7004608D01*
X14846858Y7002018D01*
G37*
G36*
X3474008Y5780024D02*
G01*
X3663391Y5780024D01*
X3678834Y5780938D01*
X3693718Y5783681D01*
X3708196Y5788152D01*
X3722014Y5794400D01*
X3734968Y5802223D01*
X3746906Y5811570D01*
X3757625Y5822289D01*
X3766972Y5834227D01*
X3774795Y5847181D01*
X3781044Y5860999D01*
X3785514Y5875477D01*
X3788257Y5890361D01*
X3789172Y5905500D01*
X3788257Y5920638D01*
X3785514Y5935522D01*
X3781044Y5950000D01*
X3774795Y5963818D01*
X3766972Y5976772D01*
X3757625Y5988710D01*
X3746906Y5999429D01*
X3734968Y6008776D01*
X3722014Y6016599D01*
X3708196Y6022797D01*
X3693718Y6027318D01*
X3678834Y6030061D01*
X3663391Y6030976D01*
X3474008Y6030976D01*
X3458565Y6030061D01*
X3443681Y6027318D01*
X3429203Y6022797D01*
X3415385Y6016599D01*
X3402431Y6008776D01*
X3390493Y5999429D01*
X3379774Y5988710D01*
X3370427Y5976772D01*
X3362604Y5963818D01*
X3356356Y5950000D01*
X3351885Y5935522D01*
X3349142Y5920638D01*
X3348228Y5905500D01*
X3349142Y5890361D01*
X3351885Y5875477D01*
X3356356Y5860999D01*
X3362604Y5847181D01*
X3370427Y5834227D01*
X3379774Y5822289D01*
X3390493Y5811570D01*
X3402431Y5802223D01*
X3415385Y5794400D01*
X3429203Y5788152D01*
X3443681Y5783681D01*
X3458565Y5780938D01*
G37*
G36*
X6540500Y5870854D02*
G01*
X6552641Y5871718D01*
X6564579Y5874308D01*
X6576009Y5878576D01*
X6586728Y5884418D01*
X6596481Y5891682D01*
X6605117Y5900318D01*
X6612381Y5910072D01*
X6618224Y5920790D01*
X6622491Y5932220D01*
X6625081Y5944158D01*
X6625945Y5956300D01*
X6625081Y5968441D01*
X6622491Y5980379D01*
X6618224Y5991809D01*
X6612381Y6002528D01*
X6605117Y6012281D01*
X6596481Y6020917D01*
X6586728Y6028182D01*
X6576009Y6034024D01*
X6564579Y6038291D01*
X6552641Y6040882D01*
X6540500Y6041745D01*
X6528358Y6040882D01*
X6516420Y6038291D01*
X6504990Y6034024D01*
X6494272Y6028182D01*
X6484518Y6020917D01*
X6475882Y6012281D01*
X6468618Y6002528D01*
X6462776Y5991809D01*
X6458508Y5980379D01*
X6455918Y5968441D01*
X6455054Y5956300D01*
X6455918Y5944158D01*
X6458508Y5932220D01*
X6462776Y5920790D01*
X6468618Y5910072D01*
X6475882Y5900318D01*
X6484518Y5891682D01*
X6494272Y5884418D01*
X6504990Y5878576D01*
X6516420Y5874308D01*
X6528358Y5871718D01*
G37*
G36*
X13487400Y5934354D02*
G01*
X13499541Y5935218D01*
X13511479Y5937808D01*
X13522909Y5942076D01*
X13533628Y5947918D01*
X13543381Y5955182D01*
X13552017Y5963818D01*
X13559282Y5973572D01*
X13565124Y5984290D01*
X13569391Y5995720D01*
X13571982Y6007658D01*
X13572845Y6019800D01*
X13571982Y6031941D01*
X13569391Y6043879D01*
X13565124Y6055309D01*
X13559282Y6066028D01*
X13552017Y6075781D01*
X13543381Y6084417D01*
X13533628Y6091682D01*
X13522909Y6097524D01*
X13511479Y6101791D01*
X13499541Y6104382D01*
X13487400Y6105245D01*
X13475258Y6104382D01*
X13463320Y6101791D01*
X13451890Y6097524D01*
X13441172Y6091682D01*
X13431418Y6084417D01*
X13422782Y6075781D01*
X13415518Y6066028D01*
X13409676Y6055309D01*
X13405408Y6043879D01*
X13402818Y6031941D01*
X13401954Y6019800D01*
X13402818Y6007658D01*
X13405408Y5995720D01*
X13409676Y5984290D01*
X13415518Y5973572D01*
X13422782Y5963818D01*
X13431418Y5955182D01*
X13441172Y5947918D01*
X13451890Y5942076D01*
X13463320Y5937808D01*
X13475258Y5935218D01*
G37*
G36*
X12458700Y5959754D02*
G01*
X12470841Y5960618D01*
X12482779Y5963208D01*
X12494209Y5967476D01*
X12504928Y5973318D01*
X12514681Y5980582D01*
X12523317Y5989218D01*
X12530582Y5998972D01*
X12536424Y6009690D01*
X12540691Y6021120D01*
X12543282Y6033058D01*
X12544145Y6045200D01*
X12543282Y6057341D01*
X12540691Y6069279D01*
X12536424Y6080709D01*
X12530582Y6091428D01*
X12523317Y6101181D01*
X12514681Y6109817D01*
X12504928Y6117082D01*
X12494209Y6122924D01*
X12482779Y6127191D01*
X12470841Y6129782D01*
X12458700Y6130645D01*
X12446558Y6129782D01*
X12434620Y6127191D01*
X12423190Y6122924D01*
X12412472Y6117082D01*
X12402718Y6109817D01*
X12394082Y6101181D01*
X12386818Y6091428D01*
X12380976Y6080709D01*
X12376708Y6069279D01*
X12374118Y6057341D01*
X12373254Y6045200D01*
X12374118Y6033058D01*
X12376708Y6021120D01*
X12380976Y6009690D01*
X12386818Y5998972D01*
X12394082Y5989218D01*
X12402718Y5980582D01*
X12412472Y5973318D01*
X12423190Y5967476D01*
X12434620Y5963208D01*
X12446558Y5960618D01*
G37*
G36*
X12776200Y5959754D02*
G01*
X12788341Y5960618D01*
X12800279Y5963208D01*
X12811709Y5967476D01*
X12822428Y5973318D01*
X12832181Y5980582D01*
X12840817Y5989218D01*
X12848082Y5998972D01*
X12853924Y6009690D01*
X12858191Y6021120D01*
X12860782Y6033058D01*
X12861645Y6045200D01*
X12860782Y6057341D01*
X12858191Y6069279D01*
X12853924Y6080709D01*
X12848082Y6091428D01*
X12840817Y6101181D01*
X12832181Y6109817D01*
X12822428Y6117082D01*
X12811709Y6122924D01*
X12800279Y6127191D01*
X12788341Y6129782D01*
X12776200Y6130645D01*
X12764058Y6129782D01*
X12752120Y6127191D01*
X12740690Y6122924D01*
X12729972Y6117082D01*
X12720218Y6109817D01*
X12711582Y6101181D01*
X12704318Y6091428D01*
X12698476Y6080709D01*
X12694208Y6069279D01*
X12691618Y6057341D01*
X12690754Y6045200D01*
X12691618Y6033058D01*
X12694208Y6021120D01*
X12698476Y6009690D01*
X12704318Y5998972D01*
X12711582Y5989218D01*
X12720218Y5980582D01*
X12729972Y5973318D01*
X12740690Y5967476D01*
X12752120Y5963208D01*
X12764058Y5960618D01*
G37*
G36*
X14503400Y6137554D02*
G01*
X14515541Y6138418D01*
X14527479Y6141008D01*
X14538909Y6145276D01*
X14549628Y6151118D01*
X14559381Y6158382D01*
X14568017Y6167018D01*
X14575282Y6176772D01*
X14581124Y6187490D01*
X14585391Y6198920D01*
X14587982Y6210858D01*
X14588845Y6223000D01*
X14587982Y6235141D01*
X14585391Y6247079D01*
X14581124Y6258509D01*
X14575282Y6269228D01*
X14568017Y6278981D01*
X14559381Y6287617D01*
X14549628Y6294882D01*
X14538909Y6300724D01*
X14527479Y6304991D01*
X14515541Y6307582D01*
X14503400Y6308445D01*
X14491258Y6307582D01*
X14479320Y6304991D01*
X14467890Y6300724D01*
X14457172Y6294882D01*
X14447418Y6287617D01*
X14438782Y6278981D01*
X14431518Y6269228D01*
X14425676Y6258509D01*
X14421408Y6247079D01*
X14418818Y6235141D01*
X14417954Y6223000D01*
X14418818Y6210858D01*
X14421408Y6198920D01*
X14425676Y6187490D01*
X14431518Y6176772D01*
X14438782Y6167018D01*
X14447418Y6158382D01*
X14457172Y6151118D01*
X14467890Y6145276D01*
X14479320Y6141008D01*
X14491258Y6138418D01*
G37*
G36*
X3401517Y6296964D02*
G01*
X3558082Y6296964D01*
X3567277Y6297777D01*
X3575812Y6300063D01*
X3583787Y6303772D01*
X3590950Y6308801D01*
X3597198Y6315049D01*
X3602228Y6322212D01*
X3605936Y6330188D01*
X3608222Y6338722D01*
X3609035Y6347917D01*
X3609035Y6504482D01*
X3608222Y6513677D01*
X3605936Y6522212D01*
X3602228Y6530187D01*
X3597198Y6537350D01*
X3590950Y6543598D01*
X3583787Y6548628D01*
X3575812Y6552336D01*
X3567277Y6554622D01*
X3558082Y6555435D01*
X3401517Y6555435D01*
X3392322Y6554622D01*
X3383787Y6552336D01*
X3375812Y6548628D01*
X3368649Y6543598D01*
X3362401Y6537350D01*
X3357372Y6530187D01*
X3353663Y6522212D01*
X3351377Y6513677D01*
X3350564Y6504381D01*
X3349345Y6500368D01*
X3346602Y6497218D01*
X3342843Y6495389D01*
X3338626Y6495288D01*
X3334765Y6496862D01*
X3331819Y6499860D01*
X3330803Y6501536D01*
X3321151Y6513423D01*
X3310178Y6524091D01*
X3297986Y6533388D01*
X3284829Y6541160D01*
X3270808Y6547307D01*
X3256127Y6551777D01*
X3241090Y6554520D01*
X3225800Y6555435D01*
X3210509Y6554520D01*
X3195472Y6551777D01*
X3180791Y6547307D01*
X3166770Y6541160D01*
X3153613Y6533388D01*
X3141421Y6524091D01*
X3130448Y6513423D01*
X3120796Y6501536D01*
X3112617Y6488582D01*
X3106064Y6474764D01*
X3101136Y6460236D01*
X3097987Y6445300D01*
X3096615Y6430010D01*
X3097072Y6414719D01*
X3099358Y6399580D01*
X3103372Y6384798D01*
X3109163Y6370624D01*
X3116529Y6357213D01*
X3125470Y6344767D01*
X3135782Y6333490D01*
X3147415Y6323482D01*
X3160064Y6314948D01*
X3173730Y6307937D01*
X3188055Y6302603D01*
X3202940Y6298996D01*
X3218129Y6297218D01*
X3233470Y6297218D01*
X3248660Y6298996D01*
X3263544Y6302603D01*
X3277870Y6307937D01*
X3291535Y6314948D01*
X3304184Y6323482D01*
X3315817Y6333490D01*
X3326129Y6344767D01*
X3332175Y6353200D01*
X3335172Y6355943D01*
X3339033Y6357315D01*
X3343097Y6357061D01*
X3346754Y6355181D01*
X3349396Y6352082D01*
X3350564Y6348120D01*
X3351377Y6338722D01*
X3353663Y6330188D01*
X3357372Y6322212D01*
X3362401Y6315049D01*
X3368649Y6308801D01*
X3375812Y6303772D01*
X3383787Y6300063D01*
X3392322Y6297777D01*
G37*
G36*
X15104262Y6955993D02*
G01*
X15116352Y6956450D01*
X15128290Y6958634D01*
X15139720Y6962546D01*
X15150490Y6968083D01*
X15160345Y6975144D01*
X15169083Y6983526D01*
X15176500Y6993128D01*
X15182392Y7003694D01*
X15186710Y7014972D01*
X15189352Y7026808D01*
X15190266Y7038898D01*
X15189352Y7050989D01*
X15186710Y7062825D01*
X15182392Y7074103D01*
X15176500Y7084669D01*
X15169083Y7094270D01*
X15160345Y7102652D01*
X15150490Y7109714D01*
X15139720Y7115251D01*
X15128290Y7119162D01*
X15116352Y7121347D01*
X15104262Y7121804D01*
X15092222Y7120483D01*
X15080488Y7117435D01*
X15069362Y7112660D01*
X15058999Y7106361D01*
X15049703Y7098639D01*
X15041626Y7089597D01*
X15034920Y7079488D01*
X15029789Y7068515D01*
X15026284Y7056932D01*
X15024557Y7044944D01*
X15024557Y7032853D01*
X15026284Y7020864D01*
X15029789Y7009282D01*
X15034920Y6998309D01*
X15041626Y6988200D01*
X15049703Y6979158D01*
X15058999Y6971436D01*
X15069362Y6965137D01*
X15080488Y6960362D01*
X15092222Y6957314D01*
G37*
G36*
X13347700Y6924954D02*
G01*
X13359841Y6925818D01*
X13371779Y6928408D01*
X13383209Y6932675D01*
X13393928Y6938518D01*
X13403681Y6945782D01*
X13412317Y6954418D01*
X13419582Y6964172D01*
X13425424Y6974890D01*
X13429691Y6986320D01*
X13432282Y6998258D01*
X13433145Y7010400D01*
X13432282Y7022541D01*
X13429691Y7034479D01*
X13425424Y7045909D01*
X13419582Y7056628D01*
X13412317Y7066381D01*
X13403681Y7075017D01*
X13393928Y7082281D01*
X13383209Y7088124D01*
X13371779Y7092391D01*
X13359841Y7094981D01*
X13347700Y7095845D01*
X13335558Y7094981D01*
X13323620Y7092391D01*
X13312190Y7088124D01*
X13301472Y7082281D01*
X13291718Y7075017D01*
X13283082Y7066381D01*
X13275818Y7056628D01*
X13269976Y7045909D01*
X13265708Y7034479D01*
X13263118Y7022541D01*
X13262254Y7010400D01*
X13263118Y6998258D01*
X13265708Y6986320D01*
X13269976Y6974890D01*
X13275818Y6964172D01*
X13283082Y6954418D01*
X13291718Y6945782D01*
X13301472Y6938518D01*
X13312190Y6932675D01*
X13323620Y6928408D01*
X13335558Y6925818D01*
G37*
G36*
X12687300Y6632854D02*
G01*
X12699441Y6633718D01*
X12711379Y6636308D01*
X12722809Y6640575D01*
X12733528Y6646418D01*
X12743281Y6653682D01*
X12751917Y6662318D01*
X12759182Y6672072D01*
X12765024Y6682790D01*
X12769291Y6694220D01*
X12771882Y6706158D01*
X12772745Y6718300D01*
X12771882Y6730441D01*
X12769291Y6742379D01*
X12765024Y6753809D01*
X12759182Y6764528D01*
X12751917Y6774281D01*
X12743281Y6782917D01*
X12733528Y6790181D01*
X12722809Y6796024D01*
X12711379Y6800291D01*
X12699441Y6802881D01*
X12687300Y6803745D01*
X12675158Y6802881D01*
X12663220Y6800291D01*
X12651790Y6796024D01*
X12641072Y6790181D01*
X12631318Y6782917D01*
X12622682Y6774281D01*
X12615418Y6764528D01*
X12609576Y6753809D01*
X12605308Y6742379D01*
X12602718Y6730441D01*
X12601854Y6718300D01*
X12602718Y6706158D01*
X12605308Y6694220D01*
X12609576Y6682790D01*
X12615418Y6672072D01*
X12622682Y6662318D01*
X12631318Y6653682D01*
X12641072Y6646418D01*
X12651790Y6640575D01*
X12663220Y6636308D01*
X12675158Y6633718D01*
G37*
G36*
X10706100Y6632854D02*
G01*
X10718241Y6633718D01*
X10730179Y6636308D01*
X10741609Y6640575D01*
X10752328Y6646418D01*
X10762081Y6653682D01*
X10770717Y6662318D01*
X10777982Y6672072D01*
X10783824Y6682790D01*
X10788091Y6694220D01*
X10790682Y6706158D01*
X10791545Y6718300D01*
X10790682Y6730441D01*
X10788091Y6742379D01*
X10783824Y6753809D01*
X10777982Y6764528D01*
X10770717Y6774281D01*
X10762081Y6782917D01*
X10752328Y6790181D01*
X10741609Y6796024D01*
X10730179Y6800291D01*
X10718241Y6802881D01*
X10706100Y6803745D01*
X10693958Y6802881D01*
X10687913Y6801612D01*
X10683951Y6801510D01*
X10680242Y6802983D01*
X10677398Y6805726D01*
X10675823Y6809333D01*
X10673791Y6818579D01*
X10669524Y6830009D01*
X10663682Y6840728D01*
X10656417Y6850481D01*
X10647781Y6859117D01*
X10638028Y6866381D01*
X10627309Y6872224D01*
X10615879Y6876491D01*
X10603941Y6879081D01*
X10591800Y6879945D01*
X10579658Y6879081D01*
X10567720Y6876491D01*
X10556290Y6872224D01*
X10545572Y6866381D01*
X10535818Y6859117D01*
X10527182Y6850481D01*
X10519918Y6840728D01*
X10514076Y6830009D01*
X10509808Y6818579D01*
X10507218Y6806641D01*
X10506354Y6794500D01*
X10507218Y6782358D01*
X10509808Y6770420D01*
X10514076Y6758990D01*
X10519918Y6748272D01*
X10527182Y6738518D01*
X10535818Y6729882D01*
X10545572Y6722618D01*
X10556290Y6716775D01*
X10567720Y6712508D01*
X10579658Y6709918D01*
X10591800Y6709054D01*
X10603941Y6709918D01*
X10609986Y6711188D01*
X10613948Y6711289D01*
X10617657Y6709816D01*
X10620502Y6707073D01*
X10622076Y6703466D01*
X10624108Y6694220D01*
X10628376Y6682790D01*
X10634218Y6672072D01*
X10641482Y6662318D01*
X10650118Y6653682D01*
X10659872Y6646418D01*
X10670590Y6640575D01*
X10682020Y6636308D01*
X10693958Y6633718D01*
G37*
G36*
X7879588Y6786575D02*
G01*
X7900314Y6787997D01*
X7920786Y6791248D01*
X7940903Y6796430D01*
X7960461Y6803390D01*
X7979308Y6812076D01*
X7997291Y6822440D01*
X8014208Y6834428D01*
X8030006Y6847890D01*
X8044535Y6862724D01*
X8057642Y6878828D01*
X8069224Y6896049D01*
X8079181Y6914235D01*
X8087410Y6933285D01*
X8093913Y6952996D01*
X8098637Y6973214D01*
X8101431Y6993737D01*
X8102396Y7014464D01*
X8101431Y7035241D01*
X8098637Y7055764D01*
X8093913Y7075982D01*
X8087410Y7095693D01*
X8079181Y7114743D01*
X8069224Y7132929D01*
X8057642Y7150150D01*
X8044535Y7166254D01*
X8030006Y7181088D01*
X8014208Y7194550D01*
X7997291Y7206538D01*
X7979308Y7216902D01*
X7960461Y7225588D01*
X7940903Y7232548D01*
X7920786Y7237730D01*
X7900314Y7240981D01*
X7879588Y7242403D01*
X7858861Y7241946D01*
X7838236Y7239609D01*
X7817916Y7235342D01*
X7798053Y7229297D01*
X7778851Y7221474D01*
X7760411Y7211923D01*
X7742936Y7200747D01*
X7726527Y7187996D01*
X7711389Y7173874D01*
X7697571Y7158380D01*
X7685227Y7141667D01*
X7674406Y7123938D01*
X7665313Y7105294D01*
X7657896Y7085939D01*
X7652308Y7065924D01*
X7648549Y7045553D01*
X7646670Y7024878D01*
X7646670Y7004100D01*
X7648549Y6983425D01*
X7652308Y6963054D01*
X7657896Y6943039D01*
X7665313Y6923684D01*
X7674406Y6905040D01*
X7685227Y6887311D01*
X7697571Y6870598D01*
X7711389Y6855104D01*
X7726527Y6840981D01*
X7742936Y6828231D01*
X7760411Y6817055D01*
X7778851Y6807504D01*
X7798053Y6799681D01*
X7817916Y6793636D01*
X7838236Y6789369D01*
X7858861Y6787032D01*
G37*
G36*
X3401517Y6741464D02*
G01*
X3558082Y6741464D01*
X3567277Y6742277D01*
X3575812Y6744563D01*
X3583787Y6748272D01*
X3590950Y6753301D01*
X3597198Y6759549D01*
X3602228Y6766712D01*
X3605936Y6774688D01*
X3608222Y6783222D01*
X3609035Y6792417D01*
X3609035Y6948982D01*
X3608222Y6958177D01*
X3605936Y6966712D01*
X3602228Y6974687D01*
X3597198Y6981850D01*
X3590950Y6988098D01*
X3583787Y6993128D01*
X3575812Y6996836D01*
X3567277Y6999122D01*
X3558082Y6999935D01*
X3401517Y6999935D01*
X3392322Y6999122D01*
X3383787Y6996836D01*
X3375812Y6993128D01*
X3368649Y6988098D01*
X3362401Y6981850D01*
X3357372Y6974687D01*
X3353663Y6966712D01*
X3351377Y6958177D01*
X3350564Y6948982D01*
X3350564Y6792417D01*
X3351377Y6783222D01*
X3353663Y6774688D01*
X3357372Y6766712D01*
X3362401Y6759549D01*
X3368649Y6753301D01*
X3375812Y6748272D01*
X3383787Y6744563D01*
X3392322Y6742277D01*
G37*
G36*
X6159500Y4410354D02*
G01*
X6171641Y4411218D01*
X6183579Y4413808D01*
X6195009Y4418076D01*
X6205728Y4423918D01*
X6215481Y4431182D01*
X6224117Y4439818D01*
X6231382Y4449572D01*
X6237224Y4460290D01*
X6241491Y4471720D01*
X6244082Y4483658D01*
X6244945Y4495800D01*
X6244082Y4507941D01*
X6241491Y4519879D01*
X6237224Y4531309D01*
X6231382Y4542028D01*
X6224117Y4551781D01*
X6215481Y4560417D01*
X6205728Y4567682D01*
X6195009Y4573524D01*
X6183579Y4577791D01*
X6171641Y4580382D01*
X6159500Y4581245D01*
X6147358Y4580382D01*
X6135420Y4577791D01*
X6123990Y4573524D01*
X6113272Y4567682D01*
X6103518Y4560417D01*
X6094882Y4551781D01*
X6087618Y4542028D01*
X6081776Y4531309D01*
X6077508Y4519879D01*
X6074918Y4507941D01*
X6074054Y4495800D01*
X6074918Y4483658D01*
X6077508Y4471720D01*
X6081776Y4460290D01*
X6087618Y4449572D01*
X6094882Y4439818D01*
X6103518Y4431182D01*
X6113272Y4423918D01*
X6123990Y4418076D01*
X6135420Y4413808D01*
X6147358Y4411218D01*
G37*

%LPD*%
D10*
G01*
X3479800Y6870700D03*
D11*
G01*
X3225800Y6870700D03*
D12*
G01*
X8661400Y643509D03*
G01*
X8661400Y7865490D03*
D10*
G01*
X3505200Y4381500D03*
D11*
G01*
X3505200Y4635500D03*
D10*
G01*
X3479800Y6426200D03*
D11*
G01*
X3225800Y6426200D03*
D13*
G01*
X3568700Y5905500D03*
G01*
X3568700Y5155488D03*
D14*
G01*
X3198698Y5530494D03*
D13*
G01*
X3568700Y8128000D03*
G01*
X3568700Y7377988D03*
D14*
G01*
X3198698Y7752994D03*
D10*
G01*
X12344400Y5676900D03*
D11*
G01*
X12598400Y5676900D03*
D10*
G01*
X12649200Y635000D03*
D11*
G01*
X12903200Y635000D03*
D10*
G01*
X13957300Y7886700D03*
D11*
G01*
X13957300Y8140700D03*
D15*
G01*
X15341447Y2450896D03*
D16*
G01*
X15468447Y3111296D03*
D15*
G01*
X15341447Y3771696D03*
D16*
G01*
X15468447Y2704896D03*
G01*
X15468447Y2908096D03*
G01*
X15468447Y3314496D03*
G01*
X15468447Y3517696D03*
D17*
G01*
X15059304Y6895896D03*
G01*
X15059304Y7759903D03*
D18*
G01*
X15477312Y7759903D03*
G01*
X15477312Y6895896D03*
D10*
G01*
X10325100Y7658100D03*
D11*
G01*
X10071100Y7658100D03*
D19*
G01*
X15540812Y4341393D03*
G01*
X15540812Y4791405D03*
D20*
G01*
X15290800Y4216400D03*
G01*
X15290800Y4916398D03*
D19*
G01*
X15540812Y5420893D03*
G01*
X15540812Y5870905D03*
D20*
G01*
X15290800Y5295900D03*
G01*
X15290800Y5995898D03*
D21*
G01*
X5740400Y7213600D03*
G01*
X5880100Y7213600D03*
G01*
X6108700Y6553200D03*
G01*
X6781800Y5969000D03*
G01*
X6540500Y5956300D03*
G01*
X4533900Y6946900D03*
G01*
X4775200Y6223000D03*
G01*
X4775200Y7696200D03*
G01*
X5105400Y4343400D03*
G01*
X6159500Y4622800D03*
G01*
X6299200Y4051300D03*
G01*
X6159500Y4495800D03*
G01*
X6172200Y3048000D03*
G01*
X4965700Y1778000D03*
G01*
X6273800Y2540000D03*
G01*
X6362700Y1790700D03*
G01*
X6845300Y2146300D03*
G01*
X5791200Y2197100D03*
G01*
X5740400Y2971800D03*
G01*
X6184900Y520700D03*
G01*
X6184900Y711200D03*
G01*
X6845300Y2628900D03*
G01*
X5346700Y2768600D03*
G01*
X5842000Y2794000D03*
G01*
X5257800Y2641600D03*
G01*
X13382091Y7274610D03*
G01*
X12484100Y7188200D03*
G01*
X14859000Y7086600D03*
G01*
X14503400Y6223000D03*
G01*
X14859000Y6934200D03*
G01*
X14884400Y7708900D03*
G01*
X13347700Y6781800D03*
G01*
X13347700Y7010400D03*
G01*
X14859000Y7454900D03*
G01*
X11214100Y6616700D03*
G01*
X11214100Y6616700D03*
G01*
X11772900Y8191500D03*
G01*
X11798300Y6108700D03*
G01*
X10591800Y6794500D03*
G01*
X10591800Y6388100D03*
G01*
X11252200Y6896100D03*
G01*
X10972800Y6540500D03*
G01*
X11074400Y6540500D03*
G01*
X11074400Y6438900D03*
G01*
X10972800Y6438900D03*
G01*
X11023600Y6489700D03*
G01*
X12966700Y4432300D03*
G01*
X11684000Y5130800D03*
G01*
X14439900Y901700D03*
G01*
X6781800Y7785100D03*
G01*
X5600700Y5727700D03*
G01*
X5867400Y5270500D03*
G01*
X6235700Y5638800D03*
G01*
X10210800Y6896100D03*
G01*
X10845800Y5727700D03*
G01*
X10401300Y5791200D03*
G01*
X12750800Y7696200D03*
G01*
X10782300Y571500D03*
G01*
X11455400Y1003300D03*
G01*
X11861800Y1752600D03*
G01*
X12903200Y825500D03*
G01*
X12788900Y901700D03*
G01*
X11760200Y1651000D03*
G01*
X14160500Y6400800D03*
G01*
X9880600Y1955800D03*
G01*
X9855200Y2565400D03*
G01*
X11430101Y3937000D03*
G01*
X13093700Y2616200D03*
G01*
X12255601Y3657600D03*
G01*
X12395301Y3657600D03*
G01*
X12471501Y3581400D03*
G01*
X12331801Y3581400D03*
G01*
X12192101Y3581400D03*
G01*
X12192101Y3441700D03*
G01*
X12331801Y3441700D03*
G01*
X12471501Y3441700D03*
G01*
X12395301Y3517900D03*
G01*
X12255601Y3517900D03*
G01*
X12255601Y3378200D03*
G01*
X12395301Y3378200D03*
G01*
X14732000Y4660900D03*
G01*
X14744700Y3378200D03*
G01*
X14744700Y2806700D03*
G01*
X14744700Y3937000D03*
G01*
X13092252Y4449038D03*
G01*
X13119100Y4787900D03*
G01*
X12700000Y4762500D03*
G01*
X13017500Y5524500D03*
G01*
X13576300Y1295400D03*
G01*
X14566900Y1460500D03*
G01*
X13284200Y1473200D03*
G01*
X13804900Y1625600D03*
G01*
X13627100Y609600D03*
G01*
X12433300Y228600D03*
G01*
X11290300Y495300D03*
G01*
X9906000Y5232400D03*
G01*
X12458700Y6045200D03*
G01*
X12712700Y2641600D03*
G01*
X12915900Y2933700D03*
G01*
X12776200Y6045200D03*
G01*
X12827000Y2794000D03*
G01*
X12611100Y5994400D03*
G01*
X12153900Y6477000D03*
G01*
X12458700Y4419600D03*
G01*
X12331700Y4419600D03*
G01*
X12204700Y4419600D03*
G01*
X11823700Y3619500D03*
G01*
X11049000Y762000D03*
G01*
X13487400Y6019800D03*
G01*
X12687300Y6718300D03*
G01*
X14719300Y5448300D03*
G01*
X10795000Y3073400D03*
G01*
X10706100Y6718300D03*
G01*
X13220700Y7937500D03*
G01*
X13220700Y8102600D03*
G01*
X15405100Y495300D03*
G01*
X15379700Y241300D03*
G01*
X6959600Y2019300D03*
G01*
X6172200Y1892300D03*
G01*
X11595100Y3759200D03*
G01*
X11709400Y2743200D03*
G01*
X9398000Y2933700D03*
G01*
X9398000Y2717800D03*
G01*
X6997700Y1879600D03*
G01*
X9220200Y3009900D03*
G01*
X11684000Y2882900D03*
G01*
X11315700Y889000D03*
G01*
X11684000Y3581400D03*
G01*
X14592300Y1676400D03*
G01*
X3911600Y7950200D03*
G01*
X3911600Y7239000D03*
G01*
X3911600Y7732521D03*
G01*
X3911600Y7491221D03*
G01*
X3917111Y8370900D03*
G01*
X4067352Y8370900D03*
G01*
X4318812Y8370900D03*
G01*
X4575352Y8370900D03*
G01*
X4826812Y8370900D03*
G01*
X4826812Y8370900D03*
G01*
X5083352Y8370900D03*
G01*
X5332272Y8370900D03*
G01*
X5588812Y8370900D03*
G01*
X5845352Y8370900D03*
G01*
X6099352Y8370900D03*
G01*
X6353352Y8370900D03*
G01*
X6604812Y8370900D03*
G01*
X6856272Y8370900D03*
G01*
X7069632Y8370900D03*
G01*
X7277100Y8370900D03*
G01*
X7277100Y8120837D03*
G01*
X7277100Y7862112D03*
G01*
X7277100Y7608112D03*
G01*
X7277100Y7344714D03*
G01*
X7277100Y7104837D03*
G01*
X7277100Y6731000D03*
G01*
X7277100Y6926097D03*
G01*
X7277100Y5626100D03*
G01*
X7277100Y5463235D03*
G01*
X7277100Y5251577D03*
G01*
X7277100Y5044592D03*
G01*
X7277100Y4802962D03*
G01*
X7277100Y4565904D03*
G01*
X7277100Y4298340D03*
G01*
X7277100Y4051122D03*
G01*
X7277100Y3800500D03*
G01*
X7277100Y3390900D03*
G01*
X7083043Y3390900D03*
G01*
X6856984Y3390900D03*
G01*
X6608063Y3390900D03*
G01*
X6361684Y3390900D03*
G01*
X6084824Y3390900D03*
G01*
X5848604Y3390900D03*
G01*
X5586984Y3390900D03*
G01*
X5332984Y3390900D03*
G01*
X5081701Y3390900D03*
G01*
X4822621Y3390900D03*
G01*
X4571161Y3390900D03*
G01*
X4312081Y3390900D03*
G01*
X4108881Y3390900D03*
G01*
X3917111Y3390900D03*
G01*
X3917111Y3664813D03*
G01*
X3917111Y3857853D03*
G01*
X3917111Y4040733D03*
G01*
X3917111Y4228693D03*
G01*
X3917111Y4432300D03*
G01*
X3911600Y4864100D03*
G01*
X3911600Y5080000D03*
G01*
X3911600Y5295900D03*
G01*
X3911600Y5702300D03*
G01*
X3911600Y5499100D03*
G01*
X3911600Y6946900D03*
G01*
X3911600Y6667500D03*
G01*
X3911600Y6400800D03*
G01*
X3911600Y6108700D03*
G01*
X7988300Y5969000D03*
G01*
X7366000Y6565900D03*
G01*
X7569200Y6388100D03*
G01*
X7772400Y6172200D03*
G01*
X8128000Y3048000D03*
G01*
X7924800Y3048000D03*
G01*
X7721600Y3048000D03*
G01*
X6502400Y139700D03*
G01*
X6718300Y139700D03*
G01*
X7721600Y6756400D03*
G01*
X8001000Y6743700D03*
G01*
X8661400Y469900D03*
G01*
X8483600Y647700D03*
G01*
X8839200Y647700D03*
G01*
X8153400Y6819900D03*
G01*
X7523505Y5433110D03*
G01*
X7523505Y5233111D03*
G01*
X7523505Y5033111D03*
G01*
X7523505Y4833112D03*
G01*
X7523505Y4633112D03*
G01*
X7523505Y4433112D03*
G01*
X7523505Y4233113D03*
G01*
X7523505Y4033113D03*
G01*
X7523505Y3833113D03*
G01*
X7523505Y3633114D03*
G01*
X7523505Y3433114D03*
G01*
X7523505Y3233115D03*
G01*
X7523505Y3033115D03*
G01*
X7723504Y5233111D03*
G01*
X7723504Y5033111D03*
G01*
X7723504Y4833112D03*
G01*
X7723504Y4633112D03*
G01*
X7723504Y4433112D03*
G01*
X7723504Y4233113D03*
G01*
X7723504Y4033113D03*
G01*
X7723504Y3833113D03*
G01*
X7723504Y3633114D03*
G01*
X7723504Y3433114D03*
G01*
X7723504Y3233115D03*
G01*
X7923504Y5033111D03*
G01*
X7923504Y4833112D03*
G01*
X7923504Y4633112D03*
G01*
X7923504Y4433112D03*
G01*
X7923504Y4233113D03*
G01*
X7923504Y4033113D03*
G01*
X7923504Y3833113D03*
G01*
X7923504Y3633114D03*
G01*
X7923504Y3433114D03*
G01*
X7923504Y3233115D03*
G01*
X8123504Y4833112D03*
G01*
X8123504Y4633112D03*
G01*
X8123504Y4433112D03*
G01*
X8123504Y4233113D03*
G01*
X8123504Y4033113D03*
G01*
X8123504Y3833113D03*
G01*
X8123504Y3633114D03*
G01*
X8123504Y3433114D03*
G01*
X8123504Y3233115D03*
G01*
X2930296Y8385378D03*
G01*
X2930296Y8185378D03*
G01*
X2930296Y7985379D03*
G01*
X2930296Y7785379D03*
G01*
X2930296Y7585379D03*
G01*
X2930296Y7385380D03*
G01*
X2930296Y7185380D03*
G01*
X2930296Y6985380D03*
G01*
X2930296Y6785381D03*
G01*
X2930296Y6585381D03*
G01*
X2930296Y6385382D03*
G01*
X2930296Y6185382D03*
G01*
X2930296Y5985382D03*
G01*
X2930296Y5785383D03*
G01*
X2930296Y5585383D03*
G01*
X2930296Y5385384D03*
G01*
X2930296Y5185384D03*
G01*
X2930296Y4985385D03*
G01*
X2930296Y4785385D03*
G01*
X2930296Y4585385D03*
G01*
X2930296Y4385386D03*
G01*
X2930296Y4185386D03*
G01*
X2930296Y3985387D03*
G01*
X2930296Y3785387D03*
G01*
X2930296Y3585387D03*
G01*
X2930296Y3385388D03*
G01*
X2930296Y3185388D03*
G01*
X2930296Y2985388D03*
G01*
X3130295Y8385378D03*
G01*
X3130295Y3385388D03*
G01*
X3130295Y3185388D03*
G01*
X3130295Y2985388D03*
G01*
X3130295Y2785389D03*
G01*
X3330295Y8385378D03*
G01*
X3330295Y3185388D03*
G01*
X3330295Y2985388D03*
G01*
X3330295Y2785389D03*
G01*
X3330295Y2585389D03*
G01*
X3530295Y8385378D03*
G01*
X3530295Y2985388D03*
G01*
X3530295Y2785389D03*
G01*
X3530295Y2585389D03*
G01*
X3530295Y2385390D03*
G01*
X3730294Y8385378D03*
G01*
X3730294Y2785389D03*
G01*
X3730294Y2585389D03*
G01*
X3730294Y2385390D03*
G01*
X3730294Y2185390D03*
G01*
X3930294Y2585389D03*
G01*
X3930294Y2385390D03*
G01*
X3930294Y2185390D03*
G01*
X3930294Y1985390D03*
G01*
X3930294Y1785391D03*
G01*
X3930294Y1585391D03*
G01*
X3930294Y1385392D03*
G01*
X3930294Y1185392D03*
G01*
X3930294Y985393D03*
G01*
X3930294Y785393D03*
G01*
X3930294Y585393D03*
G01*
X3930294Y385394D03*
G01*
X3930294Y185394D03*
G01*
X4130293Y2585389D03*
G01*
X4130293Y2385390D03*
G01*
X4130293Y2185390D03*
G01*
X4130293Y1985390D03*
G01*
X4130293Y1785391D03*
G01*
X4130293Y1585391D03*
G01*
X4130293Y1385392D03*
G01*
X4130293Y1185392D03*
G01*
X4130293Y985393D03*
G01*
X4130293Y785393D03*
G01*
X4130293Y585393D03*
G01*
X4130293Y385394D03*
G01*
X4130293Y185394D03*
G01*
X4330293Y2585389D03*
G01*
X4330293Y2385390D03*
G01*
X4330293Y2185390D03*
G01*
X4330293Y1985390D03*
G01*
X4330293Y1785391D03*
G01*
X4330293Y1585391D03*
G01*
X4330293Y1385392D03*
G01*
X4330293Y1185392D03*
G01*
X4330293Y985393D03*
G01*
X4330293Y785393D03*
G01*
X4330293Y585393D03*
G01*
X4330293Y385394D03*
G01*
X4330293Y185394D03*
G01*
X7530287Y8385378D03*
G01*
X7530287Y8185378D03*
G01*
X7530287Y7985379D03*
G01*
X7530287Y7785379D03*
G01*
X7530287Y7585379D03*
G01*
X7530287Y7385380D03*
G01*
X7530287Y7185380D03*
G01*
X7530287Y6985380D03*
G01*
X7530287Y6785381D03*
G01*
X7530287Y6585381D03*
G01*
X7530287Y585393D03*
G01*
X7530287Y385394D03*
G01*
X7530287Y185394D03*
G01*
X7730286Y8385378D03*
G01*
X7730286Y8185378D03*
G01*
X7730286Y7985379D03*
G01*
X7730286Y7785379D03*
G01*
X7730286Y7585379D03*
G01*
X7730286Y7385380D03*
G01*
X7730286Y6585381D03*
G01*
X7730286Y6385382D03*
G01*
X7730286Y585393D03*
G01*
X7730286Y385394D03*
G01*
X7730286Y185394D03*
G01*
X7930286Y8385378D03*
G01*
X7930286Y8185378D03*
G01*
X7930286Y7985379D03*
G01*
X7930286Y7785379D03*
G01*
X7930286Y7585379D03*
G01*
X7930286Y7385380D03*
G01*
X7930286Y6585381D03*
G01*
X7930286Y6385382D03*
G01*
X7930286Y6185382D03*
G01*
X7930286Y785393D03*
G01*
X7930286Y585393D03*
G01*
X7930286Y385394D03*
G01*
X7930286Y185394D03*
G01*
X4530293Y185394D03*
G01*
X4730292Y185394D03*
G01*
X4930292Y185394D03*
G01*
X5130291Y185394D03*
G01*
X5330291Y185394D03*
G01*
X5530291Y185394D03*
G01*
X5730290Y185394D03*
G01*
X5930290Y185394D03*
G01*
X6130290Y185394D03*
G01*
X6330289Y185394D03*
G01*
X6930288Y185394D03*
G01*
X7130288Y185394D03*
G01*
X7330287Y185394D03*
G01*
X7489088Y2567304D03*
G01*
X7489088Y2367305D03*
G01*
X7489088Y2167305D03*
G01*
X7489088Y1967306D03*
G01*
X7489088Y1767306D03*
G01*
X7489088Y1567306D03*
G01*
X7489088Y1367307D03*
G01*
X7689088Y2567304D03*
G01*
X7689088Y2367305D03*
G01*
X7689088Y2167305D03*
G01*
X7689088Y1967306D03*
G01*
X7689088Y1767306D03*
G01*
X7689088Y1567306D03*
G01*
X7689088Y1367307D03*
G01*
X7889087Y2567304D03*
G01*
X7889087Y2367305D03*
G01*
X7889087Y2167305D03*
G01*
X7889087Y1967306D03*
G01*
X7889087Y1767306D03*
G01*
X7889087Y1567306D03*
G01*
X7889087Y1367307D03*
G01*
X8089087Y2567304D03*
G01*
X8089087Y2367305D03*
G01*
X8089087Y2167305D03*
G01*
X8089087Y1967306D03*
G01*
X8089087Y1767306D03*
G01*
X8089087Y1567306D03*
G01*
X8089087Y1367307D03*
G01*
X4530293Y185394D03*
G01*
X4730292Y185394D03*
G01*
X4930292Y185394D03*
G01*
X5130291Y185394D03*
G01*
X5330291Y185394D03*
G01*
X5530291Y185394D03*
G01*
X5730290Y185394D03*
G01*
X5930290Y185394D03*
G01*
X6130290Y185394D03*
G01*
X6330289Y185394D03*
G01*
X6930288Y185394D03*
G01*
X7130288Y185394D03*
G01*
X7330287Y185394D03*
G01*
X7530287Y785393D03*
G01*
X7730286Y785393D03*
G01*
X7489088Y2567304D03*
G01*
X7489088Y2367305D03*
G01*
X7489088Y2167305D03*
G01*
X7489088Y1967306D03*
G01*
X7489088Y1767306D03*
G01*
X7489088Y1567306D03*
G01*
X7489088Y1367307D03*
G01*
X7689088Y2567304D03*
G01*
X7689088Y2367305D03*
G01*
X7689088Y2167305D03*
G01*
X7689088Y1967306D03*
G01*
X7689088Y1767306D03*
G01*
X7689088Y1567306D03*
G01*
X7689088Y1367307D03*
G01*
X7889087Y2567304D03*
G01*
X7889087Y2367305D03*
G01*
X7889087Y2167305D03*
G01*
X7889087Y1967306D03*
G01*
X7889087Y1767306D03*
G01*
X7889087Y1567306D03*
G01*
X7889087Y1367307D03*
G01*
X8089087Y2567304D03*
G01*
X8089087Y2367305D03*
G01*
X8089087Y2167305D03*
G01*
X8089087Y1967306D03*
G01*
X8089087Y1767306D03*
G01*
X8089087Y1567306D03*
G01*
X8089087Y1367307D03*
G01*
X4530293Y185394D03*
G01*
X4730292Y185394D03*
G01*
X4930292Y185394D03*
G01*
X5130291Y185394D03*
G01*
X5330291Y185394D03*
G01*
X5530291Y185394D03*
G01*
X5730290Y185394D03*
G01*
X5930290Y185394D03*
G01*
X6130290Y185394D03*
G01*
X6330289Y185394D03*
G01*
X6930288Y185394D03*
G01*
X7130288Y185394D03*
G01*
X7330287Y185394D03*
G01*
X7530287Y785393D03*
G01*
X7730286Y785393D03*
G01*
X7489088Y2567304D03*
G01*
X7489088Y2367305D03*
G01*
X7489088Y2167305D03*
G01*
X7489088Y1967306D03*
G01*
X7489088Y1767306D03*
G01*
X7489088Y1567306D03*
G01*
X7489088Y1367307D03*
G01*
X7689088Y2567304D03*
G01*
X7689088Y2367305D03*
G01*
X7689088Y2167305D03*
G01*
X7689088Y1967306D03*
G01*
X7689088Y1767306D03*
G01*
X7689088Y1567306D03*
G01*
X7689088Y1367307D03*
G01*
X7889087Y2567304D03*
G01*
X7889087Y2367305D03*
G01*
X7889087Y2167305D03*
G01*
X7889087Y1967306D03*
G01*
X7889087Y1767306D03*
G01*
X7889087Y1567306D03*
G01*
X7889087Y1367307D03*
G01*
X8089087Y2567304D03*
G01*
X8089087Y2367305D03*
G01*
X8089087Y2167305D03*
G01*
X8089087Y1967306D03*
G01*
X8089087Y1767306D03*
G01*
X8089087Y1567306D03*
G01*
X8089087Y1367307D03*
G01*
X3930294Y2785389D03*
G01*
X4130293Y2785389D03*
G01*
X4330293Y2785389D03*
G01*
X4530293Y185394D03*
G01*
X4730292Y185394D03*
G01*
X4930292Y185394D03*
G01*
X5130291Y185394D03*
G01*
X5330291Y185394D03*
G01*
X5530291Y185394D03*
G01*
X5730290Y185394D03*
G01*
X5930290Y185394D03*
G01*
X6130290Y185394D03*
G01*
X6330289Y185394D03*
G01*
X6930288Y185394D03*
G01*
X7130288Y185394D03*
G01*
X7330287Y185394D03*
G01*
X7530287Y785393D03*
G01*
X7730286Y785393D03*
G01*
X7489088Y2567304D03*
G01*
X7489088Y2367305D03*
G01*
X7489088Y2167305D03*
G01*
X7489088Y1967306D03*
G01*
X7489088Y1767306D03*
G01*
X7489088Y1567306D03*
G01*
X7489088Y1367307D03*
G01*
X7689088Y2567304D03*
G01*
X7689088Y2367305D03*
G01*
X7689088Y2167305D03*
G01*
X7689088Y1967306D03*
G01*
X7689088Y1767306D03*
G01*
X7689088Y1567306D03*
G01*
X7689088Y1367307D03*
G01*
X7889087Y2567304D03*
G01*
X7889087Y2367305D03*
G01*
X7889087Y2167305D03*
G01*
X7889087Y1967306D03*
G01*
X7889087Y1767306D03*
G01*
X7889087Y1567306D03*
G01*
X7889087Y1367307D03*
G01*
X8089087Y2567304D03*
G01*
X8089087Y2367305D03*
G01*
X8089087Y2167305D03*
G01*
X8089087Y1967306D03*
G01*
X8089087Y1767306D03*
G01*
X8089087Y1567306D03*
G01*
X8089087Y1367307D03*
G01*
X3930294Y2785389D03*
G01*
X4130293Y2785389D03*
G01*
X4330293Y2785389D03*
G01*
X4530293Y185394D03*
G01*
X4730292Y185394D03*
G01*
X4930292Y185394D03*
G01*
X5130291Y185394D03*
G01*
X5330291Y185394D03*
G01*
X5530291Y185394D03*
G01*
X5730290Y185394D03*
G01*
X5930290Y185394D03*
G01*
X6130290Y185394D03*
G01*
X6330289Y185394D03*
G01*
X6930288Y185394D03*
G01*
X7130288Y185394D03*
G01*
X7330287Y185394D03*
G01*
X7530287Y785393D03*
G01*
X7730286Y785393D03*
G01*
X8130286Y8385378D03*
G01*
X8130286Y8185378D03*
G01*
X8130286Y7985379D03*
G01*
X8130286Y7785379D03*
G01*
X8130286Y7585379D03*
G01*
X8130286Y7385380D03*
G01*
X8153400Y7048500D03*
G01*
X8130286Y6585381D03*
G01*
X8130286Y6385382D03*
G01*
X8130286Y6185382D03*
G01*
X8130286Y5985382D03*
G01*
X7489088Y2567304D03*
G01*
X7489088Y2367305D03*
G01*
X7489088Y2167305D03*
G01*
X7489088Y1967306D03*
G01*
X7489088Y1767306D03*
G01*
X7489088Y1567306D03*
G01*
X7489088Y1367307D03*
G01*
X7689088Y2567304D03*
G01*
X7689088Y2367305D03*
G01*
X7689088Y2167305D03*
G01*
X7689088Y1967306D03*
G01*
X7689088Y1767306D03*
G01*
X7689088Y1567306D03*
G01*
X7689088Y1367307D03*
G01*
X7889087Y2567304D03*
G01*
X7889087Y2367305D03*
G01*
X7889087Y2167305D03*
G01*
X7889087Y1967306D03*
G01*
X7889087Y1767306D03*
G01*
X7889087Y1567306D03*
G01*
X7889087Y1367307D03*
G01*
X8089087Y2567304D03*
G01*
X8089087Y2367305D03*
G01*
X8089087Y2167305D03*
G01*
X8089087Y1967306D03*
G01*
X8089087Y1767306D03*
G01*
X8089087Y1567306D03*
G01*
X8089087Y1367307D03*
G01*
X3930294Y2785389D03*
G01*
X4130293Y2785389D03*
G01*
X4330293Y2785389D03*
G01*
X4530293Y185394D03*
G01*
X4730292Y185394D03*
G01*
X4930292Y185394D03*
G01*
X5130291Y185394D03*
G01*
X5330291Y185394D03*
G01*
X5530291Y185394D03*
G01*
X5730290Y185394D03*
G01*
X5930290Y185394D03*
G01*
X6130290Y185394D03*
G01*
X6330289Y185394D03*
G01*
X6930288Y185394D03*
G01*
X7130288Y185394D03*
G01*
X7330287Y185394D03*
G01*
X7530287Y785393D03*
G01*
X7730286Y785393D03*
G01*
X8130286Y8385378D03*
G01*
X8130286Y8185378D03*
G01*
X8130286Y7985379D03*
G01*
X8130286Y7785379D03*
G01*
X8130286Y7585379D03*
G01*
X8130286Y7385380D03*
G01*
X8130286Y6585381D03*
G01*
X8130286Y6385382D03*
G01*
X8130286Y6185382D03*
G01*
X8130286Y5985382D03*
G01*
X7489088Y2567304D03*
G01*
X7489088Y2367305D03*
G01*
X7489088Y2167305D03*
G01*
X7489088Y1967306D03*
G01*
X7489088Y1767306D03*
G01*
X7489088Y1567306D03*
G01*
X7489088Y1367307D03*
G01*
X7689088Y2567304D03*
G01*
X7689088Y2367305D03*
G01*
X7689088Y2167305D03*
G01*
X7689088Y1967306D03*
G01*
X7689088Y1767306D03*
G01*
X7689088Y1567306D03*
G01*
X7689088Y1367307D03*
G01*
X7889087Y2567304D03*
G01*
X7889087Y2367305D03*
G01*
X7889087Y2167305D03*
G01*
X7889087Y1967306D03*
G01*
X7889087Y1767306D03*
G01*
X7889087Y1567306D03*
G01*
X7889087Y1367307D03*
G01*
X8089087Y2567304D03*
G01*
X8089087Y2367305D03*
G01*
X8089087Y2167305D03*
G01*
X8089087Y1967306D03*
G01*
X8089087Y1767306D03*
G01*
X8089087Y1567306D03*
G01*
X8089087Y1367307D03*
G01*
X3930294Y2785389D03*
G01*
X4130293Y2785389D03*
G01*
X4330293Y2785389D03*
G01*
X4530293Y185394D03*
G01*
X4730292Y185394D03*
G01*
X4930292Y185394D03*
G01*
X5130291Y185394D03*
G01*
X5330291Y185394D03*
G01*
X5530291Y185394D03*
G01*
X5730290Y185394D03*
G01*
X5930290Y185394D03*
G01*
X6130290Y185394D03*
G01*
X6330289Y185394D03*
G01*
X6930288Y185394D03*
G01*
X7130288Y185394D03*
G01*
X7330287Y185394D03*
G01*
X7530287Y785393D03*
G01*
X7730286Y785393D03*
G01*
X8130286Y8385378D03*
G01*
X8130286Y8185378D03*
G01*
X8130286Y7985379D03*
G01*
X8130286Y7785379D03*
G01*
X8130286Y7585379D03*
G01*
X8130286Y7385380D03*
G01*
X8130286Y6585381D03*
G01*
X8130286Y6385382D03*
G01*
X8130286Y6185382D03*
G01*
X8130286Y5985382D03*
G01*
X8130286Y785393D03*
G01*
X8130286Y585393D03*
G01*
X8130286Y385394D03*
G01*
X8130286Y185394D03*
G01*
X4089400Y3632200D03*
G01*
X4262881Y3633114D03*
G01*
X4462881Y3633114D03*
G01*
X4662881Y3633114D03*
G01*
X4862880Y3633114D03*
G01*
X5062880Y3633114D03*
G01*
X5262879Y3633114D03*
G01*
X5462879Y3633114D03*
G01*
X5662879Y3633114D03*
G01*
X5862878Y3633114D03*
G01*
X6062878Y3633114D03*
G01*
X6262877Y3633114D03*
G01*
X6462877Y3633114D03*
G01*
X6662877Y3633114D03*
G01*
X6862876Y3633114D03*
G01*
X7062876Y3633114D03*
G01*
X7489088Y2567304D03*
G01*
X7489088Y2367305D03*
G01*
X7489088Y2167305D03*
G01*
X7489088Y1967306D03*
G01*
X7489088Y1767306D03*
G01*
X7489088Y1567306D03*
G01*
X7489088Y1367307D03*
G01*
X7689088Y2567304D03*
G01*
X7689088Y2367305D03*
G01*
X7689088Y2167305D03*
G01*
X7689088Y1967306D03*
G01*
X7689088Y1767306D03*
G01*
X7689088Y1567306D03*
G01*
X7689088Y1367307D03*
G01*
X7889087Y2567304D03*
G01*
X7889087Y2367305D03*
G01*
X7889087Y2167305D03*
G01*
X7889087Y1967306D03*
G01*
X7889087Y1767306D03*
G01*
X7889087Y1567306D03*
G01*
X7889087Y1367307D03*
G01*
X8089087Y2567304D03*
G01*
X8089087Y2367305D03*
G01*
X8089087Y2167305D03*
G01*
X8089087Y1967306D03*
G01*
X8089087Y1767306D03*
G01*
X8089087Y1567306D03*
G01*
X8089087Y1367307D03*
G01*
X3930294Y2785389D03*
G01*
X4130293Y2785389D03*
G01*
X4330293Y2785389D03*
G01*
X4530293Y185394D03*
G01*
X4730292Y185394D03*
G01*
X4930292Y185394D03*
G01*
X5130291Y185394D03*
G01*
X5330291Y185394D03*
G01*
X5530291Y185394D03*
G01*
X5730290Y185394D03*
G01*
X5930290Y185394D03*
G01*
X6130290Y185394D03*
G01*
X6330289Y185394D03*
G01*
X6930288Y185394D03*
G01*
X7130288Y185394D03*
G01*
X7330287Y185394D03*
G01*
X7530287Y785393D03*
G01*
X7730286Y785393D03*
G01*
X8130286Y8385378D03*
G01*
X8130286Y8185378D03*
G01*
X8130286Y7985379D03*
G01*
X8130286Y7785379D03*
G01*
X8130286Y7585379D03*
G01*
X8130286Y7385380D03*
G01*
X8130286Y6585381D03*
G01*
X8130286Y6385382D03*
G01*
X8130286Y6185382D03*
G01*
X8130286Y5985382D03*
G01*
X8130286Y785393D03*
G01*
X8130286Y585393D03*
G01*
X8130286Y385394D03*
G01*
X8130286Y185394D03*
G01*
X5308600Y1790700D03*
G01*
X11071656Y7969605D03*
G01*
X11214100Y7886700D03*
G01*
X11214100Y8051800D03*
G01*
X11404600Y8064500D03*
G01*
X11598503Y8064500D03*
G01*
X10007600Y8178800D03*
G01*
X10871200Y7531100D03*
G01*
X9220200Y2628900D03*
G01*
X11633200Y1003300D03*
G01*
X9512300Y5245100D03*
M02*
